%TF.GenerationSoftware,KiCad,Pcbnew,9.0.4*%
%TF.CreationDate,2025-11-05T21:14:26-05:00*%
%TF.ProjectId,Alpha_Breakout,416c7068-615f-4427-9265-616b6f75742e,rev?*%
%TF.SameCoordinates,Original*%
%TF.FileFunction,Legend,Bot*%
%TF.FilePolarity,Positive*%
%FSLAX46Y46*%
G04 Gerber Fmt 4.6, Leading zero omitted, Abs format (unit mm)*
G04 Created by KiCad (PCBNEW 9.0.4) date 2025-11-05 21:14:26*
%MOMM*%
%LPD*%
G01*
G04 APERTURE LIST*
%ADD10C,0.250000*%
%ADD11C,0.508000*%
G04 APERTURE END LIST*
D10*
G36*
X152017027Y-72192916D02*
G01*
X152017027Y-73015526D01*
X151686810Y-73015526D01*
X151686810Y-73250000D01*
X152290579Y-73250000D01*
X152290579Y-72192916D01*
X152017027Y-72192916D01*
G37*
G36*
X151314584Y-72530949D02*
G01*
X151314584Y-72936819D01*
X151308714Y-72987676D01*
X151293050Y-73023579D01*
X151268670Y-73048535D01*
X151234089Y-73064356D01*
X151185624Y-73070237D01*
X151137159Y-73064356D01*
X151102578Y-73048535D01*
X151078198Y-73023579D01*
X151062534Y-72987676D01*
X151056664Y-72936819D01*
X151056664Y-72530949D01*
X150802651Y-72530949D01*
X150802651Y-72985484D01*
X150809293Y-73057170D01*
X150827917Y-73115952D01*
X150857584Y-73164439D01*
X150898761Y-73204387D01*
X150947771Y-73233993D01*
X151009909Y-73256830D01*
X151088057Y-73271860D01*
X151185624Y-73277355D01*
X151283191Y-73271860D01*
X151361340Y-73256830D01*
X151423477Y-73233993D01*
X151472487Y-73204387D01*
X151513664Y-73164439D01*
X151543331Y-73115952D01*
X151561955Y-73057170D01*
X151568597Y-72985484D01*
X151568597Y-72530949D01*
X151314584Y-72530949D01*
G37*
G36*
X150378646Y-72085450D02*
G01*
X150378646Y-72790273D01*
X150112665Y-72530949D01*
X149765474Y-72530949D01*
X150125305Y-72863119D01*
X149744469Y-73250000D01*
X150100087Y-73250000D01*
X150378646Y-72957030D01*
X150378646Y-73250000D01*
X150632658Y-73250000D01*
X150632658Y-72085450D01*
X150378646Y-72085450D01*
G37*
G36*
X149417457Y-72510730D02*
G01*
X149493998Y-72531010D01*
X149562646Y-72564547D01*
X149619234Y-72608923D01*
X149650834Y-72644675D01*
X149677407Y-72685437D01*
X149699040Y-72731777D01*
X149714284Y-72780719D01*
X149723735Y-72834563D01*
X149727006Y-72894016D01*
X149723587Y-72951433D01*
X149713682Y-73003609D01*
X149697636Y-73051247D01*
X149661945Y-73116773D01*
X149614349Y-73172025D01*
X149555735Y-73216344D01*
X149484900Y-73249938D01*
X149406684Y-73270293D01*
X149318326Y-73277355D01*
X149232091Y-73271478D01*
X149160019Y-73255022D01*
X149099739Y-73229222D01*
X149049337Y-73194546D01*
X149007471Y-73150668D01*
X148973468Y-73096493D01*
X148947383Y-73030242D01*
X149191503Y-73030242D01*
X149215186Y-73059940D01*
X149243134Y-73080582D01*
X149276137Y-73093175D01*
X149315640Y-73097592D01*
X149364629Y-73092569D01*
X149401770Y-73078879D01*
X149429872Y-73057461D01*
X149450573Y-73027677D01*
X149464074Y-72987425D01*
X149469085Y-72933461D01*
X148937613Y-72933461D01*
X148937613Y-72906777D01*
X148944550Y-72815615D01*
X148952276Y-72784961D01*
X149173368Y-72784961D01*
X149462124Y-72784961D01*
X149452178Y-72749511D01*
X149436584Y-72721092D01*
X149415413Y-72698438D01*
X149389205Y-72681775D01*
X149357799Y-72671402D01*
X149319853Y-72667725D01*
X149283805Y-72671446D01*
X149252535Y-72682176D01*
X149225026Y-72699842D01*
X149202090Y-72723353D01*
X149184932Y-72751448D01*
X149173368Y-72784961D01*
X148952276Y-72784961D01*
X148964235Y-72737517D01*
X148984993Y-72689198D01*
X149010635Y-72647046D01*
X149041172Y-72610389D01*
X149076866Y-72578734D01*
X149117717Y-72552305D01*
X149164331Y-72531010D01*
X149240064Y-72510718D01*
X149328096Y-72503593D01*
X149417457Y-72510730D01*
G37*
G36*
X147713834Y-72465736D02*
G01*
X147760112Y-72433401D01*
X147804326Y-72411758D01*
X147849539Y-72398423D01*
X147891887Y-72394173D01*
X147942008Y-72400872D01*
X147979509Y-72419391D01*
X147998561Y-72438223D01*
X148009621Y-72459844D01*
X148013398Y-72485275D01*
X148009039Y-72511212D01*
X147996484Y-72531559D01*
X147977449Y-72548121D01*
X147951971Y-72563066D01*
X147889872Y-72586209D01*
X147821362Y-72607213D01*
X147733997Y-72642981D01*
X147669330Y-72683109D01*
X147622976Y-72727015D01*
X147596227Y-72765934D01*
X147576663Y-72810722D01*
X147564399Y-72862450D01*
X147560083Y-72922470D01*
X147567160Y-73001077D01*
X147587500Y-73069626D01*
X147608632Y-73111591D01*
X147635209Y-73149061D01*
X147667489Y-73182466D01*
X147725003Y-73223508D01*
X147796632Y-73255312D01*
X147876251Y-73274473D01*
X147970045Y-73281263D01*
X148068402Y-73273788D01*
X148162488Y-73251557D01*
X148253412Y-73214338D01*
X148342088Y-73161217D01*
X148224912Y-72939200D01*
X148161614Y-72987843D01*
X148102547Y-73020228D01*
X148041565Y-73040330D01*
X147982929Y-73046789D01*
X147938866Y-73042818D01*
X147906233Y-73032172D01*
X147882301Y-73015954D01*
X147863501Y-72993770D01*
X147852806Y-72970655D01*
X147849267Y-72945856D01*
X147851482Y-72923087D01*
X147857693Y-72904518D01*
X147868514Y-72888175D01*
X147885781Y-72872278D01*
X147907329Y-72858637D01*
X147937011Y-72844923D01*
X148013581Y-72816896D01*
X148118239Y-72779771D01*
X148166964Y-72755939D01*
X148209525Y-72725793D01*
X148245352Y-72688158D01*
X148274127Y-72640980D01*
X148292008Y-72585698D01*
X148298674Y-72511287D01*
X148291973Y-72435298D01*
X148272723Y-72369016D01*
X148241232Y-72309430D01*
X148199694Y-72259656D01*
X148148138Y-72219591D01*
X148084595Y-72188825D01*
X148013825Y-72170146D01*
X147932187Y-72163607D01*
X147852990Y-72168930D01*
X147767934Y-72185528D01*
X147684125Y-72212537D01*
X147603620Y-72249886D01*
X147713834Y-72465736D01*
G37*
G36*
X146871318Y-72763590D02*
G01*
X146917055Y-72737924D01*
X146961402Y-72723286D01*
X147005225Y-72718527D01*
X147040974Y-72721743D01*
X147073613Y-72731167D01*
X147103449Y-72746507D01*
X147129300Y-72767070D01*
X147150540Y-72792339D01*
X147166669Y-72822025D01*
X147176584Y-72855051D01*
X147180041Y-72893161D01*
X147176617Y-72929991D01*
X147166669Y-72962831D01*
X147150674Y-72992554D01*
X147129972Y-73017725D01*
X147104624Y-73038178D01*
X147074345Y-73053628D01*
X147041073Y-73063113D01*
X147005225Y-73066329D01*
X146958965Y-73060987D01*
X146914665Y-73044877D01*
X146871318Y-73017053D01*
X146871318Y-73232841D01*
X146934961Y-73256020D01*
X146994050Y-73269215D01*
X147049371Y-73273447D01*
X147126251Y-73266718D01*
X147198665Y-73246763D01*
X147265452Y-73214146D01*
X147323412Y-73170193D01*
X147371738Y-73115646D01*
X147409630Y-73050697D01*
X147427305Y-73003326D01*
X147438144Y-72951810D01*
X147441870Y-72895420D01*
X147438316Y-72838881D01*
X147427953Y-72786849D01*
X147411034Y-72738677D01*
X147374364Y-72672303D01*
X147326953Y-72616434D01*
X147269089Y-72571082D01*
X147200069Y-72536322D01*
X147124415Y-72514813D01*
X147042411Y-72507501D01*
X146981645Y-72511969D01*
X146924863Y-72525121D01*
X146871318Y-72546885D01*
X146871318Y-72763590D01*
G37*
G36*
X146693510Y-72085450D02*
G01*
X146439497Y-72085450D01*
X146439497Y-72622540D01*
X146402592Y-72582734D01*
X146367758Y-72554986D01*
X146334534Y-72537177D01*
X146278447Y-72521086D01*
X146209848Y-72515317D01*
X146142123Y-72520658D01*
X146086831Y-72535519D01*
X146041626Y-72558806D01*
X146004745Y-72590361D01*
X145975291Y-72629640D01*
X145953738Y-72675585D01*
X145940177Y-72729476D01*
X145935380Y-72792960D01*
X145935380Y-73250000D01*
X146189392Y-73250000D01*
X146189392Y-72887726D01*
X146191759Y-72835831D01*
X146197819Y-72799677D01*
X146209458Y-72769089D01*
X146225785Y-72747897D01*
X146249532Y-72731656D01*
X146276230Y-72721892D01*
X146306751Y-72718527D01*
X146347924Y-72723201D01*
X146380072Y-72736177D01*
X146405303Y-72756995D01*
X146423503Y-72784595D01*
X146435212Y-72820406D01*
X146439497Y-72866782D01*
X146439497Y-73250000D01*
X146693510Y-73250000D01*
X146693510Y-72085450D01*
G37*
G36*
X145423005Y-72506992D02*
G01*
X145480374Y-72516911D01*
X145533784Y-72533086D01*
X145608143Y-72568483D01*
X145670132Y-72613869D01*
X145721152Y-72669689D01*
X145759586Y-72734586D01*
X145777384Y-72781816D01*
X145788126Y-72831477D01*
X145791765Y-72884124D01*
X145788045Y-72942454D01*
X145777222Y-72995826D01*
X145759586Y-73044958D01*
X145735251Y-73091169D01*
X145705720Y-73132443D01*
X145670804Y-73169216D01*
X145631152Y-73200838D01*
X145586382Y-73227514D01*
X145535921Y-73249267D01*
X145455170Y-73270153D01*
X145365256Y-73277355D01*
X145273890Y-73270169D01*
X145191172Y-73249267D01*
X145139246Y-73227498D01*
X145093565Y-73201027D01*
X145053480Y-73169888D01*
X145002353Y-73113861D01*
X144963293Y-73047766D01*
X144945204Y-72999535D01*
X144934162Y-72947577D01*
X144930382Y-72891207D01*
X144930478Y-72889741D01*
X145197766Y-72889741D01*
X145201131Y-72923930D01*
X145211017Y-72955137D01*
X145226488Y-72983612D01*
X145245943Y-73007894D01*
X145269531Y-73027860D01*
X145297601Y-73043065D01*
X145328344Y-73052523D01*
X145361043Y-73055704D01*
X145393750Y-73052524D01*
X145424546Y-73043065D01*
X145452576Y-73027867D01*
X145476203Y-73007894D01*
X145495624Y-72983618D01*
X145511130Y-72955137D01*
X145520983Y-72923746D01*
X145524380Y-72888337D01*
X145521034Y-72855525D01*
X145511130Y-72825139D01*
X145495664Y-72797224D01*
X145476203Y-72773054D01*
X145452576Y-72753081D01*
X145424546Y-72737883D01*
X145393750Y-72728424D01*
X145361043Y-72725244D01*
X145328344Y-72728425D01*
X145297601Y-72737883D01*
X145269531Y-72753088D01*
X145245943Y-72773054D01*
X145226488Y-72797336D01*
X145211017Y-72825811D01*
X145201096Y-72856824D01*
X145197766Y-72889741D01*
X144930478Y-72889741D01*
X144934083Y-72834765D01*
X144944886Y-72782783D01*
X144962561Y-72734586D01*
X144986952Y-72689400D01*
X145016925Y-72648826D01*
X145052747Y-72612465D01*
X145115317Y-72567210D01*
X145189767Y-72532414D01*
X145271131Y-72510964D01*
X145361104Y-72503593D01*
X145423005Y-72506992D01*
G37*
G36*
X144530495Y-72085450D02*
G01*
X144530495Y-73250000D01*
X144784508Y-73250000D01*
X144784508Y-72085450D01*
X144530495Y-72085450D01*
G37*
G36*
X144103558Y-72085450D02*
G01*
X144103558Y-73250000D01*
X144357571Y-73250000D01*
X144357571Y-72085450D01*
X144103558Y-72085450D01*
G37*
G36*
X143648441Y-72510730D02*
G01*
X143724982Y-72531010D01*
X143793630Y-72564547D01*
X143850218Y-72608923D01*
X143881818Y-72644675D01*
X143908391Y-72685437D01*
X143930024Y-72731777D01*
X143945268Y-72780719D01*
X143954719Y-72834563D01*
X143957990Y-72894016D01*
X143954571Y-72951433D01*
X143944666Y-73003609D01*
X143928620Y-73051247D01*
X143892929Y-73116773D01*
X143845333Y-73172025D01*
X143786719Y-73216344D01*
X143715884Y-73249938D01*
X143637668Y-73270293D01*
X143549310Y-73277355D01*
X143463075Y-73271478D01*
X143391003Y-73255022D01*
X143330723Y-73229222D01*
X143280321Y-73194546D01*
X143238455Y-73150668D01*
X143204452Y-73096493D01*
X143178367Y-73030242D01*
X143422487Y-73030242D01*
X143446170Y-73059940D01*
X143474118Y-73080582D01*
X143507121Y-73093175D01*
X143546624Y-73097592D01*
X143595613Y-73092569D01*
X143632754Y-73078879D01*
X143660856Y-73057461D01*
X143681557Y-73027677D01*
X143695057Y-72987425D01*
X143700069Y-72933461D01*
X143168597Y-72933461D01*
X143168597Y-72906777D01*
X143175534Y-72815615D01*
X143183260Y-72784961D01*
X143404352Y-72784961D01*
X143693108Y-72784961D01*
X143683162Y-72749511D01*
X143667568Y-72721092D01*
X143646397Y-72698438D01*
X143620189Y-72681775D01*
X143588783Y-72671402D01*
X143550837Y-72667725D01*
X143514789Y-72671446D01*
X143483519Y-72682176D01*
X143456010Y-72699842D01*
X143433074Y-72723353D01*
X143415916Y-72751448D01*
X143404352Y-72784961D01*
X143183260Y-72784961D01*
X143195219Y-72737517D01*
X143215976Y-72689198D01*
X143241619Y-72647046D01*
X143272156Y-72610389D01*
X143307850Y-72578734D01*
X143348701Y-72552305D01*
X143395315Y-72531010D01*
X143471048Y-72510718D01*
X143559080Y-72503593D01*
X143648441Y-72510730D01*
G37*
G36*
X143024982Y-72530949D02*
G01*
X142770969Y-72530949D01*
X142770969Y-72649467D01*
X142741290Y-72608757D01*
X142708279Y-72575851D01*
X142671746Y-72549938D01*
X142631297Y-72531021D01*
X142585943Y-72519364D01*
X142534665Y-72515317D01*
X142512988Y-72515317D01*
X142485694Y-72518187D01*
X142485694Y-72762124D01*
X142537878Y-72743322D01*
X142594809Y-72736967D01*
X142651178Y-72743416D01*
X142694148Y-72761155D01*
X142726945Y-72789419D01*
X142750157Y-72826897D01*
X142765346Y-72876720D01*
X142770969Y-72942498D01*
X142770969Y-73250000D01*
X143024982Y-73250000D01*
X143024982Y-72530949D01*
G37*
G36*
X151709647Y-74145736D02*
G01*
X151755925Y-74113401D01*
X151800139Y-74091758D01*
X151845352Y-74078423D01*
X151887700Y-74074173D01*
X151937821Y-74080872D01*
X151975322Y-74099391D01*
X151994374Y-74118223D01*
X152005434Y-74139844D01*
X152009211Y-74165275D01*
X152004852Y-74191212D01*
X151992297Y-74211559D01*
X151973262Y-74228121D01*
X151947784Y-74243066D01*
X151885685Y-74266209D01*
X151817175Y-74287213D01*
X151729810Y-74322981D01*
X151665143Y-74363109D01*
X151618789Y-74407015D01*
X151592040Y-74445934D01*
X151572475Y-74490722D01*
X151560212Y-74542450D01*
X151555896Y-74602470D01*
X151562972Y-74681077D01*
X151583312Y-74749626D01*
X151604445Y-74791591D01*
X151631022Y-74829061D01*
X151663302Y-74862466D01*
X151720816Y-74903508D01*
X151792445Y-74935312D01*
X151872064Y-74954473D01*
X151965858Y-74961263D01*
X152064215Y-74953788D01*
X152158301Y-74931557D01*
X152249225Y-74894338D01*
X152337901Y-74841217D01*
X152220725Y-74619200D01*
X152157427Y-74667843D01*
X152098360Y-74700228D01*
X152037378Y-74720330D01*
X151978742Y-74726789D01*
X151934679Y-74722818D01*
X151902046Y-74712172D01*
X151878114Y-74695954D01*
X151859314Y-74673770D01*
X151848619Y-74650655D01*
X151845080Y-74625856D01*
X151847295Y-74603087D01*
X151853506Y-74584518D01*
X151864327Y-74568175D01*
X151881594Y-74552278D01*
X151903142Y-74538637D01*
X151932824Y-74524923D01*
X152009394Y-74496896D01*
X152114052Y-74459771D01*
X152162777Y-74435939D01*
X152205338Y-74405793D01*
X152241165Y-74368158D01*
X152269940Y-74320980D01*
X152287821Y-74265698D01*
X152294487Y-74191287D01*
X152287786Y-74115298D01*
X152268536Y-74049016D01*
X152237045Y-73989430D01*
X152195507Y-73939656D01*
X152143951Y-73899591D01*
X152080408Y-73868825D01*
X152009638Y-73850146D01*
X151928000Y-73843607D01*
X151848803Y-73848930D01*
X151763747Y-73865528D01*
X151679938Y-73892537D01*
X151599433Y-73929886D01*
X151709647Y-74145736D01*
G37*
G36*
X151128134Y-74190730D02*
G01*
X151204675Y-74211010D01*
X151273323Y-74244547D01*
X151329911Y-74288923D01*
X151361510Y-74324675D01*
X151388084Y-74365437D01*
X151409717Y-74411777D01*
X151424961Y-74460719D01*
X151434412Y-74514563D01*
X151437683Y-74574016D01*
X151434264Y-74631433D01*
X151424359Y-74683609D01*
X151408312Y-74731247D01*
X151372622Y-74796773D01*
X151325026Y-74852025D01*
X151266412Y-74896344D01*
X151195577Y-74929938D01*
X151117360Y-74950293D01*
X151029003Y-74957355D01*
X150942768Y-74951478D01*
X150870696Y-74935022D01*
X150810416Y-74909222D01*
X150760014Y-74874546D01*
X150718148Y-74830668D01*
X150684145Y-74776493D01*
X150658060Y-74710242D01*
X150902180Y-74710242D01*
X150925863Y-74739940D01*
X150953811Y-74760582D01*
X150986814Y-74773175D01*
X151026317Y-74777592D01*
X151075306Y-74772569D01*
X151112447Y-74758879D01*
X151140548Y-74737461D01*
X151161250Y-74707677D01*
X151174750Y-74667425D01*
X151179762Y-74613461D01*
X150648290Y-74613461D01*
X150648290Y-74586777D01*
X150655227Y-74495615D01*
X150662953Y-74464961D01*
X150884045Y-74464961D01*
X151172801Y-74464961D01*
X151162855Y-74429511D01*
X151147261Y-74401092D01*
X151126090Y-74378438D01*
X151099882Y-74361775D01*
X151068476Y-74351402D01*
X151030530Y-74347725D01*
X150994482Y-74351446D01*
X150963212Y-74362176D01*
X150935703Y-74379842D01*
X150912767Y-74403353D01*
X150895609Y-74431448D01*
X150884045Y-74464961D01*
X150662953Y-74464961D01*
X150674912Y-74417517D01*
X150695669Y-74369198D01*
X150721312Y-74327046D01*
X150751849Y-74290389D01*
X150787543Y-74258734D01*
X150828394Y-74232305D01*
X150875008Y-74211010D01*
X150950741Y-74190718D01*
X151038773Y-74183593D01*
X151128134Y-74190730D01*
G37*
G36*
X150504675Y-74930000D02*
G01*
X150250662Y-74930000D01*
X150250662Y-74850437D01*
X150206487Y-74895524D01*
X150155958Y-74927257D01*
X150097806Y-74946674D01*
X150030050Y-74953447D01*
X149979509Y-74950020D01*
X149931977Y-74939920D01*
X149886924Y-74923222D01*
X149824831Y-74887443D01*
X149771763Y-74840973D01*
X149728520Y-74784796D01*
X149695621Y-74718729D01*
X149675300Y-74646592D01*
X149668765Y-74572611D01*
X149934124Y-74572611D01*
X149937434Y-74604277D01*
X149947374Y-74634588D01*
X149962717Y-74662518D01*
X149982056Y-74686734D01*
X150005406Y-74706760D01*
X150032737Y-74721966D01*
X150062739Y-74731406D01*
X150095263Y-74734605D01*
X150127751Y-74731248D01*
X150158400Y-74721233D01*
X150186502Y-74705636D01*
X150210484Y-74686001D01*
X150230173Y-74662313D01*
X150245167Y-74634588D01*
X150254518Y-74604124D01*
X150257684Y-74571207D01*
X150254381Y-74538116D01*
X150244556Y-74507032D01*
X150229154Y-74478500D01*
X150209813Y-74454214D01*
X150186421Y-74434195D01*
X150159132Y-74419043D01*
X150129075Y-74409555D01*
X150096545Y-74406343D01*
X150062943Y-74409751D01*
X150032737Y-74419715D01*
X150005257Y-74435411D01*
X149981385Y-74455619D01*
X149961659Y-74479977D01*
X149946641Y-74508436D01*
X149937279Y-74539493D01*
X149934124Y-74572611D01*
X149668765Y-74572611D01*
X149668387Y-74568337D01*
X149675118Y-74491419D01*
X149694949Y-74420081D01*
X149726829Y-74354585D01*
X149768222Y-74299242D01*
X149819555Y-74253463D01*
X149881367Y-74217726D01*
X149926450Y-74201105D01*
X149974871Y-74190968D01*
X150027241Y-74187501D01*
X150092522Y-74193574D01*
X150150628Y-74211200D01*
X150203006Y-74240225D01*
X150250662Y-74281474D01*
X150250662Y-73765450D01*
X150504675Y-73765450D01*
X150504675Y-74930000D01*
G37*
G36*
X149243931Y-74190978D02*
G01*
X149292242Y-74201124D01*
X149337011Y-74217726D01*
X149398457Y-74253537D01*
X149450401Y-74299975D01*
X149492481Y-74355925D01*
X149524590Y-74421486D01*
X149544450Y-74492638D01*
X149551151Y-74568337D01*
X149544166Y-74649042D01*
X149523857Y-74721599D01*
X149490898Y-74787664D01*
X149447592Y-74843843D01*
X149394462Y-74889993D01*
X149332859Y-74924626D01*
X149264660Y-74946087D01*
X149188633Y-74953447D01*
X149121467Y-74946699D01*
X149063625Y-74927320D01*
X149013173Y-74895591D01*
X148968876Y-74850437D01*
X148968876Y-74930000D01*
X148714863Y-74930000D01*
X148714863Y-74571207D01*
X148960450Y-74571207D01*
X148963824Y-74604084D01*
X148973822Y-74634588D01*
X148989370Y-74662504D01*
X149008993Y-74686734D01*
X149032707Y-74706709D01*
X149060956Y-74721966D01*
X149091941Y-74731424D01*
X149124886Y-74734605D01*
X149159050Y-74731392D01*
X149190221Y-74721966D01*
X149218481Y-74706711D01*
X149242245Y-74686734D01*
X149261626Y-74662366D01*
X149276683Y-74633855D01*
X149286108Y-74602616D01*
X149289323Y-74568337D01*
X149286110Y-74535529D01*
X149276683Y-74505689D01*
X149261703Y-74478319D01*
X149242245Y-74454214D01*
X149218479Y-74434250D01*
X149190221Y-74419043D01*
X149159048Y-74409571D01*
X149124886Y-74406343D01*
X149091943Y-74409539D01*
X149060956Y-74419043D01*
X149032709Y-74434253D01*
X149008993Y-74454214D01*
X148989417Y-74478510D01*
X148973822Y-74507032D01*
X148963812Y-74538128D01*
X148960450Y-74571207D01*
X148714863Y-74571207D01*
X148714863Y-74210949D01*
X148968876Y-74210949D01*
X148968876Y-74282145D01*
X149016011Y-74240624D01*
X149068050Y-74211398D01*
X149126028Y-74193632D01*
X149191442Y-74187501D01*
X149243931Y-74190978D01*
G37*
G36*
X148064811Y-74395963D02*
G01*
X148112604Y-74375216D01*
X148158268Y-74363311D01*
X148202442Y-74359448D01*
X148235333Y-74363239D01*
X148259351Y-74373492D01*
X148275772Y-74390202D01*
X148281088Y-74411411D01*
X148277608Y-74431744D01*
X148262159Y-74446460D01*
X148227049Y-74459160D01*
X148165989Y-74473204D01*
X148097865Y-74492305D01*
X148046552Y-74517593D01*
X148008696Y-74548248D01*
X147980168Y-74586973D01*
X147962807Y-74632413D01*
X147956734Y-74686489D01*
X147963214Y-74747252D01*
X147981952Y-74800123D01*
X148012076Y-74846594D01*
X148052049Y-74885059D01*
X148100402Y-74915063D01*
X148159944Y-74938365D01*
X148224914Y-74952441D01*
X148298613Y-74957355D01*
X148369918Y-74952406D01*
X148441145Y-74937442D01*
X148512912Y-74912019D01*
X148585781Y-74875350D01*
X148493457Y-74696442D01*
X148419593Y-74738980D01*
X148352684Y-74762405D01*
X148290919Y-74769776D01*
X148257991Y-74765643D01*
X148233278Y-74754267D01*
X148216178Y-74736295D01*
X148210746Y-74714822D01*
X148214288Y-74691557D01*
X148229064Y-74674644D01*
X148262098Y-74660600D01*
X148319007Y-74647166D01*
X148396556Y-74626297D01*
X148449564Y-74602209D01*
X148484115Y-74576031D01*
X148509583Y-74541848D01*
X148525489Y-74499204D01*
X148531193Y-74445666D01*
X148525418Y-74387252D01*
X148508784Y-74336489D01*
X148481454Y-74291627D01*
X148444303Y-74254118D01*
X148398819Y-74224636D01*
X148342759Y-74201973D01*
X148281134Y-74188370D01*
X148210258Y-74183593D01*
X148131821Y-74188731D01*
X148054970Y-74204124D01*
X147979082Y-74230000D01*
X148064811Y-74395963D01*
G37*
G36*
X147529797Y-74421974D02*
G01*
X147529797Y-74930000D01*
X147783810Y-74930000D01*
X147783810Y-74421974D01*
X147865875Y-74421974D01*
X147865875Y-74210949D01*
X147783810Y-74210949D01*
X147783810Y-73996015D01*
X147529797Y-73996015D01*
X147529797Y-74210949D01*
X147385205Y-74210949D01*
X147385205Y-74421974D01*
X147529797Y-74421974D01*
G37*
G36*
X147015910Y-74210949D02*
G01*
X147015910Y-74930000D01*
X147269923Y-74930000D01*
X147269923Y-74210949D01*
X147015910Y-74210949D01*
G37*
G36*
X147285554Y-73935443D02*
G01*
X147282732Y-73906815D01*
X147274380Y-73880244D01*
X147261033Y-73855873D01*
X147243606Y-73834754D01*
X147222480Y-73817292D01*
X147198115Y-73803979D01*
X147171500Y-73795625D01*
X147142916Y-73792805D01*
X147114288Y-73795627D01*
X147087718Y-73803979D01*
X147063364Y-73817294D01*
X147042288Y-73834754D01*
X147024826Y-73855879D01*
X147011514Y-73880244D01*
X147003116Y-73906817D01*
X147000279Y-73935443D01*
X147003115Y-73964077D01*
X147011514Y-73990703D01*
X147024823Y-74015016D01*
X147042288Y-74036132D01*
X147063357Y-74053556D01*
X147087718Y-74066906D01*
X147114288Y-74075258D01*
X147142916Y-74078080D01*
X147171500Y-74075261D01*
X147198115Y-74066906D01*
X147222487Y-74053559D01*
X147243606Y-74036132D01*
X147261036Y-74015022D01*
X147274380Y-73990703D01*
X147282733Y-73964079D01*
X147285554Y-73935443D01*
G37*
G36*
X146563122Y-74190978D02*
G01*
X146611432Y-74201124D01*
X146656202Y-74217726D01*
X146717647Y-74253537D01*
X146769591Y-74299975D01*
X146811671Y-74355925D01*
X146843780Y-74421486D01*
X146863640Y-74492638D01*
X146870341Y-74568337D01*
X146863357Y-74649042D01*
X146843047Y-74721599D01*
X146810088Y-74787664D01*
X146766782Y-74843843D01*
X146713653Y-74889993D01*
X146652049Y-74924626D01*
X146583851Y-74946087D01*
X146507824Y-74953447D01*
X146440658Y-74946699D01*
X146382815Y-74927320D01*
X146332363Y-74895591D01*
X146288066Y-74850437D01*
X146288066Y-74930000D01*
X146034054Y-74930000D01*
X146034054Y-74571207D01*
X146279640Y-74571207D01*
X146283015Y-74604084D01*
X146293012Y-74634588D01*
X146308561Y-74662504D01*
X146328183Y-74686734D01*
X146351897Y-74706709D01*
X146380146Y-74721966D01*
X146411131Y-74731424D01*
X146444077Y-74734605D01*
X146478241Y-74731392D01*
X146509412Y-74721966D01*
X146537671Y-74706711D01*
X146561435Y-74686734D01*
X146580817Y-74662366D01*
X146595874Y-74633855D01*
X146605298Y-74602616D01*
X146608513Y-74568337D01*
X146605300Y-74535529D01*
X146595874Y-74505689D01*
X146580894Y-74478319D01*
X146561435Y-74454214D01*
X146537669Y-74434250D01*
X146509412Y-74419043D01*
X146478238Y-74409571D01*
X146444077Y-74406343D01*
X146411134Y-74409539D01*
X146380146Y-74419043D01*
X146351900Y-74434253D01*
X146328183Y-74454214D01*
X146308608Y-74478510D01*
X146293012Y-74507032D01*
X146283002Y-74538128D01*
X146279640Y-74571207D01*
X146034054Y-74571207D01*
X146034054Y-74210949D01*
X146288066Y-74210949D01*
X146288066Y-74282145D01*
X146335202Y-74240624D01*
X146387241Y-74211398D01*
X146445218Y-74193632D01*
X146510633Y-74187501D01*
X146563122Y-74190978D01*
G37*
G36*
X145862107Y-74210949D02*
G01*
X145608094Y-74210949D01*
X145608094Y-74302051D01*
X145571203Y-74262451D01*
X145536369Y-74234839D01*
X145503131Y-74217116D01*
X145447048Y-74201070D01*
X145378445Y-74195317D01*
X145306262Y-74201841D01*
X145248935Y-74219863D01*
X145198995Y-74249534D01*
X145157222Y-74289289D01*
X145131220Y-74328007D01*
X145115212Y-74370622D01*
X145106948Y-74417160D01*
X145103977Y-74472960D01*
X145103977Y-74930000D01*
X145357990Y-74930000D01*
X145357990Y-74566933D01*
X145360166Y-74516226D01*
X145365744Y-74480776D01*
X145376749Y-74450478D01*
X145392978Y-74428203D01*
X145410934Y-74413754D01*
X145430713Y-74404389D01*
X145475348Y-74397367D01*
X145516511Y-74402053D01*
X145548660Y-74415067D01*
X145573900Y-74435957D01*
X145592098Y-74463597D01*
X145603808Y-74499467D01*
X145608094Y-74545928D01*
X145608094Y-74930000D01*
X145862107Y-74930000D01*
X145862107Y-74210949D01*
G37*
G36*
X144433775Y-74930000D02*
G01*
X143992733Y-74930000D01*
X143911222Y-74924869D01*
X143841608Y-74910399D01*
X143778503Y-74885402D01*
X143727486Y-74851598D01*
X143685925Y-74808018D01*
X143654640Y-74755000D01*
X143635490Y-74694690D01*
X143628750Y-74623292D01*
X143629963Y-74603691D01*
X143906210Y-74603691D01*
X143911520Y-74640089D01*
X143926387Y-74667662D01*
X143951151Y-74688627D01*
X143982564Y-74701865D01*
X144030271Y-74711345D01*
X144099895Y-74715066D01*
X144160223Y-74715066D01*
X144160223Y-74492316D01*
X144099895Y-74492316D01*
X144030271Y-74496037D01*
X143982564Y-74505517D01*
X143951151Y-74518756D01*
X143926393Y-74539686D01*
X143911523Y-74567255D01*
X143906210Y-74603691D01*
X143629963Y-74603691D01*
X143631637Y-74576625D01*
X143640047Y-74533715D01*
X143655032Y-74493653D01*
X143677294Y-74458061D01*
X143706674Y-74427448D01*
X143744766Y-74401336D01*
X143789095Y-74381742D01*
X143845272Y-74367020D01*
X143809020Y-74340095D01*
X143780469Y-74310342D01*
X143758749Y-74277566D01*
X143743585Y-74241264D01*
X143733851Y-74197391D01*
X143733066Y-74185486D01*
X143980460Y-74185486D01*
X143985656Y-74222886D01*
X143999973Y-74250386D01*
X144023429Y-74270550D01*
X144058502Y-74283970D01*
X144109603Y-74289106D01*
X144160223Y-74289106D01*
X144160223Y-74081988D01*
X144109603Y-74081988D01*
X144058490Y-74087121D01*
X144023415Y-74100531D01*
X143999964Y-74120675D01*
X143985653Y-74148140D01*
X143980460Y-74185486D01*
X143733066Y-74185486D01*
X143730355Y-74144392D01*
X143735646Y-74078529D01*
X143750456Y-74024070D01*
X143773828Y-73978896D01*
X143805704Y-73941427D01*
X143845073Y-73912143D01*
X143893584Y-73890202D01*
X143953168Y-73876065D01*
X144026256Y-73870963D01*
X144433775Y-73870963D01*
X144433775Y-74930000D01*
G37*
G36*
X143489043Y-74210949D02*
G01*
X143235031Y-74210949D01*
X143235031Y-74329467D01*
X143205352Y-74288757D01*
X143172341Y-74255851D01*
X143135807Y-74229938D01*
X143095359Y-74211021D01*
X143050004Y-74199364D01*
X142998726Y-74195317D01*
X142977049Y-74195317D01*
X142949755Y-74198187D01*
X142949755Y-74442124D01*
X143001939Y-74423322D01*
X143058871Y-74416967D01*
X143115239Y-74423416D01*
X143158209Y-74441155D01*
X143191006Y-74469419D01*
X143214218Y-74506897D01*
X143229407Y-74556720D01*
X143235031Y-74622498D01*
X143235031Y-74930000D01*
X143489043Y-74930000D01*
X143489043Y-74210949D01*
G37*
G36*
X142490137Y-74186992D02*
G01*
X142547506Y-74196911D01*
X142600915Y-74213086D01*
X142675275Y-74248483D01*
X142737264Y-74293869D01*
X142788284Y-74349689D01*
X142826718Y-74414586D01*
X142844516Y-74461816D01*
X142855258Y-74511477D01*
X142858897Y-74564124D01*
X142855177Y-74622454D01*
X142844354Y-74675826D01*
X142826718Y-74724958D01*
X142802383Y-74771169D01*
X142772852Y-74812443D01*
X142737936Y-74849216D01*
X142698284Y-74880838D01*
X142653514Y-74907514D01*
X142603053Y-74929267D01*
X142522302Y-74950153D01*
X142432388Y-74957355D01*
X142341022Y-74950169D01*
X142258304Y-74929267D01*
X142206378Y-74907498D01*
X142160697Y-74881027D01*
X142120612Y-74849888D01*
X142069485Y-74793861D01*
X142030425Y-74727766D01*
X142012336Y-74679535D01*
X142001294Y-74627577D01*
X141997513Y-74571207D01*
X141997609Y-74569741D01*
X142264898Y-74569741D01*
X142268262Y-74603930D01*
X142278148Y-74635137D01*
X142293620Y-74663612D01*
X142313075Y-74687894D01*
X142336663Y-74707860D01*
X142364733Y-74723065D01*
X142395476Y-74732523D01*
X142428175Y-74735704D01*
X142460882Y-74732524D01*
X142491678Y-74723065D01*
X142519708Y-74707867D01*
X142543335Y-74687894D01*
X142562756Y-74663618D01*
X142578262Y-74635137D01*
X142588115Y-74603746D01*
X142591512Y-74568337D01*
X142588166Y-74535525D01*
X142578262Y-74505139D01*
X142562796Y-74477224D01*
X142543335Y-74453054D01*
X142519708Y-74433081D01*
X142491678Y-74417883D01*
X142460882Y-74408424D01*
X142428175Y-74405244D01*
X142395476Y-74408425D01*
X142364733Y-74417883D01*
X142336663Y-74433088D01*
X142313075Y-74453054D01*
X142293620Y-74477336D01*
X142278148Y-74505811D01*
X142268228Y-74536824D01*
X142264898Y-74569741D01*
X141997609Y-74569741D01*
X142001215Y-74514765D01*
X142012018Y-74462783D01*
X142029692Y-74414586D01*
X142054084Y-74369400D01*
X142084057Y-74328826D01*
X142119879Y-74292465D01*
X142182449Y-74247210D01*
X142256899Y-74212414D01*
X142338263Y-74190964D01*
X142428236Y-74183593D01*
X142490137Y-74186992D01*
G37*
G36*
X141308443Y-74443590D02*
G01*
X141354180Y-74417924D01*
X141398527Y-74403286D01*
X141442349Y-74398527D01*
X141478099Y-74401743D01*
X141510737Y-74411167D01*
X141540574Y-74426507D01*
X141566425Y-74447070D01*
X141587665Y-74472339D01*
X141603794Y-74502025D01*
X141613709Y-74535051D01*
X141617166Y-74573161D01*
X141613741Y-74609991D01*
X141603794Y-74642831D01*
X141587799Y-74672554D01*
X141567096Y-74697725D01*
X141541749Y-74718178D01*
X141511470Y-74733628D01*
X141478198Y-74743113D01*
X141442349Y-74746329D01*
X141396090Y-74740987D01*
X141351790Y-74724877D01*
X141308443Y-74697053D01*
X141308443Y-74912841D01*
X141372086Y-74936020D01*
X141431175Y-74949215D01*
X141486496Y-74953447D01*
X141563376Y-74946718D01*
X141635790Y-74926763D01*
X141702577Y-74894146D01*
X141760537Y-74850193D01*
X141808863Y-74795646D01*
X141846755Y-74730697D01*
X141864430Y-74683326D01*
X141875269Y-74631810D01*
X141878995Y-74575420D01*
X141875441Y-74518881D01*
X141865078Y-74466849D01*
X141848159Y-74418677D01*
X141811489Y-74352303D01*
X141764078Y-74296434D01*
X141706214Y-74251082D01*
X141637194Y-74216322D01*
X141561540Y-74194813D01*
X141479535Y-74187501D01*
X141418770Y-74191969D01*
X141361988Y-74205121D01*
X141308443Y-74226885D01*
X141308443Y-74443590D01*
G37*
G36*
X140876622Y-73765450D02*
G01*
X140876622Y-74470273D01*
X140610642Y-74210949D01*
X140263450Y-74210949D01*
X140623281Y-74543119D01*
X140242445Y-74930000D01*
X140598063Y-74930000D01*
X140876622Y-74637030D01*
X140876622Y-74930000D01*
X141130635Y-74930000D01*
X141130635Y-73765450D01*
X140876622Y-73765450D01*
G37*
G36*
X151988555Y-75672916D02*
G01*
X151873089Y-76316435D01*
X151488773Y-75672916D01*
X151197086Y-75672916D01*
X151852267Y-76730000D01*
X152065919Y-76730000D01*
X152280242Y-75672916D01*
X151988555Y-75672916D01*
G37*
G36*
X150858565Y-75905436D02*
G01*
X151009569Y-75905436D01*
X150960781Y-75670963D01*
X150542210Y-75670963D01*
X150762395Y-76730000D01*
X151029963Y-76730000D01*
X150858565Y-75905436D01*
G37*
G36*
X150402808Y-76597070D02*
G01*
X150392983Y-76564469D01*
X150377224Y-76533323D01*
X150356550Y-76505039D01*
X150331978Y-76480750D01*
X150303949Y-76460717D01*
X150273237Y-76445640D01*
X150240725Y-76436125D01*
X150208147Y-76433000D01*
X150176315Y-76436242D01*
X150148307Y-76445640D01*
X150123712Y-76460837D01*
X150104160Y-76480750D01*
X150089809Y-76504828D01*
X150080835Y-76533323D01*
X150077991Y-76563917D01*
X150081690Y-76597070D01*
X150091567Y-76629778D01*
X150107336Y-76660940D01*
X150128006Y-76689236D01*
X150152581Y-76713574D01*
X150180556Y-76733555D01*
X150211261Y-76748623D01*
X150243773Y-76758138D01*
X150276352Y-76761263D01*
X150308184Y-76758021D01*
X150336191Y-76748623D01*
X150360803Y-76733441D01*
X150380399Y-76713574D01*
X150394767Y-76689446D01*
X150403785Y-76660940D01*
X150406570Y-76630333D01*
X150402808Y-76597070D01*
G37*
G36*
X149589480Y-75905436D02*
G01*
X149740483Y-75905436D01*
X149691695Y-75670963D01*
X149273124Y-75670963D01*
X149493309Y-76730000D01*
X149760877Y-76730000D01*
X149589480Y-75905436D01*
G37*
G36*
X151603183Y-70926275D02*
G01*
X151634180Y-70883426D01*
X151669599Y-70851218D01*
X151709886Y-70828330D01*
X151756012Y-70814255D01*
X151809385Y-70809344D01*
X151868697Y-70814975D01*
X151925889Y-70831875D01*
X151979304Y-70858523D01*
X152027067Y-70893180D01*
X152068728Y-70935359D01*
X152104553Y-70985504D01*
X152132056Y-71041040D01*
X152149860Y-71101031D01*
X152157248Y-71163213D01*
X152152913Y-71217962D01*
X152137646Y-71268576D01*
X152113224Y-71311018D01*
X152079779Y-71346084D01*
X152037691Y-71372995D01*
X151989322Y-71389694D01*
X151932606Y-71395526D01*
X151871132Y-71389092D01*
X151808829Y-71369310D01*
X151744543Y-71334692D01*
X151677311Y-71282808D01*
X151744966Y-71608140D01*
X151774275Y-71617909D01*
X151839567Y-71637787D01*
X151896092Y-71650760D01*
X151951272Y-71658690D01*
X152003620Y-71661263D01*
X152073801Y-71656524D01*
X152138821Y-71642650D01*
X152199502Y-71619863D01*
X152255973Y-71588243D01*
X152305122Y-71549506D01*
X152347636Y-71503299D01*
X152382529Y-71450927D01*
X152410102Y-71391808D01*
X152430251Y-71325001D01*
X152440462Y-71255964D01*
X152440191Y-71181216D01*
X152428541Y-71099626D01*
X152406986Y-71019971D01*
X152376688Y-70945515D01*
X152337561Y-70875655D01*
X152290743Y-70810453D01*
X152238976Y-70752099D01*
X152182100Y-70700167D01*
X152120084Y-70654503D01*
X152054534Y-70616219D01*
X151985118Y-70585068D01*
X151912777Y-70561829D01*
X151841205Y-70548134D01*
X151769879Y-70543607D01*
X151709136Y-70546979D01*
X151651543Y-70556919D01*
X151594918Y-70573527D01*
X151534979Y-70598135D01*
X151603183Y-70926275D01*
G37*
G36*
X151123207Y-70891029D02*
G01*
X151208304Y-70913086D01*
X151287945Y-70948268D01*
X151358391Y-70993869D01*
X151419994Y-71049737D01*
X151471048Y-71114586D01*
X151509709Y-71186882D01*
X151533574Y-71264124D01*
X151542149Y-71323289D01*
X151542560Y-71376592D01*
X151535589Y-71424958D01*
X151521220Y-71471564D01*
X151500891Y-71512748D01*
X151474590Y-71549216D01*
X151442514Y-71580722D01*
X151404332Y-71607385D01*
X151359246Y-71629267D01*
X151311291Y-71644530D01*
X151257867Y-71654045D01*
X151198168Y-71657355D01*
X151108005Y-71650283D01*
X151022069Y-71629267D01*
X150941491Y-71595070D01*
X150870882Y-71549888D01*
X150809174Y-71493818D01*
X150757248Y-71427766D01*
X150729264Y-71379032D01*
X150707694Y-71326995D01*
X150692463Y-71271207D01*
X150687508Y-71236488D01*
X150950183Y-71236488D01*
X150953742Y-71269741D01*
X150964050Y-71303687D01*
X150980303Y-71335137D01*
X151001318Y-71363575D01*
X151025427Y-71387894D01*
X151052785Y-71407944D01*
X151083251Y-71423065D01*
X151115574Y-71432581D01*
X151147915Y-71435704D01*
X151179517Y-71432465D01*
X151207388Y-71423065D01*
X151231721Y-71407827D01*
X151250619Y-71387894D01*
X151264515Y-71363774D01*
X151273822Y-71335137D01*
X151276975Y-71304111D01*
X151272967Y-71268337D01*
X151262955Y-71235763D01*
X151246833Y-71205139D01*
X151225922Y-71177255D01*
X151201831Y-71153054D01*
X151174423Y-71133001D01*
X151143946Y-71117883D01*
X151111571Y-71108366D01*
X151079221Y-71105244D01*
X151047628Y-71108484D01*
X151019809Y-71117883D01*
X150995476Y-71133121D01*
X150976578Y-71153054D01*
X150962697Y-71177175D01*
X150953436Y-71205811D01*
X150950183Y-71236488D01*
X150687508Y-71236488D01*
X150684291Y-71213950D01*
X150684182Y-71162034D01*
X150691425Y-71114586D01*
X150706043Y-71069024D01*
X150726950Y-71028541D01*
X150754256Y-70992465D01*
X150787212Y-70961242D01*
X150826103Y-70934570D01*
X150871676Y-70912414D01*
X150919985Y-70896730D01*
X150973577Y-70886979D01*
X151033243Y-70883593D01*
X151123207Y-70891029D01*
G37*
G36*
X150453532Y-70910949D02*
G01*
X150205076Y-70910949D01*
X150224005Y-71002051D01*
X150179376Y-70962215D01*
X150139511Y-70934637D01*
X150103654Y-70917116D01*
X150044845Y-70900959D01*
X149977198Y-70895317D01*
X149907304Y-70901977D01*
X149855626Y-70919863D01*
X149812902Y-70949560D01*
X149780277Y-70989289D01*
X149763036Y-71027615D01*
X149756097Y-71070622D01*
X149757673Y-71116798D01*
X149766416Y-71172960D01*
X149861427Y-71630000D01*
X150109883Y-71630000D01*
X150034412Y-71266933D01*
X150025982Y-71215983D01*
X150024092Y-71180776D01*
X150028650Y-71150168D01*
X150039785Y-71128203D01*
X150054293Y-71113792D01*
X150071720Y-71104389D01*
X150113913Y-71097367D01*
X150154319Y-71101854D01*
X150188677Y-71114734D01*
X150218326Y-71135957D01*
X150242176Y-71163999D01*
X150261080Y-71200075D01*
X150274685Y-71245928D01*
X150354553Y-71630000D01*
X150603009Y-71630000D01*
X150453532Y-70910949D01*
G37*
G36*
X149293073Y-71121974D02*
G01*
X149398709Y-71630000D01*
X149647165Y-71630000D01*
X149541530Y-71121974D01*
X149621763Y-71121974D01*
X149577922Y-70910949D01*
X149497688Y-70910949D01*
X149452991Y-70696015D01*
X149204535Y-70696015D01*
X149249232Y-70910949D01*
X149107754Y-70910949D01*
X149151596Y-71121974D01*
X149293073Y-71121974D01*
G37*
G36*
X149002730Y-70910949D02*
G01*
X148754274Y-70910949D01*
X148778881Y-71029467D01*
X148721898Y-70971266D01*
X148661156Y-70929938D01*
X148616945Y-70910781D01*
X148570071Y-70899236D01*
X148519862Y-70895317D01*
X148498674Y-70895317D01*
X148472540Y-70898187D01*
X148523281Y-71142124D01*
X148569876Y-71123454D01*
X148624764Y-71116967D01*
X148680072Y-71123136D01*
X148726098Y-71140692D01*
X148764898Y-71169419D01*
X148795764Y-71207457D01*
X148820958Y-71257561D01*
X148839820Y-71322498D01*
X148903750Y-71630000D01*
X149152206Y-71630000D01*
X149002730Y-70910949D01*
G37*
G36*
X148102634Y-70910949D02*
G01*
X148252110Y-71630000D01*
X148500566Y-71630000D01*
X148351090Y-70910949D01*
X148102634Y-70910949D01*
G37*
G36*
X148309080Y-70635443D02*
G01*
X148300449Y-70607018D01*
X148286671Y-70580244D01*
X148268577Y-70555904D01*
X148247103Y-70534754D01*
X148222690Y-70517220D01*
X148196240Y-70503979D01*
X148168188Y-70495572D01*
X148139881Y-70492805D01*
X148112245Y-70495680D01*
X148088224Y-70503979D01*
X148067121Y-70517327D01*
X148050183Y-70534754D01*
X148037568Y-70555736D01*
X148029544Y-70580244D01*
X148026854Y-70606526D01*
X148030033Y-70635443D01*
X148038675Y-70663873D01*
X148052503Y-70690703D01*
X148070544Y-70714989D01*
X148092009Y-70736132D01*
X148116375Y-70753625D01*
X148142873Y-70766906D01*
X148170873Y-70775312D01*
X148199171Y-70778080D01*
X148226816Y-70775207D01*
X148250889Y-70766906D01*
X148271960Y-70753529D01*
X148288930Y-70736132D01*
X148301562Y-70715159D01*
X148309630Y-70690703D01*
X148312274Y-70664368D01*
X148309080Y-70635443D01*
G37*
G36*
X148073630Y-71630000D02*
G01*
X147825174Y-71630000D01*
X147808627Y-71550437D01*
X147775255Y-71595067D01*
X147733104Y-71626647D01*
X147680451Y-71646372D01*
X147614270Y-71653447D01*
X147540359Y-71645942D01*
X147467969Y-71623222D01*
X147400071Y-71587616D01*
X147338215Y-71540973D01*
X147284177Y-71484681D01*
X147238381Y-71418729D01*
X147203274Y-71346069D01*
X147180434Y-71268337D01*
X147176887Y-71239172D01*
X147437447Y-71239172D01*
X147441224Y-71272611D01*
X147450939Y-71304044D01*
X147467053Y-71334588D01*
X147487889Y-71362489D01*
X147511871Y-71386734D01*
X147538951Y-71406835D01*
X147568719Y-71421966D01*
X147600351Y-71431467D01*
X147632527Y-71434605D01*
X147663887Y-71431184D01*
X147691512Y-71421233D01*
X147715802Y-71405601D01*
X147735109Y-71386001D01*
X147749386Y-71362478D01*
X147758374Y-71334588D01*
X147761159Y-71304452D01*
X147757397Y-71271207D01*
X147747406Y-71238351D01*
X147731263Y-71207032D01*
X147710316Y-71178538D01*
X147686322Y-71154214D01*
X147659098Y-71134114D01*
X147629352Y-71119043D01*
X147597717Y-71109496D01*
X147565544Y-71106343D01*
X147533066Y-71109819D01*
X147505887Y-71119715D01*
X147482243Y-71135440D01*
X147463145Y-71155619D01*
X147449012Y-71179802D01*
X147440186Y-71208436D01*
X147437447Y-71239172D01*
X147176887Y-71239172D01*
X147170993Y-71190715D01*
X147175549Y-71120081D01*
X147193300Y-71054159D01*
X147222138Y-70999242D01*
X147262784Y-70953515D01*
X147315867Y-70917726D01*
X147355939Y-70901281D01*
X147401097Y-70891063D01*
X147452276Y-70887501D01*
X147515873Y-70893287D01*
X147576131Y-70910506D01*
X147634039Y-70939529D01*
X147690352Y-70981474D01*
X147583068Y-70465450D01*
X147831524Y-70465450D01*
X148073630Y-71630000D01*
G37*
G36*
X146694818Y-70910949D02*
G01*
X146779204Y-71316819D01*
X146783955Y-71369054D01*
X146775731Y-71404538D01*
X146757287Y-71428715D01*
X146727288Y-71444258D01*
X146680774Y-71450237D01*
X146633248Y-71444645D01*
X146595838Y-71429035D01*
X146566160Y-71403772D01*
X146543077Y-71367388D01*
X146526901Y-71316819D01*
X146442515Y-70910949D01*
X146194059Y-70910949D01*
X146288520Y-71365484D01*
X146309475Y-71436053D01*
X146339723Y-71494967D01*
X146379050Y-71544021D01*
X146428044Y-71584387D01*
X146483464Y-71614578D01*
X146549843Y-71637403D01*
X146629184Y-71652093D01*
X146723822Y-71657355D01*
X146819875Y-71651633D01*
X146893198Y-71636300D01*
X146948394Y-71613490D01*
X146989253Y-71584387D01*
X147020548Y-71545595D01*
X147039633Y-71498104D01*
X147046165Y-71439267D01*
X147037735Y-71365484D01*
X146943274Y-70910949D01*
X146694818Y-70910949D01*
G37*
G36*
X145775976Y-71121974D02*
G01*
X145881612Y-71630000D01*
X146130068Y-71630000D01*
X146024433Y-71121974D01*
X146104666Y-71121974D01*
X146060825Y-70910949D01*
X145980591Y-70910949D01*
X145935894Y-70696015D01*
X145687438Y-70696015D01*
X145732135Y-70910949D01*
X145590657Y-70910949D01*
X145634499Y-71121974D01*
X145775976Y-71121974D01*
G37*
G36*
X145162705Y-70891029D02*
G01*
X145247801Y-70913086D01*
X145327442Y-70948268D01*
X145397889Y-70993869D01*
X145459491Y-71049737D01*
X145510546Y-71114586D01*
X145549206Y-71186882D01*
X145573072Y-71264124D01*
X145581646Y-71323289D01*
X145582058Y-71376592D01*
X145575087Y-71424958D01*
X145560717Y-71471564D01*
X145540389Y-71512748D01*
X145514087Y-71549216D01*
X145482011Y-71580722D01*
X145443830Y-71607385D01*
X145398743Y-71629267D01*
X145350788Y-71644530D01*
X145297365Y-71654045D01*
X145237665Y-71657355D01*
X145147502Y-71650283D01*
X145061566Y-71629267D01*
X144980988Y-71595070D01*
X144910380Y-71549888D01*
X144848672Y-71493818D01*
X144796746Y-71427766D01*
X144768761Y-71379032D01*
X144747192Y-71326995D01*
X144731960Y-71271207D01*
X144727005Y-71236488D01*
X144989681Y-71236488D01*
X144993239Y-71269741D01*
X145003548Y-71303687D01*
X145019801Y-71335137D01*
X145040815Y-71363575D01*
X145064924Y-71387894D01*
X145092282Y-71407944D01*
X145122749Y-71423065D01*
X145155071Y-71432581D01*
X145187412Y-71435704D01*
X145219015Y-71432465D01*
X145246885Y-71423065D01*
X145271219Y-71407827D01*
X145290116Y-71387894D01*
X145304012Y-71363774D01*
X145313319Y-71335137D01*
X145316472Y-71304111D01*
X145312465Y-71268337D01*
X145302453Y-71235763D01*
X145286331Y-71205139D01*
X145265420Y-71177255D01*
X145241329Y-71153054D01*
X145213921Y-71133001D01*
X145183443Y-71117883D01*
X145151069Y-71108366D01*
X145118719Y-71105244D01*
X145087125Y-71108484D01*
X145059307Y-71117883D01*
X145034973Y-71133121D01*
X145016076Y-71153054D01*
X145002194Y-71177175D01*
X144992934Y-71205811D01*
X144989681Y-71236488D01*
X144727005Y-71236488D01*
X144723788Y-71213950D01*
X144723679Y-71162034D01*
X144730922Y-71114586D01*
X144745540Y-71069024D01*
X144766448Y-71028541D01*
X144793754Y-70992465D01*
X144826709Y-70961242D01*
X144865601Y-70934570D01*
X144911174Y-70912414D01*
X144959482Y-70896730D01*
X145013074Y-70886979D01*
X145072740Y-70883593D01*
X145162705Y-70891029D01*
G37*
G36*
X144493030Y-70910949D02*
G01*
X144244574Y-70910949D01*
X144269181Y-71029467D01*
X144212198Y-70971266D01*
X144151456Y-70929938D01*
X144107246Y-70910781D01*
X144060371Y-70899236D01*
X144010162Y-70895317D01*
X143988974Y-70895317D01*
X143962840Y-70898187D01*
X144013581Y-71142124D01*
X144060176Y-71123454D01*
X144115064Y-71116967D01*
X144170372Y-71123136D01*
X144216398Y-71140692D01*
X144255198Y-71169419D01*
X144286064Y-71207457D01*
X144311258Y-71257561D01*
X144330120Y-71322498D01*
X144394050Y-71630000D01*
X144642506Y-71630000D01*
X144493030Y-70910949D01*
G37*
G36*
X143416102Y-71095963D02*
G01*
X143457947Y-71075436D01*
X143500072Y-71063428D01*
X143543108Y-71059448D01*
X143575655Y-71063141D01*
X143601666Y-71073492D01*
X143621347Y-71090340D01*
X143630853Y-71111411D01*
X143631646Y-71131744D01*
X143619617Y-71146460D01*
X143587927Y-71159160D01*
X143531140Y-71173204D01*
X143467847Y-71192555D01*
X143423168Y-71217834D01*
X143392838Y-71248248D01*
X143373325Y-71286003D01*
X143365523Y-71331170D01*
X143370795Y-71386489D01*
X143389571Y-71446789D01*
X143419094Y-71500123D01*
X143458231Y-71546603D01*
X143505312Y-71585059D01*
X143559200Y-71615232D01*
X143621877Y-71638365D01*
X143688877Y-71652513D01*
X143761461Y-71657355D01*
X143831386Y-71652227D01*
X143898191Y-71636996D01*
X143962622Y-71611553D01*
X144025305Y-71575350D01*
X143897810Y-71396442D01*
X143835330Y-71438494D01*
X143774881Y-71462136D01*
X143714933Y-71469776D01*
X143682289Y-71465752D01*
X143655338Y-71454267D01*
X143634798Y-71436156D01*
X143625113Y-71414822D01*
X143623709Y-71391557D01*
X143634638Y-71374644D01*
X143664070Y-71360600D01*
X143716948Y-71347166D01*
X143789114Y-71326051D01*
X143835662Y-71301982D01*
X143863677Y-71276031D01*
X143881165Y-71242774D01*
X143888127Y-71200443D01*
X143882606Y-71145666D01*
X143864993Y-71087683D01*
X143837971Y-71036489D01*
X143801945Y-70991642D01*
X143757798Y-70954118D01*
X143706842Y-70924472D01*
X143647644Y-70901973D01*
X143584029Y-70888297D01*
X143514227Y-70883593D01*
X143437681Y-70888857D01*
X143365804Y-70904363D01*
X143297766Y-70930000D01*
X143416102Y-71095963D01*
G37*
G36*
X143168135Y-71024277D02*
G01*
X143158260Y-70991622D01*
X143142489Y-70960469D01*
X143121818Y-70932173D01*
X143097243Y-70907834D01*
X143069212Y-70887816D01*
X143038503Y-70872786D01*
X143005991Y-70863271D01*
X142973412Y-70860146D01*
X142941580Y-70863388D01*
X142913572Y-70872786D01*
X142888979Y-70887935D01*
X142869426Y-70907834D01*
X142855072Y-70931964D01*
X142846100Y-70960469D01*
X142843271Y-70991070D01*
X142847016Y-71024277D01*
X142856844Y-71056931D01*
X142872601Y-71088086D01*
X142893271Y-71116381D01*
X142917847Y-71140720D01*
X142945876Y-71160752D01*
X142976587Y-71175830D01*
X143009044Y-71185297D01*
X143041617Y-71188408D01*
X143073461Y-71185183D01*
X143101517Y-71175830D01*
X143126113Y-71160633D01*
X143145664Y-71140720D01*
X143160032Y-71116592D01*
X143169050Y-71088086D01*
X143171850Y-71057485D01*
X143168135Y-71024277D01*
G37*
G36*
X143266381Y-71497070D02*
G01*
X143256556Y-71464469D01*
X143240797Y-71433323D01*
X143220123Y-71405039D01*
X143195551Y-71380750D01*
X143167522Y-71360717D01*
X143136810Y-71345640D01*
X143104298Y-71336125D01*
X143071720Y-71333000D01*
X143039887Y-71336242D01*
X143011880Y-71345640D01*
X142987285Y-71360837D01*
X142967733Y-71380750D01*
X142953382Y-71404828D01*
X142944408Y-71433323D01*
X142941564Y-71463917D01*
X142945263Y-71497070D01*
X142955140Y-71529778D01*
X142970908Y-71560940D01*
X142991579Y-71589236D01*
X143016154Y-71613574D01*
X143044129Y-71633555D01*
X143074834Y-71648623D01*
X143107346Y-71658138D01*
X143139924Y-71661263D01*
X143171757Y-71658021D01*
X143199764Y-71648623D01*
X143224376Y-71633441D01*
X143243972Y-71613574D01*
X143258340Y-71589446D01*
X143267358Y-71560940D01*
X143270143Y-71530333D01*
X143266381Y-71497070D01*
G37*
D11*
%TO.C,J23*%
X128003701Y-67200000D02*
G75*
G02*
X127241701Y-67200000I-381000J0D01*
G01*
X127241701Y-67200000D02*
G75*
G02*
X128003701Y-67200000I381000J0D01*
G01*
%TD*%
M02*
