%TF.GenerationSoftware,KiCad,Pcbnew,9.0.4*%
%TF.CreationDate,2025-11-05T21:14:26-05:00*%
%TF.ProjectId,Alpha_Breakout,416c7068-615f-4427-9265-616b6f75742e,rev?*%
%TF.SameCoordinates,Original*%
%TF.FileFunction,Soldermask,Top*%
%TF.FilePolarity,Negative*%
%FSLAX46Y46*%
G04 Gerber Fmt 4.6, Leading zero omitted, Abs format (unit mm)*
G04 Created by KiCad (PCBNEW 9.0.4) date 2025-11-05 21:14:26*
%MOMM*%
%LPD*%
G01*
G04 APERTURE LIST*
G04 Aperture macros list*
%AMRoundRect*
0 Rectangle with rounded corners*
0 $1 Rounding radius*
0 $2 $3 $4 $5 $6 $7 $8 $9 X,Y pos of 4 corners*
0 Add a 4 corners polygon primitive as box body*
4,1,4,$2,$3,$4,$5,$6,$7,$8,$9,$2,$3,0*
0 Add four circle primitives for the rounded corners*
1,1,$1+$1,$2,$3*
1,1,$1+$1,$4,$5*
1,1,$1+$1,$6,$7*
1,1,$1+$1,$8,$9*
0 Add four rect primitives between the rounded corners*
20,1,$1+$1,$2,$3,$4,$5,0*
20,1,$1+$1,$4,$5,$6,$7,0*
20,1,$1+$1,$6,$7,$8,$9,0*
20,1,$1+$1,$8,$9,$2,$3,0*%
%AMRotRect*
0 Rectangle, with rotation*
0 The origin of the aperture is its center*
0 $1 length*
0 $2 width*
0 $3 Rotation angle, in degrees counterclockwise*
0 Add horizontal line*
21,1,$1,$2,0,0,$3*%
%AMFreePoly0*
4,1,6,1.000000,0.000000,0.500000,-0.750000,-0.500000,-0.750000,-0.500000,0.750000,0.500000,0.750000,1.000000,0.000000,1.000000,0.000000,$1*%
%AMFreePoly1*
4,1,6,0.500000,-0.750000,-0.650000,-0.750000,-0.150000,0.000000,-0.650000,0.750000,0.500000,0.750000,0.500000,-0.750000,0.500000,-0.750000,$1*%
G04 Aperture macros list end*
%ADD10C,0.300000*%
%ADD11C,0.000000*%
%ADD12C,0.010000*%
%ADD13RoundRect,0.140000X0.170000X-0.140000X0.170000X0.140000X-0.170000X0.140000X-0.170000X-0.140000X0*%
%ADD14C,1.100000*%
%ADD15RoundRect,0.249999X-0.850001X0.850001X-0.850001X-0.850001X0.850001X-0.850001X0.850001X0.850001X0*%
%ADD16C,2.200000*%
%ADD17RoundRect,0.135000X0.135000X0.185000X-0.135000X0.185000X-0.135000X-0.185000X0.135000X-0.185000X0*%
%ADD18RoundRect,0.140000X-0.021213X0.219203X-0.219203X0.021213X0.021213X-0.219203X0.219203X-0.021213X0*%
%ADD19RoundRect,0.135000X-0.185000X0.135000X-0.185000X-0.135000X0.185000X-0.135000X0.185000X0.135000X0*%
%ADD20RoundRect,0.249999X0.850001X-0.850001X0.850001X0.850001X-0.850001X0.850001X-0.850001X-0.850001X0*%
%ADD21RoundRect,0.250000X-0.650000X1.000000X-0.650000X-1.000000X0.650000X-1.000000X0.650000X1.000000X0*%
%ADD22RoundRect,0.140000X-0.170000X0.140000X-0.170000X-0.140000X0.170000X-0.140000X0.170000X0.140000X0*%
%ADD23RoundRect,0.135000X0.185000X-0.135000X0.185000X0.135000X-0.185000X0.135000X-0.185000X-0.135000X0*%
%ADD24RoundRect,0.250000X-0.325000X-0.650000X0.325000X-0.650000X0.325000X0.650000X-0.325000X0.650000X0*%
%ADD25RoundRect,0.135000X-0.035355X0.226274X-0.226274X0.035355X0.035355X-0.226274X0.226274X-0.035355X0*%
%ADD26RoundRect,0.249999X0.850001X0.850001X-0.850001X0.850001X-0.850001X-0.850001X0.850001X-0.850001X0*%
%ADD27RoundRect,0.102000X-0.300000X-0.850000X0.300000X-0.850000X0.300000X0.850000X-0.300000X0.850000X0*%
%ADD28RoundRect,0.102000X-0.500000X-1.400000X0.500000X-1.400000X0.500000X1.400000X-0.500000X1.400000X0*%
%ADD29RoundRect,0.135000X-0.135000X-0.185000X0.135000X-0.185000X0.135000X0.185000X-0.135000X0.185000X0*%
%ADD30RoundRect,0.140000X0.140000X0.170000X-0.140000X0.170000X-0.140000X-0.170000X0.140000X-0.170000X0*%
%ADD31RoundRect,0.100000X0.637500X0.100000X-0.637500X0.100000X-0.637500X-0.100000X0.637500X-0.100000X0*%
%ADD32C,1.000000*%
%ADD33RoundRect,0.102000X0.700000X-0.500000X0.700000X0.500000X-0.700000X0.500000X-0.700000X-0.500000X0*%
%ADD34RoundRect,0.218750X-0.256250X0.218750X-0.256250X-0.218750X0.256250X-0.218750X0.256250X0.218750X0*%
%ADD35RoundRect,0.218750X-0.218750X-0.256250X0.218750X-0.256250X0.218750X0.256250X-0.218750X0.256250X0*%
%ADD36C,1.400000*%
%ADD37RoundRect,0.770000X0.980000X0.980000X-0.980000X0.980000X-0.980000X-0.980000X0.980000X-0.980000X0*%
%ADD38C,3.500000*%
%ADD39FreePoly0,180.000000*%
%ADD40FreePoly1,180.000000*%
%ADD41RoundRect,0.250000X0.650000X-0.325000X0.650000X0.325000X-0.650000X0.325000X-0.650000X-0.325000X0*%
%ADD42RoundRect,0.100500X-0.301500X0.986500X-0.301500X-0.986500X0.301500X-0.986500X0.301500X0.986500X0*%
%ADD43RoundRect,0.100000X0.380070X0.521491X-0.521491X-0.380070X-0.380070X-0.521491X0.521491X0.380070X0*%
%ADD44RoundRect,0.102000X-0.450000X0.400000X-0.450000X-0.400000X0.450000X-0.400000X0.450000X0.400000X0*%
%ADD45RotRect,0.900000X1.700000X225.000000*%
%ADD46RoundRect,0.140000X-0.219203X-0.021213X-0.021213X-0.219203X0.219203X0.021213X0.021213X0.219203X0*%
%ADD47RoundRect,0.100000X-0.637500X-0.100000X0.637500X-0.100000X0.637500X0.100000X-0.637500X0.100000X0*%
%ADD48RoundRect,0.250000X0.650000X-1.000000X0.650000X1.000000X-0.650000X1.000000X-0.650000X-1.000000X0*%
%ADD49RoundRect,0.102000X0.300000X0.850000X-0.300000X0.850000X-0.300000X-0.850000X0.300000X-0.850000X0*%
%ADD50RoundRect,0.102000X0.500000X1.350000X-0.500000X1.350000X-0.500000X-1.350000X0.500000X-1.350000X0*%
%ADD51RoundRect,0.250000X0.475000X-0.250000X0.475000X0.250000X-0.475000X0.250000X-0.475000X-0.250000X0*%
%ADD52C,3.800000*%
%ADD53RoundRect,0.140000X0.219203X0.021213X0.021213X0.219203X-0.219203X-0.021213X-0.021213X-0.219203X0*%
%ADD54RoundRect,0.135000X0.226274X0.035355X0.035355X0.226274X-0.226274X-0.035355X-0.035355X-0.226274X0*%
%ADD55RoundRect,0.150000X0.150000X-0.825000X0.150000X0.825000X-0.150000X0.825000X-0.150000X-0.825000X0*%
%ADD56RoundRect,0.102000X-0.700000X0.500000X-0.700000X-0.500000X0.700000X-0.500000X0.700000X0.500000X0*%
%ADD57R,2.362200X3.505200*%
%ADD58RoundRect,0.225000X-0.250000X0.225000X-0.250000X-0.225000X0.250000X-0.225000X0.250000X0.225000X0*%
%ADD59RoundRect,0.250000X-0.600000X-0.750000X0.600000X-0.750000X0.600000X0.750000X-0.600000X0.750000X0*%
%ADD60O,1.700000X2.000000*%
%ADD61RoundRect,0.140000X-0.140000X-0.170000X0.140000X-0.170000X0.140000X0.170000X-0.140000X0.170000X0*%
%ADD62RoundRect,0.225000X0.250000X-0.225000X0.250000X0.225000X-0.250000X0.225000X-0.250000X-0.225000X0*%
%ADD63R,0.660400X1.803400*%
%ADD64R,1.092200X2.794000*%
%ADD65R,1.700000X1.700000*%
%ADD66C,1.700000*%
%ADD67RoundRect,0.100000X-0.521491X0.380070X0.380070X-0.521491X0.521491X-0.380070X-0.380070X0.521491X0*%
%ADD68RoundRect,0.135000X-0.226274X-0.035355X-0.035355X-0.226274X0.226274X0.035355X0.035355X0.226274X0*%
%ADD69RoundRect,0.200000X-0.200000X-0.275000X0.200000X-0.275000X0.200000X0.275000X-0.200000X0.275000X0*%
%ADD70RoundRect,0.225000X0.225000X0.250000X-0.225000X0.250000X-0.225000X-0.250000X0.225000X-0.250000X0*%
%ADD71RoundRect,0.150000X0.150000X0.700000X-0.150000X0.700000X-0.150000X-0.700000X0.150000X-0.700000X0*%
%ADD72RoundRect,0.250000X0.250000X1.100000X-0.250000X1.100000X-0.250000X-1.100000X0.250000X-1.100000X0*%
%ADD73RoundRect,0.150000X-0.587500X-0.150000X0.587500X-0.150000X0.587500X0.150000X-0.587500X0.150000X0*%
%ADD74RoundRect,0.137500X0.612500X0.137500X-0.612500X0.137500X-0.612500X-0.137500X0.612500X-0.137500X0*%
%ADD75RoundRect,0.150000X0.150000X-0.512500X0.150000X0.512500X-0.150000X0.512500X-0.150000X-0.512500X0*%
%ADD76C,0.650000*%
%ADD77RoundRect,0.150000X-0.150000X-0.425000X0.150000X-0.425000X0.150000X0.425000X-0.150000X0.425000X0*%
%ADD78RoundRect,0.075000X-0.075000X-0.500000X0.075000X-0.500000X0.075000X0.500000X-0.075000X0.500000X0*%
%ADD79O,1.000000X2.100000*%
%ADD80O,1.000000X1.800000*%
%ADD81RoundRect,0.200000X0.053033X-0.335876X0.335876X-0.053033X-0.053033X0.335876X-0.335876X0.053033X0*%
%ADD82RoundRect,0.135000X0.035355X-0.226274X0.226274X-0.035355X-0.035355X0.226274X-0.226274X0.035355X0*%
%ADD83RoundRect,0.102000X-0.150000X-0.335000X0.150000X-0.335000X0.150000X0.335000X-0.150000X0.335000X0*%
%ADD84RoundRect,0.250000X-0.650000X0.325000X-0.650000X-0.325000X0.650000X-0.325000X0.650000X0.325000X0*%
%ADD85RoundRect,0.075000X-0.415425X-0.521491X0.521491X0.415425X0.415425X0.521491X-0.521491X-0.415425X0*%
%ADD86RoundRect,0.075000X0.415425X-0.521491X0.521491X-0.415425X-0.415425X0.521491X-0.521491X0.415425X0*%
%ADD87RoundRect,0.250000X0.300000X1.600000X-0.300000X1.600000X-0.300000X-1.600000X0.300000X-1.600000X0*%
%ADD88RoundRect,0.218750X0.218750X0.256250X-0.218750X0.256250X-0.218750X-0.256250X0.218750X-0.256250X0*%
%ADD89RoundRect,0.200000X0.275000X-0.200000X0.275000X0.200000X-0.275000X0.200000X-0.275000X-0.200000X0*%
%ADD90RoundRect,0.140000X0.021213X-0.219203X0.219203X-0.021213X-0.021213X0.219203X-0.219203X0.021213X0*%
%ADD91RoundRect,0.225000X0.017678X-0.335876X0.335876X-0.017678X-0.017678X0.335876X-0.335876X0.017678X0*%
%ADD92RoundRect,0.150000X0.512500X0.150000X-0.512500X0.150000X-0.512500X-0.150000X0.512500X-0.150000X0*%
%ADD93RoundRect,0.125000X-0.125000X0.687500X-0.125000X-0.687500X0.125000X-0.687500X0.125000X0.687500X0*%
%ADD94RoundRect,0.250000X0.159099X-0.512652X0.512652X-0.159099X-0.159099X0.512652X-0.512652X0.159099X0*%
G04 APERTURE END LIST*
D10*
G36*
X137720560Y-79610001D02*
G01*
X135717219Y-79610001D01*
X135553087Y-78324306D01*
X132868859Y-78324306D01*
X132170446Y-79610001D01*
X130167105Y-79610001D01*
X131768781Y-76847125D01*
X133674555Y-76847125D01*
X135362028Y-76847125D01*
X135028637Y-74391996D01*
X133674555Y-76847125D01*
X131768781Y-76847125D01*
X134456742Y-72210419D01*
X136507527Y-72210419D01*
X137720560Y-79610001D01*
G37*
G36*
X142118335Y-72210419D02*
G01*
X140921118Y-77968689D01*
X143182196Y-77968689D01*
X142841111Y-79610001D01*
X138707056Y-79610001D01*
X140245359Y-72210419D01*
X142118335Y-72210419D01*
G37*
G36*
X149050906Y-72244990D02*
G01*
X149523377Y-72376236D01*
X149887504Y-72577239D01*
X150164610Y-72845145D01*
X150362248Y-73177992D01*
X150478903Y-73580035D01*
X150507400Y-74070295D01*
X150430041Y-74672387D01*
X150266380Y-75249435D01*
X150039832Y-75738578D01*
X149753205Y-76152249D01*
X149405076Y-76499629D01*
X148999991Y-76776782D01*
X148539859Y-76978389D01*
X148014723Y-77104038D01*
X147411994Y-77148033D01*
X146303253Y-77148033D01*
X145794190Y-79596323D01*
X143921214Y-79596323D01*
X144752743Y-75596480D01*
X146625532Y-75596480D01*
X147248717Y-75596480D01*
X147651148Y-75554669D01*
X147957562Y-75440385D01*
X148190550Y-75261028D01*
X148363156Y-75010926D01*
X148476709Y-74672387D01*
X148503066Y-74323796D01*
X148433652Y-74080638D01*
X148282273Y-73908270D01*
X148030433Y-73793337D01*
X147632972Y-73748294D01*
X147009787Y-73748294D01*
X146625532Y-75596480D01*
X144752743Y-75596480D01*
X145459516Y-72196742D01*
X148441233Y-72196742D01*
X149050906Y-72244990D01*
G37*
G36*
X153375854Y-75069037D02*
G01*
X156104963Y-75069037D01*
X156702076Y-72196742D01*
X158575052Y-72196742D01*
X157033757Y-79610001D01*
X155160781Y-79610001D01*
X155792088Y-76573573D01*
X153062979Y-76573573D01*
X152431673Y-79610001D01*
X150558696Y-79610001D01*
X152099991Y-72196742D01*
X153972967Y-72196742D01*
X153375854Y-75069037D01*
G37*
G36*
X165588668Y-79610001D02*
G01*
X163585327Y-79610001D01*
X163421196Y-78324306D01*
X160736967Y-78324306D01*
X160038555Y-79610001D01*
X158035214Y-79610001D01*
X159636890Y-76847125D01*
X161542663Y-76847125D01*
X163230137Y-76847125D01*
X162896746Y-74391996D01*
X161542663Y-76847125D01*
X159636890Y-76847125D01*
X162324851Y-72210419D01*
X164375636Y-72210419D01*
X165588668Y-79610001D01*
G37*
D11*
%TO.C,JP2*%
G36*
X144749999Y-118650000D02*
G01*
X142299999Y-118650000D01*
X142299999Y-117150000D01*
X144749999Y-117150000D01*
X144749999Y-118650000D01*
G37*
%TO.C,JP1*%
G36*
X148549999Y-118650000D02*
G01*
X146099999Y-118650000D01*
X146099999Y-117150000D01*
X148549999Y-117150000D01*
X148549999Y-118650000D01*
G37*
%TO.C,G\u002A\u002A\u002A*%
G36*
X148918837Y-93870438D02*
G01*
X148920000Y-93880000D01*
X148889561Y-93918837D01*
X148880000Y-93920000D01*
X148841162Y-93889561D01*
X148840000Y-93880000D01*
X148870438Y-93841162D01*
X148880000Y-93840000D01*
X148918837Y-93870438D01*
G37*
G36*
X148732485Y-92845234D02*
G01*
X148785676Y-92866969D01*
X148799931Y-92914252D01*
X148800000Y-92920000D01*
X148773932Y-92986002D01*
X148737639Y-93000000D01*
X148696237Y-93019391D01*
X148700000Y-93040000D01*
X148756517Y-93073809D01*
X148800953Y-93080000D01*
X148885437Y-93116464D01*
X148939939Y-93220064D01*
X148959977Y-93382104D01*
X148960000Y-93388470D01*
X148937693Y-93537740D01*
X148878495Y-93652733D01*
X148793991Y-93714459D01*
X148757731Y-93720000D01*
X148700561Y-93739918D01*
X148680642Y-93812688D01*
X148680000Y-93840000D01*
X148662348Y-93934757D01*
X148621027Y-93960000D01*
X148564023Y-93927554D01*
X148504588Y-93848581D01*
X148500000Y-93840000D01*
X148438215Y-93753723D01*
X148354990Y-93724105D01*
X148308972Y-93723157D01*
X148236253Y-93730320D01*
X148224585Y-93743836D01*
X148230000Y-93746491D01*
X148268662Y-93797637D01*
X148280000Y-93863333D01*
X148270800Y-93925526D01*
X148228341Y-93953286D01*
X148130334Y-93959974D01*
X148118744Y-93960000D01*
X147995147Y-93946131D01*
X147935648Y-93901839D01*
X147932245Y-93894215D01*
X147941096Y-93817076D01*
X147981145Y-93774215D01*
X148019188Y-93740455D01*
X148002911Y-93724616D01*
X147920972Y-93720121D01*
X147887645Y-93720000D01*
X147779594Y-93713718D01*
X147730558Y-93688566D01*
X147720000Y-93642360D01*
X147737750Y-93566208D01*
X147758722Y-93540789D01*
X147782279Y-93491841D01*
X147791406Y-93405226D01*
X147790100Y-93380000D01*
X147960000Y-93380000D01*
X147970046Y-93472535D01*
X147994750Y-93518790D01*
X148000000Y-93520000D01*
X148026438Y-93484836D01*
X148037877Y-93410000D01*
X148201417Y-93410000D01*
X148211386Y-93516990D01*
X148247044Y-93558489D01*
X148260000Y-93560000D01*
X148312305Y-93533265D01*
X148318582Y-93510000D01*
X148298842Y-93440396D01*
X148260000Y-93360000D01*
X148222610Y-93294594D01*
X148409015Y-93294594D01*
X148441407Y-93362629D01*
X148487157Y-93430195D01*
X148512581Y-93420635D01*
X148518694Y-93354194D01*
X148681841Y-93354194D01*
X148682121Y-93446927D01*
X148697326Y-93518965D01*
X148706666Y-93533333D01*
X148738869Y-93556036D01*
X148754748Y-93530628D01*
X148759783Y-93443406D01*
X148760000Y-93400000D01*
X148751128Y-93299807D01*
X148728966Y-93244079D01*
X148720000Y-93240000D01*
X148694973Y-93274105D01*
X148681841Y-93354194D01*
X148518694Y-93354194D01*
X148520000Y-93340000D01*
X148499136Y-93259572D01*
X148460000Y-93240000D01*
X148409272Y-93250599D01*
X148409015Y-93294594D01*
X148222610Y-93294594D01*
X148202834Y-93260000D01*
X148201417Y-93410000D01*
X148037877Y-93410000D01*
X148039654Y-93398373D01*
X148040000Y-93380000D01*
X148029953Y-93287464D01*
X148005249Y-93241209D01*
X148000000Y-93240000D01*
X147973561Y-93275163D01*
X147960345Y-93361626D01*
X147960000Y-93380000D01*
X147790100Y-93380000D01*
X147786676Y-93313885D01*
X147768657Y-93250759D01*
X147753518Y-93240000D01*
X147727542Y-93205988D01*
X147720000Y-93148032D01*
X147730054Y-93086720D01*
X147775809Y-93066750D01*
X147855275Y-93071856D01*
X147954160Y-93070889D01*
X148014876Y-93047459D01*
X148017636Y-93043824D01*
X148011208Y-93006319D01*
X147982360Y-93000000D01*
X147930911Y-92966558D01*
X147920000Y-92920000D01*
X147937041Y-92863296D01*
X148002213Y-92841852D01*
X148050000Y-92840252D01*
X148158450Y-92859941D01*
X148231918Y-92933022D01*
X148245269Y-92955252D01*
X148325812Y-93046622D01*
X148415269Y-93070000D01*
X148492700Y-93058504D01*
X148520000Y-93035000D01*
X148489415Y-93000985D01*
X148480000Y-93000000D01*
X148447500Y-92966498D01*
X148440000Y-92920000D01*
X148451777Y-92870006D01*
X148500681Y-92846365D01*
X148607069Y-92840030D01*
X148620000Y-92840000D01*
X148732485Y-92845234D01*
G37*
G36*
X148612733Y-86658946D02*
G01*
X148798402Y-86788376D01*
X148802884Y-86792632D01*
X148855082Y-86846940D01*
X148901964Y-86909075D01*
X148948322Y-86989775D01*
X148998949Y-87099775D01*
X149058636Y-87249812D01*
X149132177Y-87450622D01*
X149224364Y-87712942D01*
X149261482Y-87820000D01*
X149405667Y-88235986D01*
X149571420Y-88712865D01*
X149753662Y-89236098D01*
X149947314Y-89791144D01*
X150147298Y-90363465D01*
X150348536Y-90938520D01*
X150545949Y-91501771D01*
X150734460Y-92038678D01*
X150812281Y-92260000D01*
X150928731Y-92594513D01*
X151019169Y-92863077D01*
X151086158Y-93074465D01*
X151132260Y-93237448D01*
X151160040Y-93360799D01*
X151172059Y-93453292D01*
X151172881Y-93494194D01*
X151161772Y-93616724D01*
X151139582Y-93706770D01*
X151126312Y-93729687D01*
X151063968Y-93743033D01*
X150942522Y-93729868D01*
X150777017Y-93693728D01*
X150582495Y-93638149D01*
X150373998Y-93566667D01*
X150281995Y-93531203D01*
X149874456Y-93333111D01*
X149505751Y-93083593D01*
X149444743Y-93028145D01*
X149981794Y-93028145D01*
X149999611Y-93090936D01*
X150040000Y-93120000D01*
X150080033Y-93088333D01*
X150093973Y-93061281D01*
X150090365Y-92995037D01*
X150040414Y-92967114D01*
X150001746Y-92978920D01*
X149981794Y-93028145D01*
X149444743Y-93028145D01*
X149184069Y-92791227D01*
X148917598Y-92464588D01*
X148756068Y-92184326D01*
X150332345Y-92184326D01*
X150339046Y-92198457D01*
X150380031Y-92222247D01*
X150425256Y-92195637D01*
X150459961Y-92139312D01*
X150441695Y-92105695D01*
X150386624Y-92090267D01*
X150340322Y-92125380D01*
X150332345Y-92184326D01*
X148756068Y-92184326D01*
X148714529Y-92112255D01*
X148586128Y-91755049D01*
X148559148Y-91658150D01*
X149099852Y-91658150D01*
X149102801Y-91684532D01*
X149158764Y-91718586D01*
X149216973Y-91684620D01*
X149220000Y-91680000D01*
X149230788Y-91615476D01*
X149191669Y-91583464D01*
X149136879Y-91602589D01*
X149099852Y-91658150D01*
X148559148Y-91658150D01*
X148551873Y-91632022D01*
X148517460Y-91566627D01*
X148464156Y-91538682D01*
X148375553Y-91528183D01*
X148219794Y-91516367D01*
X148170195Y-91728183D01*
X148040421Y-92110328D01*
X147838930Y-92468175D01*
X147571805Y-92796054D01*
X147245128Y-93088298D01*
X146864983Y-93339238D01*
X146437452Y-93543208D01*
X146097388Y-93659635D01*
X145897327Y-93716394D01*
X145760706Y-93748201D01*
X145674225Y-93752712D01*
X145624583Y-93727577D01*
X145598480Y-93670453D01*
X145582617Y-93578990D01*
X145581177Y-93568558D01*
X145576957Y-93539893D01*
X145573668Y-93512789D01*
X145572653Y-93483174D01*
X145575256Y-93446975D01*
X145582821Y-93400120D01*
X145596693Y-93338539D01*
X145605853Y-93304326D01*
X145932345Y-93304326D01*
X145939046Y-93318457D01*
X145980031Y-93342247D01*
X146025256Y-93315637D01*
X146059961Y-93259312D01*
X146041695Y-93225695D01*
X145986624Y-93210267D01*
X145940322Y-93245380D01*
X145932345Y-93304326D01*
X145605853Y-93304326D01*
X145618215Y-93258157D01*
X145648731Y-93154904D01*
X145689585Y-93024707D01*
X145742121Y-92863494D01*
X145807684Y-92667194D01*
X145887617Y-92431733D01*
X145933227Y-92298837D01*
X146899568Y-92298837D01*
X146902801Y-92324532D01*
X146960402Y-92358954D01*
X147010577Y-92336089D01*
X147019786Y-92282827D01*
X147012572Y-92255068D01*
X146980084Y-92219662D01*
X146935769Y-92243511D01*
X146899568Y-92298837D01*
X145933227Y-92298837D01*
X145983264Y-92153041D01*
X146095970Y-91827044D01*
X146227077Y-91449671D01*
X146299368Y-91242261D01*
X148000000Y-91242261D01*
X148007104Y-91353567D01*
X148036881Y-91393520D01*
X148102031Y-91370144D01*
X148151099Y-91337731D01*
X148215191Y-91298333D01*
X148237550Y-91312549D01*
X148240000Y-91357731D01*
X148254833Y-91414239D01*
X148313783Y-91437116D01*
X148380000Y-91440000D01*
X148480979Y-91428365D01*
X148518775Y-91389182D01*
X148520000Y-91375720D01*
X148543869Y-91330705D01*
X148580000Y-91335720D01*
X148674065Y-91373784D01*
X148700000Y-91384279D01*
X148739091Y-91383630D01*
X148756811Y-91329659D01*
X148760000Y-91246540D01*
X148750262Y-91132925D01*
X148708590Y-91062810D01*
X148636305Y-91012261D01*
X148512611Y-90940000D01*
X148516774Y-90417094D01*
X149811617Y-90417094D01*
X149820000Y-90440000D01*
X149864225Y-90463772D01*
X149889029Y-90446970D01*
X149908382Y-90382905D01*
X149900000Y-90360000D01*
X149855774Y-90336227D01*
X149830970Y-90353029D01*
X149811617Y-90417094D01*
X148516774Y-90417094D01*
X148525373Y-89337094D01*
X148731617Y-89337094D01*
X148740000Y-89360000D01*
X148784225Y-89383772D01*
X148809029Y-89366970D01*
X148828382Y-89302905D01*
X148820000Y-89280000D01*
X148775774Y-89256227D01*
X148750970Y-89273029D01*
X148731617Y-89337094D01*
X148525373Y-89337094D01*
X148526305Y-89220000D01*
X148529314Y-88779490D01*
X148530600Y-88411575D01*
X148530075Y-88146468D01*
X148978060Y-88146468D01*
X149008158Y-88191251D01*
X149040000Y-88200000D01*
X149092157Y-88171201D01*
X149098291Y-88162763D01*
X149095693Y-88115345D01*
X149047605Y-88090013D01*
X148999347Y-88100403D01*
X148978060Y-88146468D01*
X148530075Y-88146468D01*
X148530001Y-88108861D01*
X148527357Y-87863958D01*
X148522505Y-87669473D01*
X148515283Y-87518017D01*
X148505530Y-87402197D01*
X148493084Y-87314622D01*
X148483634Y-87270000D01*
X148444848Y-87144184D01*
X148403703Y-87061541D01*
X148376470Y-87040000D01*
X148340764Y-87053388D01*
X148310777Y-87097208D01*
X148286151Y-87176941D01*
X148266528Y-87298069D01*
X148251549Y-87466072D01*
X148240856Y-87686432D01*
X148234090Y-87964631D01*
X148230893Y-88306149D01*
X148230906Y-88716468D01*
X148233772Y-89201070D01*
X148233924Y-89220000D01*
X148247849Y-90940000D01*
X148123924Y-91012261D01*
X148040298Y-91074461D01*
X148005626Y-91151564D01*
X148000000Y-91242261D01*
X146299368Y-91242261D01*
X146349596Y-91098150D01*
X146779852Y-91098150D01*
X146782801Y-91124532D01*
X146838764Y-91158586D01*
X146896973Y-91124620D01*
X146900000Y-91120000D01*
X146910788Y-91055476D01*
X146871669Y-91023464D01*
X146816879Y-91042589D01*
X146779852Y-91098150D01*
X146349596Y-91098150D01*
X146377932Y-91016850D01*
X146549876Y-90524508D01*
X146731779Y-90004257D01*
X147785521Y-90004257D01*
X147786418Y-90062301D01*
X147818178Y-90100227D01*
X147866366Y-90074716D01*
X147899333Y-90017158D01*
X147885180Y-89989180D01*
X147827164Y-89968790D01*
X147785521Y-90004257D01*
X146731779Y-90004257D01*
X146744255Y-89968574D01*
X146962412Y-89344976D01*
X147123464Y-88884663D01*
X147386871Y-88884663D01*
X147427925Y-88920248D01*
X147481932Y-88903689D01*
X147497198Y-88884532D01*
X147489919Y-88833003D01*
X147464230Y-88803511D01*
X147413043Y-88780696D01*
X147387427Y-88815068D01*
X147386871Y-88884663D01*
X147123464Y-88884663D01*
X147188073Y-88700000D01*
X147296306Y-88390473D01*
X147400761Y-88091443D01*
X147497219Y-87815010D01*
X147581462Y-87573276D01*
X147649269Y-87378343D01*
X147657249Y-87355322D01*
X147988397Y-87355322D01*
X147996133Y-87413778D01*
X148004526Y-87425454D01*
X148050553Y-87461876D01*
X148084803Y-87432227D01*
X148094017Y-87366877D01*
X148081819Y-87345819D01*
X148025490Y-87323881D01*
X147988397Y-87355322D01*
X147657249Y-87355322D01*
X147696423Y-87242311D01*
X147707838Y-87209190D01*
X147815407Y-86961648D01*
X147946309Y-86784716D01*
X148107041Y-86670796D01*
X148198242Y-86635800D01*
X148413035Y-86608180D01*
X148612733Y-86658946D01*
G37*
D12*
%TO.C,PS1*%
X130310000Y-131099000D02*
X130316000Y-131099000D01*
X130321000Y-131100000D01*
X130326000Y-131101000D01*
X130331000Y-131103000D01*
X130336000Y-131105000D01*
X130341000Y-131107000D01*
X130345000Y-131109000D01*
X130350000Y-131111000D01*
X130354000Y-131114000D01*
X130359000Y-131117000D01*
X130363000Y-131120000D01*
X130367000Y-131124000D01*
X130371000Y-131127000D01*
X130374000Y-131131000D01*
X130378000Y-131135000D01*
X130381000Y-131139000D01*
X130384000Y-131144000D01*
X130387000Y-131148000D01*
X130389000Y-131153000D01*
X130391000Y-131157000D01*
X130393000Y-131162000D01*
X130395000Y-131167000D01*
X130397000Y-131172000D01*
X130398000Y-131177000D01*
X130399000Y-131182000D01*
X130399000Y-131188000D01*
X130400000Y-131193000D01*
X130400000Y-131198000D01*
X130400000Y-131298000D01*
X130400000Y-131303000D01*
X130399000Y-131308000D01*
X130399000Y-131314000D01*
X130398000Y-131319000D01*
X130397000Y-131324000D01*
X130395000Y-131329000D01*
X130393000Y-131334000D01*
X130391000Y-131339000D01*
X130389000Y-131343000D01*
X130387000Y-131348000D01*
X130384000Y-131352000D01*
X130381000Y-131357000D01*
X130378000Y-131361000D01*
X130374000Y-131365000D01*
X130371000Y-131369000D01*
X130367000Y-131372000D01*
X130363000Y-131376000D01*
X130359000Y-131379000D01*
X130354000Y-131382000D01*
X130350000Y-131385000D01*
X130345000Y-131387000D01*
X130341000Y-131389000D01*
X130336000Y-131391000D01*
X130331000Y-131393000D01*
X130326000Y-131395000D01*
X130321000Y-131396000D01*
X130316000Y-131397000D01*
X130310000Y-131397000D01*
X130305000Y-131398000D01*
X130300000Y-131398000D01*
X129800000Y-131398000D01*
X129795000Y-131398000D01*
X129790000Y-131397000D01*
X129784000Y-131397000D01*
X129779000Y-131396000D01*
X129774000Y-131395000D01*
X129769000Y-131393000D01*
X129764000Y-131391000D01*
X129759000Y-131389000D01*
X129755000Y-131387000D01*
X129750000Y-131385000D01*
X129746000Y-131382000D01*
X129741000Y-131379000D01*
X129737000Y-131376000D01*
X129733000Y-131372000D01*
X129729000Y-131369000D01*
X129726000Y-131365000D01*
X129722000Y-131361000D01*
X129719000Y-131357000D01*
X129716000Y-131352000D01*
X129713000Y-131348000D01*
X129711000Y-131343000D01*
X129709000Y-131339000D01*
X129707000Y-131334000D01*
X129705000Y-131329000D01*
X129703000Y-131324000D01*
X129702000Y-131319000D01*
X129701000Y-131314000D01*
X129701000Y-131308000D01*
X129700000Y-131303000D01*
X129700000Y-131298000D01*
X129700000Y-131198000D01*
X129700000Y-131193000D01*
X129701000Y-131188000D01*
X129701000Y-131182000D01*
X129702000Y-131177000D01*
X129703000Y-131172000D01*
X129705000Y-131167000D01*
X129707000Y-131162000D01*
X129709000Y-131157000D01*
X129711000Y-131153000D01*
X129713000Y-131148000D01*
X129716000Y-131144000D01*
X129719000Y-131139000D01*
X129722000Y-131135000D01*
X129726000Y-131131000D01*
X129729000Y-131127000D01*
X129733000Y-131124000D01*
X129737000Y-131120000D01*
X129741000Y-131117000D01*
X129746000Y-131114000D01*
X129750000Y-131111000D01*
X129755000Y-131109000D01*
X129759000Y-131107000D01*
X129764000Y-131105000D01*
X129769000Y-131103000D01*
X129774000Y-131101000D01*
X129779000Y-131100000D01*
X129784000Y-131099000D01*
X129790000Y-131099000D01*
X129795000Y-131098000D01*
X129800000Y-131098000D01*
X130300000Y-131098000D01*
X130305000Y-131098000D01*
X130310000Y-131099000D01*
G36*
X130310000Y-131099000D02*
G01*
X130316000Y-131099000D01*
X130321000Y-131100000D01*
X130326000Y-131101000D01*
X130331000Y-131103000D01*
X130336000Y-131105000D01*
X130341000Y-131107000D01*
X130345000Y-131109000D01*
X130350000Y-131111000D01*
X130354000Y-131114000D01*
X130359000Y-131117000D01*
X130363000Y-131120000D01*
X130367000Y-131124000D01*
X130371000Y-131127000D01*
X130374000Y-131131000D01*
X130378000Y-131135000D01*
X130381000Y-131139000D01*
X130384000Y-131144000D01*
X130387000Y-131148000D01*
X130389000Y-131153000D01*
X130391000Y-131157000D01*
X130393000Y-131162000D01*
X130395000Y-131167000D01*
X130397000Y-131172000D01*
X130398000Y-131177000D01*
X130399000Y-131182000D01*
X130399000Y-131188000D01*
X130400000Y-131193000D01*
X130400000Y-131198000D01*
X130400000Y-131298000D01*
X130400000Y-131303000D01*
X130399000Y-131308000D01*
X130399000Y-131314000D01*
X130398000Y-131319000D01*
X130397000Y-131324000D01*
X130395000Y-131329000D01*
X130393000Y-131334000D01*
X130391000Y-131339000D01*
X130389000Y-131343000D01*
X130387000Y-131348000D01*
X130384000Y-131352000D01*
X130381000Y-131357000D01*
X130378000Y-131361000D01*
X130374000Y-131365000D01*
X130371000Y-131369000D01*
X130367000Y-131372000D01*
X130363000Y-131376000D01*
X130359000Y-131379000D01*
X130354000Y-131382000D01*
X130350000Y-131385000D01*
X130345000Y-131387000D01*
X130341000Y-131389000D01*
X130336000Y-131391000D01*
X130331000Y-131393000D01*
X130326000Y-131395000D01*
X130321000Y-131396000D01*
X130316000Y-131397000D01*
X130310000Y-131397000D01*
X130305000Y-131398000D01*
X130300000Y-131398000D01*
X129800000Y-131398000D01*
X129795000Y-131398000D01*
X129790000Y-131397000D01*
X129784000Y-131397000D01*
X129779000Y-131396000D01*
X129774000Y-131395000D01*
X129769000Y-131393000D01*
X129764000Y-131391000D01*
X129759000Y-131389000D01*
X129755000Y-131387000D01*
X129750000Y-131385000D01*
X129746000Y-131382000D01*
X129741000Y-131379000D01*
X129737000Y-131376000D01*
X129733000Y-131372000D01*
X129729000Y-131369000D01*
X129726000Y-131365000D01*
X129722000Y-131361000D01*
X129719000Y-131357000D01*
X129716000Y-131352000D01*
X129713000Y-131348000D01*
X129711000Y-131343000D01*
X129709000Y-131339000D01*
X129707000Y-131334000D01*
X129705000Y-131329000D01*
X129703000Y-131324000D01*
X129702000Y-131319000D01*
X129701000Y-131314000D01*
X129701000Y-131308000D01*
X129700000Y-131303000D01*
X129700000Y-131298000D01*
X129700000Y-131198000D01*
X129700000Y-131193000D01*
X129701000Y-131188000D01*
X129701000Y-131182000D01*
X129702000Y-131177000D01*
X129703000Y-131172000D01*
X129705000Y-131167000D01*
X129707000Y-131162000D01*
X129709000Y-131157000D01*
X129711000Y-131153000D01*
X129713000Y-131148000D01*
X129716000Y-131144000D01*
X129719000Y-131139000D01*
X129722000Y-131135000D01*
X129726000Y-131131000D01*
X129729000Y-131127000D01*
X129733000Y-131124000D01*
X129737000Y-131120000D01*
X129741000Y-131117000D01*
X129746000Y-131114000D01*
X129750000Y-131111000D01*
X129755000Y-131109000D01*
X129759000Y-131107000D01*
X129764000Y-131105000D01*
X129769000Y-131103000D01*
X129774000Y-131101000D01*
X129779000Y-131100000D01*
X129784000Y-131099000D01*
X129790000Y-131099000D01*
X129795000Y-131098000D01*
X129800000Y-131098000D01*
X130300000Y-131098000D01*
X130305000Y-131098000D01*
X130310000Y-131099000D01*
G37*
X130610000Y-131674000D02*
X130616000Y-131674000D01*
X130621000Y-131675000D01*
X130626000Y-131676000D01*
X130631000Y-131678000D01*
X130636000Y-131680000D01*
X130641000Y-131682000D01*
X130645000Y-131684000D01*
X130650000Y-131686000D01*
X130654000Y-131689000D01*
X130659000Y-131692000D01*
X130663000Y-131695000D01*
X130667000Y-131699000D01*
X130671000Y-131702000D01*
X130674000Y-131706000D01*
X130678000Y-131710000D01*
X130681000Y-131714000D01*
X130684000Y-131719000D01*
X130687000Y-131723000D01*
X130689000Y-131728000D01*
X130691000Y-131732000D01*
X130693000Y-131737000D01*
X130695000Y-131742000D01*
X130697000Y-131747000D01*
X130698000Y-131752000D01*
X130699000Y-131757000D01*
X130699000Y-131763000D01*
X130700000Y-131768000D01*
X130700000Y-131773000D01*
X130700000Y-132273000D01*
X130700000Y-132278000D01*
X130699000Y-132283000D01*
X130699000Y-132289000D01*
X130698000Y-132294000D01*
X130697000Y-132299000D01*
X130695000Y-132304000D01*
X130693000Y-132309000D01*
X130691000Y-132314000D01*
X130689000Y-132318000D01*
X130687000Y-132323000D01*
X130684000Y-132327000D01*
X130681000Y-132332000D01*
X130678000Y-132336000D01*
X130674000Y-132340000D01*
X130671000Y-132344000D01*
X130667000Y-132347000D01*
X130663000Y-132351000D01*
X130659000Y-132354000D01*
X130654000Y-132357000D01*
X130650000Y-132360000D01*
X130645000Y-132362000D01*
X130641000Y-132364000D01*
X130636000Y-132366000D01*
X130631000Y-132368000D01*
X130626000Y-132370000D01*
X130621000Y-132371000D01*
X130616000Y-132372000D01*
X130610000Y-132372000D01*
X130605000Y-132373000D01*
X130600000Y-132373000D01*
X130500000Y-132373000D01*
X130495000Y-132373000D01*
X130490000Y-132372000D01*
X130484000Y-132372000D01*
X130479000Y-132371000D01*
X130474000Y-132370000D01*
X130469000Y-132368000D01*
X130464000Y-132366000D01*
X130459000Y-132364000D01*
X130455000Y-132362000D01*
X130450000Y-132360000D01*
X130446000Y-132357000D01*
X130441000Y-132354000D01*
X130437000Y-132351000D01*
X130433000Y-132347000D01*
X130429000Y-132344000D01*
X130426000Y-132340000D01*
X130422000Y-132336000D01*
X130419000Y-132332000D01*
X130416000Y-132327000D01*
X130413000Y-132323000D01*
X130411000Y-132318000D01*
X130409000Y-132314000D01*
X130407000Y-132309000D01*
X130405000Y-132304000D01*
X130403000Y-132299000D01*
X130402000Y-132294000D01*
X130401000Y-132289000D01*
X130401000Y-132283000D01*
X130400000Y-132278000D01*
X130400000Y-132273000D01*
X130400000Y-131773000D01*
X130400000Y-131768000D01*
X130401000Y-131763000D01*
X130401000Y-131757000D01*
X130402000Y-131752000D01*
X130403000Y-131747000D01*
X130405000Y-131742000D01*
X130407000Y-131737000D01*
X130409000Y-131732000D01*
X130411000Y-131728000D01*
X130413000Y-131723000D01*
X130416000Y-131719000D01*
X130419000Y-131714000D01*
X130422000Y-131710000D01*
X130426000Y-131706000D01*
X130429000Y-131702000D01*
X130433000Y-131699000D01*
X130437000Y-131695000D01*
X130441000Y-131692000D01*
X130446000Y-131689000D01*
X130450000Y-131686000D01*
X130455000Y-131684000D01*
X130459000Y-131682000D01*
X130464000Y-131680000D01*
X130469000Y-131678000D01*
X130474000Y-131676000D01*
X130479000Y-131675000D01*
X130484000Y-131674000D01*
X130490000Y-131674000D01*
X130495000Y-131673000D01*
X130500000Y-131673000D01*
X130600000Y-131673000D01*
X130605000Y-131673000D01*
X130610000Y-131674000D01*
G36*
X130610000Y-131674000D02*
G01*
X130616000Y-131674000D01*
X130621000Y-131675000D01*
X130626000Y-131676000D01*
X130631000Y-131678000D01*
X130636000Y-131680000D01*
X130641000Y-131682000D01*
X130645000Y-131684000D01*
X130650000Y-131686000D01*
X130654000Y-131689000D01*
X130659000Y-131692000D01*
X130663000Y-131695000D01*
X130667000Y-131699000D01*
X130671000Y-131702000D01*
X130674000Y-131706000D01*
X130678000Y-131710000D01*
X130681000Y-131714000D01*
X130684000Y-131719000D01*
X130687000Y-131723000D01*
X130689000Y-131728000D01*
X130691000Y-131732000D01*
X130693000Y-131737000D01*
X130695000Y-131742000D01*
X130697000Y-131747000D01*
X130698000Y-131752000D01*
X130699000Y-131757000D01*
X130699000Y-131763000D01*
X130700000Y-131768000D01*
X130700000Y-131773000D01*
X130700000Y-132273000D01*
X130700000Y-132278000D01*
X130699000Y-132283000D01*
X130699000Y-132289000D01*
X130698000Y-132294000D01*
X130697000Y-132299000D01*
X130695000Y-132304000D01*
X130693000Y-132309000D01*
X130691000Y-132314000D01*
X130689000Y-132318000D01*
X130687000Y-132323000D01*
X130684000Y-132327000D01*
X130681000Y-132332000D01*
X130678000Y-132336000D01*
X130674000Y-132340000D01*
X130671000Y-132344000D01*
X130667000Y-132347000D01*
X130663000Y-132351000D01*
X130659000Y-132354000D01*
X130654000Y-132357000D01*
X130650000Y-132360000D01*
X130645000Y-132362000D01*
X130641000Y-132364000D01*
X130636000Y-132366000D01*
X130631000Y-132368000D01*
X130626000Y-132370000D01*
X130621000Y-132371000D01*
X130616000Y-132372000D01*
X130610000Y-132372000D01*
X130605000Y-132373000D01*
X130600000Y-132373000D01*
X130500000Y-132373000D01*
X130495000Y-132373000D01*
X130490000Y-132372000D01*
X130484000Y-132372000D01*
X130479000Y-132371000D01*
X130474000Y-132370000D01*
X130469000Y-132368000D01*
X130464000Y-132366000D01*
X130459000Y-132364000D01*
X130455000Y-132362000D01*
X130450000Y-132360000D01*
X130446000Y-132357000D01*
X130441000Y-132354000D01*
X130437000Y-132351000D01*
X130433000Y-132347000D01*
X130429000Y-132344000D01*
X130426000Y-132340000D01*
X130422000Y-132336000D01*
X130419000Y-132332000D01*
X130416000Y-132327000D01*
X130413000Y-132323000D01*
X130411000Y-132318000D01*
X130409000Y-132314000D01*
X130407000Y-132309000D01*
X130405000Y-132304000D01*
X130403000Y-132299000D01*
X130402000Y-132294000D01*
X130401000Y-132289000D01*
X130401000Y-132283000D01*
X130400000Y-132278000D01*
X130400000Y-132273000D01*
X130400000Y-131773000D01*
X130400000Y-131768000D01*
X130401000Y-131763000D01*
X130401000Y-131757000D01*
X130402000Y-131752000D01*
X130403000Y-131747000D01*
X130405000Y-131742000D01*
X130407000Y-131737000D01*
X130409000Y-131732000D01*
X130411000Y-131728000D01*
X130413000Y-131723000D01*
X130416000Y-131719000D01*
X130419000Y-131714000D01*
X130422000Y-131710000D01*
X130426000Y-131706000D01*
X130429000Y-131702000D01*
X130433000Y-131699000D01*
X130437000Y-131695000D01*
X130441000Y-131692000D01*
X130446000Y-131689000D01*
X130450000Y-131686000D01*
X130455000Y-131684000D01*
X130459000Y-131682000D01*
X130464000Y-131680000D01*
X130469000Y-131678000D01*
X130474000Y-131676000D01*
X130479000Y-131675000D01*
X130484000Y-131674000D01*
X130490000Y-131674000D01*
X130495000Y-131673000D01*
X130500000Y-131673000D01*
X130600000Y-131673000D01*
X130605000Y-131673000D01*
X130610000Y-131674000D01*
G37*
X131060000Y-131674000D02*
X131066000Y-131674000D01*
X131071000Y-131675000D01*
X131076000Y-131676000D01*
X131081000Y-131678000D01*
X131086000Y-131680000D01*
X131091000Y-131682000D01*
X131095000Y-131684000D01*
X131100000Y-131686000D01*
X131104000Y-131689000D01*
X131109000Y-131692000D01*
X131113000Y-131695000D01*
X131117000Y-131699000D01*
X131121000Y-131702000D01*
X131124000Y-131706000D01*
X131128000Y-131710000D01*
X131131000Y-131714000D01*
X131134000Y-131719000D01*
X131137000Y-131723000D01*
X131139000Y-131728000D01*
X131141000Y-131732000D01*
X131143000Y-131737000D01*
X131145000Y-131742000D01*
X131147000Y-131747000D01*
X131148000Y-131752000D01*
X131149000Y-131757000D01*
X131149000Y-131763000D01*
X131150000Y-131768000D01*
X131150000Y-131773000D01*
X131150000Y-132273000D01*
X131150000Y-132278000D01*
X131149000Y-132283000D01*
X131149000Y-132289000D01*
X131148000Y-132294000D01*
X131147000Y-132299000D01*
X131145000Y-132304000D01*
X131143000Y-132309000D01*
X131141000Y-132314000D01*
X131139000Y-132318000D01*
X131137000Y-132323000D01*
X131134000Y-132327000D01*
X131131000Y-132332000D01*
X131128000Y-132336000D01*
X131124000Y-132340000D01*
X131121000Y-132344000D01*
X131117000Y-132347000D01*
X131113000Y-132351000D01*
X131109000Y-132354000D01*
X131104000Y-132357000D01*
X131100000Y-132360000D01*
X131095000Y-132362000D01*
X131091000Y-132364000D01*
X131086000Y-132366000D01*
X131081000Y-132368000D01*
X131076000Y-132370000D01*
X131071000Y-132371000D01*
X131066000Y-132372000D01*
X131060000Y-132372000D01*
X131055000Y-132373000D01*
X131050000Y-132373000D01*
X130950000Y-132373000D01*
X130945000Y-132373000D01*
X130940000Y-132372000D01*
X130934000Y-132372000D01*
X130929000Y-132371000D01*
X130924000Y-132370000D01*
X130919000Y-132368000D01*
X130914000Y-132366000D01*
X130909000Y-132364000D01*
X130905000Y-132362000D01*
X130900000Y-132360000D01*
X130896000Y-132357000D01*
X130891000Y-132354000D01*
X130887000Y-132351000D01*
X130883000Y-132347000D01*
X130879000Y-132344000D01*
X130876000Y-132340000D01*
X130872000Y-132336000D01*
X130869000Y-132332000D01*
X130866000Y-132327000D01*
X130863000Y-132323000D01*
X130861000Y-132318000D01*
X130859000Y-132314000D01*
X130857000Y-132309000D01*
X130855000Y-132304000D01*
X130853000Y-132299000D01*
X130852000Y-132294000D01*
X130851000Y-132289000D01*
X130851000Y-132283000D01*
X130850000Y-132278000D01*
X130850000Y-132273000D01*
X130850000Y-131773000D01*
X130850000Y-131768000D01*
X130851000Y-131763000D01*
X130851000Y-131757000D01*
X130852000Y-131752000D01*
X130853000Y-131747000D01*
X130855000Y-131742000D01*
X130857000Y-131737000D01*
X130859000Y-131732000D01*
X130861000Y-131728000D01*
X130863000Y-131723000D01*
X130866000Y-131719000D01*
X130869000Y-131714000D01*
X130872000Y-131710000D01*
X130876000Y-131706000D01*
X130879000Y-131702000D01*
X130883000Y-131699000D01*
X130887000Y-131695000D01*
X130891000Y-131692000D01*
X130896000Y-131689000D01*
X130900000Y-131686000D01*
X130905000Y-131684000D01*
X130909000Y-131682000D01*
X130914000Y-131680000D01*
X130919000Y-131678000D01*
X130924000Y-131676000D01*
X130929000Y-131675000D01*
X130934000Y-131674000D01*
X130940000Y-131674000D01*
X130945000Y-131673000D01*
X130950000Y-131673000D01*
X131050000Y-131673000D01*
X131055000Y-131673000D01*
X131060000Y-131674000D01*
G36*
X131060000Y-131674000D02*
G01*
X131066000Y-131674000D01*
X131071000Y-131675000D01*
X131076000Y-131676000D01*
X131081000Y-131678000D01*
X131086000Y-131680000D01*
X131091000Y-131682000D01*
X131095000Y-131684000D01*
X131100000Y-131686000D01*
X131104000Y-131689000D01*
X131109000Y-131692000D01*
X131113000Y-131695000D01*
X131117000Y-131699000D01*
X131121000Y-131702000D01*
X131124000Y-131706000D01*
X131128000Y-131710000D01*
X131131000Y-131714000D01*
X131134000Y-131719000D01*
X131137000Y-131723000D01*
X131139000Y-131728000D01*
X131141000Y-131732000D01*
X131143000Y-131737000D01*
X131145000Y-131742000D01*
X131147000Y-131747000D01*
X131148000Y-131752000D01*
X131149000Y-131757000D01*
X131149000Y-131763000D01*
X131150000Y-131768000D01*
X131150000Y-131773000D01*
X131150000Y-132273000D01*
X131150000Y-132278000D01*
X131149000Y-132283000D01*
X131149000Y-132289000D01*
X131148000Y-132294000D01*
X131147000Y-132299000D01*
X131145000Y-132304000D01*
X131143000Y-132309000D01*
X131141000Y-132314000D01*
X131139000Y-132318000D01*
X131137000Y-132323000D01*
X131134000Y-132327000D01*
X131131000Y-132332000D01*
X131128000Y-132336000D01*
X131124000Y-132340000D01*
X131121000Y-132344000D01*
X131117000Y-132347000D01*
X131113000Y-132351000D01*
X131109000Y-132354000D01*
X131104000Y-132357000D01*
X131100000Y-132360000D01*
X131095000Y-132362000D01*
X131091000Y-132364000D01*
X131086000Y-132366000D01*
X131081000Y-132368000D01*
X131076000Y-132370000D01*
X131071000Y-132371000D01*
X131066000Y-132372000D01*
X131060000Y-132372000D01*
X131055000Y-132373000D01*
X131050000Y-132373000D01*
X130950000Y-132373000D01*
X130945000Y-132373000D01*
X130940000Y-132372000D01*
X130934000Y-132372000D01*
X130929000Y-132371000D01*
X130924000Y-132370000D01*
X130919000Y-132368000D01*
X130914000Y-132366000D01*
X130909000Y-132364000D01*
X130905000Y-132362000D01*
X130900000Y-132360000D01*
X130896000Y-132357000D01*
X130891000Y-132354000D01*
X130887000Y-132351000D01*
X130883000Y-132347000D01*
X130879000Y-132344000D01*
X130876000Y-132340000D01*
X130872000Y-132336000D01*
X130869000Y-132332000D01*
X130866000Y-132327000D01*
X130863000Y-132323000D01*
X130861000Y-132318000D01*
X130859000Y-132314000D01*
X130857000Y-132309000D01*
X130855000Y-132304000D01*
X130853000Y-132299000D01*
X130852000Y-132294000D01*
X130851000Y-132289000D01*
X130851000Y-132283000D01*
X130850000Y-132278000D01*
X130850000Y-132273000D01*
X130850000Y-131773000D01*
X130850000Y-131768000D01*
X130851000Y-131763000D01*
X130851000Y-131757000D01*
X130852000Y-131752000D01*
X130853000Y-131747000D01*
X130855000Y-131742000D01*
X130857000Y-131737000D01*
X130859000Y-131732000D01*
X130861000Y-131728000D01*
X130863000Y-131723000D01*
X130866000Y-131719000D01*
X130869000Y-131714000D01*
X130872000Y-131710000D01*
X130876000Y-131706000D01*
X130879000Y-131702000D01*
X130883000Y-131699000D01*
X130887000Y-131695000D01*
X130891000Y-131692000D01*
X130896000Y-131689000D01*
X130900000Y-131686000D01*
X130905000Y-131684000D01*
X130909000Y-131682000D01*
X130914000Y-131680000D01*
X130919000Y-131678000D01*
X130924000Y-131676000D01*
X130929000Y-131675000D01*
X130934000Y-131674000D01*
X130940000Y-131674000D01*
X130945000Y-131673000D01*
X130950000Y-131673000D01*
X131050000Y-131673000D01*
X131055000Y-131673000D01*
X131060000Y-131674000D01*
G37*
X131210000Y-129474000D02*
X131216000Y-129474000D01*
X131221000Y-129475000D01*
X131226000Y-129476000D01*
X131231000Y-129478000D01*
X131236000Y-129480000D01*
X131241000Y-129482000D01*
X131245000Y-129484000D01*
X131250000Y-129486000D01*
X131254000Y-129489000D01*
X131259000Y-129492000D01*
X131263000Y-129495000D01*
X131267000Y-129499000D01*
X131271000Y-129502000D01*
X131274000Y-129506000D01*
X131278000Y-129510000D01*
X131281000Y-129514000D01*
X131284000Y-129519000D01*
X131287000Y-129523000D01*
X131289000Y-129528000D01*
X131291000Y-129532000D01*
X131293000Y-129537000D01*
X131295000Y-129542000D01*
X131297000Y-129547000D01*
X131298000Y-129552000D01*
X131299000Y-129557000D01*
X131299000Y-129563000D01*
X131300000Y-129568000D01*
X131300000Y-129573000D01*
X131300000Y-129773000D01*
X131300000Y-129778000D01*
X131299000Y-129783000D01*
X131299000Y-129789000D01*
X131298000Y-129794000D01*
X131297000Y-129799000D01*
X131295000Y-129804000D01*
X131293000Y-129809000D01*
X131291000Y-129814000D01*
X131289000Y-129818000D01*
X131287000Y-129823000D01*
X131284000Y-129827000D01*
X131281000Y-129832000D01*
X131278000Y-129836000D01*
X131274000Y-129840000D01*
X131271000Y-129844000D01*
X131267000Y-129847000D01*
X131263000Y-129851000D01*
X131259000Y-129854000D01*
X131254000Y-129857000D01*
X131250000Y-129860000D01*
X131245000Y-129862000D01*
X131241000Y-129864000D01*
X131236000Y-129866000D01*
X131231000Y-129868000D01*
X131226000Y-129870000D01*
X131221000Y-129871000D01*
X131216000Y-129872000D01*
X131210000Y-129872000D01*
X131205000Y-129873000D01*
X131200000Y-129873000D01*
X129800000Y-129873000D01*
X129795000Y-129873000D01*
X129790000Y-129872000D01*
X129784000Y-129872000D01*
X129779000Y-129871000D01*
X129774000Y-129870000D01*
X129769000Y-129868000D01*
X129764000Y-129866000D01*
X129759000Y-129864000D01*
X129755000Y-129862000D01*
X129750000Y-129860000D01*
X129746000Y-129857000D01*
X129741000Y-129854000D01*
X129737000Y-129851000D01*
X129733000Y-129847000D01*
X129729000Y-129844000D01*
X129726000Y-129840000D01*
X129722000Y-129836000D01*
X129719000Y-129832000D01*
X129716000Y-129827000D01*
X129713000Y-129823000D01*
X129711000Y-129818000D01*
X129709000Y-129814000D01*
X129707000Y-129809000D01*
X129705000Y-129804000D01*
X129703000Y-129799000D01*
X129702000Y-129794000D01*
X129701000Y-129789000D01*
X129701000Y-129783000D01*
X129700000Y-129778000D01*
X129700000Y-129773000D01*
X129700000Y-129573000D01*
X129700000Y-129568000D01*
X129701000Y-129563000D01*
X129701000Y-129557000D01*
X129702000Y-129552000D01*
X129703000Y-129547000D01*
X129705000Y-129542000D01*
X129707000Y-129537000D01*
X129709000Y-129532000D01*
X129711000Y-129528000D01*
X129713000Y-129523000D01*
X129716000Y-129519000D01*
X129719000Y-129514000D01*
X129722000Y-129510000D01*
X129726000Y-129506000D01*
X129729000Y-129502000D01*
X129733000Y-129499000D01*
X129737000Y-129495000D01*
X129741000Y-129492000D01*
X129746000Y-129489000D01*
X129750000Y-129486000D01*
X129755000Y-129484000D01*
X129759000Y-129482000D01*
X129764000Y-129480000D01*
X129769000Y-129478000D01*
X129774000Y-129476000D01*
X129779000Y-129475000D01*
X129784000Y-129474000D01*
X129790000Y-129474000D01*
X129795000Y-129473000D01*
X129800000Y-129473000D01*
X131200000Y-129473000D01*
X131205000Y-129473000D01*
X131210000Y-129474000D01*
G36*
X131210000Y-129474000D02*
G01*
X131216000Y-129474000D01*
X131221000Y-129475000D01*
X131226000Y-129476000D01*
X131231000Y-129478000D01*
X131236000Y-129480000D01*
X131241000Y-129482000D01*
X131245000Y-129484000D01*
X131250000Y-129486000D01*
X131254000Y-129489000D01*
X131259000Y-129492000D01*
X131263000Y-129495000D01*
X131267000Y-129499000D01*
X131271000Y-129502000D01*
X131274000Y-129506000D01*
X131278000Y-129510000D01*
X131281000Y-129514000D01*
X131284000Y-129519000D01*
X131287000Y-129523000D01*
X131289000Y-129528000D01*
X131291000Y-129532000D01*
X131293000Y-129537000D01*
X131295000Y-129542000D01*
X131297000Y-129547000D01*
X131298000Y-129552000D01*
X131299000Y-129557000D01*
X131299000Y-129563000D01*
X131300000Y-129568000D01*
X131300000Y-129573000D01*
X131300000Y-129773000D01*
X131300000Y-129778000D01*
X131299000Y-129783000D01*
X131299000Y-129789000D01*
X131298000Y-129794000D01*
X131297000Y-129799000D01*
X131295000Y-129804000D01*
X131293000Y-129809000D01*
X131291000Y-129814000D01*
X131289000Y-129818000D01*
X131287000Y-129823000D01*
X131284000Y-129827000D01*
X131281000Y-129832000D01*
X131278000Y-129836000D01*
X131274000Y-129840000D01*
X131271000Y-129844000D01*
X131267000Y-129847000D01*
X131263000Y-129851000D01*
X131259000Y-129854000D01*
X131254000Y-129857000D01*
X131250000Y-129860000D01*
X131245000Y-129862000D01*
X131241000Y-129864000D01*
X131236000Y-129866000D01*
X131231000Y-129868000D01*
X131226000Y-129870000D01*
X131221000Y-129871000D01*
X131216000Y-129872000D01*
X131210000Y-129872000D01*
X131205000Y-129873000D01*
X131200000Y-129873000D01*
X129800000Y-129873000D01*
X129795000Y-129873000D01*
X129790000Y-129872000D01*
X129784000Y-129872000D01*
X129779000Y-129871000D01*
X129774000Y-129870000D01*
X129769000Y-129868000D01*
X129764000Y-129866000D01*
X129759000Y-129864000D01*
X129755000Y-129862000D01*
X129750000Y-129860000D01*
X129746000Y-129857000D01*
X129741000Y-129854000D01*
X129737000Y-129851000D01*
X129733000Y-129847000D01*
X129729000Y-129844000D01*
X129726000Y-129840000D01*
X129722000Y-129836000D01*
X129719000Y-129832000D01*
X129716000Y-129827000D01*
X129713000Y-129823000D01*
X129711000Y-129818000D01*
X129709000Y-129814000D01*
X129707000Y-129809000D01*
X129705000Y-129804000D01*
X129703000Y-129799000D01*
X129702000Y-129794000D01*
X129701000Y-129789000D01*
X129701000Y-129783000D01*
X129700000Y-129778000D01*
X129700000Y-129773000D01*
X129700000Y-129573000D01*
X129700000Y-129568000D01*
X129701000Y-129563000D01*
X129701000Y-129557000D01*
X129702000Y-129552000D01*
X129703000Y-129547000D01*
X129705000Y-129542000D01*
X129707000Y-129537000D01*
X129709000Y-129532000D01*
X129711000Y-129528000D01*
X129713000Y-129523000D01*
X129716000Y-129519000D01*
X129719000Y-129514000D01*
X129722000Y-129510000D01*
X129726000Y-129506000D01*
X129729000Y-129502000D01*
X129733000Y-129499000D01*
X129737000Y-129495000D01*
X129741000Y-129492000D01*
X129746000Y-129489000D01*
X129750000Y-129486000D01*
X129755000Y-129484000D01*
X129759000Y-129482000D01*
X129764000Y-129480000D01*
X129769000Y-129478000D01*
X129774000Y-129476000D01*
X129779000Y-129475000D01*
X129784000Y-129474000D01*
X129790000Y-129474000D01*
X129795000Y-129473000D01*
X129800000Y-129473000D01*
X131200000Y-129473000D01*
X131205000Y-129473000D01*
X131210000Y-129474000D01*
G37*
X131510000Y-131674000D02*
X131516000Y-131674000D01*
X131521000Y-131675000D01*
X131526000Y-131676000D01*
X131531000Y-131678000D01*
X131536000Y-131680000D01*
X131541000Y-131682000D01*
X131545000Y-131684000D01*
X131550000Y-131686000D01*
X131554000Y-131689000D01*
X131559000Y-131692000D01*
X131563000Y-131695000D01*
X131567000Y-131699000D01*
X131571000Y-131702000D01*
X131574000Y-131706000D01*
X131578000Y-131710000D01*
X131581000Y-131714000D01*
X131584000Y-131719000D01*
X131587000Y-131723000D01*
X131589000Y-131728000D01*
X131591000Y-131732000D01*
X131593000Y-131737000D01*
X131595000Y-131742000D01*
X131597000Y-131747000D01*
X131598000Y-131752000D01*
X131599000Y-131757000D01*
X131599000Y-131763000D01*
X131600000Y-131768000D01*
X131600000Y-131773000D01*
X131600000Y-132273000D01*
X131600000Y-132278000D01*
X131599000Y-132283000D01*
X131599000Y-132289000D01*
X131598000Y-132294000D01*
X131597000Y-132299000D01*
X131595000Y-132304000D01*
X131593000Y-132309000D01*
X131591000Y-132314000D01*
X131589000Y-132318000D01*
X131587000Y-132323000D01*
X131584000Y-132327000D01*
X131581000Y-132332000D01*
X131578000Y-132336000D01*
X131574000Y-132340000D01*
X131571000Y-132344000D01*
X131567000Y-132347000D01*
X131563000Y-132351000D01*
X131559000Y-132354000D01*
X131554000Y-132357000D01*
X131550000Y-132360000D01*
X131545000Y-132362000D01*
X131541000Y-132364000D01*
X131536000Y-132366000D01*
X131531000Y-132368000D01*
X131526000Y-132370000D01*
X131521000Y-132371000D01*
X131516000Y-132372000D01*
X131510000Y-132372000D01*
X131505000Y-132373000D01*
X131500000Y-132373000D01*
X131400000Y-132373000D01*
X131395000Y-132373000D01*
X131390000Y-132372000D01*
X131384000Y-132372000D01*
X131379000Y-132371000D01*
X131374000Y-132370000D01*
X131369000Y-132368000D01*
X131364000Y-132366000D01*
X131359000Y-132364000D01*
X131355000Y-132362000D01*
X131350000Y-132360000D01*
X131346000Y-132357000D01*
X131341000Y-132354000D01*
X131337000Y-132351000D01*
X131333000Y-132347000D01*
X131329000Y-132344000D01*
X131326000Y-132340000D01*
X131322000Y-132336000D01*
X131319000Y-132332000D01*
X131316000Y-132327000D01*
X131313000Y-132323000D01*
X131311000Y-132318000D01*
X131309000Y-132314000D01*
X131307000Y-132309000D01*
X131305000Y-132304000D01*
X131303000Y-132299000D01*
X131302000Y-132294000D01*
X131301000Y-132289000D01*
X131301000Y-132283000D01*
X131300000Y-132278000D01*
X131300000Y-132273000D01*
X131300000Y-131773000D01*
X131300000Y-131768000D01*
X131301000Y-131763000D01*
X131301000Y-131757000D01*
X131302000Y-131752000D01*
X131303000Y-131747000D01*
X131305000Y-131742000D01*
X131307000Y-131737000D01*
X131309000Y-131732000D01*
X131311000Y-131728000D01*
X131313000Y-131723000D01*
X131316000Y-131719000D01*
X131319000Y-131714000D01*
X131322000Y-131710000D01*
X131326000Y-131706000D01*
X131329000Y-131702000D01*
X131333000Y-131699000D01*
X131337000Y-131695000D01*
X131341000Y-131692000D01*
X131346000Y-131689000D01*
X131350000Y-131686000D01*
X131355000Y-131684000D01*
X131359000Y-131682000D01*
X131364000Y-131680000D01*
X131369000Y-131678000D01*
X131374000Y-131676000D01*
X131379000Y-131675000D01*
X131384000Y-131674000D01*
X131390000Y-131674000D01*
X131395000Y-131673000D01*
X131400000Y-131673000D01*
X131500000Y-131673000D01*
X131505000Y-131673000D01*
X131510000Y-131674000D01*
G36*
X131510000Y-131674000D02*
G01*
X131516000Y-131674000D01*
X131521000Y-131675000D01*
X131526000Y-131676000D01*
X131531000Y-131678000D01*
X131536000Y-131680000D01*
X131541000Y-131682000D01*
X131545000Y-131684000D01*
X131550000Y-131686000D01*
X131554000Y-131689000D01*
X131559000Y-131692000D01*
X131563000Y-131695000D01*
X131567000Y-131699000D01*
X131571000Y-131702000D01*
X131574000Y-131706000D01*
X131578000Y-131710000D01*
X131581000Y-131714000D01*
X131584000Y-131719000D01*
X131587000Y-131723000D01*
X131589000Y-131728000D01*
X131591000Y-131732000D01*
X131593000Y-131737000D01*
X131595000Y-131742000D01*
X131597000Y-131747000D01*
X131598000Y-131752000D01*
X131599000Y-131757000D01*
X131599000Y-131763000D01*
X131600000Y-131768000D01*
X131600000Y-131773000D01*
X131600000Y-132273000D01*
X131600000Y-132278000D01*
X131599000Y-132283000D01*
X131599000Y-132289000D01*
X131598000Y-132294000D01*
X131597000Y-132299000D01*
X131595000Y-132304000D01*
X131593000Y-132309000D01*
X131591000Y-132314000D01*
X131589000Y-132318000D01*
X131587000Y-132323000D01*
X131584000Y-132327000D01*
X131581000Y-132332000D01*
X131578000Y-132336000D01*
X131574000Y-132340000D01*
X131571000Y-132344000D01*
X131567000Y-132347000D01*
X131563000Y-132351000D01*
X131559000Y-132354000D01*
X131554000Y-132357000D01*
X131550000Y-132360000D01*
X131545000Y-132362000D01*
X131541000Y-132364000D01*
X131536000Y-132366000D01*
X131531000Y-132368000D01*
X131526000Y-132370000D01*
X131521000Y-132371000D01*
X131516000Y-132372000D01*
X131510000Y-132372000D01*
X131505000Y-132373000D01*
X131500000Y-132373000D01*
X131400000Y-132373000D01*
X131395000Y-132373000D01*
X131390000Y-132372000D01*
X131384000Y-132372000D01*
X131379000Y-132371000D01*
X131374000Y-132370000D01*
X131369000Y-132368000D01*
X131364000Y-132366000D01*
X131359000Y-132364000D01*
X131355000Y-132362000D01*
X131350000Y-132360000D01*
X131346000Y-132357000D01*
X131341000Y-132354000D01*
X131337000Y-132351000D01*
X131333000Y-132347000D01*
X131329000Y-132344000D01*
X131326000Y-132340000D01*
X131322000Y-132336000D01*
X131319000Y-132332000D01*
X131316000Y-132327000D01*
X131313000Y-132323000D01*
X131311000Y-132318000D01*
X131309000Y-132314000D01*
X131307000Y-132309000D01*
X131305000Y-132304000D01*
X131303000Y-132299000D01*
X131302000Y-132294000D01*
X131301000Y-132289000D01*
X131301000Y-132283000D01*
X131300000Y-132278000D01*
X131300000Y-132273000D01*
X131300000Y-131773000D01*
X131300000Y-131768000D01*
X131301000Y-131763000D01*
X131301000Y-131757000D01*
X131302000Y-131752000D01*
X131303000Y-131747000D01*
X131305000Y-131742000D01*
X131307000Y-131737000D01*
X131309000Y-131732000D01*
X131311000Y-131728000D01*
X131313000Y-131723000D01*
X131316000Y-131719000D01*
X131319000Y-131714000D01*
X131322000Y-131710000D01*
X131326000Y-131706000D01*
X131329000Y-131702000D01*
X131333000Y-131699000D01*
X131337000Y-131695000D01*
X131341000Y-131692000D01*
X131346000Y-131689000D01*
X131350000Y-131686000D01*
X131355000Y-131684000D01*
X131359000Y-131682000D01*
X131364000Y-131680000D01*
X131369000Y-131678000D01*
X131374000Y-131676000D01*
X131379000Y-131675000D01*
X131384000Y-131674000D01*
X131390000Y-131674000D01*
X131395000Y-131673000D01*
X131400000Y-131673000D01*
X131500000Y-131673000D01*
X131505000Y-131673000D01*
X131510000Y-131674000D01*
G37*
X131960000Y-131674000D02*
X131966000Y-131674000D01*
X131971000Y-131675000D01*
X131976000Y-131676000D01*
X131981000Y-131678000D01*
X131986000Y-131680000D01*
X131991000Y-131682000D01*
X131995000Y-131684000D01*
X132000000Y-131686000D01*
X132004000Y-131689000D01*
X132009000Y-131692000D01*
X132013000Y-131695000D01*
X132017000Y-131699000D01*
X132021000Y-131702000D01*
X132024000Y-131706000D01*
X132028000Y-131710000D01*
X132031000Y-131714000D01*
X132034000Y-131719000D01*
X132037000Y-131723000D01*
X132039000Y-131728000D01*
X132041000Y-131732000D01*
X132043000Y-131737000D01*
X132045000Y-131742000D01*
X132047000Y-131747000D01*
X132048000Y-131752000D01*
X132049000Y-131757000D01*
X132049000Y-131763000D01*
X132050000Y-131768000D01*
X132050000Y-131773000D01*
X132050000Y-132273000D01*
X132050000Y-132278000D01*
X132049000Y-132283000D01*
X132049000Y-132289000D01*
X132048000Y-132294000D01*
X132047000Y-132299000D01*
X132045000Y-132304000D01*
X132043000Y-132309000D01*
X132041000Y-132314000D01*
X132039000Y-132318000D01*
X132037000Y-132323000D01*
X132034000Y-132327000D01*
X132031000Y-132332000D01*
X132028000Y-132336000D01*
X132024000Y-132340000D01*
X132021000Y-132344000D01*
X132017000Y-132347000D01*
X132013000Y-132351000D01*
X132009000Y-132354000D01*
X132004000Y-132357000D01*
X132000000Y-132360000D01*
X131995000Y-132362000D01*
X131991000Y-132364000D01*
X131986000Y-132366000D01*
X131981000Y-132368000D01*
X131976000Y-132370000D01*
X131971000Y-132371000D01*
X131966000Y-132372000D01*
X131960000Y-132372000D01*
X131955000Y-132373000D01*
X131950000Y-132373000D01*
X131850000Y-132373000D01*
X131845000Y-132373000D01*
X131840000Y-132372000D01*
X131834000Y-132372000D01*
X131829000Y-132371000D01*
X131824000Y-132370000D01*
X131819000Y-132368000D01*
X131814000Y-132366000D01*
X131809000Y-132364000D01*
X131805000Y-132362000D01*
X131800000Y-132360000D01*
X131796000Y-132357000D01*
X131791000Y-132354000D01*
X131787000Y-132351000D01*
X131783000Y-132347000D01*
X131779000Y-132344000D01*
X131776000Y-132340000D01*
X131772000Y-132336000D01*
X131769000Y-132332000D01*
X131766000Y-132327000D01*
X131763000Y-132323000D01*
X131761000Y-132318000D01*
X131759000Y-132314000D01*
X131757000Y-132309000D01*
X131755000Y-132304000D01*
X131753000Y-132299000D01*
X131752000Y-132294000D01*
X131751000Y-132289000D01*
X131751000Y-132283000D01*
X131750000Y-132278000D01*
X131750000Y-132273000D01*
X131750000Y-131773000D01*
X131750000Y-131768000D01*
X131751000Y-131763000D01*
X131751000Y-131757000D01*
X131752000Y-131752000D01*
X131753000Y-131747000D01*
X131755000Y-131742000D01*
X131757000Y-131737000D01*
X131759000Y-131732000D01*
X131761000Y-131728000D01*
X131763000Y-131723000D01*
X131766000Y-131719000D01*
X131769000Y-131714000D01*
X131772000Y-131710000D01*
X131776000Y-131706000D01*
X131779000Y-131702000D01*
X131783000Y-131699000D01*
X131787000Y-131695000D01*
X131791000Y-131692000D01*
X131796000Y-131689000D01*
X131800000Y-131686000D01*
X131805000Y-131684000D01*
X131809000Y-131682000D01*
X131814000Y-131680000D01*
X131819000Y-131678000D01*
X131824000Y-131676000D01*
X131829000Y-131675000D01*
X131834000Y-131674000D01*
X131840000Y-131674000D01*
X131845000Y-131673000D01*
X131850000Y-131673000D01*
X131950000Y-131673000D01*
X131955000Y-131673000D01*
X131960000Y-131674000D01*
G36*
X131960000Y-131674000D02*
G01*
X131966000Y-131674000D01*
X131971000Y-131675000D01*
X131976000Y-131676000D01*
X131981000Y-131678000D01*
X131986000Y-131680000D01*
X131991000Y-131682000D01*
X131995000Y-131684000D01*
X132000000Y-131686000D01*
X132004000Y-131689000D01*
X132009000Y-131692000D01*
X132013000Y-131695000D01*
X132017000Y-131699000D01*
X132021000Y-131702000D01*
X132024000Y-131706000D01*
X132028000Y-131710000D01*
X132031000Y-131714000D01*
X132034000Y-131719000D01*
X132037000Y-131723000D01*
X132039000Y-131728000D01*
X132041000Y-131732000D01*
X132043000Y-131737000D01*
X132045000Y-131742000D01*
X132047000Y-131747000D01*
X132048000Y-131752000D01*
X132049000Y-131757000D01*
X132049000Y-131763000D01*
X132050000Y-131768000D01*
X132050000Y-131773000D01*
X132050000Y-132273000D01*
X132050000Y-132278000D01*
X132049000Y-132283000D01*
X132049000Y-132289000D01*
X132048000Y-132294000D01*
X132047000Y-132299000D01*
X132045000Y-132304000D01*
X132043000Y-132309000D01*
X132041000Y-132314000D01*
X132039000Y-132318000D01*
X132037000Y-132323000D01*
X132034000Y-132327000D01*
X132031000Y-132332000D01*
X132028000Y-132336000D01*
X132024000Y-132340000D01*
X132021000Y-132344000D01*
X132017000Y-132347000D01*
X132013000Y-132351000D01*
X132009000Y-132354000D01*
X132004000Y-132357000D01*
X132000000Y-132360000D01*
X131995000Y-132362000D01*
X131991000Y-132364000D01*
X131986000Y-132366000D01*
X131981000Y-132368000D01*
X131976000Y-132370000D01*
X131971000Y-132371000D01*
X131966000Y-132372000D01*
X131960000Y-132372000D01*
X131955000Y-132373000D01*
X131950000Y-132373000D01*
X131850000Y-132373000D01*
X131845000Y-132373000D01*
X131840000Y-132372000D01*
X131834000Y-132372000D01*
X131829000Y-132371000D01*
X131824000Y-132370000D01*
X131819000Y-132368000D01*
X131814000Y-132366000D01*
X131809000Y-132364000D01*
X131805000Y-132362000D01*
X131800000Y-132360000D01*
X131796000Y-132357000D01*
X131791000Y-132354000D01*
X131787000Y-132351000D01*
X131783000Y-132347000D01*
X131779000Y-132344000D01*
X131776000Y-132340000D01*
X131772000Y-132336000D01*
X131769000Y-132332000D01*
X131766000Y-132327000D01*
X131763000Y-132323000D01*
X131761000Y-132318000D01*
X131759000Y-132314000D01*
X131757000Y-132309000D01*
X131755000Y-132304000D01*
X131753000Y-132299000D01*
X131752000Y-132294000D01*
X131751000Y-132289000D01*
X131751000Y-132283000D01*
X131750000Y-132278000D01*
X131750000Y-132273000D01*
X131750000Y-131773000D01*
X131750000Y-131768000D01*
X131751000Y-131763000D01*
X131751000Y-131757000D01*
X131752000Y-131752000D01*
X131753000Y-131747000D01*
X131755000Y-131742000D01*
X131757000Y-131737000D01*
X131759000Y-131732000D01*
X131761000Y-131728000D01*
X131763000Y-131723000D01*
X131766000Y-131719000D01*
X131769000Y-131714000D01*
X131772000Y-131710000D01*
X131776000Y-131706000D01*
X131779000Y-131702000D01*
X131783000Y-131699000D01*
X131787000Y-131695000D01*
X131791000Y-131692000D01*
X131796000Y-131689000D01*
X131800000Y-131686000D01*
X131805000Y-131684000D01*
X131809000Y-131682000D01*
X131814000Y-131680000D01*
X131819000Y-131678000D01*
X131824000Y-131676000D01*
X131829000Y-131675000D01*
X131834000Y-131674000D01*
X131840000Y-131674000D01*
X131845000Y-131673000D01*
X131850000Y-131673000D01*
X131950000Y-131673000D01*
X131955000Y-131673000D01*
X131960000Y-131674000D01*
G37*
X132410000Y-131674000D02*
X132416000Y-131674000D01*
X132421000Y-131675000D01*
X132426000Y-131676000D01*
X132431000Y-131678000D01*
X132436000Y-131680000D01*
X132441000Y-131682000D01*
X132445000Y-131684000D01*
X132450000Y-131686000D01*
X132454000Y-131689000D01*
X132459000Y-131692000D01*
X132463000Y-131695000D01*
X132467000Y-131699000D01*
X132471000Y-131702000D01*
X132474000Y-131706000D01*
X132478000Y-131710000D01*
X132481000Y-131714000D01*
X132484000Y-131719000D01*
X132487000Y-131723000D01*
X132489000Y-131728000D01*
X132491000Y-131732000D01*
X132493000Y-131737000D01*
X132495000Y-131742000D01*
X132497000Y-131747000D01*
X132498000Y-131752000D01*
X132499000Y-131757000D01*
X132499000Y-131763000D01*
X132500000Y-131768000D01*
X132500000Y-131773000D01*
X132500000Y-132273000D01*
X132500000Y-132278000D01*
X132499000Y-132283000D01*
X132499000Y-132289000D01*
X132498000Y-132294000D01*
X132497000Y-132299000D01*
X132495000Y-132304000D01*
X132493000Y-132309000D01*
X132491000Y-132314000D01*
X132489000Y-132318000D01*
X132487000Y-132323000D01*
X132484000Y-132327000D01*
X132481000Y-132332000D01*
X132478000Y-132336000D01*
X132474000Y-132340000D01*
X132471000Y-132344000D01*
X132467000Y-132347000D01*
X132463000Y-132351000D01*
X132459000Y-132354000D01*
X132454000Y-132357000D01*
X132450000Y-132360000D01*
X132445000Y-132362000D01*
X132441000Y-132364000D01*
X132436000Y-132366000D01*
X132431000Y-132368000D01*
X132426000Y-132370000D01*
X132421000Y-132371000D01*
X132416000Y-132372000D01*
X132410000Y-132372000D01*
X132405000Y-132373000D01*
X132400000Y-132373000D01*
X132300000Y-132373000D01*
X132295000Y-132373000D01*
X132290000Y-132372000D01*
X132284000Y-132372000D01*
X132279000Y-132371000D01*
X132274000Y-132370000D01*
X132269000Y-132368000D01*
X132264000Y-132366000D01*
X132259000Y-132364000D01*
X132255000Y-132362000D01*
X132250000Y-132360000D01*
X132246000Y-132357000D01*
X132241000Y-132354000D01*
X132237000Y-132351000D01*
X132233000Y-132347000D01*
X132229000Y-132344000D01*
X132226000Y-132340000D01*
X132222000Y-132336000D01*
X132219000Y-132332000D01*
X132216000Y-132327000D01*
X132213000Y-132323000D01*
X132211000Y-132318000D01*
X132209000Y-132314000D01*
X132207000Y-132309000D01*
X132205000Y-132304000D01*
X132203000Y-132299000D01*
X132202000Y-132294000D01*
X132201000Y-132289000D01*
X132201000Y-132283000D01*
X132200000Y-132278000D01*
X132200000Y-132273000D01*
X132200000Y-131773000D01*
X132200000Y-131768000D01*
X132201000Y-131763000D01*
X132201000Y-131757000D01*
X132202000Y-131752000D01*
X132203000Y-131747000D01*
X132205000Y-131742000D01*
X132207000Y-131737000D01*
X132209000Y-131732000D01*
X132211000Y-131728000D01*
X132213000Y-131723000D01*
X132216000Y-131719000D01*
X132219000Y-131714000D01*
X132222000Y-131710000D01*
X132226000Y-131706000D01*
X132229000Y-131702000D01*
X132233000Y-131699000D01*
X132237000Y-131695000D01*
X132241000Y-131692000D01*
X132246000Y-131689000D01*
X132250000Y-131686000D01*
X132255000Y-131684000D01*
X132259000Y-131682000D01*
X132264000Y-131680000D01*
X132269000Y-131678000D01*
X132274000Y-131676000D01*
X132279000Y-131675000D01*
X132284000Y-131674000D01*
X132290000Y-131674000D01*
X132295000Y-131673000D01*
X132300000Y-131673000D01*
X132400000Y-131673000D01*
X132405000Y-131673000D01*
X132410000Y-131674000D01*
G36*
X132410000Y-131674000D02*
G01*
X132416000Y-131674000D01*
X132421000Y-131675000D01*
X132426000Y-131676000D01*
X132431000Y-131678000D01*
X132436000Y-131680000D01*
X132441000Y-131682000D01*
X132445000Y-131684000D01*
X132450000Y-131686000D01*
X132454000Y-131689000D01*
X132459000Y-131692000D01*
X132463000Y-131695000D01*
X132467000Y-131699000D01*
X132471000Y-131702000D01*
X132474000Y-131706000D01*
X132478000Y-131710000D01*
X132481000Y-131714000D01*
X132484000Y-131719000D01*
X132487000Y-131723000D01*
X132489000Y-131728000D01*
X132491000Y-131732000D01*
X132493000Y-131737000D01*
X132495000Y-131742000D01*
X132497000Y-131747000D01*
X132498000Y-131752000D01*
X132499000Y-131757000D01*
X132499000Y-131763000D01*
X132500000Y-131768000D01*
X132500000Y-131773000D01*
X132500000Y-132273000D01*
X132500000Y-132278000D01*
X132499000Y-132283000D01*
X132499000Y-132289000D01*
X132498000Y-132294000D01*
X132497000Y-132299000D01*
X132495000Y-132304000D01*
X132493000Y-132309000D01*
X132491000Y-132314000D01*
X132489000Y-132318000D01*
X132487000Y-132323000D01*
X132484000Y-132327000D01*
X132481000Y-132332000D01*
X132478000Y-132336000D01*
X132474000Y-132340000D01*
X132471000Y-132344000D01*
X132467000Y-132347000D01*
X132463000Y-132351000D01*
X132459000Y-132354000D01*
X132454000Y-132357000D01*
X132450000Y-132360000D01*
X132445000Y-132362000D01*
X132441000Y-132364000D01*
X132436000Y-132366000D01*
X132431000Y-132368000D01*
X132426000Y-132370000D01*
X132421000Y-132371000D01*
X132416000Y-132372000D01*
X132410000Y-132372000D01*
X132405000Y-132373000D01*
X132400000Y-132373000D01*
X132300000Y-132373000D01*
X132295000Y-132373000D01*
X132290000Y-132372000D01*
X132284000Y-132372000D01*
X132279000Y-132371000D01*
X132274000Y-132370000D01*
X132269000Y-132368000D01*
X132264000Y-132366000D01*
X132259000Y-132364000D01*
X132255000Y-132362000D01*
X132250000Y-132360000D01*
X132246000Y-132357000D01*
X132241000Y-132354000D01*
X132237000Y-132351000D01*
X132233000Y-132347000D01*
X132229000Y-132344000D01*
X132226000Y-132340000D01*
X132222000Y-132336000D01*
X132219000Y-132332000D01*
X132216000Y-132327000D01*
X132213000Y-132323000D01*
X132211000Y-132318000D01*
X132209000Y-132314000D01*
X132207000Y-132309000D01*
X132205000Y-132304000D01*
X132203000Y-132299000D01*
X132202000Y-132294000D01*
X132201000Y-132289000D01*
X132201000Y-132283000D01*
X132200000Y-132278000D01*
X132200000Y-132273000D01*
X132200000Y-131773000D01*
X132200000Y-131768000D01*
X132201000Y-131763000D01*
X132201000Y-131757000D01*
X132202000Y-131752000D01*
X132203000Y-131747000D01*
X132205000Y-131742000D01*
X132207000Y-131737000D01*
X132209000Y-131732000D01*
X132211000Y-131728000D01*
X132213000Y-131723000D01*
X132216000Y-131719000D01*
X132219000Y-131714000D01*
X132222000Y-131710000D01*
X132226000Y-131706000D01*
X132229000Y-131702000D01*
X132233000Y-131699000D01*
X132237000Y-131695000D01*
X132241000Y-131692000D01*
X132246000Y-131689000D01*
X132250000Y-131686000D01*
X132255000Y-131684000D01*
X132259000Y-131682000D01*
X132264000Y-131680000D01*
X132269000Y-131678000D01*
X132274000Y-131676000D01*
X132279000Y-131675000D01*
X132284000Y-131674000D01*
X132290000Y-131674000D01*
X132295000Y-131673000D01*
X132300000Y-131673000D01*
X132400000Y-131673000D01*
X132405000Y-131673000D01*
X132410000Y-131674000D01*
G37*
X133110000Y-128849000D02*
X133116000Y-128849000D01*
X133121000Y-128850000D01*
X133126000Y-128851000D01*
X133131000Y-128853000D01*
X133136000Y-128855000D01*
X133141000Y-128857000D01*
X133145000Y-128859000D01*
X133150000Y-128861000D01*
X133154000Y-128864000D01*
X133159000Y-128867000D01*
X133163000Y-128870000D01*
X133167000Y-128874000D01*
X133171000Y-128877000D01*
X133174000Y-128881000D01*
X133178000Y-128885000D01*
X133181000Y-128889000D01*
X133184000Y-128894000D01*
X133187000Y-128898000D01*
X133189000Y-128903000D01*
X133191000Y-128907000D01*
X133193000Y-128912000D01*
X133195000Y-128917000D01*
X133197000Y-128922000D01*
X133198000Y-128927000D01*
X133199000Y-128932000D01*
X133199000Y-128938000D01*
X133200000Y-128943000D01*
X133200000Y-128948000D01*
X133200000Y-129048000D01*
X133200000Y-129053000D01*
X133199000Y-129058000D01*
X133199000Y-129064000D01*
X133198000Y-129069000D01*
X133197000Y-129074000D01*
X133195000Y-129079000D01*
X133193000Y-129084000D01*
X133191000Y-129089000D01*
X133189000Y-129093000D01*
X133187000Y-129098000D01*
X133184000Y-129102000D01*
X133181000Y-129107000D01*
X133178000Y-129111000D01*
X133174000Y-129115000D01*
X133171000Y-129119000D01*
X133167000Y-129122000D01*
X133163000Y-129126000D01*
X133159000Y-129129000D01*
X133154000Y-129132000D01*
X133150000Y-129135000D01*
X133145000Y-129137000D01*
X133141000Y-129139000D01*
X133136000Y-129141000D01*
X133131000Y-129143000D01*
X133126000Y-129145000D01*
X133121000Y-129146000D01*
X133116000Y-129147000D01*
X133110000Y-129147000D01*
X133105000Y-129148000D01*
X133100000Y-129148000D01*
X132600000Y-129148000D01*
X132595000Y-129148000D01*
X132590000Y-129147000D01*
X132584000Y-129147000D01*
X132579000Y-129146000D01*
X132574000Y-129145000D01*
X132569000Y-129143000D01*
X132564000Y-129141000D01*
X132559000Y-129139000D01*
X132555000Y-129137000D01*
X132550000Y-129135000D01*
X132546000Y-129132000D01*
X132541000Y-129129000D01*
X132537000Y-129126000D01*
X132533000Y-129122000D01*
X132529000Y-129119000D01*
X132526000Y-129115000D01*
X132522000Y-129111000D01*
X132519000Y-129107000D01*
X132516000Y-129102000D01*
X132513000Y-129098000D01*
X132511000Y-129093000D01*
X132509000Y-129089000D01*
X132507000Y-129084000D01*
X132505000Y-129079000D01*
X132503000Y-129074000D01*
X132502000Y-129069000D01*
X132501000Y-129064000D01*
X132501000Y-129058000D01*
X132500000Y-129053000D01*
X132500000Y-129048000D01*
X132500000Y-128948000D01*
X132500000Y-128943000D01*
X132501000Y-128938000D01*
X132501000Y-128932000D01*
X132502000Y-128927000D01*
X132503000Y-128922000D01*
X132505000Y-128917000D01*
X132507000Y-128912000D01*
X132509000Y-128907000D01*
X132511000Y-128903000D01*
X132513000Y-128898000D01*
X132516000Y-128894000D01*
X132519000Y-128889000D01*
X132522000Y-128885000D01*
X132526000Y-128881000D01*
X132529000Y-128877000D01*
X132533000Y-128874000D01*
X132537000Y-128870000D01*
X132541000Y-128867000D01*
X132546000Y-128864000D01*
X132550000Y-128861000D01*
X132555000Y-128859000D01*
X132559000Y-128857000D01*
X132564000Y-128855000D01*
X132569000Y-128853000D01*
X132574000Y-128851000D01*
X132579000Y-128850000D01*
X132584000Y-128849000D01*
X132590000Y-128849000D01*
X132595000Y-128848000D01*
X132600000Y-128848000D01*
X133100000Y-128848000D01*
X133105000Y-128848000D01*
X133110000Y-128849000D01*
G36*
X133110000Y-128849000D02*
G01*
X133116000Y-128849000D01*
X133121000Y-128850000D01*
X133126000Y-128851000D01*
X133131000Y-128853000D01*
X133136000Y-128855000D01*
X133141000Y-128857000D01*
X133145000Y-128859000D01*
X133150000Y-128861000D01*
X133154000Y-128864000D01*
X133159000Y-128867000D01*
X133163000Y-128870000D01*
X133167000Y-128874000D01*
X133171000Y-128877000D01*
X133174000Y-128881000D01*
X133178000Y-128885000D01*
X133181000Y-128889000D01*
X133184000Y-128894000D01*
X133187000Y-128898000D01*
X133189000Y-128903000D01*
X133191000Y-128907000D01*
X133193000Y-128912000D01*
X133195000Y-128917000D01*
X133197000Y-128922000D01*
X133198000Y-128927000D01*
X133199000Y-128932000D01*
X133199000Y-128938000D01*
X133200000Y-128943000D01*
X133200000Y-128948000D01*
X133200000Y-129048000D01*
X133200000Y-129053000D01*
X133199000Y-129058000D01*
X133199000Y-129064000D01*
X133198000Y-129069000D01*
X133197000Y-129074000D01*
X133195000Y-129079000D01*
X133193000Y-129084000D01*
X133191000Y-129089000D01*
X133189000Y-129093000D01*
X133187000Y-129098000D01*
X133184000Y-129102000D01*
X133181000Y-129107000D01*
X133178000Y-129111000D01*
X133174000Y-129115000D01*
X133171000Y-129119000D01*
X133167000Y-129122000D01*
X133163000Y-129126000D01*
X133159000Y-129129000D01*
X133154000Y-129132000D01*
X133150000Y-129135000D01*
X133145000Y-129137000D01*
X133141000Y-129139000D01*
X133136000Y-129141000D01*
X133131000Y-129143000D01*
X133126000Y-129145000D01*
X133121000Y-129146000D01*
X133116000Y-129147000D01*
X133110000Y-129147000D01*
X133105000Y-129148000D01*
X133100000Y-129148000D01*
X132600000Y-129148000D01*
X132595000Y-129148000D01*
X132590000Y-129147000D01*
X132584000Y-129147000D01*
X132579000Y-129146000D01*
X132574000Y-129145000D01*
X132569000Y-129143000D01*
X132564000Y-129141000D01*
X132559000Y-129139000D01*
X132555000Y-129137000D01*
X132550000Y-129135000D01*
X132546000Y-129132000D01*
X132541000Y-129129000D01*
X132537000Y-129126000D01*
X132533000Y-129122000D01*
X132529000Y-129119000D01*
X132526000Y-129115000D01*
X132522000Y-129111000D01*
X132519000Y-129107000D01*
X132516000Y-129102000D01*
X132513000Y-129098000D01*
X132511000Y-129093000D01*
X132509000Y-129089000D01*
X132507000Y-129084000D01*
X132505000Y-129079000D01*
X132503000Y-129074000D01*
X132502000Y-129069000D01*
X132501000Y-129064000D01*
X132501000Y-129058000D01*
X132500000Y-129053000D01*
X132500000Y-129048000D01*
X132500000Y-128948000D01*
X132500000Y-128943000D01*
X132501000Y-128938000D01*
X132501000Y-128932000D01*
X132502000Y-128927000D01*
X132503000Y-128922000D01*
X132505000Y-128917000D01*
X132507000Y-128912000D01*
X132509000Y-128907000D01*
X132511000Y-128903000D01*
X132513000Y-128898000D01*
X132516000Y-128894000D01*
X132519000Y-128889000D01*
X132522000Y-128885000D01*
X132526000Y-128881000D01*
X132529000Y-128877000D01*
X132533000Y-128874000D01*
X132537000Y-128870000D01*
X132541000Y-128867000D01*
X132546000Y-128864000D01*
X132550000Y-128861000D01*
X132555000Y-128859000D01*
X132559000Y-128857000D01*
X132564000Y-128855000D01*
X132569000Y-128853000D01*
X132574000Y-128851000D01*
X132579000Y-128850000D01*
X132584000Y-128849000D01*
X132590000Y-128849000D01*
X132595000Y-128848000D01*
X132600000Y-128848000D01*
X133100000Y-128848000D01*
X133105000Y-128848000D01*
X133110000Y-128849000D01*
G37*
X133110000Y-131099000D02*
X133116000Y-131099000D01*
X133121000Y-131100000D01*
X133126000Y-131101000D01*
X133131000Y-131103000D01*
X133136000Y-131105000D01*
X133141000Y-131107000D01*
X133145000Y-131109000D01*
X133150000Y-131111000D01*
X133154000Y-131114000D01*
X133159000Y-131117000D01*
X133163000Y-131120000D01*
X133167000Y-131124000D01*
X133171000Y-131127000D01*
X133174000Y-131131000D01*
X133178000Y-131135000D01*
X133181000Y-131139000D01*
X133184000Y-131144000D01*
X133187000Y-131148000D01*
X133189000Y-131153000D01*
X133191000Y-131157000D01*
X133193000Y-131162000D01*
X133195000Y-131167000D01*
X133197000Y-131172000D01*
X133198000Y-131177000D01*
X133199000Y-131182000D01*
X133199000Y-131188000D01*
X133200000Y-131193000D01*
X133200000Y-131198000D01*
X133200000Y-131298000D01*
X133200000Y-131303000D01*
X133199000Y-131308000D01*
X133199000Y-131314000D01*
X133198000Y-131319000D01*
X133197000Y-131324000D01*
X133195000Y-131329000D01*
X133193000Y-131334000D01*
X133191000Y-131339000D01*
X133189000Y-131343000D01*
X133187000Y-131348000D01*
X133184000Y-131352000D01*
X133181000Y-131357000D01*
X133178000Y-131361000D01*
X133174000Y-131365000D01*
X133171000Y-131369000D01*
X133167000Y-131372000D01*
X133163000Y-131376000D01*
X133159000Y-131379000D01*
X133154000Y-131382000D01*
X133150000Y-131385000D01*
X133145000Y-131387000D01*
X133141000Y-131389000D01*
X133136000Y-131391000D01*
X133131000Y-131393000D01*
X133126000Y-131395000D01*
X133121000Y-131396000D01*
X133116000Y-131397000D01*
X133110000Y-131397000D01*
X133105000Y-131398000D01*
X133100000Y-131398000D01*
X132600000Y-131398000D01*
X132595000Y-131398000D01*
X132590000Y-131397000D01*
X132584000Y-131397000D01*
X132579000Y-131396000D01*
X132574000Y-131395000D01*
X132569000Y-131393000D01*
X132564000Y-131391000D01*
X132559000Y-131389000D01*
X132555000Y-131387000D01*
X132550000Y-131385000D01*
X132546000Y-131382000D01*
X132541000Y-131379000D01*
X132537000Y-131376000D01*
X132533000Y-131372000D01*
X132529000Y-131369000D01*
X132526000Y-131365000D01*
X132522000Y-131361000D01*
X132519000Y-131357000D01*
X132516000Y-131352000D01*
X132513000Y-131348000D01*
X132511000Y-131343000D01*
X132509000Y-131339000D01*
X132507000Y-131334000D01*
X132505000Y-131329000D01*
X132503000Y-131324000D01*
X132502000Y-131319000D01*
X132501000Y-131314000D01*
X132501000Y-131308000D01*
X132500000Y-131303000D01*
X132500000Y-131298000D01*
X132500000Y-131198000D01*
X132500000Y-131193000D01*
X132501000Y-131188000D01*
X132501000Y-131182000D01*
X132502000Y-131177000D01*
X132503000Y-131172000D01*
X132505000Y-131167000D01*
X132507000Y-131162000D01*
X132509000Y-131157000D01*
X132511000Y-131153000D01*
X132513000Y-131148000D01*
X132516000Y-131144000D01*
X132519000Y-131139000D01*
X132522000Y-131135000D01*
X132526000Y-131131000D01*
X132529000Y-131127000D01*
X132533000Y-131124000D01*
X132537000Y-131120000D01*
X132541000Y-131117000D01*
X132546000Y-131114000D01*
X132550000Y-131111000D01*
X132555000Y-131109000D01*
X132559000Y-131107000D01*
X132564000Y-131105000D01*
X132569000Y-131103000D01*
X132574000Y-131101000D01*
X132579000Y-131100000D01*
X132584000Y-131099000D01*
X132590000Y-131099000D01*
X132595000Y-131098000D01*
X132600000Y-131098000D01*
X133100000Y-131098000D01*
X133105000Y-131098000D01*
X133110000Y-131099000D01*
G36*
X133110000Y-131099000D02*
G01*
X133116000Y-131099000D01*
X133121000Y-131100000D01*
X133126000Y-131101000D01*
X133131000Y-131103000D01*
X133136000Y-131105000D01*
X133141000Y-131107000D01*
X133145000Y-131109000D01*
X133150000Y-131111000D01*
X133154000Y-131114000D01*
X133159000Y-131117000D01*
X133163000Y-131120000D01*
X133167000Y-131124000D01*
X133171000Y-131127000D01*
X133174000Y-131131000D01*
X133178000Y-131135000D01*
X133181000Y-131139000D01*
X133184000Y-131144000D01*
X133187000Y-131148000D01*
X133189000Y-131153000D01*
X133191000Y-131157000D01*
X133193000Y-131162000D01*
X133195000Y-131167000D01*
X133197000Y-131172000D01*
X133198000Y-131177000D01*
X133199000Y-131182000D01*
X133199000Y-131188000D01*
X133200000Y-131193000D01*
X133200000Y-131198000D01*
X133200000Y-131298000D01*
X133200000Y-131303000D01*
X133199000Y-131308000D01*
X133199000Y-131314000D01*
X133198000Y-131319000D01*
X133197000Y-131324000D01*
X133195000Y-131329000D01*
X133193000Y-131334000D01*
X133191000Y-131339000D01*
X133189000Y-131343000D01*
X133187000Y-131348000D01*
X133184000Y-131352000D01*
X133181000Y-131357000D01*
X133178000Y-131361000D01*
X133174000Y-131365000D01*
X133171000Y-131369000D01*
X133167000Y-131372000D01*
X133163000Y-131376000D01*
X133159000Y-131379000D01*
X133154000Y-131382000D01*
X133150000Y-131385000D01*
X133145000Y-131387000D01*
X133141000Y-131389000D01*
X133136000Y-131391000D01*
X133131000Y-131393000D01*
X133126000Y-131395000D01*
X133121000Y-131396000D01*
X133116000Y-131397000D01*
X133110000Y-131397000D01*
X133105000Y-131398000D01*
X133100000Y-131398000D01*
X132600000Y-131398000D01*
X132595000Y-131398000D01*
X132590000Y-131397000D01*
X132584000Y-131397000D01*
X132579000Y-131396000D01*
X132574000Y-131395000D01*
X132569000Y-131393000D01*
X132564000Y-131391000D01*
X132559000Y-131389000D01*
X132555000Y-131387000D01*
X132550000Y-131385000D01*
X132546000Y-131382000D01*
X132541000Y-131379000D01*
X132537000Y-131376000D01*
X132533000Y-131372000D01*
X132529000Y-131369000D01*
X132526000Y-131365000D01*
X132522000Y-131361000D01*
X132519000Y-131357000D01*
X132516000Y-131352000D01*
X132513000Y-131348000D01*
X132511000Y-131343000D01*
X132509000Y-131339000D01*
X132507000Y-131334000D01*
X132505000Y-131329000D01*
X132503000Y-131324000D01*
X132502000Y-131319000D01*
X132501000Y-131314000D01*
X132501000Y-131308000D01*
X132500000Y-131303000D01*
X132500000Y-131298000D01*
X132500000Y-131198000D01*
X132500000Y-131193000D01*
X132501000Y-131188000D01*
X132501000Y-131182000D01*
X132502000Y-131177000D01*
X132503000Y-131172000D01*
X132505000Y-131167000D01*
X132507000Y-131162000D01*
X132509000Y-131157000D01*
X132511000Y-131153000D01*
X132513000Y-131148000D01*
X132516000Y-131144000D01*
X132519000Y-131139000D01*
X132522000Y-131135000D01*
X132526000Y-131131000D01*
X132529000Y-131127000D01*
X132533000Y-131124000D01*
X132537000Y-131120000D01*
X132541000Y-131117000D01*
X132546000Y-131114000D01*
X132550000Y-131111000D01*
X132555000Y-131109000D01*
X132559000Y-131107000D01*
X132564000Y-131105000D01*
X132569000Y-131103000D01*
X132574000Y-131101000D01*
X132579000Y-131100000D01*
X132584000Y-131099000D01*
X132590000Y-131099000D01*
X132595000Y-131098000D01*
X132600000Y-131098000D01*
X133100000Y-131098000D01*
X133105000Y-131098000D01*
X133110000Y-131099000D01*
G37*
X133110000Y-129474000D02*
X133116000Y-129474000D01*
X133121000Y-129475000D01*
X133126000Y-129476000D01*
X133131000Y-129478000D01*
X133136000Y-129480000D01*
X133141000Y-129482000D01*
X133145000Y-129484000D01*
X133150000Y-129486000D01*
X133154000Y-129489000D01*
X133159000Y-129492000D01*
X133163000Y-129495000D01*
X133167000Y-129499000D01*
X133171000Y-129502000D01*
X133174000Y-129506000D01*
X133178000Y-129510000D01*
X133181000Y-129514000D01*
X133184000Y-129519000D01*
X133187000Y-129523000D01*
X133189000Y-129528000D01*
X133191000Y-129532000D01*
X133193000Y-129537000D01*
X133195000Y-129542000D01*
X133197000Y-129547000D01*
X133198000Y-129552000D01*
X133199000Y-129557000D01*
X133199000Y-129563000D01*
X133200000Y-129568000D01*
X133200000Y-129573000D01*
X133200000Y-129773000D01*
X133200000Y-129778000D01*
X133199000Y-129783000D01*
X133199000Y-129789000D01*
X133198000Y-129794000D01*
X133197000Y-129799000D01*
X133195000Y-129804000D01*
X133193000Y-129809000D01*
X133191000Y-129814000D01*
X133189000Y-129818000D01*
X133187000Y-129823000D01*
X133184000Y-129827000D01*
X133181000Y-129832000D01*
X133178000Y-129836000D01*
X133174000Y-129840000D01*
X133171000Y-129844000D01*
X133167000Y-129847000D01*
X133163000Y-129851000D01*
X133159000Y-129854000D01*
X133154000Y-129857000D01*
X133150000Y-129860000D01*
X133145000Y-129862000D01*
X133141000Y-129864000D01*
X133136000Y-129866000D01*
X133131000Y-129868000D01*
X133126000Y-129870000D01*
X133121000Y-129871000D01*
X133116000Y-129872000D01*
X133110000Y-129872000D01*
X133105000Y-129873000D01*
X133100000Y-129873000D01*
X131700000Y-129873000D01*
X131695000Y-129873000D01*
X131690000Y-129872000D01*
X131684000Y-129872000D01*
X131679000Y-129871000D01*
X131674000Y-129870000D01*
X131669000Y-129868000D01*
X131664000Y-129866000D01*
X131659000Y-129864000D01*
X131655000Y-129862000D01*
X131650000Y-129860000D01*
X131646000Y-129857000D01*
X131641000Y-129854000D01*
X131637000Y-129851000D01*
X131633000Y-129847000D01*
X131629000Y-129844000D01*
X131626000Y-129840000D01*
X131622000Y-129836000D01*
X131619000Y-129832000D01*
X131616000Y-129827000D01*
X131613000Y-129823000D01*
X131611000Y-129818000D01*
X131609000Y-129814000D01*
X131607000Y-129809000D01*
X131605000Y-129804000D01*
X131603000Y-129799000D01*
X131602000Y-129794000D01*
X131601000Y-129789000D01*
X131601000Y-129783000D01*
X131600000Y-129778000D01*
X131600000Y-129773000D01*
X131600000Y-129573000D01*
X131600000Y-129568000D01*
X131601000Y-129563000D01*
X131601000Y-129557000D01*
X131602000Y-129552000D01*
X131603000Y-129547000D01*
X131605000Y-129542000D01*
X131607000Y-129537000D01*
X131609000Y-129532000D01*
X131611000Y-129528000D01*
X131613000Y-129523000D01*
X131616000Y-129519000D01*
X131619000Y-129514000D01*
X131622000Y-129510000D01*
X131626000Y-129506000D01*
X131629000Y-129502000D01*
X131633000Y-129499000D01*
X131637000Y-129495000D01*
X131641000Y-129492000D01*
X131646000Y-129489000D01*
X131650000Y-129486000D01*
X131655000Y-129484000D01*
X131659000Y-129482000D01*
X131664000Y-129480000D01*
X131669000Y-129478000D01*
X131674000Y-129476000D01*
X131679000Y-129475000D01*
X131684000Y-129474000D01*
X131690000Y-129474000D01*
X131695000Y-129473000D01*
X131700000Y-129473000D01*
X133100000Y-129473000D01*
X133105000Y-129473000D01*
X133110000Y-129474000D01*
G36*
X133110000Y-129474000D02*
G01*
X133116000Y-129474000D01*
X133121000Y-129475000D01*
X133126000Y-129476000D01*
X133131000Y-129478000D01*
X133136000Y-129480000D01*
X133141000Y-129482000D01*
X133145000Y-129484000D01*
X133150000Y-129486000D01*
X133154000Y-129489000D01*
X133159000Y-129492000D01*
X133163000Y-129495000D01*
X133167000Y-129499000D01*
X133171000Y-129502000D01*
X133174000Y-129506000D01*
X133178000Y-129510000D01*
X133181000Y-129514000D01*
X133184000Y-129519000D01*
X133187000Y-129523000D01*
X133189000Y-129528000D01*
X133191000Y-129532000D01*
X133193000Y-129537000D01*
X133195000Y-129542000D01*
X133197000Y-129547000D01*
X133198000Y-129552000D01*
X133199000Y-129557000D01*
X133199000Y-129563000D01*
X133200000Y-129568000D01*
X133200000Y-129573000D01*
X133200000Y-129773000D01*
X133200000Y-129778000D01*
X133199000Y-129783000D01*
X133199000Y-129789000D01*
X133198000Y-129794000D01*
X133197000Y-129799000D01*
X133195000Y-129804000D01*
X133193000Y-129809000D01*
X133191000Y-129814000D01*
X133189000Y-129818000D01*
X133187000Y-129823000D01*
X133184000Y-129827000D01*
X133181000Y-129832000D01*
X133178000Y-129836000D01*
X133174000Y-129840000D01*
X133171000Y-129844000D01*
X133167000Y-129847000D01*
X133163000Y-129851000D01*
X133159000Y-129854000D01*
X133154000Y-129857000D01*
X133150000Y-129860000D01*
X133145000Y-129862000D01*
X133141000Y-129864000D01*
X133136000Y-129866000D01*
X133131000Y-129868000D01*
X133126000Y-129870000D01*
X133121000Y-129871000D01*
X133116000Y-129872000D01*
X133110000Y-129872000D01*
X133105000Y-129873000D01*
X133100000Y-129873000D01*
X131700000Y-129873000D01*
X131695000Y-129873000D01*
X131690000Y-129872000D01*
X131684000Y-129872000D01*
X131679000Y-129871000D01*
X131674000Y-129870000D01*
X131669000Y-129868000D01*
X131664000Y-129866000D01*
X131659000Y-129864000D01*
X131655000Y-129862000D01*
X131650000Y-129860000D01*
X131646000Y-129857000D01*
X131641000Y-129854000D01*
X131637000Y-129851000D01*
X131633000Y-129847000D01*
X131629000Y-129844000D01*
X131626000Y-129840000D01*
X131622000Y-129836000D01*
X131619000Y-129832000D01*
X131616000Y-129827000D01*
X131613000Y-129823000D01*
X131611000Y-129818000D01*
X131609000Y-129814000D01*
X131607000Y-129809000D01*
X131605000Y-129804000D01*
X131603000Y-129799000D01*
X131602000Y-129794000D01*
X131601000Y-129789000D01*
X131601000Y-129783000D01*
X131600000Y-129778000D01*
X131600000Y-129773000D01*
X131600000Y-129573000D01*
X131600000Y-129568000D01*
X131601000Y-129563000D01*
X131601000Y-129557000D01*
X131602000Y-129552000D01*
X131603000Y-129547000D01*
X131605000Y-129542000D01*
X131607000Y-129537000D01*
X131609000Y-129532000D01*
X131611000Y-129528000D01*
X131613000Y-129523000D01*
X131616000Y-129519000D01*
X131619000Y-129514000D01*
X131622000Y-129510000D01*
X131626000Y-129506000D01*
X131629000Y-129502000D01*
X131633000Y-129499000D01*
X131637000Y-129495000D01*
X131641000Y-129492000D01*
X131646000Y-129489000D01*
X131650000Y-129486000D01*
X131655000Y-129484000D01*
X131659000Y-129482000D01*
X131664000Y-129480000D01*
X131669000Y-129478000D01*
X131674000Y-129476000D01*
X131679000Y-129475000D01*
X131684000Y-129474000D01*
X131690000Y-129474000D01*
X131695000Y-129473000D01*
X131700000Y-129473000D01*
X133100000Y-129473000D01*
X133105000Y-129473000D01*
X133110000Y-129474000D01*
G37*
X131208000Y-130104000D02*
X131210000Y-130104000D01*
X131213000Y-130105000D01*
X131215000Y-130105000D01*
X131218000Y-130106000D01*
X131220000Y-130107000D01*
X131223000Y-130108000D01*
X131225000Y-130110000D01*
X131227000Y-130111000D01*
X131229000Y-130113000D01*
X131231000Y-130114000D01*
X131233000Y-130116000D01*
X131235000Y-130118000D01*
X131237000Y-130120000D01*
X131239000Y-130122000D01*
X131240000Y-130124000D01*
X131242000Y-130126000D01*
X131243000Y-130128000D01*
X131245000Y-130130000D01*
X131246000Y-130133000D01*
X131247000Y-130135000D01*
X131248000Y-130138000D01*
X131248000Y-130140000D01*
X131249000Y-130143000D01*
X131249000Y-130145000D01*
X131250000Y-130148000D01*
X131250000Y-130150000D01*
X131250000Y-130153000D01*
X131250000Y-130848000D01*
X131250000Y-130851000D01*
X131250000Y-130853000D01*
X131249000Y-130856000D01*
X131249000Y-130858000D01*
X131248000Y-130861000D01*
X131248000Y-130863000D01*
X131247000Y-130866000D01*
X131246000Y-130868000D01*
X131245000Y-130871000D01*
X131243000Y-130873000D01*
X131242000Y-130875000D01*
X131240000Y-130877000D01*
X131239000Y-130879000D01*
X131237000Y-130881000D01*
X131235000Y-130883000D01*
X131233000Y-130885000D01*
X131231000Y-130887000D01*
X131229000Y-130888000D01*
X131227000Y-130890000D01*
X131225000Y-130891000D01*
X131223000Y-130893000D01*
X131220000Y-130894000D01*
X131218000Y-130895000D01*
X131215000Y-130896000D01*
X131213000Y-130896000D01*
X131210000Y-130897000D01*
X131208000Y-130897000D01*
X131205000Y-130898000D01*
X131203000Y-130898000D01*
X131200000Y-130898000D01*
X130125000Y-130898000D01*
X130124000Y-130898000D01*
X130122000Y-130898000D01*
X130121000Y-130898000D01*
X130120000Y-130897000D01*
X130119000Y-130897000D01*
X130117000Y-130897000D01*
X130116000Y-130896000D01*
X130115000Y-130896000D01*
X130114000Y-130895000D01*
X130113000Y-130895000D01*
X130111000Y-130894000D01*
X130110000Y-130893000D01*
X130109000Y-130892000D01*
X130108000Y-130892000D01*
X130107000Y-130891000D01*
X130106000Y-130890000D01*
X130106000Y-130889000D01*
X130105000Y-130888000D01*
X130104000Y-130887000D01*
X130103000Y-130885000D01*
X130103000Y-130884000D01*
X130102000Y-130883000D01*
X130102000Y-130882000D01*
X130101000Y-130881000D01*
X130101000Y-130879000D01*
X130101000Y-130878000D01*
X130100000Y-130877000D01*
X130100000Y-130876000D01*
X130100000Y-130874000D01*
X130100000Y-130873000D01*
X130100000Y-130872000D01*
X130100000Y-130870000D01*
X130100000Y-130869000D01*
X130099000Y-130868000D01*
X130099000Y-130867000D01*
X130099000Y-130865000D01*
X130098000Y-130864000D01*
X130098000Y-130863000D01*
X130097000Y-130862000D01*
X130097000Y-130861000D01*
X130096000Y-130859000D01*
X130095000Y-130858000D01*
X130094000Y-130857000D01*
X130094000Y-130856000D01*
X130093000Y-130855000D01*
X130092000Y-130854000D01*
X130091000Y-130854000D01*
X130090000Y-130853000D01*
X130089000Y-130852000D01*
X130087000Y-130851000D01*
X130086000Y-130851000D01*
X130085000Y-130850000D01*
X130084000Y-130850000D01*
X130083000Y-130849000D01*
X130081000Y-130849000D01*
X130080000Y-130849000D01*
X130079000Y-130848000D01*
X130078000Y-130848000D01*
X130076000Y-130848000D01*
X130075000Y-130848000D01*
X129800000Y-130848000D01*
X129797000Y-130848000D01*
X129795000Y-130848000D01*
X129792000Y-130847000D01*
X129790000Y-130847000D01*
X129787000Y-130846000D01*
X129785000Y-130846000D01*
X129782000Y-130845000D01*
X129780000Y-130844000D01*
X129777000Y-130843000D01*
X129775000Y-130841000D01*
X129773000Y-130840000D01*
X129771000Y-130838000D01*
X129769000Y-130837000D01*
X129767000Y-130835000D01*
X129765000Y-130833000D01*
X129763000Y-130831000D01*
X129761000Y-130829000D01*
X129760000Y-130827000D01*
X129758000Y-130825000D01*
X129757000Y-130823000D01*
X129755000Y-130821000D01*
X129754000Y-130818000D01*
X129753000Y-130816000D01*
X129752000Y-130813000D01*
X129752000Y-130811000D01*
X129751000Y-130808000D01*
X129751000Y-130806000D01*
X129750000Y-130803000D01*
X129750000Y-130801000D01*
X129750000Y-130798000D01*
X129750000Y-130698000D01*
X129750000Y-130695000D01*
X129750000Y-130693000D01*
X129751000Y-130690000D01*
X129751000Y-130688000D01*
X129752000Y-130685000D01*
X129752000Y-130683000D01*
X129753000Y-130680000D01*
X129754000Y-130678000D01*
X129755000Y-130675000D01*
X129757000Y-130673000D01*
X129758000Y-130671000D01*
X129760000Y-130669000D01*
X129761000Y-130667000D01*
X129763000Y-130665000D01*
X129765000Y-130663000D01*
X129767000Y-130661000D01*
X129769000Y-130659000D01*
X129771000Y-130658000D01*
X129773000Y-130656000D01*
X129775000Y-130655000D01*
X129777000Y-130653000D01*
X129780000Y-130652000D01*
X129782000Y-130651000D01*
X129785000Y-130650000D01*
X129787000Y-130650000D01*
X129790000Y-130649000D01*
X129792000Y-130649000D01*
X129795000Y-130648000D01*
X129797000Y-130648000D01*
X129800000Y-130648000D01*
X130050000Y-130648000D01*
X130053000Y-130648000D01*
X130055000Y-130648000D01*
X130058000Y-130647000D01*
X130060000Y-130647000D01*
X130063000Y-130646000D01*
X130065000Y-130646000D01*
X130068000Y-130645000D01*
X130070000Y-130644000D01*
X130073000Y-130643000D01*
X130075000Y-130641000D01*
X130077000Y-130640000D01*
X130079000Y-130638000D01*
X130081000Y-130637000D01*
X130083000Y-130635000D01*
X130085000Y-130633000D01*
X130087000Y-130631000D01*
X130089000Y-130629000D01*
X130090000Y-130627000D01*
X130092000Y-130625000D01*
X130093000Y-130623000D01*
X130095000Y-130621000D01*
X130096000Y-130618000D01*
X130097000Y-130616000D01*
X130098000Y-130613000D01*
X130098000Y-130611000D01*
X130099000Y-130608000D01*
X130099000Y-130606000D01*
X130100000Y-130603000D01*
X130100000Y-130601000D01*
X130100000Y-130598000D01*
X130100000Y-130398000D01*
X130100000Y-130395000D01*
X130100000Y-130393000D01*
X130099000Y-130390000D01*
X130099000Y-130388000D01*
X130098000Y-130385000D01*
X130098000Y-130383000D01*
X130097000Y-130380000D01*
X130096000Y-130378000D01*
X130095000Y-130375000D01*
X130093000Y-130373000D01*
X130092000Y-130371000D01*
X130090000Y-130369000D01*
X130089000Y-130367000D01*
X130087000Y-130365000D01*
X130085000Y-130363000D01*
X130083000Y-130361000D01*
X130081000Y-130359000D01*
X130079000Y-130358000D01*
X130077000Y-130356000D01*
X130075000Y-130355000D01*
X130073000Y-130353000D01*
X130070000Y-130352000D01*
X130068000Y-130351000D01*
X130065000Y-130350000D01*
X130063000Y-130350000D01*
X130060000Y-130349000D01*
X130058000Y-130349000D01*
X130055000Y-130348000D01*
X130053000Y-130348000D01*
X130050000Y-130348000D01*
X129800000Y-130348000D01*
X129797000Y-130348000D01*
X129795000Y-130348000D01*
X129792000Y-130347000D01*
X129790000Y-130347000D01*
X129787000Y-130346000D01*
X129785000Y-130346000D01*
X129782000Y-130345000D01*
X129780000Y-130344000D01*
X129777000Y-130343000D01*
X129775000Y-130341000D01*
X129773000Y-130340000D01*
X129771000Y-130338000D01*
X129769000Y-130337000D01*
X129767000Y-130335000D01*
X129765000Y-130333000D01*
X129763000Y-130331000D01*
X129761000Y-130329000D01*
X129760000Y-130327000D01*
X129758000Y-130325000D01*
X129757000Y-130323000D01*
X129755000Y-130321000D01*
X129754000Y-130318000D01*
X129753000Y-130316000D01*
X129752000Y-130313000D01*
X129752000Y-130311000D01*
X129751000Y-130308000D01*
X129751000Y-130306000D01*
X129750000Y-130303000D01*
X129750000Y-130301000D01*
X129750000Y-130298000D01*
X129750000Y-130198000D01*
X129750000Y-130195000D01*
X129750000Y-130193000D01*
X129751000Y-130190000D01*
X129751000Y-130188000D01*
X129752000Y-130185000D01*
X129752000Y-130183000D01*
X129753000Y-130180000D01*
X129754000Y-130178000D01*
X129755000Y-130175000D01*
X129757000Y-130173000D01*
X129758000Y-130171000D01*
X129760000Y-130169000D01*
X129761000Y-130167000D01*
X129763000Y-130165000D01*
X129765000Y-130163000D01*
X129767000Y-130161000D01*
X129769000Y-130159000D01*
X129771000Y-130158000D01*
X129773000Y-130156000D01*
X129775000Y-130155000D01*
X129777000Y-130153000D01*
X129780000Y-130152000D01*
X129782000Y-130151000D01*
X129785000Y-130150000D01*
X129787000Y-130150000D01*
X129790000Y-130149000D01*
X129792000Y-130149000D01*
X129795000Y-130148000D01*
X129797000Y-130148000D01*
X129800000Y-130148000D01*
X130077000Y-130148000D01*
X130079000Y-130148000D01*
X130080000Y-130148000D01*
X130081000Y-130148000D01*
X130082000Y-130148000D01*
X130083000Y-130147000D01*
X130084000Y-130147000D01*
X130086000Y-130147000D01*
X130087000Y-130146000D01*
X130088000Y-130146000D01*
X130089000Y-130145000D01*
X130090000Y-130144000D01*
X130091000Y-130144000D01*
X130092000Y-130143000D01*
X130093000Y-130142000D01*
X130093000Y-130141000D01*
X130094000Y-130141000D01*
X130095000Y-130140000D01*
X130096000Y-130139000D01*
X130096000Y-130138000D01*
X130097000Y-130137000D01*
X130098000Y-130136000D01*
X130098000Y-130135000D01*
X130099000Y-130134000D01*
X130099000Y-130132000D01*
X130099000Y-130131000D01*
X130100000Y-130130000D01*
X130100000Y-130129000D01*
X130100000Y-130128000D01*
X130100000Y-130127000D01*
X130100000Y-130126000D01*
X130100000Y-130124000D01*
X130100000Y-130123000D01*
X130100000Y-130122000D01*
X130100000Y-130121000D01*
X130101000Y-130120000D01*
X130101000Y-130119000D01*
X130101000Y-130117000D01*
X130102000Y-130116000D01*
X130102000Y-130115000D01*
X130103000Y-130114000D01*
X130104000Y-130113000D01*
X130104000Y-130112000D01*
X130105000Y-130111000D01*
X130106000Y-130110000D01*
X130107000Y-130110000D01*
X130107000Y-130109000D01*
X130108000Y-130108000D01*
X130109000Y-130107000D01*
X130110000Y-130107000D01*
X130111000Y-130106000D01*
X130112000Y-130105000D01*
X130113000Y-130105000D01*
X130114000Y-130104000D01*
X130116000Y-130104000D01*
X130117000Y-130104000D01*
X130118000Y-130103000D01*
X130119000Y-130103000D01*
X130120000Y-130103000D01*
X130121000Y-130103000D01*
X130123000Y-130103000D01*
X131200000Y-130103000D01*
X131203000Y-130103000D01*
X131205000Y-130103000D01*
X131208000Y-130104000D01*
G36*
X131208000Y-130104000D02*
G01*
X131210000Y-130104000D01*
X131213000Y-130105000D01*
X131215000Y-130105000D01*
X131218000Y-130106000D01*
X131220000Y-130107000D01*
X131223000Y-130108000D01*
X131225000Y-130110000D01*
X131227000Y-130111000D01*
X131229000Y-130113000D01*
X131231000Y-130114000D01*
X131233000Y-130116000D01*
X131235000Y-130118000D01*
X131237000Y-130120000D01*
X131239000Y-130122000D01*
X131240000Y-130124000D01*
X131242000Y-130126000D01*
X131243000Y-130128000D01*
X131245000Y-130130000D01*
X131246000Y-130133000D01*
X131247000Y-130135000D01*
X131248000Y-130138000D01*
X131248000Y-130140000D01*
X131249000Y-130143000D01*
X131249000Y-130145000D01*
X131250000Y-130148000D01*
X131250000Y-130150000D01*
X131250000Y-130153000D01*
X131250000Y-130848000D01*
X131250000Y-130851000D01*
X131250000Y-130853000D01*
X131249000Y-130856000D01*
X131249000Y-130858000D01*
X131248000Y-130861000D01*
X131248000Y-130863000D01*
X131247000Y-130866000D01*
X131246000Y-130868000D01*
X131245000Y-130871000D01*
X131243000Y-130873000D01*
X131242000Y-130875000D01*
X131240000Y-130877000D01*
X131239000Y-130879000D01*
X131237000Y-130881000D01*
X131235000Y-130883000D01*
X131233000Y-130885000D01*
X131231000Y-130887000D01*
X131229000Y-130888000D01*
X131227000Y-130890000D01*
X131225000Y-130891000D01*
X131223000Y-130893000D01*
X131220000Y-130894000D01*
X131218000Y-130895000D01*
X131215000Y-130896000D01*
X131213000Y-130896000D01*
X131210000Y-130897000D01*
X131208000Y-130897000D01*
X131205000Y-130898000D01*
X131203000Y-130898000D01*
X131200000Y-130898000D01*
X130125000Y-130898000D01*
X130124000Y-130898000D01*
X130122000Y-130898000D01*
X130121000Y-130898000D01*
X130120000Y-130897000D01*
X130119000Y-130897000D01*
X130117000Y-130897000D01*
X130116000Y-130896000D01*
X130115000Y-130896000D01*
X130114000Y-130895000D01*
X130113000Y-130895000D01*
X130111000Y-130894000D01*
X130110000Y-130893000D01*
X130109000Y-130892000D01*
X130108000Y-130892000D01*
X130107000Y-130891000D01*
X130106000Y-130890000D01*
X130106000Y-130889000D01*
X130105000Y-130888000D01*
X130104000Y-130887000D01*
X130103000Y-130885000D01*
X130103000Y-130884000D01*
X130102000Y-130883000D01*
X130102000Y-130882000D01*
X130101000Y-130881000D01*
X130101000Y-130879000D01*
X130101000Y-130878000D01*
X130100000Y-130877000D01*
X130100000Y-130876000D01*
X130100000Y-130874000D01*
X130100000Y-130873000D01*
X130100000Y-130872000D01*
X130100000Y-130870000D01*
X130100000Y-130869000D01*
X130099000Y-130868000D01*
X130099000Y-130867000D01*
X130099000Y-130865000D01*
X130098000Y-130864000D01*
X130098000Y-130863000D01*
X130097000Y-130862000D01*
X130097000Y-130861000D01*
X130096000Y-130859000D01*
X130095000Y-130858000D01*
X130094000Y-130857000D01*
X130094000Y-130856000D01*
X130093000Y-130855000D01*
X130092000Y-130854000D01*
X130091000Y-130854000D01*
X130090000Y-130853000D01*
X130089000Y-130852000D01*
X130087000Y-130851000D01*
X130086000Y-130851000D01*
X130085000Y-130850000D01*
X130084000Y-130850000D01*
X130083000Y-130849000D01*
X130081000Y-130849000D01*
X130080000Y-130849000D01*
X130079000Y-130848000D01*
X130078000Y-130848000D01*
X130076000Y-130848000D01*
X130075000Y-130848000D01*
X129800000Y-130848000D01*
X129797000Y-130848000D01*
X129795000Y-130848000D01*
X129792000Y-130847000D01*
X129790000Y-130847000D01*
X129787000Y-130846000D01*
X129785000Y-130846000D01*
X129782000Y-130845000D01*
X129780000Y-130844000D01*
X129777000Y-130843000D01*
X129775000Y-130841000D01*
X129773000Y-130840000D01*
X129771000Y-130838000D01*
X129769000Y-130837000D01*
X129767000Y-130835000D01*
X129765000Y-130833000D01*
X129763000Y-130831000D01*
X129761000Y-130829000D01*
X129760000Y-130827000D01*
X129758000Y-130825000D01*
X129757000Y-130823000D01*
X129755000Y-130821000D01*
X129754000Y-130818000D01*
X129753000Y-130816000D01*
X129752000Y-130813000D01*
X129752000Y-130811000D01*
X129751000Y-130808000D01*
X129751000Y-130806000D01*
X129750000Y-130803000D01*
X129750000Y-130801000D01*
X129750000Y-130798000D01*
X129750000Y-130698000D01*
X129750000Y-130695000D01*
X129750000Y-130693000D01*
X129751000Y-130690000D01*
X129751000Y-130688000D01*
X129752000Y-130685000D01*
X129752000Y-130683000D01*
X129753000Y-130680000D01*
X129754000Y-130678000D01*
X129755000Y-130675000D01*
X129757000Y-130673000D01*
X129758000Y-130671000D01*
X129760000Y-130669000D01*
X129761000Y-130667000D01*
X129763000Y-130665000D01*
X129765000Y-130663000D01*
X129767000Y-130661000D01*
X129769000Y-130659000D01*
X129771000Y-130658000D01*
X129773000Y-130656000D01*
X129775000Y-130655000D01*
X129777000Y-130653000D01*
X129780000Y-130652000D01*
X129782000Y-130651000D01*
X129785000Y-130650000D01*
X129787000Y-130650000D01*
X129790000Y-130649000D01*
X129792000Y-130649000D01*
X129795000Y-130648000D01*
X129797000Y-130648000D01*
X129800000Y-130648000D01*
X130050000Y-130648000D01*
X130053000Y-130648000D01*
X130055000Y-130648000D01*
X130058000Y-130647000D01*
X130060000Y-130647000D01*
X130063000Y-130646000D01*
X130065000Y-130646000D01*
X130068000Y-130645000D01*
X130070000Y-130644000D01*
X130073000Y-130643000D01*
X130075000Y-130641000D01*
X130077000Y-130640000D01*
X130079000Y-130638000D01*
X130081000Y-130637000D01*
X130083000Y-130635000D01*
X130085000Y-130633000D01*
X130087000Y-130631000D01*
X130089000Y-130629000D01*
X130090000Y-130627000D01*
X130092000Y-130625000D01*
X130093000Y-130623000D01*
X130095000Y-130621000D01*
X130096000Y-130618000D01*
X130097000Y-130616000D01*
X130098000Y-130613000D01*
X130098000Y-130611000D01*
X130099000Y-130608000D01*
X130099000Y-130606000D01*
X130100000Y-130603000D01*
X130100000Y-130601000D01*
X130100000Y-130598000D01*
X130100000Y-130398000D01*
X130100000Y-130395000D01*
X130100000Y-130393000D01*
X130099000Y-130390000D01*
X130099000Y-130388000D01*
X130098000Y-130385000D01*
X130098000Y-130383000D01*
X130097000Y-130380000D01*
X130096000Y-130378000D01*
X130095000Y-130375000D01*
X130093000Y-130373000D01*
X130092000Y-130371000D01*
X130090000Y-130369000D01*
X130089000Y-130367000D01*
X130087000Y-130365000D01*
X130085000Y-130363000D01*
X130083000Y-130361000D01*
X130081000Y-130359000D01*
X130079000Y-130358000D01*
X130077000Y-130356000D01*
X130075000Y-130355000D01*
X130073000Y-130353000D01*
X130070000Y-130352000D01*
X130068000Y-130351000D01*
X130065000Y-130350000D01*
X130063000Y-130350000D01*
X130060000Y-130349000D01*
X130058000Y-130349000D01*
X130055000Y-130348000D01*
X130053000Y-130348000D01*
X130050000Y-130348000D01*
X129800000Y-130348000D01*
X129797000Y-130348000D01*
X129795000Y-130348000D01*
X129792000Y-130347000D01*
X129790000Y-130347000D01*
X129787000Y-130346000D01*
X129785000Y-130346000D01*
X129782000Y-130345000D01*
X129780000Y-130344000D01*
X129777000Y-130343000D01*
X129775000Y-130341000D01*
X129773000Y-130340000D01*
X129771000Y-130338000D01*
X129769000Y-130337000D01*
X129767000Y-130335000D01*
X129765000Y-130333000D01*
X129763000Y-130331000D01*
X129761000Y-130329000D01*
X129760000Y-130327000D01*
X129758000Y-130325000D01*
X129757000Y-130323000D01*
X129755000Y-130321000D01*
X129754000Y-130318000D01*
X129753000Y-130316000D01*
X129752000Y-130313000D01*
X129752000Y-130311000D01*
X129751000Y-130308000D01*
X129751000Y-130306000D01*
X129750000Y-130303000D01*
X129750000Y-130301000D01*
X129750000Y-130298000D01*
X129750000Y-130198000D01*
X129750000Y-130195000D01*
X129750000Y-130193000D01*
X129751000Y-130190000D01*
X129751000Y-130188000D01*
X129752000Y-130185000D01*
X129752000Y-130183000D01*
X129753000Y-130180000D01*
X129754000Y-130178000D01*
X129755000Y-130175000D01*
X129757000Y-130173000D01*
X129758000Y-130171000D01*
X129760000Y-130169000D01*
X129761000Y-130167000D01*
X129763000Y-130165000D01*
X129765000Y-130163000D01*
X129767000Y-130161000D01*
X129769000Y-130159000D01*
X129771000Y-130158000D01*
X129773000Y-130156000D01*
X129775000Y-130155000D01*
X129777000Y-130153000D01*
X129780000Y-130152000D01*
X129782000Y-130151000D01*
X129785000Y-130150000D01*
X129787000Y-130150000D01*
X129790000Y-130149000D01*
X129792000Y-130149000D01*
X129795000Y-130148000D01*
X129797000Y-130148000D01*
X129800000Y-130148000D01*
X130077000Y-130148000D01*
X130079000Y-130148000D01*
X130080000Y-130148000D01*
X130081000Y-130148000D01*
X130082000Y-130148000D01*
X130083000Y-130147000D01*
X130084000Y-130147000D01*
X130086000Y-130147000D01*
X130087000Y-130146000D01*
X130088000Y-130146000D01*
X130089000Y-130145000D01*
X130090000Y-130144000D01*
X130091000Y-130144000D01*
X130092000Y-130143000D01*
X130093000Y-130142000D01*
X130093000Y-130141000D01*
X130094000Y-130141000D01*
X130095000Y-130140000D01*
X130096000Y-130139000D01*
X130096000Y-130138000D01*
X130097000Y-130137000D01*
X130098000Y-130136000D01*
X130098000Y-130135000D01*
X130099000Y-130134000D01*
X130099000Y-130132000D01*
X130099000Y-130131000D01*
X130100000Y-130130000D01*
X130100000Y-130129000D01*
X130100000Y-130128000D01*
X130100000Y-130127000D01*
X130100000Y-130126000D01*
X130100000Y-130124000D01*
X130100000Y-130123000D01*
X130100000Y-130122000D01*
X130100000Y-130121000D01*
X130101000Y-130120000D01*
X130101000Y-130119000D01*
X130101000Y-130117000D01*
X130102000Y-130116000D01*
X130102000Y-130115000D01*
X130103000Y-130114000D01*
X130104000Y-130113000D01*
X130104000Y-130112000D01*
X130105000Y-130111000D01*
X130106000Y-130110000D01*
X130107000Y-130110000D01*
X130107000Y-130109000D01*
X130108000Y-130108000D01*
X130109000Y-130107000D01*
X130110000Y-130107000D01*
X130111000Y-130106000D01*
X130112000Y-130105000D01*
X130113000Y-130105000D01*
X130114000Y-130104000D01*
X130116000Y-130104000D01*
X130117000Y-130104000D01*
X130118000Y-130103000D01*
X130119000Y-130103000D01*
X130120000Y-130103000D01*
X130121000Y-130103000D01*
X130123000Y-130103000D01*
X131200000Y-130103000D01*
X131203000Y-130103000D01*
X131205000Y-130103000D01*
X131208000Y-130104000D01*
G37*
X132783000Y-130104000D02*
X132784000Y-130104000D01*
X132786000Y-130104000D01*
X132787000Y-130105000D01*
X132788000Y-130105000D01*
X132789000Y-130106000D01*
X132790000Y-130107000D01*
X132791000Y-130107000D01*
X132792000Y-130108000D01*
X132793000Y-130109000D01*
X132793000Y-130110000D01*
X132794000Y-130110000D01*
X132795000Y-130111000D01*
X132796000Y-130112000D01*
X132796000Y-130113000D01*
X132797000Y-130114000D01*
X132798000Y-130115000D01*
X132798000Y-130116000D01*
X132799000Y-130117000D01*
X132799000Y-130119000D01*
X132799000Y-130120000D01*
X132800000Y-130121000D01*
X132800000Y-130122000D01*
X132800000Y-130123000D01*
X132800000Y-130124000D01*
X132800000Y-130126000D01*
X132800000Y-130127000D01*
X132800000Y-130128000D01*
X132800000Y-130129000D01*
X132800000Y-130130000D01*
X132801000Y-130131000D01*
X132801000Y-130132000D01*
X132801000Y-130134000D01*
X132802000Y-130135000D01*
X132802000Y-130136000D01*
X132803000Y-130137000D01*
X132804000Y-130138000D01*
X132804000Y-130139000D01*
X132805000Y-130140000D01*
X132806000Y-130141000D01*
X132807000Y-130141000D01*
X132807000Y-130142000D01*
X132808000Y-130143000D01*
X132809000Y-130144000D01*
X132810000Y-130144000D01*
X132811000Y-130145000D01*
X132812000Y-130146000D01*
X132813000Y-130146000D01*
X132814000Y-130147000D01*
X132816000Y-130147000D01*
X132817000Y-130147000D01*
X132818000Y-130148000D01*
X132819000Y-130148000D01*
X132820000Y-130148000D01*
X132821000Y-130148000D01*
X132823000Y-130148000D01*
X133100000Y-130148000D01*
X133103000Y-130148000D01*
X133105000Y-130148000D01*
X133108000Y-130149000D01*
X133110000Y-130149000D01*
X133113000Y-130150000D01*
X133115000Y-130150000D01*
X133118000Y-130151000D01*
X133120000Y-130152000D01*
X133123000Y-130153000D01*
X133125000Y-130155000D01*
X133127000Y-130156000D01*
X133129000Y-130158000D01*
X133131000Y-130159000D01*
X133133000Y-130161000D01*
X133135000Y-130163000D01*
X133137000Y-130165000D01*
X133139000Y-130167000D01*
X133140000Y-130169000D01*
X133142000Y-130171000D01*
X133143000Y-130173000D01*
X133145000Y-130175000D01*
X133146000Y-130178000D01*
X133147000Y-130180000D01*
X133148000Y-130183000D01*
X133148000Y-130185000D01*
X133149000Y-130188000D01*
X133149000Y-130190000D01*
X133150000Y-130193000D01*
X133150000Y-130195000D01*
X133150000Y-130198000D01*
X133150000Y-130298000D01*
X133150000Y-130301000D01*
X133150000Y-130303000D01*
X133149000Y-130306000D01*
X133149000Y-130308000D01*
X133148000Y-130311000D01*
X133148000Y-130313000D01*
X133147000Y-130316000D01*
X133146000Y-130318000D01*
X133145000Y-130321000D01*
X133143000Y-130323000D01*
X133142000Y-130325000D01*
X133140000Y-130327000D01*
X133139000Y-130329000D01*
X133137000Y-130331000D01*
X133135000Y-130333000D01*
X133133000Y-130335000D01*
X133131000Y-130337000D01*
X133129000Y-130338000D01*
X133127000Y-130340000D01*
X133125000Y-130341000D01*
X133123000Y-130343000D01*
X133120000Y-130344000D01*
X133118000Y-130345000D01*
X133115000Y-130346000D01*
X133113000Y-130346000D01*
X133110000Y-130347000D01*
X133108000Y-130347000D01*
X133105000Y-130348000D01*
X133103000Y-130348000D01*
X133100000Y-130348000D01*
X132850000Y-130348000D01*
X132847000Y-130348000D01*
X132845000Y-130348000D01*
X132842000Y-130349000D01*
X132840000Y-130349000D01*
X132837000Y-130350000D01*
X132835000Y-130350000D01*
X132832000Y-130351000D01*
X132830000Y-130352000D01*
X132827000Y-130353000D01*
X132825000Y-130355000D01*
X132823000Y-130356000D01*
X132821000Y-130358000D01*
X132819000Y-130359000D01*
X132817000Y-130361000D01*
X132815000Y-130363000D01*
X132813000Y-130365000D01*
X132811000Y-130367000D01*
X132810000Y-130369000D01*
X132808000Y-130371000D01*
X132807000Y-130373000D01*
X132805000Y-130375000D01*
X132804000Y-130378000D01*
X132803000Y-130380000D01*
X132802000Y-130383000D01*
X132802000Y-130385000D01*
X132801000Y-130388000D01*
X132801000Y-130390000D01*
X132800000Y-130393000D01*
X132800000Y-130395000D01*
X132800000Y-130398000D01*
X132800000Y-130598000D01*
X132800000Y-130601000D01*
X132800000Y-130603000D01*
X132801000Y-130606000D01*
X132801000Y-130608000D01*
X132802000Y-130611000D01*
X132802000Y-130613000D01*
X132803000Y-130616000D01*
X132804000Y-130618000D01*
X132805000Y-130621000D01*
X132807000Y-130623000D01*
X132808000Y-130625000D01*
X132810000Y-130627000D01*
X132811000Y-130629000D01*
X132813000Y-130631000D01*
X132815000Y-130633000D01*
X132817000Y-130635000D01*
X132819000Y-130637000D01*
X132821000Y-130638000D01*
X132823000Y-130640000D01*
X132825000Y-130641000D01*
X132827000Y-130643000D01*
X132830000Y-130644000D01*
X132832000Y-130645000D01*
X132835000Y-130646000D01*
X132837000Y-130646000D01*
X132840000Y-130647000D01*
X132842000Y-130647000D01*
X132845000Y-130648000D01*
X132847000Y-130648000D01*
X132850000Y-130648000D01*
X133100000Y-130648000D01*
X133103000Y-130648000D01*
X133105000Y-130648000D01*
X133108000Y-130649000D01*
X133110000Y-130649000D01*
X133113000Y-130650000D01*
X133115000Y-130650000D01*
X133118000Y-130651000D01*
X133120000Y-130652000D01*
X133123000Y-130653000D01*
X133125000Y-130655000D01*
X133127000Y-130656000D01*
X133129000Y-130658000D01*
X133131000Y-130659000D01*
X133133000Y-130661000D01*
X133135000Y-130663000D01*
X133137000Y-130665000D01*
X133139000Y-130667000D01*
X133140000Y-130669000D01*
X133142000Y-130671000D01*
X133143000Y-130673000D01*
X133145000Y-130675000D01*
X133146000Y-130678000D01*
X133147000Y-130680000D01*
X133148000Y-130683000D01*
X133148000Y-130685000D01*
X133149000Y-130688000D01*
X133149000Y-130690000D01*
X133150000Y-130693000D01*
X133150000Y-130695000D01*
X133150000Y-130698000D01*
X133150000Y-130798000D01*
X133150000Y-130801000D01*
X133150000Y-130803000D01*
X133149000Y-130806000D01*
X133149000Y-130808000D01*
X133148000Y-130811000D01*
X133148000Y-130813000D01*
X133147000Y-130816000D01*
X133146000Y-130818000D01*
X133145000Y-130821000D01*
X133143000Y-130823000D01*
X133142000Y-130825000D01*
X133140000Y-130827000D01*
X133139000Y-130829000D01*
X133137000Y-130831000D01*
X133135000Y-130833000D01*
X133133000Y-130835000D01*
X133131000Y-130837000D01*
X133129000Y-130838000D01*
X133127000Y-130840000D01*
X133125000Y-130841000D01*
X133123000Y-130843000D01*
X133120000Y-130844000D01*
X133118000Y-130845000D01*
X133115000Y-130846000D01*
X133113000Y-130846000D01*
X133110000Y-130847000D01*
X133108000Y-130847000D01*
X133105000Y-130848000D01*
X133103000Y-130848000D01*
X133100000Y-130848000D01*
X132825000Y-130848000D01*
X132824000Y-130848000D01*
X132822000Y-130848000D01*
X132821000Y-130848000D01*
X132820000Y-130849000D01*
X132819000Y-130849000D01*
X132817000Y-130849000D01*
X132816000Y-130850000D01*
X132815000Y-130850000D01*
X132814000Y-130851000D01*
X132813000Y-130851000D01*
X132811000Y-130852000D01*
X132810000Y-130853000D01*
X132809000Y-130854000D01*
X132808000Y-130854000D01*
X132807000Y-130855000D01*
X132806000Y-130856000D01*
X132806000Y-130857000D01*
X132805000Y-130858000D01*
X132804000Y-130859000D01*
X132803000Y-130861000D01*
X132803000Y-130862000D01*
X132802000Y-130863000D01*
X132802000Y-130864000D01*
X132801000Y-130865000D01*
X132801000Y-130867000D01*
X132801000Y-130868000D01*
X132800000Y-130869000D01*
X132800000Y-130870000D01*
X132800000Y-130872000D01*
X132800000Y-130873000D01*
X132800000Y-130874000D01*
X132800000Y-130876000D01*
X132800000Y-130877000D01*
X132799000Y-130878000D01*
X132799000Y-130879000D01*
X132799000Y-130881000D01*
X132798000Y-130882000D01*
X132798000Y-130883000D01*
X132797000Y-130884000D01*
X132797000Y-130885000D01*
X132796000Y-130887000D01*
X132795000Y-130888000D01*
X132794000Y-130889000D01*
X132794000Y-130890000D01*
X132793000Y-130891000D01*
X132792000Y-130892000D01*
X132791000Y-130892000D01*
X132790000Y-130893000D01*
X132789000Y-130894000D01*
X132787000Y-130895000D01*
X132786000Y-130895000D01*
X132785000Y-130896000D01*
X132784000Y-130896000D01*
X132783000Y-130897000D01*
X132781000Y-130897000D01*
X132780000Y-130897000D01*
X132779000Y-130898000D01*
X132778000Y-130898000D01*
X132776000Y-130898000D01*
X132775000Y-130898000D01*
X131700000Y-130898000D01*
X131697000Y-130898000D01*
X131695000Y-130898000D01*
X131692000Y-130897000D01*
X131690000Y-130897000D01*
X131687000Y-130896000D01*
X131685000Y-130896000D01*
X131682000Y-130895000D01*
X131680000Y-130894000D01*
X131677000Y-130893000D01*
X131675000Y-130891000D01*
X131673000Y-130890000D01*
X131671000Y-130888000D01*
X131669000Y-130887000D01*
X131667000Y-130885000D01*
X131665000Y-130883000D01*
X131663000Y-130881000D01*
X131661000Y-130879000D01*
X131660000Y-130877000D01*
X131658000Y-130875000D01*
X131657000Y-130873000D01*
X131655000Y-130871000D01*
X131654000Y-130868000D01*
X131653000Y-130866000D01*
X131652000Y-130863000D01*
X131652000Y-130861000D01*
X131651000Y-130858000D01*
X131651000Y-130856000D01*
X131650000Y-130853000D01*
X131650000Y-130851000D01*
X131650000Y-130848000D01*
X131650000Y-130153000D01*
X131650000Y-130150000D01*
X131650000Y-130148000D01*
X131651000Y-130145000D01*
X131651000Y-130143000D01*
X131652000Y-130140000D01*
X131652000Y-130138000D01*
X131653000Y-130135000D01*
X131654000Y-130133000D01*
X131655000Y-130130000D01*
X131657000Y-130128000D01*
X131658000Y-130126000D01*
X131660000Y-130124000D01*
X131661000Y-130122000D01*
X131663000Y-130120000D01*
X131665000Y-130118000D01*
X131667000Y-130116000D01*
X131669000Y-130114000D01*
X131671000Y-130113000D01*
X131673000Y-130111000D01*
X131675000Y-130110000D01*
X131677000Y-130108000D01*
X131680000Y-130107000D01*
X131682000Y-130106000D01*
X131685000Y-130105000D01*
X131687000Y-130105000D01*
X131690000Y-130104000D01*
X131692000Y-130104000D01*
X131695000Y-130103000D01*
X131697000Y-130103000D01*
X131700000Y-130103000D01*
X132777000Y-130103000D01*
X132779000Y-130103000D01*
X132780000Y-130103000D01*
X132781000Y-130103000D01*
X132782000Y-130103000D01*
X132783000Y-130104000D01*
G36*
X132783000Y-130104000D02*
G01*
X132784000Y-130104000D01*
X132786000Y-130104000D01*
X132787000Y-130105000D01*
X132788000Y-130105000D01*
X132789000Y-130106000D01*
X132790000Y-130107000D01*
X132791000Y-130107000D01*
X132792000Y-130108000D01*
X132793000Y-130109000D01*
X132793000Y-130110000D01*
X132794000Y-130110000D01*
X132795000Y-130111000D01*
X132796000Y-130112000D01*
X132796000Y-130113000D01*
X132797000Y-130114000D01*
X132798000Y-130115000D01*
X132798000Y-130116000D01*
X132799000Y-130117000D01*
X132799000Y-130119000D01*
X132799000Y-130120000D01*
X132800000Y-130121000D01*
X132800000Y-130122000D01*
X132800000Y-130123000D01*
X132800000Y-130124000D01*
X132800000Y-130126000D01*
X132800000Y-130127000D01*
X132800000Y-130128000D01*
X132800000Y-130129000D01*
X132800000Y-130130000D01*
X132801000Y-130131000D01*
X132801000Y-130132000D01*
X132801000Y-130134000D01*
X132802000Y-130135000D01*
X132802000Y-130136000D01*
X132803000Y-130137000D01*
X132804000Y-130138000D01*
X132804000Y-130139000D01*
X132805000Y-130140000D01*
X132806000Y-130141000D01*
X132807000Y-130141000D01*
X132807000Y-130142000D01*
X132808000Y-130143000D01*
X132809000Y-130144000D01*
X132810000Y-130144000D01*
X132811000Y-130145000D01*
X132812000Y-130146000D01*
X132813000Y-130146000D01*
X132814000Y-130147000D01*
X132816000Y-130147000D01*
X132817000Y-130147000D01*
X132818000Y-130148000D01*
X132819000Y-130148000D01*
X132820000Y-130148000D01*
X132821000Y-130148000D01*
X132823000Y-130148000D01*
X133100000Y-130148000D01*
X133103000Y-130148000D01*
X133105000Y-130148000D01*
X133108000Y-130149000D01*
X133110000Y-130149000D01*
X133113000Y-130150000D01*
X133115000Y-130150000D01*
X133118000Y-130151000D01*
X133120000Y-130152000D01*
X133123000Y-130153000D01*
X133125000Y-130155000D01*
X133127000Y-130156000D01*
X133129000Y-130158000D01*
X133131000Y-130159000D01*
X133133000Y-130161000D01*
X133135000Y-130163000D01*
X133137000Y-130165000D01*
X133139000Y-130167000D01*
X133140000Y-130169000D01*
X133142000Y-130171000D01*
X133143000Y-130173000D01*
X133145000Y-130175000D01*
X133146000Y-130178000D01*
X133147000Y-130180000D01*
X133148000Y-130183000D01*
X133148000Y-130185000D01*
X133149000Y-130188000D01*
X133149000Y-130190000D01*
X133150000Y-130193000D01*
X133150000Y-130195000D01*
X133150000Y-130198000D01*
X133150000Y-130298000D01*
X133150000Y-130301000D01*
X133150000Y-130303000D01*
X133149000Y-130306000D01*
X133149000Y-130308000D01*
X133148000Y-130311000D01*
X133148000Y-130313000D01*
X133147000Y-130316000D01*
X133146000Y-130318000D01*
X133145000Y-130321000D01*
X133143000Y-130323000D01*
X133142000Y-130325000D01*
X133140000Y-130327000D01*
X133139000Y-130329000D01*
X133137000Y-130331000D01*
X133135000Y-130333000D01*
X133133000Y-130335000D01*
X133131000Y-130337000D01*
X133129000Y-130338000D01*
X133127000Y-130340000D01*
X133125000Y-130341000D01*
X133123000Y-130343000D01*
X133120000Y-130344000D01*
X133118000Y-130345000D01*
X133115000Y-130346000D01*
X133113000Y-130346000D01*
X133110000Y-130347000D01*
X133108000Y-130347000D01*
X133105000Y-130348000D01*
X133103000Y-130348000D01*
X133100000Y-130348000D01*
X132850000Y-130348000D01*
X132847000Y-130348000D01*
X132845000Y-130348000D01*
X132842000Y-130349000D01*
X132840000Y-130349000D01*
X132837000Y-130350000D01*
X132835000Y-130350000D01*
X132832000Y-130351000D01*
X132830000Y-130352000D01*
X132827000Y-130353000D01*
X132825000Y-130355000D01*
X132823000Y-130356000D01*
X132821000Y-130358000D01*
X132819000Y-130359000D01*
X132817000Y-130361000D01*
X132815000Y-130363000D01*
X132813000Y-130365000D01*
X132811000Y-130367000D01*
X132810000Y-130369000D01*
X132808000Y-130371000D01*
X132807000Y-130373000D01*
X132805000Y-130375000D01*
X132804000Y-130378000D01*
X132803000Y-130380000D01*
X132802000Y-130383000D01*
X132802000Y-130385000D01*
X132801000Y-130388000D01*
X132801000Y-130390000D01*
X132800000Y-130393000D01*
X132800000Y-130395000D01*
X132800000Y-130398000D01*
X132800000Y-130598000D01*
X132800000Y-130601000D01*
X132800000Y-130603000D01*
X132801000Y-130606000D01*
X132801000Y-130608000D01*
X132802000Y-130611000D01*
X132802000Y-130613000D01*
X132803000Y-130616000D01*
X132804000Y-130618000D01*
X132805000Y-130621000D01*
X132807000Y-130623000D01*
X132808000Y-130625000D01*
X132810000Y-130627000D01*
X132811000Y-130629000D01*
X132813000Y-130631000D01*
X132815000Y-130633000D01*
X132817000Y-130635000D01*
X132819000Y-130637000D01*
X132821000Y-130638000D01*
X132823000Y-130640000D01*
X132825000Y-130641000D01*
X132827000Y-130643000D01*
X132830000Y-130644000D01*
X132832000Y-130645000D01*
X132835000Y-130646000D01*
X132837000Y-130646000D01*
X132840000Y-130647000D01*
X132842000Y-130647000D01*
X132845000Y-130648000D01*
X132847000Y-130648000D01*
X132850000Y-130648000D01*
X133100000Y-130648000D01*
X133103000Y-130648000D01*
X133105000Y-130648000D01*
X133108000Y-130649000D01*
X133110000Y-130649000D01*
X133113000Y-130650000D01*
X133115000Y-130650000D01*
X133118000Y-130651000D01*
X133120000Y-130652000D01*
X133123000Y-130653000D01*
X133125000Y-130655000D01*
X133127000Y-130656000D01*
X133129000Y-130658000D01*
X133131000Y-130659000D01*
X133133000Y-130661000D01*
X133135000Y-130663000D01*
X133137000Y-130665000D01*
X133139000Y-130667000D01*
X133140000Y-130669000D01*
X133142000Y-130671000D01*
X133143000Y-130673000D01*
X133145000Y-130675000D01*
X133146000Y-130678000D01*
X133147000Y-130680000D01*
X133148000Y-130683000D01*
X133148000Y-130685000D01*
X133149000Y-130688000D01*
X133149000Y-130690000D01*
X133150000Y-130693000D01*
X133150000Y-130695000D01*
X133150000Y-130698000D01*
X133150000Y-130798000D01*
X133150000Y-130801000D01*
X133150000Y-130803000D01*
X133149000Y-130806000D01*
X133149000Y-130808000D01*
X133148000Y-130811000D01*
X133148000Y-130813000D01*
X133147000Y-130816000D01*
X133146000Y-130818000D01*
X133145000Y-130821000D01*
X133143000Y-130823000D01*
X133142000Y-130825000D01*
X133140000Y-130827000D01*
X133139000Y-130829000D01*
X133137000Y-130831000D01*
X133135000Y-130833000D01*
X133133000Y-130835000D01*
X133131000Y-130837000D01*
X133129000Y-130838000D01*
X133127000Y-130840000D01*
X133125000Y-130841000D01*
X133123000Y-130843000D01*
X133120000Y-130844000D01*
X133118000Y-130845000D01*
X133115000Y-130846000D01*
X133113000Y-130846000D01*
X133110000Y-130847000D01*
X133108000Y-130847000D01*
X133105000Y-130848000D01*
X133103000Y-130848000D01*
X133100000Y-130848000D01*
X132825000Y-130848000D01*
X132824000Y-130848000D01*
X132822000Y-130848000D01*
X132821000Y-130848000D01*
X132820000Y-130849000D01*
X132819000Y-130849000D01*
X132817000Y-130849000D01*
X132816000Y-130850000D01*
X132815000Y-130850000D01*
X132814000Y-130851000D01*
X132813000Y-130851000D01*
X132811000Y-130852000D01*
X132810000Y-130853000D01*
X132809000Y-130854000D01*
X132808000Y-130854000D01*
X132807000Y-130855000D01*
X132806000Y-130856000D01*
X132806000Y-130857000D01*
X132805000Y-130858000D01*
X132804000Y-130859000D01*
X132803000Y-130861000D01*
X132803000Y-130862000D01*
X132802000Y-130863000D01*
X132802000Y-130864000D01*
X132801000Y-130865000D01*
X132801000Y-130867000D01*
X132801000Y-130868000D01*
X132800000Y-130869000D01*
X132800000Y-130870000D01*
X132800000Y-130872000D01*
X132800000Y-130873000D01*
X132800000Y-130874000D01*
X132800000Y-130876000D01*
X132800000Y-130877000D01*
X132799000Y-130878000D01*
X132799000Y-130879000D01*
X132799000Y-130881000D01*
X132798000Y-130882000D01*
X132798000Y-130883000D01*
X132797000Y-130884000D01*
X132797000Y-130885000D01*
X132796000Y-130887000D01*
X132795000Y-130888000D01*
X132794000Y-130889000D01*
X132794000Y-130890000D01*
X132793000Y-130891000D01*
X132792000Y-130892000D01*
X132791000Y-130892000D01*
X132790000Y-130893000D01*
X132789000Y-130894000D01*
X132787000Y-130895000D01*
X132786000Y-130895000D01*
X132785000Y-130896000D01*
X132784000Y-130896000D01*
X132783000Y-130897000D01*
X132781000Y-130897000D01*
X132780000Y-130897000D01*
X132779000Y-130898000D01*
X132778000Y-130898000D01*
X132776000Y-130898000D01*
X132775000Y-130898000D01*
X131700000Y-130898000D01*
X131697000Y-130898000D01*
X131695000Y-130898000D01*
X131692000Y-130897000D01*
X131690000Y-130897000D01*
X131687000Y-130896000D01*
X131685000Y-130896000D01*
X131682000Y-130895000D01*
X131680000Y-130894000D01*
X131677000Y-130893000D01*
X131675000Y-130891000D01*
X131673000Y-130890000D01*
X131671000Y-130888000D01*
X131669000Y-130887000D01*
X131667000Y-130885000D01*
X131665000Y-130883000D01*
X131663000Y-130881000D01*
X131661000Y-130879000D01*
X131660000Y-130877000D01*
X131658000Y-130875000D01*
X131657000Y-130873000D01*
X131655000Y-130871000D01*
X131654000Y-130868000D01*
X131653000Y-130866000D01*
X131652000Y-130863000D01*
X131652000Y-130861000D01*
X131651000Y-130858000D01*
X131651000Y-130856000D01*
X131650000Y-130853000D01*
X131650000Y-130851000D01*
X131650000Y-130848000D01*
X131650000Y-130153000D01*
X131650000Y-130150000D01*
X131650000Y-130148000D01*
X131651000Y-130145000D01*
X131651000Y-130143000D01*
X131652000Y-130140000D01*
X131652000Y-130138000D01*
X131653000Y-130135000D01*
X131654000Y-130133000D01*
X131655000Y-130130000D01*
X131657000Y-130128000D01*
X131658000Y-130126000D01*
X131660000Y-130124000D01*
X131661000Y-130122000D01*
X131663000Y-130120000D01*
X131665000Y-130118000D01*
X131667000Y-130116000D01*
X131669000Y-130114000D01*
X131671000Y-130113000D01*
X131673000Y-130111000D01*
X131675000Y-130110000D01*
X131677000Y-130108000D01*
X131680000Y-130107000D01*
X131682000Y-130106000D01*
X131685000Y-130105000D01*
X131687000Y-130105000D01*
X131690000Y-130104000D01*
X131692000Y-130104000D01*
X131695000Y-130103000D01*
X131697000Y-130103000D01*
X131700000Y-130103000D01*
X132777000Y-130103000D01*
X132779000Y-130103000D01*
X132780000Y-130103000D01*
X132781000Y-130103000D01*
X132782000Y-130103000D01*
X132783000Y-130104000D01*
G37*
X130608000Y-127924000D02*
X130610000Y-127924000D01*
X130613000Y-127925000D01*
X130615000Y-127925000D01*
X130618000Y-127926000D01*
X130620000Y-127927000D01*
X130623000Y-127928000D01*
X130625000Y-127930000D01*
X130627000Y-127931000D01*
X130629000Y-127933000D01*
X130631000Y-127934000D01*
X130633000Y-127936000D01*
X130635000Y-127938000D01*
X130637000Y-127940000D01*
X130639000Y-127942000D01*
X130640000Y-127944000D01*
X130642000Y-127946000D01*
X130643000Y-127948000D01*
X130645000Y-127950000D01*
X130646000Y-127953000D01*
X130647000Y-127955000D01*
X130648000Y-127958000D01*
X130648000Y-127960000D01*
X130649000Y-127963000D01*
X130649000Y-127965000D01*
X130650000Y-127968000D01*
X130650000Y-127970000D01*
X130650000Y-127973000D01*
X130650000Y-128223000D01*
X130650000Y-128226000D01*
X130650000Y-128228000D01*
X130651000Y-128231000D01*
X130651000Y-128233000D01*
X130652000Y-128236000D01*
X130652000Y-128238000D01*
X130653000Y-128241000D01*
X130654000Y-128243000D01*
X130655000Y-128246000D01*
X130657000Y-128248000D01*
X130658000Y-128250000D01*
X130660000Y-128252000D01*
X130661000Y-128254000D01*
X130663000Y-128256000D01*
X130665000Y-128258000D01*
X130667000Y-128260000D01*
X130669000Y-128262000D01*
X130671000Y-128263000D01*
X130673000Y-128265000D01*
X130675000Y-128266000D01*
X130677000Y-128268000D01*
X130680000Y-128269000D01*
X130682000Y-128270000D01*
X130685000Y-128271000D01*
X130687000Y-128271000D01*
X130690000Y-128272000D01*
X130692000Y-128272000D01*
X130695000Y-128273000D01*
X130697000Y-128273000D01*
X130700000Y-128273000D01*
X130850000Y-128273000D01*
X130853000Y-128273000D01*
X130855000Y-128273000D01*
X130858000Y-128272000D01*
X130860000Y-128272000D01*
X130863000Y-128271000D01*
X130865000Y-128271000D01*
X130868000Y-128270000D01*
X130870000Y-128269000D01*
X130873000Y-128268000D01*
X130875000Y-128266000D01*
X130877000Y-128265000D01*
X130879000Y-128263000D01*
X130881000Y-128262000D01*
X130883000Y-128260000D01*
X130885000Y-128258000D01*
X130887000Y-128256000D01*
X130889000Y-128254000D01*
X130890000Y-128252000D01*
X130892000Y-128250000D01*
X130893000Y-128248000D01*
X130895000Y-128246000D01*
X130896000Y-128243000D01*
X130897000Y-128241000D01*
X130898000Y-128238000D01*
X130898000Y-128236000D01*
X130899000Y-128233000D01*
X130899000Y-128231000D01*
X130900000Y-128228000D01*
X130900000Y-128226000D01*
X130900000Y-128223000D01*
X130900000Y-127973000D01*
X130900000Y-127970000D01*
X130900000Y-127968000D01*
X130901000Y-127965000D01*
X130901000Y-127963000D01*
X130902000Y-127960000D01*
X130902000Y-127958000D01*
X130903000Y-127955000D01*
X130904000Y-127953000D01*
X130905000Y-127950000D01*
X130907000Y-127948000D01*
X130908000Y-127946000D01*
X130910000Y-127944000D01*
X130911000Y-127942000D01*
X130913000Y-127940000D01*
X130915000Y-127938000D01*
X130917000Y-127936000D01*
X130919000Y-127934000D01*
X130921000Y-127933000D01*
X130923000Y-127931000D01*
X130925000Y-127930000D01*
X130927000Y-127928000D01*
X130930000Y-127927000D01*
X130932000Y-127926000D01*
X130935000Y-127925000D01*
X130937000Y-127925000D01*
X130940000Y-127924000D01*
X130942000Y-127924000D01*
X130945000Y-127923000D01*
X130947000Y-127923000D01*
X130950000Y-127923000D01*
X131050000Y-127923000D01*
X131053000Y-127923000D01*
X131055000Y-127923000D01*
X131058000Y-127924000D01*
X131060000Y-127924000D01*
X131063000Y-127925000D01*
X131065000Y-127925000D01*
X131068000Y-127926000D01*
X131070000Y-127927000D01*
X131073000Y-127928000D01*
X131075000Y-127930000D01*
X131077000Y-127931000D01*
X131079000Y-127933000D01*
X131081000Y-127934000D01*
X131083000Y-127936000D01*
X131085000Y-127938000D01*
X131087000Y-127940000D01*
X131089000Y-127942000D01*
X131090000Y-127944000D01*
X131092000Y-127946000D01*
X131093000Y-127948000D01*
X131095000Y-127950000D01*
X131096000Y-127953000D01*
X131097000Y-127955000D01*
X131098000Y-127958000D01*
X131098000Y-127960000D01*
X131099000Y-127963000D01*
X131099000Y-127965000D01*
X131100000Y-127968000D01*
X131100000Y-127970000D01*
X131100000Y-127973000D01*
X131100000Y-128223000D01*
X131100000Y-128226000D01*
X131100000Y-128228000D01*
X131101000Y-128231000D01*
X131101000Y-128233000D01*
X131102000Y-128236000D01*
X131102000Y-128238000D01*
X131103000Y-128241000D01*
X131104000Y-128243000D01*
X131105000Y-128246000D01*
X131107000Y-128248000D01*
X131108000Y-128250000D01*
X131110000Y-128252000D01*
X131111000Y-128254000D01*
X131113000Y-128256000D01*
X131115000Y-128258000D01*
X131117000Y-128260000D01*
X131119000Y-128262000D01*
X131121000Y-128263000D01*
X131123000Y-128265000D01*
X131125000Y-128266000D01*
X131127000Y-128268000D01*
X131130000Y-128269000D01*
X131132000Y-128270000D01*
X131135000Y-128271000D01*
X131137000Y-128271000D01*
X131140000Y-128272000D01*
X131142000Y-128272000D01*
X131145000Y-128273000D01*
X131147000Y-128273000D01*
X131150000Y-128273000D01*
X131300000Y-128273000D01*
X131303000Y-128273000D01*
X131305000Y-128273000D01*
X131308000Y-128272000D01*
X131310000Y-128272000D01*
X131313000Y-128271000D01*
X131315000Y-128271000D01*
X131318000Y-128270000D01*
X131320000Y-128269000D01*
X131323000Y-128268000D01*
X131325000Y-128266000D01*
X131327000Y-128265000D01*
X131329000Y-128263000D01*
X131331000Y-128262000D01*
X131333000Y-128260000D01*
X131335000Y-128258000D01*
X131337000Y-128256000D01*
X131339000Y-128254000D01*
X131340000Y-128252000D01*
X131342000Y-128250000D01*
X131343000Y-128248000D01*
X131345000Y-128246000D01*
X131346000Y-128243000D01*
X131347000Y-128241000D01*
X131348000Y-128238000D01*
X131348000Y-128236000D01*
X131349000Y-128233000D01*
X131349000Y-128231000D01*
X131350000Y-128228000D01*
X131350000Y-128226000D01*
X131350000Y-128223000D01*
X131350000Y-127973000D01*
X131350000Y-127970000D01*
X131350000Y-127968000D01*
X131351000Y-127965000D01*
X131351000Y-127963000D01*
X131352000Y-127960000D01*
X131352000Y-127958000D01*
X131353000Y-127955000D01*
X131354000Y-127953000D01*
X131355000Y-127950000D01*
X131357000Y-127948000D01*
X131358000Y-127946000D01*
X131360000Y-127944000D01*
X131361000Y-127942000D01*
X131363000Y-127940000D01*
X131365000Y-127938000D01*
X131367000Y-127936000D01*
X131369000Y-127934000D01*
X131371000Y-127933000D01*
X131373000Y-127931000D01*
X131375000Y-127930000D01*
X131377000Y-127928000D01*
X131380000Y-127927000D01*
X131382000Y-127926000D01*
X131385000Y-127925000D01*
X131387000Y-127925000D01*
X131390000Y-127924000D01*
X131392000Y-127924000D01*
X131395000Y-127923000D01*
X131397000Y-127923000D01*
X131400000Y-127923000D01*
X131500000Y-127923000D01*
X131503000Y-127923000D01*
X131505000Y-127923000D01*
X131508000Y-127924000D01*
X131510000Y-127924000D01*
X131513000Y-127925000D01*
X131515000Y-127925000D01*
X131518000Y-127926000D01*
X131520000Y-127927000D01*
X131523000Y-127928000D01*
X131525000Y-127930000D01*
X131527000Y-127931000D01*
X131529000Y-127933000D01*
X131531000Y-127934000D01*
X131533000Y-127936000D01*
X131535000Y-127938000D01*
X131537000Y-127940000D01*
X131539000Y-127942000D01*
X131540000Y-127944000D01*
X131542000Y-127946000D01*
X131543000Y-127948000D01*
X131545000Y-127950000D01*
X131546000Y-127953000D01*
X131547000Y-127955000D01*
X131548000Y-127958000D01*
X131548000Y-127960000D01*
X131549000Y-127963000D01*
X131549000Y-127965000D01*
X131550000Y-127968000D01*
X131550000Y-127970000D01*
X131550000Y-127973000D01*
X131550000Y-128223000D01*
X131550000Y-128226000D01*
X131550000Y-128228000D01*
X131551000Y-128231000D01*
X131551000Y-128233000D01*
X131552000Y-128236000D01*
X131552000Y-128238000D01*
X131553000Y-128241000D01*
X131554000Y-128243000D01*
X131555000Y-128246000D01*
X131557000Y-128248000D01*
X131558000Y-128250000D01*
X131560000Y-128252000D01*
X131561000Y-128254000D01*
X131563000Y-128256000D01*
X131565000Y-128258000D01*
X131567000Y-128260000D01*
X131569000Y-128262000D01*
X131571000Y-128263000D01*
X131573000Y-128265000D01*
X131575000Y-128266000D01*
X131577000Y-128268000D01*
X131580000Y-128269000D01*
X131582000Y-128270000D01*
X131585000Y-128271000D01*
X131587000Y-128271000D01*
X131590000Y-128272000D01*
X131592000Y-128272000D01*
X131595000Y-128273000D01*
X131597000Y-128273000D01*
X131600000Y-128273000D01*
X131750000Y-128273000D01*
X131753000Y-128273000D01*
X131755000Y-128273000D01*
X131758000Y-128272000D01*
X131760000Y-128272000D01*
X131763000Y-128271000D01*
X131765000Y-128271000D01*
X131768000Y-128270000D01*
X131770000Y-128269000D01*
X131773000Y-128268000D01*
X131775000Y-128266000D01*
X131777000Y-128265000D01*
X131779000Y-128263000D01*
X131781000Y-128262000D01*
X131783000Y-128260000D01*
X131785000Y-128258000D01*
X131787000Y-128256000D01*
X131789000Y-128254000D01*
X131790000Y-128252000D01*
X131792000Y-128250000D01*
X131793000Y-128248000D01*
X131795000Y-128246000D01*
X131796000Y-128243000D01*
X131797000Y-128241000D01*
X131798000Y-128238000D01*
X131798000Y-128236000D01*
X131799000Y-128233000D01*
X131799000Y-128231000D01*
X131800000Y-128228000D01*
X131800000Y-128226000D01*
X131800000Y-128223000D01*
X131800000Y-127973000D01*
X131800000Y-127970000D01*
X131800000Y-127968000D01*
X131801000Y-127965000D01*
X131801000Y-127963000D01*
X131802000Y-127960000D01*
X131802000Y-127958000D01*
X131803000Y-127955000D01*
X131804000Y-127953000D01*
X131805000Y-127950000D01*
X131807000Y-127948000D01*
X131808000Y-127946000D01*
X131810000Y-127944000D01*
X131811000Y-127942000D01*
X131813000Y-127940000D01*
X131815000Y-127938000D01*
X131817000Y-127936000D01*
X131819000Y-127934000D01*
X131821000Y-127933000D01*
X131823000Y-127931000D01*
X131825000Y-127930000D01*
X131827000Y-127928000D01*
X131830000Y-127927000D01*
X131832000Y-127926000D01*
X131835000Y-127925000D01*
X131837000Y-127925000D01*
X131840000Y-127924000D01*
X131842000Y-127924000D01*
X131845000Y-127923000D01*
X131847000Y-127923000D01*
X131850000Y-127923000D01*
X131950000Y-127923000D01*
X131953000Y-127923000D01*
X131955000Y-127923000D01*
X131958000Y-127924000D01*
X131960000Y-127924000D01*
X131963000Y-127925000D01*
X131965000Y-127925000D01*
X131968000Y-127926000D01*
X131970000Y-127927000D01*
X131973000Y-127928000D01*
X131975000Y-127930000D01*
X131977000Y-127931000D01*
X131979000Y-127933000D01*
X131981000Y-127934000D01*
X131983000Y-127936000D01*
X131985000Y-127938000D01*
X131987000Y-127940000D01*
X131989000Y-127942000D01*
X131990000Y-127944000D01*
X131992000Y-127946000D01*
X131993000Y-127948000D01*
X131995000Y-127950000D01*
X131996000Y-127953000D01*
X131997000Y-127955000D01*
X131998000Y-127958000D01*
X131998000Y-127960000D01*
X131999000Y-127963000D01*
X131999000Y-127965000D01*
X132000000Y-127968000D01*
X132000000Y-127970000D01*
X132000000Y-127973000D01*
X132000000Y-128223000D01*
X132000000Y-128226000D01*
X132000000Y-128228000D01*
X132001000Y-128231000D01*
X132001000Y-128233000D01*
X132002000Y-128236000D01*
X132002000Y-128238000D01*
X132003000Y-128241000D01*
X132004000Y-128243000D01*
X132005000Y-128246000D01*
X132007000Y-128248000D01*
X132008000Y-128250000D01*
X132010000Y-128252000D01*
X132011000Y-128254000D01*
X132013000Y-128256000D01*
X132015000Y-128258000D01*
X132017000Y-128260000D01*
X132019000Y-128262000D01*
X132021000Y-128263000D01*
X132023000Y-128265000D01*
X132025000Y-128266000D01*
X132027000Y-128268000D01*
X132030000Y-128269000D01*
X132032000Y-128270000D01*
X132035000Y-128271000D01*
X132037000Y-128271000D01*
X132040000Y-128272000D01*
X132042000Y-128272000D01*
X132045000Y-128273000D01*
X132047000Y-128273000D01*
X132050000Y-128273000D01*
X132200000Y-128273000D01*
X132203000Y-128273000D01*
X132205000Y-128273000D01*
X132208000Y-128272000D01*
X132210000Y-128272000D01*
X132213000Y-128271000D01*
X132215000Y-128271000D01*
X132218000Y-128270000D01*
X132220000Y-128269000D01*
X132223000Y-128268000D01*
X132225000Y-128266000D01*
X132227000Y-128265000D01*
X132229000Y-128263000D01*
X132231000Y-128262000D01*
X132233000Y-128260000D01*
X132235000Y-128258000D01*
X132237000Y-128256000D01*
X132239000Y-128254000D01*
X132240000Y-128252000D01*
X132242000Y-128250000D01*
X132243000Y-128248000D01*
X132245000Y-128246000D01*
X132246000Y-128243000D01*
X132247000Y-128241000D01*
X132248000Y-128238000D01*
X132248000Y-128236000D01*
X132249000Y-128233000D01*
X132249000Y-128231000D01*
X132250000Y-128228000D01*
X132250000Y-128226000D01*
X132250000Y-128223000D01*
X132250000Y-127973000D01*
X132250000Y-127970000D01*
X132250000Y-127968000D01*
X132251000Y-127965000D01*
X132251000Y-127963000D01*
X132252000Y-127960000D01*
X132252000Y-127958000D01*
X132253000Y-127955000D01*
X132254000Y-127953000D01*
X132255000Y-127950000D01*
X132257000Y-127948000D01*
X132258000Y-127946000D01*
X132260000Y-127944000D01*
X132261000Y-127942000D01*
X132263000Y-127940000D01*
X132265000Y-127938000D01*
X132267000Y-127936000D01*
X132269000Y-127934000D01*
X132271000Y-127933000D01*
X132273000Y-127931000D01*
X132275000Y-127930000D01*
X132277000Y-127928000D01*
X132280000Y-127927000D01*
X132282000Y-127926000D01*
X132285000Y-127925000D01*
X132287000Y-127925000D01*
X132290000Y-127924000D01*
X132292000Y-127924000D01*
X132295000Y-127923000D01*
X132297000Y-127923000D01*
X132300000Y-127923000D01*
X132400000Y-127923000D01*
X132403000Y-127923000D01*
X132405000Y-127923000D01*
X132408000Y-127924000D01*
X132410000Y-127924000D01*
X132413000Y-127925000D01*
X132415000Y-127925000D01*
X132418000Y-127926000D01*
X132420000Y-127927000D01*
X132423000Y-127928000D01*
X132425000Y-127930000D01*
X132427000Y-127931000D01*
X132429000Y-127933000D01*
X132431000Y-127934000D01*
X132433000Y-127936000D01*
X132435000Y-127938000D01*
X132437000Y-127940000D01*
X132439000Y-127942000D01*
X132440000Y-127944000D01*
X132442000Y-127946000D01*
X132443000Y-127948000D01*
X132445000Y-127950000D01*
X132446000Y-127953000D01*
X132447000Y-127955000D01*
X132448000Y-127958000D01*
X132448000Y-127960000D01*
X132449000Y-127963000D01*
X132449000Y-127965000D01*
X132450000Y-127968000D01*
X132450000Y-127970000D01*
X132450000Y-127973000D01*
X132450000Y-128602000D01*
X132450000Y-128604000D01*
X132450000Y-128605000D01*
X132450000Y-128606000D01*
X132450000Y-128608000D01*
X132450000Y-128609000D01*
X132449000Y-128610000D01*
X132449000Y-128611000D01*
X132449000Y-128613000D01*
X132449000Y-128614000D01*
X132448000Y-128615000D01*
X132448000Y-128616000D01*
X132448000Y-128618000D01*
X132447000Y-128619000D01*
X132447000Y-128620000D01*
X132446000Y-128621000D01*
X132446000Y-128623000D01*
X132445000Y-128624000D01*
X132445000Y-128625000D01*
X132444000Y-128626000D01*
X132443000Y-128627000D01*
X132443000Y-128628000D01*
X132442000Y-128630000D01*
X132441000Y-128631000D01*
X132440000Y-128632000D01*
X132440000Y-128633000D01*
X132439000Y-128634000D01*
X132438000Y-128635000D01*
X132437000Y-128636000D01*
X132436000Y-128637000D01*
X132435000Y-128638000D01*
X131965000Y-129108000D01*
X131964000Y-129109000D01*
X131963000Y-129110000D01*
X131962000Y-129111000D01*
X131961000Y-129112000D01*
X131960000Y-129113000D01*
X131959000Y-129113000D01*
X131958000Y-129114000D01*
X131957000Y-129115000D01*
X131955000Y-129116000D01*
X131954000Y-129116000D01*
X131953000Y-129117000D01*
X131952000Y-129118000D01*
X131951000Y-129118000D01*
X131950000Y-129119000D01*
X131948000Y-129119000D01*
X131947000Y-129120000D01*
X131946000Y-129120000D01*
X131945000Y-129121000D01*
X131943000Y-129121000D01*
X131942000Y-129121000D01*
X131941000Y-129122000D01*
X131940000Y-129122000D01*
X131938000Y-129122000D01*
X131937000Y-129122000D01*
X131936000Y-129123000D01*
X131935000Y-129123000D01*
X131933000Y-129123000D01*
X131932000Y-129123000D01*
X131931000Y-129123000D01*
X131929000Y-129123000D01*
X130150000Y-129123000D01*
X130147000Y-129123000D01*
X130145000Y-129123000D01*
X130142000Y-129122000D01*
X130140000Y-129122000D01*
X130137000Y-129121000D01*
X130135000Y-129121000D01*
X130132000Y-129120000D01*
X130130000Y-129119000D01*
X130127000Y-129118000D01*
X130125000Y-129116000D01*
X130123000Y-129115000D01*
X130121000Y-129113000D01*
X130119000Y-129112000D01*
X130117000Y-129110000D01*
X130115000Y-129108000D01*
X130113000Y-129106000D01*
X130111000Y-129104000D01*
X130110000Y-129102000D01*
X130108000Y-129100000D01*
X130107000Y-129098000D01*
X130105000Y-129096000D01*
X130104000Y-129093000D01*
X130103000Y-129091000D01*
X130102000Y-129088000D01*
X130102000Y-129086000D01*
X130101000Y-129083000D01*
X130101000Y-129081000D01*
X130100000Y-129078000D01*
X130100000Y-129076000D01*
X130100000Y-129073000D01*
X130100000Y-129023000D01*
X130100000Y-129020000D01*
X130100000Y-129018000D01*
X130099000Y-129015000D01*
X130099000Y-129013000D01*
X130098000Y-129010000D01*
X130098000Y-129008000D01*
X130097000Y-129005000D01*
X130096000Y-129003000D01*
X130095000Y-129000000D01*
X130093000Y-128998000D01*
X130092000Y-128996000D01*
X130090000Y-128994000D01*
X130089000Y-128992000D01*
X130087000Y-128990000D01*
X130085000Y-128988000D01*
X130083000Y-128986000D01*
X130081000Y-128984000D01*
X130079000Y-128983000D01*
X130077000Y-128981000D01*
X130075000Y-128980000D01*
X130073000Y-128978000D01*
X130070000Y-128977000D01*
X130068000Y-128976000D01*
X130065000Y-128975000D01*
X130063000Y-128975000D01*
X130060000Y-128974000D01*
X130058000Y-128974000D01*
X130055000Y-128973000D01*
X130053000Y-128973000D01*
X130050000Y-128973000D01*
X129800000Y-128973000D01*
X129797000Y-128973000D01*
X129795000Y-128973000D01*
X129792000Y-128972000D01*
X129790000Y-128972000D01*
X129787000Y-128971000D01*
X129785000Y-128971000D01*
X129782000Y-128970000D01*
X129780000Y-128969000D01*
X129777000Y-128968000D01*
X129775000Y-128966000D01*
X129773000Y-128965000D01*
X129771000Y-128963000D01*
X129769000Y-128962000D01*
X129767000Y-128960000D01*
X129765000Y-128958000D01*
X129763000Y-128956000D01*
X129761000Y-128954000D01*
X129760000Y-128952000D01*
X129758000Y-128950000D01*
X129757000Y-128948000D01*
X129755000Y-128946000D01*
X129754000Y-128943000D01*
X129753000Y-128941000D01*
X129752000Y-128938000D01*
X129752000Y-128936000D01*
X129751000Y-128933000D01*
X129751000Y-128931000D01*
X129750000Y-128928000D01*
X129750000Y-128926000D01*
X129750000Y-128923000D01*
X129750000Y-128823000D01*
X129750000Y-128820000D01*
X129750000Y-128818000D01*
X129751000Y-128815000D01*
X129751000Y-128813000D01*
X129752000Y-128810000D01*
X129752000Y-128808000D01*
X129753000Y-128805000D01*
X129754000Y-128803000D01*
X129755000Y-128800000D01*
X129757000Y-128798000D01*
X129758000Y-128796000D01*
X129760000Y-128794000D01*
X129761000Y-128792000D01*
X129763000Y-128790000D01*
X129765000Y-128788000D01*
X129767000Y-128786000D01*
X129769000Y-128784000D01*
X129771000Y-128783000D01*
X129773000Y-128781000D01*
X129775000Y-128780000D01*
X129777000Y-128778000D01*
X129780000Y-128777000D01*
X129782000Y-128776000D01*
X129785000Y-128775000D01*
X129787000Y-128775000D01*
X129790000Y-128774000D01*
X129792000Y-128774000D01*
X129795000Y-128773000D01*
X129797000Y-128773000D01*
X129800000Y-128773000D01*
X130050000Y-128773000D01*
X130053000Y-128773000D01*
X130055000Y-128773000D01*
X130058000Y-128772000D01*
X130060000Y-128772000D01*
X130063000Y-128771000D01*
X130065000Y-128771000D01*
X130068000Y-128770000D01*
X130070000Y-128769000D01*
X130073000Y-128768000D01*
X130075000Y-128766000D01*
X130077000Y-128765000D01*
X130079000Y-128763000D01*
X130081000Y-128762000D01*
X130083000Y-128760000D01*
X130085000Y-128758000D01*
X130087000Y-128756000D01*
X130089000Y-128754000D01*
X130090000Y-128752000D01*
X130092000Y-128750000D01*
X130093000Y-128748000D01*
X130095000Y-128746000D01*
X130096000Y-128743000D01*
X130097000Y-128741000D01*
X130098000Y-128738000D01*
X130098000Y-128736000D01*
X130099000Y-128733000D01*
X130099000Y-128731000D01*
X130100000Y-128728000D01*
X130100000Y-128726000D01*
X130100000Y-128723000D01*
X130100000Y-128523000D01*
X130100000Y-128520000D01*
X130100000Y-128518000D01*
X130099000Y-128515000D01*
X130099000Y-128513000D01*
X130098000Y-128510000D01*
X130098000Y-128508000D01*
X130097000Y-128505000D01*
X130096000Y-128503000D01*
X130095000Y-128500000D01*
X130093000Y-128498000D01*
X130092000Y-128496000D01*
X130090000Y-128494000D01*
X130089000Y-128492000D01*
X130087000Y-128490000D01*
X130085000Y-128488000D01*
X130083000Y-128486000D01*
X130081000Y-128484000D01*
X130079000Y-128483000D01*
X130077000Y-128481000D01*
X130075000Y-128480000D01*
X130073000Y-128478000D01*
X130070000Y-128477000D01*
X130068000Y-128476000D01*
X130065000Y-128475000D01*
X130063000Y-128475000D01*
X130060000Y-128474000D01*
X130058000Y-128474000D01*
X130055000Y-128473000D01*
X130053000Y-128473000D01*
X130050000Y-128473000D01*
X129800000Y-128473000D01*
X129797000Y-128473000D01*
X129795000Y-128473000D01*
X129792000Y-128472000D01*
X129790000Y-128472000D01*
X129787000Y-128471000D01*
X129785000Y-128471000D01*
X129782000Y-128470000D01*
X129780000Y-128469000D01*
X129777000Y-128468000D01*
X129775000Y-128466000D01*
X129773000Y-128465000D01*
X129771000Y-128463000D01*
X129769000Y-128462000D01*
X129767000Y-128460000D01*
X129765000Y-128458000D01*
X129763000Y-128456000D01*
X129761000Y-128454000D01*
X129760000Y-128452000D01*
X129758000Y-128450000D01*
X129757000Y-128448000D01*
X129755000Y-128446000D01*
X129754000Y-128443000D01*
X129753000Y-128441000D01*
X129752000Y-128438000D01*
X129752000Y-128436000D01*
X129751000Y-128433000D01*
X129751000Y-128431000D01*
X129750000Y-128428000D01*
X129750000Y-128426000D01*
X129750000Y-128423000D01*
X129750000Y-128323000D01*
X129750000Y-128320000D01*
X129750000Y-128318000D01*
X129751000Y-128315000D01*
X129751000Y-128313000D01*
X129752000Y-128310000D01*
X129752000Y-128308000D01*
X129753000Y-128305000D01*
X129754000Y-128303000D01*
X129755000Y-128300000D01*
X129757000Y-128298000D01*
X129758000Y-128296000D01*
X129760000Y-128294000D01*
X129761000Y-128292000D01*
X129763000Y-128290000D01*
X129765000Y-128288000D01*
X129767000Y-128286000D01*
X129769000Y-128284000D01*
X129771000Y-128283000D01*
X129773000Y-128281000D01*
X129775000Y-128280000D01*
X129777000Y-128278000D01*
X129780000Y-128277000D01*
X129782000Y-128276000D01*
X129785000Y-128275000D01*
X129787000Y-128275000D01*
X129790000Y-128274000D01*
X129792000Y-128274000D01*
X129795000Y-128273000D01*
X129797000Y-128273000D01*
X129800000Y-128273000D01*
X130400000Y-128273000D01*
X130403000Y-128273000D01*
X130405000Y-128273000D01*
X130408000Y-128272000D01*
X130410000Y-128272000D01*
X130413000Y-128271000D01*
X130415000Y-128271000D01*
X130418000Y-128270000D01*
X130420000Y-128269000D01*
X130423000Y-128268000D01*
X130425000Y-128266000D01*
X130427000Y-128265000D01*
X130429000Y-128263000D01*
X130431000Y-128262000D01*
X130433000Y-128260000D01*
X130435000Y-128258000D01*
X130437000Y-128256000D01*
X130439000Y-128254000D01*
X130440000Y-128252000D01*
X130442000Y-128250000D01*
X130443000Y-128248000D01*
X130445000Y-128246000D01*
X130446000Y-128243000D01*
X130447000Y-128241000D01*
X130448000Y-128238000D01*
X130448000Y-128236000D01*
X130449000Y-128233000D01*
X130449000Y-128231000D01*
X130450000Y-128228000D01*
X130450000Y-128226000D01*
X130450000Y-128223000D01*
X130450000Y-127973000D01*
X130450000Y-127970000D01*
X130450000Y-127968000D01*
X130451000Y-127965000D01*
X130451000Y-127963000D01*
X130452000Y-127960000D01*
X130452000Y-127958000D01*
X130453000Y-127955000D01*
X130454000Y-127953000D01*
X130455000Y-127950000D01*
X130457000Y-127948000D01*
X130458000Y-127946000D01*
X130460000Y-127944000D01*
X130461000Y-127942000D01*
X130463000Y-127940000D01*
X130465000Y-127938000D01*
X130467000Y-127936000D01*
X130469000Y-127934000D01*
X130471000Y-127933000D01*
X130473000Y-127931000D01*
X130475000Y-127930000D01*
X130477000Y-127928000D01*
X130480000Y-127927000D01*
X130482000Y-127926000D01*
X130485000Y-127925000D01*
X130487000Y-127925000D01*
X130490000Y-127924000D01*
X130492000Y-127924000D01*
X130495000Y-127923000D01*
X130497000Y-127923000D01*
X130500000Y-127923000D01*
X130600000Y-127923000D01*
X130603000Y-127923000D01*
X130605000Y-127923000D01*
X130608000Y-127924000D01*
G36*
X130608000Y-127924000D02*
G01*
X130610000Y-127924000D01*
X130613000Y-127925000D01*
X130615000Y-127925000D01*
X130618000Y-127926000D01*
X130620000Y-127927000D01*
X130623000Y-127928000D01*
X130625000Y-127930000D01*
X130627000Y-127931000D01*
X130629000Y-127933000D01*
X130631000Y-127934000D01*
X130633000Y-127936000D01*
X130635000Y-127938000D01*
X130637000Y-127940000D01*
X130639000Y-127942000D01*
X130640000Y-127944000D01*
X130642000Y-127946000D01*
X130643000Y-127948000D01*
X130645000Y-127950000D01*
X130646000Y-127953000D01*
X130647000Y-127955000D01*
X130648000Y-127958000D01*
X130648000Y-127960000D01*
X130649000Y-127963000D01*
X130649000Y-127965000D01*
X130650000Y-127968000D01*
X130650000Y-127970000D01*
X130650000Y-127973000D01*
X130650000Y-128223000D01*
X130650000Y-128226000D01*
X130650000Y-128228000D01*
X130651000Y-128231000D01*
X130651000Y-128233000D01*
X130652000Y-128236000D01*
X130652000Y-128238000D01*
X130653000Y-128241000D01*
X130654000Y-128243000D01*
X130655000Y-128246000D01*
X130657000Y-128248000D01*
X130658000Y-128250000D01*
X130660000Y-128252000D01*
X130661000Y-128254000D01*
X130663000Y-128256000D01*
X130665000Y-128258000D01*
X130667000Y-128260000D01*
X130669000Y-128262000D01*
X130671000Y-128263000D01*
X130673000Y-128265000D01*
X130675000Y-128266000D01*
X130677000Y-128268000D01*
X130680000Y-128269000D01*
X130682000Y-128270000D01*
X130685000Y-128271000D01*
X130687000Y-128271000D01*
X130690000Y-128272000D01*
X130692000Y-128272000D01*
X130695000Y-128273000D01*
X130697000Y-128273000D01*
X130700000Y-128273000D01*
X130850000Y-128273000D01*
X130853000Y-128273000D01*
X130855000Y-128273000D01*
X130858000Y-128272000D01*
X130860000Y-128272000D01*
X130863000Y-128271000D01*
X130865000Y-128271000D01*
X130868000Y-128270000D01*
X130870000Y-128269000D01*
X130873000Y-128268000D01*
X130875000Y-128266000D01*
X130877000Y-128265000D01*
X130879000Y-128263000D01*
X130881000Y-128262000D01*
X130883000Y-128260000D01*
X130885000Y-128258000D01*
X130887000Y-128256000D01*
X130889000Y-128254000D01*
X130890000Y-128252000D01*
X130892000Y-128250000D01*
X130893000Y-128248000D01*
X130895000Y-128246000D01*
X130896000Y-128243000D01*
X130897000Y-128241000D01*
X130898000Y-128238000D01*
X130898000Y-128236000D01*
X130899000Y-128233000D01*
X130899000Y-128231000D01*
X130900000Y-128228000D01*
X130900000Y-128226000D01*
X130900000Y-128223000D01*
X130900000Y-127973000D01*
X130900000Y-127970000D01*
X130900000Y-127968000D01*
X130901000Y-127965000D01*
X130901000Y-127963000D01*
X130902000Y-127960000D01*
X130902000Y-127958000D01*
X130903000Y-127955000D01*
X130904000Y-127953000D01*
X130905000Y-127950000D01*
X130907000Y-127948000D01*
X130908000Y-127946000D01*
X130910000Y-127944000D01*
X130911000Y-127942000D01*
X130913000Y-127940000D01*
X130915000Y-127938000D01*
X130917000Y-127936000D01*
X130919000Y-127934000D01*
X130921000Y-127933000D01*
X130923000Y-127931000D01*
X130925000Y-127930000D01*
X130927000Y-127928000D01*
X130930000Y-127927000D01*
X130932000Y-127926000D01*
X130935000Y-127925000D01*
X130937000Y-127925000D01*
X130940000Y-127924000D01*
X130942000Y-127924000D01*
X130945000Y-127923000D01*
X130947000Y-127923000D01*
X130950000Y-127923000D01*
X131050000Y-127923000D01*
X131053000Y-127923000D01*
X131055000Y-127923000D01*
X131058000Y-127924000D01*
X131060000Y-127924000D01*
X131063000Y-127925000D01*
X131065000Y-127925000D01*
X131068000Y-127926000D01*
X131070000Y-127927000D01*
X131073000Y-127928000D01*
X131075000Y-127930000D01*
X131077000Y-127931000D01*
X131079000Y-127933000D01*
X131081000Y-127934000D01*
X131083000Y-127936000D01*
X131085000Y-127938000D01*
X131087000Y-127940000D01*
X131089000Y-127942000D01*
X131090000Y-127944000D01*
X131092000Y-127946000D01*
X131093000Y-127948000D01*
X131095000Y-127950000D01*
X131096000Y-127953000D01*
X131097000Y-127955000D01*
X131098000Y-127958000D01*
X131098000Y-127960000D01*
X131099000Y-127963000D01*
X131099000Y-127965000D01*
X131100000Y-127968000D01*
X131100000Y-127970000D01*
X131100000Y-127973000D01*
X131100000Y-128223000D01*
X131100000Y-128226000D01*
X131100000Y-128228000D01*
X131101000Y-128231000D01*
X131101000Y-128233000D01*
X131102000Y-128236000D01*
X131102000Y-128238000D01*
X131103000Y-128241000D01*
X131104000Y-128243000D01*
X131105000Y-128246000D01*
X131107000Y-128248000D01*
X131108000Y-128250000D01*
X131110000Y-128252000D01*
X131111000Y-128254000D01*
X131113000Y-128256000D01*
X131115000Y-128258000D01*
X131117000Y-128260000D01*
X131119000Y-128262000D01*
X131121000Y-128263000D01*
X131123000Y-128265000D01*
X131125000Y-128266000D01*
X131127000Y-128268000D01*
X131130000Y-128269000D01*
X131132000Y-128270000D01*
X131135000Y-128271000D01*
X131137000Y-128271000D01*
X131140000Y-128272000D01*
X131142000Y-128272000D01*
X131145000Y-128273000D01*
X131147000Y-128273000D01*
X131150000Y-128273000D01*
X131300000Y-128273000D01*
X131303000Y-128273000D01*
X131305000Y-128273000D01*
X131308000Y-128272000D01*
X131310000Y-128272000D01*
X131313000Y-128271000D01*
X131315000Y-128271000D01*
X131318000Y-128270000D01*
X131320000Y-128269000D01*
X131323000Y-128268000D01*
X131325000Y-128266000D01*
X131327000Y-128265000D01*
X131329000Y-128263000D01*
X131331000Y-128262000D01*
X131333000Y-128260000D01*
X131335000Y-128258000D01*
X131337000Y-128256000D01*
X131339000Y-128254000D01*
X131340000Y-128252000D01*
X131342000Y-128250000D01*
X131343000Y-128248000D01*
X131345000Y-128246000D01*
X131346000Y-128243000D01*
X131347000Y-128241000D01*
X131348000Y-128238000D01*
X131348000Y-128236000D01*
X131349000Y-128233000D01*
X131349000Y-128231000D01*
X131350000Y-128228000D01*
X131350000Y-128226000D01*
X131350000Y-128223000D01*
X131350000Y-127973000D01*
X131350000Y-127970000D01*
X131350000Y-127968000D01*
X131351000Y-127965000D01*
X131351000Y-127963000D01*
X131352000Y-127960000D01*
X131352000Y-127958000D01*
X131353000Y-127955000D01*
X131354000Y-127953000D01*
X131355000Y-127950000D01*
X131357000Y-127948000D01*
X131358000Y-127946000D01*
X131360000Y-127944000D01*
X131361000Y-127942000D01*
X131363000Y-127940000D01*
X131365000Y-127938000D01*
X131367000Y-127936000D01*
X131369000Y-127934000D01*
X131371000Y-127933000D01*
X131373000Y-127931000D01*
X131375000Y-127930000D01*
X131377000Y-127928000D01*
X131380000Y-127927000D01*
X131382000Y-127926000D01*
X131385000Y-127925000D01*
X131387000Y-127925000D01*
X131390000Y-127924000D01*
X131392000Y-127924000D01*
X131395000Y-127923000D01*
X131397000Y-127923000D01*
X131400000Y-127923000D01*
X131500000Y-127923000D01*
X131503000Y-127923000D01*
X131505000Y-127923000D01*
X131508000Y-127924000D01*
X131510000Y-127924000D01*
X131513000Y-127925000D01*
X131515000Y-127925000D01*
X131518000Y-127926000D01*
X131520000Y-127927000D01*
X131523000Y-127928000D01*
X131525000Y-127930000D01*
X131527000Y-127931000D01*
X131529000Y-127933000D01*
X131531000Y-127934000D01*
X131533000Y-127936000D01*
X131535000Y-127938000D01*
X131537000Y-127940000D01*
X131539000Y-127942000D01*
X131540000Y-127944000D01*
X131542000Y-127946000D01*
X131543000Y-127948000D01*
X131545000Y-127950000D01*
X131546000Y-127953000D01*
X131547000Y-127955000D01*
X131548000Y-127958000D01*
X131548000Y-127960000D01*
X131549000Y-127963000D01*
X131549000Y-127965000D01*
X131550000Y-127968000D01*
X131550000Y-127970000D01*
X131550000Y-127973000D01*
X131550000Y-128223000D01*
X131550000Y-128226000D01*
X131550000Y-128228000D01*
X131551000Y-128231000D01*
X131551000Y-128233000D01*
X131552000Y-128236000D01*
X131552000Y-128238000D01*
X131553000Y-128241000D01*
X131554000Y-128243000D01*
X131555000Y-128246000D01*
X131557000Y-128248000D01*
X131558000Y-128250000D01*
X131560000Y-128252000D01*
X131561000Y-128254000D01*
X131563000Y-128256000D01*
X131565000Y-128258000D01*
X131567000Y-128260000D01*
X131569000Y-128262000D01*
X131571000Y-128263000D01*
X131573000Y-128265000D01*
X131575000Y-128266000D01*
X131577000Y-128268000D01*
X131580000Y-128269000D01*
X131582000Y-128270000D01*
X131585000Y-128271000D01*
X131587000Y-128271000D01*
X131590000Y-128272000D01*
X131592000Y-128272000D01*
X131595000Y-128273000D01*
X131597000Y-128273000D01*
X131600000Y-128273000D01*
X131750000Y-128273000D01*
X131753000Y-128273000D01*
X131755000Y-128273000D01*
X131758000Y-128272000D01*
X131760000Y-128272000D01*
X131763000Y-128271000D01*
X131765000Y-128271000D01*
X131768000Y-128270000D01*
X131770000Y-128269000D01*
X131773000Y-128268000D01*
X131775000Y-128266000D01*
X131777000Y-128265000D01*
X131779000Y-128263000D01*
X131781000Y-128262000D01*
X131783000Y-128260000D01*
X131785000Y-128258000D01*
X131787000Y-128256000D01*
X131789000Y-128254000D01*
X131790000Y-128252000D01*
X131792000Y-128250000D01*
X131793000Y-128248000D01*
X131795000Y-128246000D01*
X131796000Y-128243000D01*
X131797000Y-128241000D01*
X131798000Y-128238000D01*
X131798000Y-128236000D01*
X131799000Y-128233000D01*
X131799000Y-128231000D01*
X131800000Y-128228000D01*
X131800000Y-128226000D01*
X131800000Y-128223000D01*
X131800000Y-127973000D01*
X131800000Y-127970000D01*
X131800000Y-127968000D01*
X131801000Y-127965000D01*
X131801000Y-127963000D01*
X131802000Y-127960000D01*
X131802000Y-127958000D01*
X131803000Y-127955000D01*
X131804000Y-127953000D01*
X131805000Y-127950000D01*
X131807000Y-127948000D01*
X131808000Y-127946000D01*
X131810000Y-127944000D01*
X131811000Y-127942000D01*
X131813000Y-127940000D01*
X131815000Y-127938000D01*
X131817000Y-127936000D01*
X131819000Y-127934000D01*
X131821000Y-127933000D01*
X131823000Y-127931000D01*
X131825000Y-127930000D01*
X131827000Y-127928000D01*
X131830000Y-127927000D01*
X131832000Y-127926000D01*
X131835000Y-127925000D01*
X131837000Y-127925000D01*
X131840000Y-127924000D01*
X131842000Y-127924000D01*
X131845000Y-127923000D01*
X131847000Y-127923000D01*
X131850000Y-127923000D01*
X131950000Y-127923000D01*
X131953000Y-127923000D01*
X131955000Y-127923000D01*
X131958000Y-127924000D01*
X131960000Y-127924000D01*
X131963000Y-127925000D01*
X131965000Y-127925000D01*
X131968000Y-127926000D01*
X131970000Y-127927000D01*
X131973000Y-127928000D01*
X131975000Y-127930000D01*
X131977000Y-127931000D01*
X131979000Y-127933000D01*
X131981000Y-127934000D01*
X131983000Y-127936000D01*
X131985000Y-127938000D01*
X131987000Y-127940000D01*
X131989000Y-127942000D01*
X131990000Y-127944000D01*
X131992000Y-127946000D01*
X131993000Y-127948000D01*
X131995000Y-127950000D01*
X131996000Y-127953000D01*
X131997000Y-127955000D01*
X131998000Y-127958000D01*
X131998000Y-127960000D01*
X131999000Y-127963000D01*
X131999000Y-127965000D01*
X132000000Y-127968000D01*
X132000000Y-127970000D01*
X132000000Y-127973000D01*
X132000000Y-128223000D01*
X132000000Y-128226000D01*
X132000000Y-128228000D01*
X132001000Y-128231000D01*
X132001000Y-128233000D01*
X132002000Y-128236000D01*
X132002000Y-128238000D01*
X132003000Y-128241000D01*
X132004000Y-128243000D01*
X132005000Y-128246000D01*
X132007000Y-128248000D01*
X132008000Y-128250000D01*
X132010000Y-128252000D01*
X132011000Y-128254000D01*
X132013000Y-128256000D01*
X132015000Y-128258000D01*
X132017000Y-128260000D01*
X132019000Y-128262000D01*
X132021000Y-128263000D01*
X132023000Y-128265000D01*
X132025000Y-128266000D01*
X132027000Y-128268000D01*
X132030000Y-128269000D01*
X132032000Y-128270000D01*
X132035000Y-128271000D01*
X132037000Y-128271000D01*
X132040000Y-128272000D01*
X132042000Y-128272000D01*
X132045000Y-128273000D01*
X132047000Y-128273000D01*
X132050000Y-128273000D01*
X132200000Y-128273000D01*
X132203000Y-128273000D01*
X132205000Y-128273000D01*
X132208000Y-128272000D01*
X132210000Y-128272000D01*
X132213000Y-128271000D01*
X132215000Y-128271000D01*
X132218000Y-128270000D01*
X132220000Y-128269000D01*
X132223000Y-128268000D01*
X132225000Y-128266000D01*
X132227000Y-128265000D01*
X132229000Y-128263000D01*
X132231000Y-128262000D01*
X132233000Y-128260000D01*
X132235000Y-128258000D01*
X132237000Y-128256000D01*
X132239000Y-128254000D01*
X132240000Y-128252000D01*
X132242000Y-128250000D01*
X132243000Y-128248000D01*
X132245000Y-128246000D01*
X132246000Y-128243000D01*
X132247000Y-128241000D01*
X132248000Y-128238000D01*
X132248000Y-128236000D01*
X132249000Y-128233000D01*
X132249000Y-128231000D01*
X132250000Y-128228000D01*
X132250000Y-128226000D01*
X132250000Y-128223000D01*
X132250000Y-127973000D01*
X132250000Y-127970000D01*
X132250000Y-127968000D01*
X132251000Y-127965000D01*
X132251000Y-127963000D01*
X132252000Y-127960000D01*
X132252000Y-127958000D01*
X132253000Y-127955000D01*
X132254000Y-127953000D01*
X132255000Y-127950000D01*
X132257000Y-127948000D01*
X132258000Y-127946000D01*
X132260000Y-127944000D01*
X132261000Y-127942000D01*
X132263000Y-127940000D01*
X132265000Y-127938000D01*
X132267000Y-127936000D01*
X132269000Y-127934000D01*
X132271000Y-127933000D01*
X132273000Y-127931000D01*
X132275000Y-127930000D01*
X132277000Y-127928000D01*
X132280000Y-127927000D01*
X132282000Y-127926000D01*
X132285000Y-127925000D01*
X132287000Y-127925000D01*
X132290000Y-127924000D01*
X132292000Y-127924000D01*
X132295000Y-127923000D01*
X132297000Y-127923000D01*
X132300000Y-127923000D01*
X132400000Y-127923000D01*
X132403000Y-127923000D01*
X132405000Y-127923000D01*
X132408000Y-127924000D01*
X132410000Y-127924000D01*
X132413000Y-127925000D01*
X132415000Y-127925000D01*
X132418000Y-127926000D01*
X132420000Y-127927000D01*
X132423000Y-127928000D01*
X132425000Y-127930000D01*
X132427000Y-127931000D01*
X132429000Y-127933000D01*
X132431000Y-127934000D01*
X132433000Y-127936000D01*
X132435000Y-127938000D01*
X132437000Y-127940000D01*
X132439000Y-127942000D01*
X132440000Y-127944000D01*
X132442000Y-127946000D01*
X132443000Y-127948000D01*
X132445000Y-127950000D01*
X132446000Y-127953000D01*
X132447000Y-127955000D01*
X132448000Y-127958000D01*
X132448000Y-127960000D01*
X132449000Y-127963000D01*
X132449000Y-127965000D01*
X132450000Y-127968000D01*
X132450000Y-127970000D01*
X132450000Y-127973000D01*
X132450000Y-128602000D01*
X132450000Y-128604000D01*
X132450000Y-128605000D01*
X132450000Y-128606000D01*
X132450000Y-128608000D01*
X132450000Y-128609000D01*
X132449000Y-128610000D01*
X132449000Y-128611000D01*
X132449000Y-128613000D01*
X132449000Y-128614000D01*
X132448000Y-128615000D01*
X132448000Y-128616000D01*
X132448000Y-128618000D01*
X132447000Y-128619000D01*
X132447000Y-128620000D01*
X132446000Y-128621000D01*
X132446000Y-128623000D01*
X132445000Y-128624000D01*
X132445000Y-128625000D01*
X132444000Y-128626000D01*
X132443000Y-128627000D01*
X132443000Y-128628000D01*
X132442000Y-128630000D01*
X132441000Y-128631000D01*
X132440000Y-128632000D01*
X132440000Y-128633000D01*
X132439000Y-128634000D01*
X132438000Y-128635000D01*
X132437000Y-128636000D01*
X132436000Y-128637000D01*
X132435000Y-128638000D01*
X131965000Y-129108000D01*
X131964000Y-129109000D01*
X131963000Y-129110000D01*
X131962000Y-129111000D01*
X131961000Y-129112000D01*
X131960000Y-129113000D01*
X131959000Y-129113000D01*
X131958000Y-129114000D01*
X131957000Y-129115000D01*
X131955000Y-129116000D01*
X131954000Y-129116000D01*
X131953000Y-129117000D01*
X131952000Y-129118000D01*
X131951000Y-129118000D01*
X131950000Y-129119000D01*
X131948000Y-129119000D01*
X131947000Y-129120000D01*
X131946000Y-129120000D01*
X131945000Y-129121000D01*
X131943000Y-129121000D01*
X131942000Y-129121000D01*
X131941000Y-129122000D01*
X131940000Y-129122000D01*
X131938000Y-129122000D01*
X131937000Y-129122000D01*
X131936000Y-129123000D01*
X131935000Y-129123000D01*
X131933000Y-129123000D01*
X131932000Y-129123000D01*
X131931000Y-129123000D01*
X131929000Y-129123000D01*
X130150000Y-129123000D01*
X130147000Y-129123000D01*
X130145000Y-129123000D01*
X130142000Y-129122000D01*
X130140000Y-129122000D01*
X130137000Y-129121000D01*
X130135000Y-129121000D01*
X130132000Y-129120000D01*
X130130000Y-129119000D01*
X130127000Y-129118000D01*
X130125000Y-129116000D01*
X130123000Y-129115000D01*
X130121000Y-129113000D01*
X130119000Y-129112000D01*
X130117000Y-129110000D01*
X130115000Y-129108000D01*
X130113000Y-129106000D01*
X130111000Y-129104000D01*
X130110000Y-129102000D01*
X130108000Y-129100000D01*
X130107000Y-129098000D01*
X130105000Y-129096000D01*
X130104000Y-129093000D01*
X130103000Y-129091000D01*
X130102000Y-129088000D01*
X130102000Y-129086000D01*
X130101000Y-129083000D01*
X130101000Y-129081000D01*
X130100000Y-129078000D01*
X130100000Y-129076000D01*
X130100000Y-129073000D01*
X130100000Y-129023000D01*
X130100000Y-129020000D01*
X130100000Y-129018000D01*
X130099000Y-129015000D01*
X130099000Y-129013000D01*
X130098000Y-129010000D01*
X130098000Y-129008000D01*
X130097000Y-129005000D01*
X130096000Y-129003000D01*
X130095000Y-129000000D01*
X130093000Y-128998000D01*
X130092000Y-128996000D01*
X130090000Y-128994000D01*
X130089000Y-128992000D01*
X130087000Y-128990000D01*
X130085000Y-128988000D01*
X130083000Y-128986000D01*
X130081000Y-128984000D01*
X130079000Y-128983000D01*
X130077000Y-128981000D01*
X130075000Y-128980000D01*
X130073000Y-128978000D01*
X130070000Y-128977000D01*
X130068000Y-128976000D01*
X130065000Y-128975000D01*
X130063000Y-128975000D01*
X130060000Y-128974000D01*
X130058000Y-128974000D01*
X130055000Y-128973000D01*
X130053000Y-128973000D01*
X130050000Y-128973000D01*
X129800000Y-128973000D01*
X129797000Y-128973000D01*
X129795000Y-128973000D01*
X129792000Y-128972000D01*
X129790000Y-128972000D01*
X129787000Y-128971000D01*
X129785000Y-128971000D01*
X129782000Y-128970000D01*
X129780000Y-128969000D01*
X129777000Y-128968000D01*
X129775000Y-128966000D01*
X129773000Y-128965000D01*
X129771000Y-128963000D01*
X129769000Y-128962000D01*
X129767000Y-128960000D01*
X129765000Y-128958000D01*
X129763000Y-128956000D01*
X129761000Y-128954000D01*
X129760000Y-128952000D01*
X129758000Y-128950000D01*
X129757000Y-128948000D01*
X129755000Y-128946000D01*
X129754000Y-128943000D01*
X129753000Y-128941000D01*
X129752000Y-128938000D01*
X129752000Y-128936000D01*
X129751000Y-128933000D01*
X129751000Y-128931000D01*
X129750000Y-128928000D01*
X129750000Y-128926000D01*
X129750000Y-128923000D01*
X129750000Y-128823000D01*
X129750000Y-128820000D01*
X129750000Y-128818000D01*
X129751000Y-128815000D01*
X129751000Y-128813000D01*
X129752000Y-128810000D01*
X129752000Y-128808000D01*
X129753000Y-128805000D01*
X129754000Y-128803000D01*
X129755000Y-128800000D01*
X129757000Y-128798000D01*
X129758000Y-128796000D01*
X129760000Y-128794000D01*
X129761000Y-128792000D01*
X129763000Y-128790000D01*
X129765000Y-128788000D01*
X129767000Y-128786000D01*
X129769000Y-128784000D01*
X129771000Y-128783000D01*
X129773000Y-128781000D01*
X129775000Y-128780000D01*
X129777000Y-128778000D01*
X129780000Y-128777000D01*
X129782000Y-128776000D01*
X129785000Y-128775000D01*
X129787000Y-128775000D01*
X129790000Y-128774000D01*
X129792000Y-128774000D01*
X129795000Y-128773000D01*
X129797000Y-128773000D01*
X129800000Y-128773000D01*
X130050000Y-128773000D01*
X130053000Y-128773000D01*
X130055000Y-128773000D01*
X130058000Y-128772000D01*
X130060000Y-128772000D01*
X130063000Y-128771000D01*
X130065000Y-128771000D01*
X130068000Y-128770000D01*
X130070000Y-128769000D01*
X130073000Y-128768000D01*
X130075000Y-128766000D01*
X130077000Y-128765000D01*
X130079000Y-128763000D01*
X130081000Y-128762000D01*
X130083000Y-128760000D01*
X130085000Y-128758000D01*
X130087000Y-128756000D01*
X130089000Y-128754000D01*
X130090000Y-128752000D01*
X130092000Y-128750000D01*
X130093000Y-128748000D01*
X130095000Y-128746000D01*
X130096000Y-128743000D01*
X130097000Y-128741000D01*
X130098000Y-128738000D01*
X130098000Y-128736000D01*
X130099000Y-128733000D01*
X130099000Y-128731000D01*
X130100000Y-128728000D01*
X130100000Y-128726000D01*
X130100000Y-128723000D01*
X130100000Y-128523000D01*
X130100000Y-128520000D01*
X130100000Y-128518000D01*
X130099000Y-128515000D01*
X130099000Y-128513000D01*
X130098000Y-128510000D01*
X130098000Y-128508000D01*
X130097000Y-128505000D01*
X130096000Y-128503000D01*
X130095000Y-128500000D01*
X130093000Y-128498000D01*
X130092000Y-128496000D01*
X130090000Y-128494000D01*
X130089000Y-128492000D01*
X130087000Y-128490000D01*
X130085000Y-128488000D01*
X130083000Y-128486000D01*
X130081000Y-128484000D01*
X130079000Y-128483000D01*
X130077000Y-128481000D01*
X130075000Y-128480000D01*
X130073000Y-128478000D01*
X130070000Y-128477000D01*
X130068000Y-128476000D01*
X130065000Y-128475000D01*
X130063000Y-128475000D01*
X130060000Y-128474000D01*
X130058000Y-128474000D01*
X130055000Y-128473000D01*
X130053000Y-128473000D01*
X130050000Y-128473000D01*
X129800000Y-128473000D01*
X129797000Y-128473000D01*
X129795000Y-128473000D01*
X129792000Y-128472000D01*
X129790000Y-128472000D01*
X129787000Y-128471000D01*
X129785000Y-128471000D01*
X129782000Y-128470000D01*
X129780000Y-128469000D01*
X129777000Y-128468000D01*
X129775000Y-128466000D01*
X129773000Y-128465000D01*
X129771000Y-128463000D01*
X129769000Y-128462000D01*
X129767000Y-128460000D01*
X129765000Y-128458000D01*
X129763000Y-128456000D01*
X129761000Y-128454000D01*
X129760000Y-128452000D01*
X129758000Y-128450000D01*
X129757000Y-128448000D01*
X129755000Y-128446000D01*
X129754000Y-128443000D01*
X129753000Y-128441000D01*
X129752000Y-128438000D01*
X129752000Y-128436000D01*
X129751000Y-128433000D01*
X129751000Y-128431000D01*
X129750000Y-128428000D01*
X129750000Y-128426000D01*
X129750000Y-128423000D01*
X129750000Y-128323000D01*
X129750000Y-128320000D01*
X129750000Y-128318000D01*
X129751000Y-128315000D01*
X129751000Y-128313000D01*
X129752000Y-128310000D01*
X129752000Y-128308000D01*
X129753000Y-128305000D01*
X129754000Y-128303000D01*
X129755000Y-128300000D01*
X129757000Y-128298000D01*
X129758000Y-128296000D01*
X129760000Y-128294000D01*
X129761000Y-128292000D01*
X129763000Y-128290000D01*
X129765000Y-128288000D01*
X129767000Y-128286000D01*
X129769000Y-128284000D01*
X129771000Y-128283000D01*
X129773000Y-128281000D01*
X129775000Y-128280000D01*
X129777000Y-128278000D01*
X129780000Y-128277000D01*
X129782000Y-128276000D01*
X129785000Y-128275000D01*
X129787000Y-128275000D01*
X129790000Y-128274000D01*
X129792000Y-128274000D01*
X129795000Y-128273000D01*
X129797000Y-128273000D01*
X129800000Y-128273000D01*
X130400000Y-128273000D01*
X130403000Y-128273000D01*
X130405000Y-128273000D01*
X130408000Y-128272000D01*
X130410000Y-128272000D01*
X130413000Y-128271000D01*
X130415000Y-128271000D01*
X130418000Y-128270000D01*
X130420000Y-128269000D01*
X130423000Y-128268000D01*
X130425000Y-128266000D01*
X130427000Y-128265000D01*
X130429000Y-128263000D01*
X130431000Y-128262000D01*
X130433000Y-128260000D01*
X130435000Y-128258000D01*
X130437000Y-128256000D01*
X130439000Y-128254000D01*
X130440000Y-128252000D01*
X130442000Y-128250000D01*
X130443000Y-128248000D01*
X130445000Y-128246000D01*
X130446000Y-128243000D01*
X130447000Y-128241000D01*
X130448000Y-128238000D01*
X130448000Y-128236000D01*
X130449000Y-128233000D01*
X130449000Y-128231000D01*
X130450000Y-128228000D01*
X130450000Y-128226000D01*
X130450000Y-128223000D01*
X130450000Y-127973000D01*
X130450000Y-127970000D01*
X130450000Y-127968000D01*
X130451000Y-127965000D01*
X130451000Y-127963000D01*
X130452000Y-127960000D01*
X130452000Y-127958000D01*
X130453000Y-127955000D01*
X130454000Y-127953000D01*
X130455000Y-127950000D01*
X130457000Y-127948000D01*
X130458000Y-127946000D01*
X130460000Y-127944000D01*
X130461000Y-127942000D01*
X130463000Y-127940000D01*
X130465000Y-127938000D01*
X130467000Y-127936000D01*
X130469000Y-127934000D01*
X130471000Y-127933000D01*
X130473000Y-127931000D01*
X130475000Y-127930000D01*
X130477000Y-127928000D01*
X130480000Y-127927000D01*
X130482000Y-127926000D01*
X130485000Y-127925000D01*
X130487000Y-127925000D01*
X130490000Y-127924000D01*
X130492000Y-127924000D01*
X130495000Y-127923000D01*
X130497000Y-127923000D01*
X130500000Y-127923000D01*
X130600000Y-127923000D01*
X130603000Y-127923000D01*
X130605000Y-127923000D01*
X130608000Y-127924000D01*
G37*
%TD*%
D13*
%TO.C,C46*%
X152900000Y-119060001D03*
X152900000Y-118100001D03*
%TD*%
D14*
%TO.C,J7*%
X116660000Y-111000000D03*
X116660000Y-113540000D03*
X116660000Y-116080000D03*
D15*
X119200000Y-111000000D03*
D16*
X119200000Y-113540000D03*
X119200000Y-116080000D03*
%TD*%
D17*
%TO.C,R15*%
X139319998Y-124100000D03*
X138300000Y-124100000D03*
%TD*%
D18*
%TO.C,C20*%
X152672933Y-90249604D03*
X151994111Y-90928426D03*
%TD*%
D19*
%TO.C,R2*%
X148950000Y-94700000D03*
X148950000Y-95719998D03*
%TD*%
D14*
%TO.C,J12*%
X180140000Y-115780000D03*
X180140000Y-113240000D03*
X180140000Y-110700000D03*
D20*
X177600000Y-115780000D03*
D16*
X177600000Y-113240000D03*
X177600000Y-110700000D03*
%TD*%
D21*
%TO.C,D6*%
X124700000Y-77000002D03*
X124700000Y-81000004D03*
%TD*%
D17*
%TO.C,R18*%
X166800000Y-122500000D03*
X165780002Y-122500000D03*
%TD*%
D22*
%TO.C,C30*%
X128950000Y-131773000D03*
X128950000Y-132733000D03*
%TD*%
D19*
%TO.C,R32*%
X163100000Y-105090001D03*
X163100000Y-106109999D03*
%TD*%
D23*
%TO.C,R31*%
X134800000Y-107009999D03*
X134800000Y-105990001D03*
%TD*%
D24*
%TO.C,C40*%
X136724999Y-125777000D03*
X139675001Y-125777000D03*
%TD*%
D22*
%TO.C,C2*%
X147950000Y-94725000D03*
X147950000Y-95685000D03*
%TD*%
D25*
%TO.C,R11*%
X154102043Y-88883740D03*
X153380795Y-89604988D03*
%TD*%
D14*
%TO.C,J8*%
X180140000Y-124860000D03*
X180140000Y-122320000D03*
X180140000Y-119780000D03*
D20*
X177600000Y-124860000D03*
D16*
X177600000Y-122320000D03*
X177600000Y-119780000D03*
%TD*%
D18*
%TO.C,C16*%
X139800000Y-98300000D03*
X139121178Y-98978822D03*
%TD*%
D22*
%TO.C,C13*%
X125500000Y-94000000D03*
X125500000Y-94960000D03*
%TD*%
D14*
%TO.C,J18*%
X146340000Y-63360000D03*
X143800000Y-63360000D03*
D26*
X146340000Y-65900000D03*
D16*
X143800000Y-65900000D03*
%TD*%
D27*
%TO.C,J31*%
X161700000Y-110750000D03*
X160450000Y-110750000D03*
D28*
X158600000Y-114100000D03*
X163550000Y-114100000D03*
%TD*%
D14*
%TO.C,J26*%
X116620000Y-70535147D03*
X116620000Y-73075147D03*
D15*
X119160000Y-70535147D03*
D16*
X119160000Y-73075147D03*
%TD*%
D29*
%TO.C,R19*%
X139980000Y-120500000D03*
X141000000Y-120500000D03*
%TD*%
D30*
%TO.C,C17*%
X124400000Y-98900000D03*
X124400000Y-97940000D03*
%TD*%
D23*
%TO.C,R5*%
X160800000Y-127785000D03*
X160800000Y-126765000D03*
%TD*%
D31*
%TO.C,U4*%
X171275000Y-106675000D03*
X171275000Y-106025000D03*
X171275000Y-105375000D03*
X171275000Y-104725000D03*
X171275000Y-104075000D03*
X171275000Y-103425000D03*
X171275000Y-102775000D03*
X171275000Y-102125000D03*
X165550000Y-102125000D03*
X165550000Y-102775000D03*
X165550000Y-103425000D03*
X165550000Y-104075000D03*
X165550000Y-104725000D03*
X165550000Y-105375000D03*
X165550000Y-106025000D03*
X165550000Y-106675000D03*
%TD*%
D32*
%TO.C,TP5*%
X162300000Y-80800000D03*
%TD*%
D22*
%TO.C,C25*%
X173100000Y-95620000D03*
X173100000Y-96580000D03*
%TD*%
D33*
%TO.C,Q4*%
X169400000Y-78250000D03*
X169400000Y-76350000D03*
X167200001Y-77300000D03*
%TD*%
D34*
%TO.C,D10*%
X148440000Y-111024998D03*
X148440000Y-112600000D03*
%TD*%
D31*
%TO.C,U8*%
X170562500Y-98750000D03*
X170562500Y-98100000D03*
X170562500Y-97450000D03*
X170562500Y-96800000D03*
X170562500Y-96150000D03*
X170562500Y-95500000D03*
X170562500Y-94850000D03*
X164837500Y-94850000D03*
X164837500Y-95500000D03*
X164837500Y-96150000D03*
X164837500Y-96800000D03*
X164837500Y-97450000D03*
X164837500Y-98100000D03*
X164837500Y-98750000D03*
%TD*%
D32*
%TO.C,TP4*%
X135100000Y-123100000D03*
%TD*%
D14*
%TO.C,J29*%
X180140000Y-72779288D03*
X180140000Y-70239288D03*
D20*
X177600000Y-72779288D03*
D16*
X177600000Y-70239288D03*
%TD*%
D35*
%TO.C,D2*%
X142300000Y-120200000D03*
X143875000Y-120200000D03*
%TD*%
D36*
%TO.C,J22*%
X153800000Y-133400000D03*
X142800000Y-133400000D03*
D37*
X145800000Y-123400000D03*
D38*
X150800000Y-123400000D03*
%TD*%
D14*
%TO.C,J14*%
X116660000Y-92840000D03*
X116660000Y-95380000D03*
X116660000Y-97920000D03*
D15*
X119200000Y-92840000D03*
D16*
X119200000Y-95380000D03*
X119200000Y-97920000D03*
%TD*%
D39*
%TO.C,JP2*%
X144249998Y-117900000D03*
D40*
X142800000Y-117900000D03*
%TD*%
D30*
%TO.C,C49*%
X164087867Y-91312132D03*
X163127867Y-91312132D03*
%TD*%
D41*
%TO.C,C41*%
X167040001Y-126812501D03*
X167040001Y-123862499D03*
%TD*%
D24*
%TO.C,C37*%
X132095000Y-126330000D03*
X135045000Y-126330000D03*
%TD*%
D18*
%TO.C,C22*%
X155282911Y-89117086D03*
X154604089Y-89795908D03*
%TD*%
D42*
%TO.C,U12*%
X167932868Y-84637132D03*
X166662868Y-84637132D03*
X165392868Y-84637132D03*
X164122868Y-84637132D03*
X162852868Y-84637132D03*
X161582868Y-84637132D03*
X160312868Y-84637132D03*
X159042868Y-84637132D03*
X159042868Y-89587132D03*
X160312868Y-89587132D03*
X161582868Y-89587132D03*
X162852868Y-89587132D03*
X164122868Y-89587132D03*
X165392868Y-89587132D03*
X166662868Y-89587132D03*
X167932868Y-89587132D03*
%TD*%
D29*
%TO.C,R9*%
X126500000Y-93400000D03*
X127519998Y-93400000D03*
%TD*%
D43*
%TO.C,U5*%
X142402951Y-93854765D03*
X141943332Y-93395146D03*
X141483713Y-92935526D03*
X141024093Y-92475907D03*
X140564474Y-92016287D03*
X140104854Y-91556668D03*
X139645235Y-91097049D03*
X135597049Y-95145235D03*
X136056668Y-95604854D03*
X136516287Y-96064474D03*
X136975907Y-96524093D03*
X137435526Y-96983713D03*
X137895146Y-97443332D03*
X138354765Y-97902951D03*
%TD*%
D22*
%TO.C,C11*%
X125400000Y-96110001D03*
X125400000Y-97070001D03*
%TD*%
D44*
%TO.C,Q5*%
X133099999Y-87950000D03*
X133099999Y-89850000D03*
X135200000Y-88900000D03*
%TD*%
D24*
%TO.C,C36*%
X169890000Y-128162500D03*
X172840002Y-128162500D03*
%TD*%
D45*
%TO.C,SW2*%
X160604164Y-103695836D03*
X158200000Y-106100000D03*
%TD*%
D30*
%TO.C,C27*%
X165200000Y-100100000D03*
X164240000Y-100100000D03*
%TD*%
D14*
%TO.C,J10*%
X116660000Y-83760000D03*
X116660000Y-86300000D03*
X116660000Y-88840000D03*
D15*
X119200000Y-83760000D03*
D16*
X119200000Y-86300000D03*
X119200000Y-88840000D03*
%TD*%
D14*
%TO.C,J27*%
X116620000Y-77135149D03*
X116620000Y-79675149D03*
D15*
X119160000Y-77135149D03*
D16*
X119160000Y-79675149D03*
%TD*%
D46*
%TO.C,C14*%
X141600000Y-90900000D03*
X142278822Y-91578822D03*
%TD*%
D47*
%TO.C,U6*%
X127000241Y-94704414D03*
X127000241Y-95354414D03*
X127000241Y-96004414D03*
X127000241Y-96654414D03*
X127000241Y-97304414D03*
X127000241Y-97954414D03*
X127000241Y-98604414D03*
X132725241Y-98604414D03*
X132725241Y-97954414D03*
X132725241Y-97304414D03*
X132725241Y-96654414D03*
X132725241Y-96004414D03*
X132725241Y-95354414D03*
X132725241Y-94704414D03*
%TD*%
D22*
%TO.C,C43*%
X128950000Y-128073000D03*
X128950000Y-129033000D03*
%TD*%
D35*
%TO.C,D3*%
X134712500Y-118100000D03*
X136287500Y-118100000D03*
%TD*%
D48*
%TO.C,D8*%
X172223360Y-73972634D03*
X172223360Y-69972632D03*
%TD*%
D14*
%TO.C,J16*%
X180140000Y-106700000D03*
X180140000Y-104160000D03*
X180140000Y-101620000D03*
D20*
X177600000Y-106700000D03*
D16*
X177600000Y-104160000D03*
X177600000Y-101620000D03*
%TD*%
D49*
%TO.C,J30*%
X132572500Y-67100000D03*
X131322500Y-67100000D03*
X130072500Y-67100000D03*
X128822500Y-67100000D03*
D50*
X134422500Y-63900000D03*
X126972500Y-63900000D03*
%TD*%
D51*
%TO.C,C32*%
X172640001Y-126262499D03*
X172640001Y-124362501D03*
%TD*%
D52*
%TO.C,H3*%
X171290000Y-131710000D03*
%TD*%
D13*
%TO.C,C23*%
X173100000Y-100309998D03*
X173100000Y-99349998D03*
%TD*%
D29*
%TO.C,R29*%
X147930000Y-113762499D03*
X148949998Y-113762499D03*
%TD*%
D23*
%TO.C,R20*%
X137980002Y-118200000D03*
X139000000Y-118200000D03*
%TD*%
D52*
%TO.C,H1*%
X130090000Y-72310000D03*
%TD*%
D13*
%TO.C,C31*%
X128950000Y-130893000D03*
X128950000Y-129933000D03*
%TD*%
D39*
%TO.C,JP1*%
X148049998Y-117900000D03*
D40*
X146600000Y-117900000D03*
%TD*%
D53*
%TO.C,C28*%
X155695108Y-97814349D03*
X155016286Y-97135527D03*
%TD*%
D46*
%TO.C,C26*%
X153637464Y-95756705D03*
X154316286Y-96435527D03*
%TD*%
D54*
%TO.C,R1*%
X140860624Y-100960624D03*
X140139376Y-100239376D03*
%TD*%
D22*
%TO.C,C38*%
X172390001Y-122182499D03*
X172390001Y-123142499D03*
%TD*%
D54*
%TO.C,R7*%
X143664752Y-92964752D03*
X142943504Y-92243504D03*
%TD*%
D14*
%TO.C,J28*%
X180140000Y-79369291D03*
X180140000Y-76829291D03*
D20*
X177600000Y-79369291D03*
D16*
X177600000Y-76829291D03*
%TD*%
D24*
%TO.C,C35*%
X136700000Y-128100000D03*
X139650000Y-128100000D03*
%TD*%
D55*
%TO.C,U11*%
X125595000Y-89675000D03*
X126865000Y-89675000D03*
X128135000Y-89675000D03*
X129405000Y-89675000D03*
X129405000Y-84725000D03*
X128135000Y-84725000D03*
X126865000Y-84725000D03*
X125595000Y-84725000D03*
%TD*%
D56*
%TO.C,Q2*%
X127500000Y-79850000D03*
X127500000Y-81750000D03*
X129699999Y-80800000D03*
%TD*%
D35*
%TO.C,D4*%
X148912500Y-120300000D03*
X150487500Y-120300000D03*
%TD*%
D57*
%TO.C,L1*%
X126857402Y-121100000D03*
X132500000Y-121100000D03*
%TD*%
D13*
%TO.C,C45*%
X158000000Y-118760000D03*
X158000000Y-117800000D03*
%TD*%
D58*
%TO.C,C8*%
X134800000Y-103300000D03*
X134800000Y-104850000D03*
%TD*%
D30*
%TO.C,C50*%
X166367869Y-91312132D03*
X165407869Y-91312132D03*
%TD*%
D59*
%TO.C,J36*%
X135400000Y-111700000D03*
D60*
X137900000Y-111700000D03*
%TD*%
D19*
%TO.C,R12*%
X172137499Y-96310001D03*
X172137499Y-97329999D03*
%TD*%
D29*
%TO.C,R17*%
X136370001Y-124100000D03*
X137390001Y-124100000D03*
%TD*%
D61*
%TO.C,C19*%
X132820000Y-99900000D03*
X133780000Y-99900000D03*
%TD*%
%TO.C,C48*%
X161727869Y-82912132D03*
X162687869Y-82912132D03*
%TD*%
D47*
%TO.C,U3*%
X126100000Y-103050000D03*
X126100000Y-103700000D03*
X126100000Y-104350000D03*
X126100000Y-105000000D03*
X126100000Y-105650000D03*
X126100000Y-106300000D03*
X126100000Y-106950000D03*
X126100000Y-107600000D03*
X131825000Y-107600000D03*
X131825000Y-106950000D03*
X131825000Y-106300000D03*
X131825000Y-105650000D03*
X131825000Y-105000000D03*
X131825000Y-104350000D03*
X131825000Y-103700000D03*
X131825000Y-103050000D03*
%TD*%
D62*
%TO.C,C9*%
X163100000Y-103950000D03*
X163100000Y-102400000D03*
%TD*%
D63*
%TO.C,J23*%
X123472501Y-67200000D03*
X122222501Y-67200000D03*
D64*
X125322500Y-63999999D03*
X120372502Y-63999999D03*
%TD*%
D65*
%TO.C,J34*%
X174000000Y-65300000D03*
D66*
X176540000Y-65300000D03*
%TD*%
D67*
%TO.C,U7*%
X155954765Y-90697049D03*
X155495146Y-91156668D03*
X155035526Y-91616287D03*
X154575907Y-92075907D03*
X154116287Y-92535526D03*
X153656668Y-92995146D03*
X153197049Y-93454765D03*
X157245235Y-97502951D03*
X157704854Y-97043332D03*
X158164474Y-96583713D03*
X158624093Y-96124093D03*
X159083713Y-95664474D03*
X159543332Y-95204854D03*
X160002951Y-94745235D03*
%TD*%
D34*
%TO.C,D11*%
X152240000Y-111024998D03*
X152240000Y-112600000D03*
%TD*%
D68*
%TO.C,R6*%
X140256497Y-89556498D03*
X140977745Y-90277746D03*
%TD*%
D69*
%TO.C,R16*%
X130600000Y-133323000D03*
X132250000Y-133323000D03*
%TD*%
D34*
%TO.C,D9*%
X144440000Y-110924998D03*
X144440000Y-112500000D03*
%TD*%
D70*
%TO.C,C33*%
X135225000Y-133323000D03*
X133675000Y-133323000D03*
%TD*%
D29*
%TO.C,R30*%
X151720001Y-113762499D03*
X152739999Y-113762499D03*
%TD*%
D52*
%TO.C,H2*%
X166780000Y-72310000D03*
%TD*%
D14*
%TO.C,J9*%
X180140000Y-88540000D03*
X180140000Y-86000000D03*
X180140000Y-83460000D03*
D20*
X177600000Y-88540000D03*
D16*
X177600000Y-86000000D03*
X177600000Y-83460000D03*
%TD*%
D71*
%TO.C,J24*%
X168300000Y-67400000D03*
X167050000Y-67400000D03*
X165800000Y-67400000D03*
X164550000Y-67400000D03*
D72*
X170150000Y-64200000D03*
X162700000Y-64200000D03*
%TD*%
D73*
%TO.C,Q6*%
X133362500Y-84150000D03*
X133362500Y-86050000D03*
X135237500Y-85100000D03*
%TD*%
D74*
%TO.C,U2*%
X164000000Y-124910000D03*
X164000000Y-123640000D03*
X164000000Y-122370000D03*
X164000000Y-121100000D03*
X158700000Y-121100000D03*
X158700000Y-122370000D03*
X158700000Y-123640000D03*
X158700000Y-124910000D03*
%TD*%
D23*
%TO.C,R13*%
X172137499Y-99249998D03*
X172137499Y-98230000D03*
%TD*%
D13*
%TO.C,C21*%
X172137499Y-101089999D03*
X172137499Y-100129999D03*
%TD*%
D23*
%TO.C,R8*%
X125400000Y-99000000D03*
X125400000Y-97980002D03*
%TD*%
D75*
%TO.C,U9*%
X168990001Y-126100000D03*
X169940000Y-126100000D03*
X170889999Y-126100000D03*
X170889999Y-123825000D03*
X169940000Y-123825000D03*
X168990001Y-123825000D03*
%TD*%
D18*
%TO.C,C6*%
X142750000Y-102000000D03*
X142071178Y-102678822D03*
%TD*%
D76*
%TO.C,J2*%
X159515000Y-130400000D03*
X165295000Y-130400000D03*
D77*
X159205000Y-129325000D03*
X160005000Y-129325000D03*
D78*
X161155000Y-129325000D03*
X162155000Y-129325000D03*
X162655000Y-129325000D03*
X163655000Y-129325000D03*
D77*
X164805000Y-129325000D03*
X165605000Y-129325000D03*
X165605000Y-129325000D03*
X164805000Y-129325000D03*
D78*
X164155000Y-129325000D03*
X163155000Y-129325000D03*
X161655000Y-129325000D03*
X160655000Y-129325000D03*
D77*
X160005000Y-129325000D03*
X159205000Y-129325000D03*
D79*
X158085000Y-129900000D03*
D80*
X158085000Y-134080000D03*
D79*
X166725000Y-129900000D03*
D80*
X166725000Y-134080000D03*
%TD*%
D25*
%TO.C,R23*%
X144300000Y-106800000D03*
X143578752Y-107521248D03*
%TD*%
D81*
%TO.C,R3*%
X143550000Y-96550000D03*
X144716726Y-95383274D03*
%TD*%
D29*
%TO.C,R21*%
X151780000Y-120500000D03*
X152800000Y-120500000D03*
%TD*%
D46*
%TO.C,C4*%
X150410589Y-95760589D03*
X151089411Y-96439411D03*
%TD*%
D82*
%TO.C,R25*%
X153578752Y-107021248D03*
X154300000Y-106300000D03*
%TD*%
D83*
%TO.C,IC1*%
X135887500Y-121600000D03*
X136387500Y-121600000D03*
X136887500Y-121600000D03*
X137387500Y-121600000D03*
X137387500Y-120100000D03*
X136887500Y-120120000D03*
X136387500Y-120120000D03*
X135887500Y-120120000D03*
%TD*%
D21*
%TO.C,D5*%
X124700000Y-70000000D03*
X124700000Y-74000002D03*
%TD*%
D13*
%TO.C,C47*%
X152900000Y-117180000D03*
X152900000Y-116220000D03*
%TD*%
D84*
%TO.C,C42*%
X134650000Y-128398000D03*
X134650000Y-131348000D03*
%TD*%
D85*
%TO.C,U1*%
X143512124Y-102698788D03*
X143865678Y-103052342D03*
X144219231Y-103405895D03*
X144572785Y-103759449D03*
X144926338Y-104113002D03*
X145279891Y-104466555D03*
X145633445Y-104820109D03*
X145986998Y-105173662D03*
X146340551Y-105527215D03*
X146694105Y-105880769D03*
X147047658Y-106234322D03*
X147401212Y-106587876D03*
D86*
X149398788Y-106587876D03*
X149752342Y-106234322D03*
X150105895Y-105880769D03*
X150459449Y-105527215D03*
X150813002Y-105173662D03*
X151166555Y-104820109D03*
X151520109Y-104466555D03*
X151873662Y-104113002D03*
X152227215Y-103759449D03*
X152580769Y-103405895D03*
X152934322Y-103052342D03*
X153287876Y-102698788D03*
D85*
X153287876Y-100701212D03*
X152934322Y-100347658D03*
X152580769Y-99994105D03*
X152227215Y-99640551D03*
X151873662Y-99286998D03*
X151520109Y-98933445D03*
X151166555Y-98579891D03*
X150813002Y-98226338D03*
X150459449Y-97872785D03*
X150105895Y-97519231D03*
X149752342Y-97165678D03*
X149398788Y-96812124D03*
D86*
X147401212Y-96812124D03*
X147047658Y-97165678D03*
X146694105Y-97519231D03*
X146340551Y-97872785D03*
X145986998Y-98226338D03*
X145633445Y-98579891D03*
X145279891Y-98933445D03*
X144926338Y-99286998D03*
X144572785Y-99640551D03*
X144219231Y-99994105D03*
X143865678Y-100347658D03*
X143512124Y-100701212D03*
%TD*%
D53*
%TO.C,C10*%
X143693037Y-91578822D03*
X143014215Y-90900000D03*
%TD*%
D29*
%TO.C,R14*%
X128430000Y-133673000D03*
X129450000Y-133673000D03*
%TD*%
D48*
%TO.C,D7*%
X172223360Y-81072634D03*
X172223360Y-77072632D03*
%TD*%
D61*
%TO.C,C29*%
X173100000Y-98480000D03*
X173100000Y-97520000D03*
%TD*%
D23*
%TO.C,R4*%
X164125000Y-127795000D03*
X164125000Y-126775000D03*
%TD*%
D87*
%TO.C,L2*%
X171090001Y-120600000D03*
X168090001Y-120600000D03*
%TD*%
D18*
%TO.C,C3*%
X155639411Y-104960589D03*
X154960589Y-105639411D03*
%TD*%
D14*
%TO.C,J5*%
X180140000Y-97620000D03*
X180140000Y-95080000D03*
X180140000Y-92540000D03*
D20*
X177600000Y-97620000D03*
D16*
X177600000Y-95080000D03*
X177600000Y-92540000D03*
%TD*%
D23*
%TO.C,R22*%
X139700000Y-105309999D03*
X139700000Y-104290001D03*
%TD*%
D45*
%TO.C,SW1*%
X157002082Y-107197918D03*
X154597918Y-109602082D03*
%TD*%
D18*
%TO.C,C1*%
X144978822Y-107521178D03*
X144300000Y-108200000D03*
%TD*%
D88*
%TO.C,D1*%
X165700000Y-118900000D03*
X164124998Y-118900000D03*
%TD*%
D89*
%TO.C,R27*%
X137300000Y-89766637D03*
X137300000Y-88116637D03*
%TD*%
D27*
%TO.C,J33*%
X169250000Y-110800000D03*
X168000000Y-110800000D03*
D28*
X166150000Y-114150000D03*
X171100000Y-114150000D03*
%TD*%
D14*
%TO.C,J3*%
X116660000Y-101920000D03*
X116660000Y-104460000D03*
X116660000Y-107000000D03*
D15*
X119200000Y-101920000D03*
D16*
X119200000Y-104460000D03*
X119200000Y-107000000D03*
%TD*%
D14*
%TO.C,J19*%
X139750000Y-63350000D03*
X137210000Y-63350000D03*
D26*
X139750000Y-65890000D03*
D16*
X137210000Y-65890000D03*
%TD*%
D14*
%TO.C,J20*%
X153040000Y-63350000D03*
X150500000Y-63350000D03*
D26*
X153040000Y-65890000D03*
D16*
X150500000Y-65890000D03*
%TD*%
D90*
%TO.C,C12*%
X143321178Y-95078822D03*
X144000000Y-94400000D03*
%TD*%
D89*
%TO.C,R26*%
X137300000Y-85950000D03*
X137300000Y-84300000D03*
%TD*%
D24*
%TO.C,C39*%
X127425000Y-126400000D03*
X130375000Y-126400000D03*
%TD*%
D14*
%TO.C,J21*%
X159640000Y-63360000D03*
X157100000Y-63360000D03*
D26*
X159640000Y-65900000D03*
D16*
X157100000Y-65900000D03*
%TD*%
D91*
%TO.C,C7*%
X142351992Y-106948008D03*
X143448008Y-105851992D03*
%TD*%
D32*
%TO.C,TP6*%
X131500000Y-91500000D03*
%TD*%
D27*
%TO.C,J25*%
X128800000Y-110600000D03*
X127550000Y-110600000D03*
D28*
X125700000Y-113950000D03*
X130650000Y-113950000D03*
%TD*%
D92*
%TO.C,U10*%
X156575000Y-118999998D03*
X156575000Y-118049999D03*
X156575000Y-117100000D03*
X154300000Y-117100000D03*
X154300000Y-118999998D03*
%TD*%
D24*
%TO.C,C34*%
X136695000Y-130430000D03*
X139645000Y-130430000D03*
%TD*%
D90*
%TO.C,C18*%
X140460588Y-97639411D03*
X141139410Y-96960589D03*
%TD*%
D29*
%TO.C,R28*%
X143930002Y-113662499D03*
X144950000Y-113662499D03*
%TD*%
D82*
%TO.C,R10*%
X151872863Y-92549674D03*
X152594111Y-91828426D03*
%TD*%
D65*
%TO.C,J35*%
X142080000Y-84440000D03*
D66*
X142080000Y-81900000D03*
X144620000Y-84440000D03*
X144620000Y-81900000D03*
X147159999Y-84440000D03*
X147160000Y-81900000D03*
X149700000Y-84440000D03*
X149700000Y-81900000D03*
X152240000Y-84440000D03*
X152240000Y-81900000D03*
X154780000Y-84440000D03*
X154780000Y-81900000D03*
%TD*%
D52*
%TO.C,H4*%
X125590000Y-131710000D03*
%TD*%
D14*
%TO.C,J4*%
X180140000Y-133940000D03*
X180140000Y-131400000D03*
X180140000Y-128860000D03*
D20*
X177600000Y-133940000D03*
D16*
X177600000Y-131400000D03*
X177600000Y-128860000D03*
%TD*%
D13*
%TO.C,C15*%
X124400000Y-97060000D03*
X124400000Y-96100000D03*
%TD*%
D23*
%TO.C,R33*%
X139700000Y-103419998D03*
X139700000Y-102400000D03*
%TD*%
D14*
%TO.C,J15*%
X116660000Y-129160000D03*
X116660000Y-131700000D03*
X116660000Y-134240000D03*
D15*
X119200000Y-129160000D03*
D16*
X119200000Y-131700000D03*
X119200000Y-134240000D03*
%TD*%
D14*
%TO.C,J11*%
X116660000Y-120080000D03*
X116660000Y-122620000D03*
X116660000Y-125160000D03*
D15*
X119200000Y-120080000D03*
D16*
X119200000Y-122620000D03*
X119200000Y-125160000D03*
%TD*%
D90*
%TO.C,C24*%
X153260589Y-91139411D03*
X153939411Y-90460589D03*
%TD*%
D93*
%TO.C,U13*%
X138400000Y-101800000D03*
X137750000Y-101800000D03*
X137100000Y-101800000D03*
X136450000Y-101800000D03*
X136450000Y-106025000D03*
X137100000Y-106025000D03*
X137750000Y-106025000D03*
X138400000Y-106025000D03*
%TD*%
D24*
%TO.C,C44*%
X136824999Y-132800000D03*
X139775001Y-132800000D03*
%TD*%
D33*
%TO.C,Q3*%
X169399999Y-81650000D03*
X169399999Y-79750000D03*
X167200000Y-80700000D03*
%TD*%
D94*
%TO.C,C5*%
X141328249Y-99071751D03*
X142671751Y-97728249D03*
%TD*%
D56*
%TO.C,Q1*%
X127500001Y-76050000D03*
X127500001Y-77950000D03*
X129700000Y-77000000D03*
%TD*%
D32*
%TO.C,TP1*%
X152100000Y-95200000D03*
%TD*%
M02*
