%TF.GenerationSoftware,KiCad,Pcbnew,9.0.4*%
%TF.CreationDate,2025-10-27T15:56:17-04:00*%
%TF.ProjectId,Alpha_Breakout,416c7068-615f-4427-9265-616b6f75742e,rev?*%
%TF.SameCoordinates,Original*%
%TF.FileFunction,Paste,Top*%
%TF.FilePolarity,Positive*%
%FSLAX46Y46*%
G04 Gerber Fmt 4.6, Leading zero omitted, Abs format (unit mm)*
G04 Created by KiCad (PCBNEW 9.0.4) date 2025-10-27 15:56:17*
%MOMM*%
%LPD*%
G01*
G04 APERTURE LIST*
G04 Aperture macros list*
%AMRoundRect*
0 Rectangle with rounded corners*
0 $1 Rounding radius*
0 $2 $3 $4 $5 $6 $7 $8 $9 X,Y pos of 4 corners*
0 Add a 4 corners polygon primitive as box body*
4,1,4,$2,$3,$4,$5,$6,$7,$8,$9,$2,$3,0*
0 Add four circle primitives for the rounded corners*
1,1,$1+$1,$2,$3*
1,1,$1+$1,$4,$5*
1,1,$1+$1,$6,$7*
1,1,$1+$1,$8,$9*
0 Add four rect primitives between the rounded corners*
20,1,$1+$1,$2,$3,$4,$5,0*
20,1,$1+$1,$4,$5,$6,$7,0*
20,1,$1+$1,$6,$7,$8,$9,0*
20,1,$1+$1,$8,$9,$2,$3,0*%
%AMRotRect*
0 Rectangle, with rotation*
0 The origin of the aperture is its center*
0 $1 length*
0 $2 width*
0 $3 Rotation angle, in degrees counterclockwise*
0 Add horizontal line*
21,1,$1,$2,0,0,$3*%
G04 Aperture macros list end*
%ADD10C,0.010000*%
%ADD11RoundRect,0.140000X0.170000X-0.140000X0.170000X0.140000X-0.170000X0.140000X-0.170000X-0.140000X0*%
%ADD12RoundRect,0.135000X0.135000X0.185000X-0.135000X0.185000X-0.135000X-0.185000X0.135000X-0.185000X0*%
%ADD13RoundRect,0.140000X-0.021213X0.219203X-0.219203X0.021213X0.021213X-0.219203X0.219203X-0.021213X0*%
%ADD14RoundRect,0.135000X-0.185000X0.135000X-0.185000X-0.135000X0.185000X-0.135000X0.185000X0.135000X0*%
%ADD15RoundRect,0.250000X-0.650000X1.000000X-0.650000X-1.000000X0.650000X-1.000000X0.650000X1.000000X0*%
%ADD16RoundRect,0.140000X-0.170000X0.140000X-0.170000X-0.140000X0.170000X-0.140000X0.170000X0.140000X0*%
%ADD17RoundRect,0.135000X0.185000X-0.135000X0.185000X0.135000X-0.185000X0.135000X-0.185000X-0.135000X0*%
%ADD18RoundRect,0.250000X-0.325000X-0.650000X0.325000X-0.650000X0.325000X0.650000X-0.325000X0.650000X0*%
%ADD19RoundRect,0.135000X-0.035355X0.226274X-0.226274X0.035355X0.035355X-0.226274X0.226274X-0.035355X0*%
%ADD20R,0.600000X1.700000*%
%ADD21R,1.000000X2.800000*%
%ADD22RoundRect,0.135000X-0.135000X-0.185000X0.135000X-0.185000X0.135000X0.185000X-0.135000X0.185000X0*%
%ADD23RoundRect,0.140000X0.140000X0.170000X-0.140000X0.170000X-0.140000X-0.170000X0.140000X-0.170000X0*%
%ADD24RoundRect,0.100000X0.637500X0.100000X-0.637500X0.100000X-0.637500X-0.100000X0.637500X-0.100000X0*%
%ADD25R,0.150000X0.380000*%
%ADD26R,0.630000X0.380000*%
%ADD27RoundRect,0.218750X-0.256250X0.218750X-0.256250X-0.218750X0.256250X-0.218750X0.256250X0.218750X0*%
%ADD28RoundRect,0.218750X-0.218750X-0.256250X0.218750X-0.256250X0.218750X0.256250X-0.218750X0.256250X0*%
%ADD29RoundRect,0.250000X0.650000X-0.325000X0.650000X0.325000X-0.650000X0.325000X-0.650000X-0.325000X0*%
%ADD30RoundRect,0.075000X-0.225000X0.910000X-0.225000X-0.910000X0.225000X-0.910000X0.225000X0.910000X0*%
%ADD31RoundRect,0.100000X0.380070X0.521491X-0.521491X-0.380070X-0.380070X-0.521491X0.521491X0.380070X0*%
%ADD32R,0.900000X0.800000*%
%ADD33RotRect,0.900000X1.700000X225.000000*%
%ADD34RoundRect,0.140000X-0.219203X-0.021213X-0.021213X-0.219203X0.219203X0.021213X0.021213X0.219203X0*%
%ADD35RoundRect,0.100000X-0.637500X-0.100000X0.637500X-0.100000X0.637500X0.100000X-0.637500X0.100000X0*%
%ADD36RoundRect,0.250000X0.650000X-1.000000X0.650000X1.000000X-0.650000X1.000000X-0.650000X-1.000000X0*%
%ADD37R,1.000000X2.700000*%
%ADD38RoundRect,0.250000X0.475000X-0.250000X0.475000X0.250000X-0.475000X0.250000X-0.475000X-0.250000X0*%
%ADD39RoundRect,0.140000X0.219203X0.021213X0.021213X0.219203X-0.219203X-0.021213X-0.021213X-0.219203X0*%
%ADD40RoundRect,0.135000X0.226274X0.035355X0.035355X0.226274X-0.226274X-0.035355X-0.035355X-0.226274X0*%
%ADD41RoundRect,0.150000X0.150000X-0.825000X0.150000X0.825000X-0.150000X0.825000X-0.150000X-0.825000X0*%
%ADD42R,2.362200X3.505200*%
%ADD43RoundRect,0.225000X-0.250000X0.225000X-0.250000X-0.225000X0.250000X-0.225000X0.250000X0.225000X0*%
%ADD44RoundRect,0.140000X-0.140000X-0.170000X0.140000X-0.170000X0.140000X0.170000X-0.140000X0.170000X0*%
%ADD45RoundRect,0.225000X0.250000X-0.225000X0.250000X0.225000X-0.250000X0.225000X-0.250000X-0.225000X0*%
%ADD46R,0.660400X1.803400*%
%ADD47R,1.092200X2.794000*%
%ADD48RoundRect,0.100000X-0.521491X0.380070X0.380070X-0.521491X0.521491X-0.380070X-0.380070X0.521491X0*%
%ADD49RoundRect,0.135000X-0.226274X-0.035355X-0.035355X-0.226274X0.226274X0.035355X0.035355X0.226274X0*%
%ADD50RoundRect,0.200000X-0.200000X-0.275000X0.200000X-0.275000X0.200000X0.275000X-0.200000X0.275000X0*%
%ADD51RoundRect,0.225000X0.225000X0.250000X-0.225000X0.250000X-0.225000X-0.250000X0.225000X-0.250000X0*%
%ADD52RoundRect,0.150000X0.150000X0.700000X-0.150000X0.700000X-0.150000X-0.700000X0.150000X-0.700000X0*%
%ADD53RoundRect,0.250000X0.250000X1.100000X-0.250000X1.100000X-0.250000X-1.100000X0.250000X-1.100000X0*%
%ADD54RoundRect,0.150000X-0.587500X-0.150000X0.587500X-0.150000X0.587500X0.150000X-0.587500X0.150000X0*%
%ADD55RoundRect,0.137500X0.612500X0.137500X-0.612500X0.137500X-0.612500X-0.137500X0.612500X-0.137500X0*%
%ADD56RoundRect,0.050000X-0.250000X-0.050000X0.250000X-0.050000X0.250000X0.050000X-0.250000X0.050000X0*%
%ADD57RoundRect,0.050000X-0.050000X-0.250000X0.050000X-0.250000X0.050000X0.250000X-0.050000X0.250000X0*%
%ADD58RoundRect,0.150000X0.150000X-0.512500X0.150000X0.512500X-0.150000X0.512500X-0.150000X-0.512500X0*%
%ADD59RoundRect,0.150000X-0.150000X-0.425000X0.150000X-0.425000X0.150000X0.425000X-0.150000X0.425000X0*%
%ADD60RoundRect,0.075000X-0.075000X-0.500000X0.075000X-0.500000X0.075000X0.500000X-0.075000X0.500000X0*%
%ADD61O,1.000000X2.100000*%
%ADD62O,1.000000X1.800000*%
%ADD63RoundRect,0.200000X0.053033X-0.335876X0.335876X-0.053033X-0.053033X0.335876X-0.335876X0.053033X0*%
%ADD64RoundRect,0.135000X0.035355X-0.226274X0.226274X-0.035355X-0.035355X0.226274X-0.226274X0.035355X0*%
%ADD65R,0.300000X0.670000*%
%ADD66RoundRect,0.250000X-0.650000X0.325000X-0.650000X-0.325000X0.650000X-0.325000X0.650000X0.325000X0*%
%ADD67RoundRect,0.075000X-0.415425X-0.521491X0.521491X0.415425X0.415425X0.521491X-0.521491X-0.415425X0*%
%ADD68RoundRect,0.075000X0.415425X-0.521491X0.521491X-0.415425X-0.415425X0.521491X-0.521491X0.415425X0*%
%ADD69RoundRect,0.250000X0.300000X1.600000X-0.300000X1.600000X-0.300000X-1.600000X0.300000X-1.600000X0*%
%ADD70RoundRect,0.218750X0.218750X0.256250X-0.218750X0.256250X-0.218750X-0.256250X0.218750X-0.256250X0*%
%ADD71RoundRect,0.200000X0.275000X-0.200000X0.275000X0.200000X-0.275000X0.200000X-0.275000X-0.200000X0*%
%ADD72RoundRect,0.140000X0.021213X-0.219203X0.219203X-0.021213X-0.021213X0.219203X-0.219203X0.021213X0*%
%ADD73RoundRect,0.225000X0.017678X-0.335876X0.335876X-0.017678X-0.017678X0.335876X-0.335876X0.017678X0*%
%ADD74RoundRect,0.150000X0.512500X0.150000X-0.512500X0.150000X-0.512500X-0.150000X0.512500X-0.150000X0*%
%ADD75RoundRect,0.125000X-0.125000X0.687500X-0.125000X-0.687500X0.125000X-0.687500X0.125000X0.687500X0*%
%ADD76RoundRect,0.250000X0.159099X-0.512652X0.512652X-0.159099X-0.159099X0.512652X-0.512652X0.159099X0*%
G04 APERTURE END LIST*
D10*
%TO.C,PS1*%
X130108000Y-128274000D02*
X130110000Y-128274000D01*
X130113000Y-128275000D01*
X130115000Y-128275000D01*
X130118000Y-128276000D01*
X130120000Y-128277000D01*
X130123000Y-128278000D01*
X130125000Y-128280000D01*
X130127000Y-128281000D01*
X130129000Y-128283000D01*
X130131000Y-128284000D01*
X130133000Y-128286000D01*
X130135000Y-128288000D01*
X130137000Y-128290000D01*
X130139000Y-128292000D01*
X130140000Y-128294000D01*
X130142000Y-128296000D01*
X130143000Y-128298000D01*
X130145000Y-128300000D01*
X130146000Y-128303000D01*
X130147000Y-128305000D01*
X130148000Y-128308000D01*
X130148000Y-128310000D01*
X130149000Y-128313000D01*
X130149000Y-128315000D01*
X130150000Y-128318000D01*
X130150000Y-128320000D01*
X130150000Y-128323000D01*
X130150000Y-128423000D01*
X130150000Y-128426000D01*
X130150000Y-128428000D01*
X130149000Y-128431000D01*
X130149000Y-128433000D01*
X130148000Y-128436000D01*
X130148000Y-128438000D01*
X130147000Y-128441000D01*
X130146000Y-128443000D01*
X130145000Y-128446000D01*
X130143000Y-128448000D01*
X130142000Y-128450000D01*
X130140000Y-128452000D01*
X130139000Y-128454000D01*
X130137000Y-128456000D01*
X130135000Y-128458000D01*
X130133000Y-128460000D01*
X130131000Y-128462000D01*
X130129000Y-128463000D01*
X130127000Y-128465000D01*
X130125000Y-128466000D01*
X130123000Y-128468000D01*
X130120000Y-128469000D01*
X130118000Y-128470000D01*
X130115000Y-128471000D01*
X130113000Y-128471000D01*
X130110000Y-128472000D01*
X130108000Y-128472000D01*
X130105000Y-128473000D01*
X130103000Y-128473000D01*
X130100000Y-128473000D01*
X129800000Y-128473000D01*
X129797000Y-128473000D01*
X129795000Y-128473000D01*
X129792000Y-128472000D01*
X129790000Y-128472000D01*
X129787000Y-128471000D01*
X129785000Y-128471000D01*
X129782000Y-128470000D01*
X129780000Y-128469000D01*
X129777000Y-128468000D01*
X129775000Y-128466000D01*
X129773000Y-128465000D01*
X129771000Y-128463000D01*
X129769000Y-128462000D01*
X129767000Y-128460000D01*
X129765000Y-128458000D01*
X129763000Y-128456000D01*
X129761000Y-128454000D01*
X129760000Y-128452000D01*
X129758000Y-128450000D01*
X129757000Y-128448000D01*
X129755000Y-128446000D01*
X129754000Y-128443000D01*
X129753000Y-128441000D01*
X129752000Y-128438000D01*
X129752000Y-128436000D01*
X129751000Y-128433000D01*
X129751000Y-128431000D01*
X129750000Y-128428000D01*
X129750000Y-128426000D01*
X129750000Y-128423000D01*
X129750000Y-128323000D01*
X129750000Y-128320000D01*
X129750000Y-128318000D01*
X129751000Y-128315000D01*
X129751000Y-128313000D01*
X129752000Y-128310000D01*
X129752000Y-128308000D01*
X129753000Y-128305000D01*
X129754000Y-128303000D01*
X129755000Y-128300000D01*
X129757000Y-128298000D01*
X129758000Y-128296000D01*
X129760000Y-128294000D01*
X129761000Y-128292000D01*
X129763000Y-128290000D01*
X129765000Y-128288000D01*
X129767000Y-128286000D01*
X129769000Y-128284000D01*
X129771000Y-128283000D01*
X129773000Y-128281000D01*
X129775000Y-128280000D01*
X129777000Y-128278000D01*
X129780000Y-128277000D01*
X129782000Y-128276000D01*
X129785000Y-128275000D01*
X129787000Y-128275000D01*
X129790000Y-128274000D01*
X129792000Y-128274000D01*
X129795000Y-128273000D01*
X129797000Y-128273000D01*
X129800000Y-128273000D01*
X130100000Y-128273000D01*
X130103000Y-128273000D01*
X130105000Y-128273000D01*
X130108000Y-128274000D01*
G36*
X130108000Y-128274000D02*
G01*
X130110000Y-128274000D01*
X130113000Y-128275000D01*
X130115000Y-128275000D01*
X130118000Y-128276000D01*
X130120000Y-128277000D01*
X130123000Y-128278000D01*
X130125000Y-128280000D01*
X130127000Y-128281000D01*
X130129000Y-128283000D01*
X130131000Y-128284000D01*
X130133000Y-128286000D01*
X130135000Y-128288000D01*
X130137000Y-128290000D01*
X130139000Y-128292000D01*
X130140000Y-128294000D01*
X130142000Y-128296000D01*
X130143000Y-128298000D01*
X130145000Y-128300000D01*
X130146000Y-128303000D01*
X130147000Y-128305000D01*
X130148000Y-128308000D01*
X130148000Y-128310000D01*
X130149000Y-128313000D01*
X130149000Y-128315000D01*
X130150000Y-128318000D01*
X130150000Y-128320000D01*
X130150000Y-128323000D01*
X130150000Y-128423000D01*
X130150000Y-128426000D01*
X130150000Y-128428000D01*
X130149000Y-128431000D01*
X130149000Y-128433000D01*
X130148000Y-128436000D01*
X130148000Y-128438000D01*
X130147000Y-128441000D01*
X130146000Y-128443000D01*
X130145000Y-128446000D01*
X130143000Y-128448000D01*
X130142000Y-128450000D01*
X130140000Y-128452000D01*
X130139000Y-128454000D01*
X130137000Y-128456000D01*
X130135000Y-128458000D01*
X130133000Y-128460000D01*
X130131000Y-128462000D01*
X130129000Y-128463000D01*
X130127000Y-128465000D01*
X130125000Y-128466000D01*
X130123000Y-128468000D01*
X130120000Y-128469000D01*
X130118000Y-128470000D01*
X130115000Y-128471000D01*
X130113000Y-128471000D01*
X130110000Y-128472000D01*
X130108000Y-128472000D01*
X130105000Y-128473000D01*
X130103000Y-128473000D01*
X130100000Y-128473000D01*
X129800000Y-128473000D01*
X129797000Y-128473000D01*
X129795000Y-128473000D01*
X129792000Y-128472000D01*
X129790000Y-128472000D01*
X129787000Y-128471000D01*
X129785000Y-128471000D01*
X129782000Y-128470000D01*
X129780000Y-128469000D01*
X129777000Y-128468000D01*
X129775000Y-128466000D01*
X129773000Y-128465000D01*
X129771000Y-128463000D01*
X129769000Y-128462000D01*
X129767000Y-128460000D01*
X129765000Y-128458000D01*
X129763000Y-128456000D01*
X129761000Y-128454000D01*
X129760000Y-128452000D01*
X129758000Y-128450000D01*
X129757000Y-128448000D01*
X129755000Y-128446000D01*
X129754000Y-128443000D01*
X129753000Y-128441000D01*
X129752000Y-128438000D01*
X129752000Y-128436000D01*
X129751000Y-128433000D01*
X129751000Y-128431000D01*
X129750000Y-128428000D01*
X129750000Y-128426000D01*
X129750000Y-128423000D01*
X129750000Y-128323000D01*
X129750000Y-128320000D01*
X129750000Y-128318000D01*
X129751000Y-128315000D01*
X129751000Y-128313000D01*
X129752000Y-128310000D01*
X129752000Y-128308000D01*
X129753000Y-128305000D01*
X129754000Y-128303000D01*
X129755000Y-128300000D01*
X129757000Y-128298000D01*
X129758000Y-128296000D01*
X129760000Y-128294000D01*
X129761000Y-128292000D01*
X129763000Y-128290000D01*
X129765000Y-128288000D01*
X129767000Y-128286000D01*
X129769000Y-128284000D01*
X129771000Y-128283000D01*
X129773000Y-128281000D01*
X129775000Y-128280000D01*
X129777000Y-128278000D01*
X129780000Y-128277000D01*
X129782000Y-128276000D01*
X129785000Y-128275000D01*
X129787000Y-128275000D01*
X129790000Y-128274000D01*
X129792000Y-128274000D01*
X129795000Y-128273000D01*
X129797000Y-128273000D01*
X129800000Y-128273000D01*
X130100000Y-128273000D01*
X130103000Y-128273000D01*
X130105000Y-128273000D01*
X130108000Y-128274000D01*
G37*
X131158000Y-129549000D02*
X131160000Y-129549000D01*
X131163000Y-129550000D01*
X131165000Y-129550000D01*
X131168000Y-129551000D01*
X131170000Y-129552000D01*
X131173000Y-129553000D01*
X131175000Y-129555000D01*
X131177000Y-129556000D01*
X131179000Y-129558000D01*
X131181000Y-129559000D01*
X131183000Y-129561000D01*
X131185000Y-129563000D01*
X131187000Y-129565000D01*
X131189000Y-129567000D01*
X131190000Y-129569000D01*
X131192000Y-129571000D01*
X131193000Y-129573000D01*
X131195000Y-129575000D01*
X131196000Y-129578000D01*
X131197000Y-129580000D01*
X131198000Y-129583000D01*
X131198000Y-129585000D01*
X131199000Y-129588000D01*
X131199000Y-129590000D01*
X131200000Y-129593000D01*
X131200000Y-129595000D01*
X131200000Y-129598000D01*
X131200000Y-129748000D01*
X131200000Y-129751000D01*
X131200000Y-129753000D01*
X131199000Y-129756000D01*
X131199000Y-129758000D01*
X131198000Y-129761000D01*
X131198000Y-129763000D01*
X131197000Y-129766000D01*
X131196000Y-129768000D01*
X131195000Y-129771000D01*
X131193000Y-129773000D01*
X131192000Y-129775000D01*
X131190000Y-129777000D01*
X131189000Y-129779000D01*
X131187000Y-129781000D01*
X131185000Y-129783000D01*
X131183000Y-129785000D01*
X131181000Y-129787000D01*
X131179000Y-129788000D01*
X131177000Y-129790000D01*
X131175000Y-129791000D01*
X131173000Y-129793000D01*
X131170000Y-129794000D01*
X131168000Y-129795000D01*
X131165000Y-129796000D01*
X131163000Y-129796000D01*
X131160000Y-129797000D01*
X131158000Y-129797000D01*
X131155000Y-129798000D01*
X131153000Y-129798000D01*
X131150000Y-129798000D01*
X129800000Y-129798000D01*
X129797000Y-129798000D01*
X129795000Y-129798000D01*
X129792000Y-129797000D01*
X129790000Y-129797000D01*
X129787000Y-129796000D01*
X129785000Y-129796000D01*
X129782000Y-129795000D01*
X129780000Y-129794000D01*
X129777000Y-129793000D01*
X129775000Y-129791000D01*
X129773000Y-129790000D01*
X129771000Y-129788000D01*
X129769000Y-129787000D01*
X129767000Y-129785000D01*
X129765000Y-129783000D01*
X129763000Y-129781000D01*
X129761000Y-129779000D01*
X129760000Y-129777000D01*
X129758000Y-129775000D01*
X129757000Y-129773000D01*
X129755000Y-129771000D01*
X129754000Y-129768000D01*
X129753000Y-129766000D01*
X129752000Y-129763000D01*
X129752000Y-129761000D01*
X129751000Y-129758000D01*
X129751000Y-129756000D01*
X129750000Y-129753000D01*
X129750000Y-129751000D01*
X129750000Y-129748000D01*
X129750000Y-129598000D01*
X129750000Y-129595000D01*
X129750000Y-129593000D01*
X129751000Y-129590000D01*
X129751000Y-129588000D01*
X129752000Y-129585000D01*
X129752000Y-129583000D01*
X129753000Y-129580000D01*
X129754000Y-129578000D01*
X129755000Y-129575000D01*
X129757000Y-129573000D01*
X129758000Y-129571000D01*
X129760000Y-129569000D01*
X129761000Y-129567000D01*
X129763000Y-129565000D01*
X129765000Y-129563000D01*
X129767000Y-129561000D01*
X129769000Y-129559000D01*
X129771000Y-129558000D01*
X129773000Y-129556000D01*
X129775000Y-129555000D01*
X129777000Y-129553000D01*
X129780000Y-129552000D01*
X129782000Y-129551000D01*
X129785000Y-129550000D01*
X129787000Y-129550000D01*
X129790000Y-129549000D01*
X129792000Y-129549000D01*
X129795000Y-129548000D01*
X129797000Y-129548000D01*
X129800000Y-129548000D01*
X131150000Y-129548000D01*
X131153000Y-129548000D01*
X131155000Y-129548000D01*
X131158000Y-129549000D01*
G36*
X131158000Y-129549000D02*
G01*
X131160000Y-129549000D01*
X131163000Y-129550000D01*
X131165000Y-129550000D01*
X131168000Y-129551000D01*
X131170000Y-129552000D01*
X131173000Y-129553000D01*
X131175000Y-129555000D01*
X131177000Y-129556000D01*
X131179000Y-129558000D01*
X131181000Y-129559000D01*
X131183000Y-129561000D01*
X131185000Y-129563000D01*
X131187000Y-129565000D01*
X131189000Y-129567000D01*
X131190000Y-129569000D01*
X131192000Y-129571000D01*
X131193000Y-129573000D01*
X131195000Y-129575000D01*
X131196000Y-129578000D01*
X131197000Y-129580000D01*
X131198000Y-129583000D01*
X131198000Y-129585000D01*
X131199000Y-129588000D01*
X131199000Y-129590000D01*
X131200000Y-129593000D01*
X131200000Y-129595000D01*
X131200000Y-129598000D01*
X131200000Y-129748000D01*
X131200000Y-129751000D01*
X131200000Y-129753000D01*
X131199000Y-129756000D01*
X131199000Y-129758000D01*
X131198000Y-129761000D01*
X131198000Y-129763000D01*
X131197000Y-129766000D01*
X131196000Y-129768000D01*
X131195000Y-129771000D01*
X131193000Y-129773000D01*
X131192000Y-129775000D01*
X131190000Y-129777000D01*
X131189000Y-129779000D01*
X131187000Y-129781000D01*
X131185000Y-129783000D01*
X131183000Y-129785000D01*
X131181000Y-129787000D01*
X131179000Y-129788000D01*
X131177000Y-129790000D01*
X131175000Y-129791000D01*
X131173000Y-129793000D01*
X131170000Y-129794000D01*
X131168000Y-129795000D01*
X131165000Y-129796000D01*
X131163000Y-129796000D01*
X131160000Y-129797000D01*
X131158000Y-129797000D01*
X131155000Y-129798000D01*
X131153000Y-129798000D01*
X131150000Y-129798000D01*
X129800000Y-129798000D01*
X129797000Y-129798000D01*
X129795000Y-129798000D01*
X129792000Y-129797000D01*
X129790000Y-129797000D01*
X129787000Y-129796000D01*
X129785000Y-129796000D01*
X129782000Y-129795000D01*
X129780000Y-129794000D01*
X129777000Y-129793000D01*
X129775000Y-129791000D01*
X129773000Y-129790000D01*
X129771000Y-129788000D01*
X129769000Y-129787000D01*
X129767000Y-129785000D01*
X129765000Y-129783000D01*
X129763000Y-129781000D01*
X129761000Y-129779000D01*
X129760000Y-129777000D01*
X129758000Y-129775000D01*
X129757000Y-129773000D01*
X129755000Y-129771000D01*
X129754000Y-129768000D01*
X129753000Y-129766000D01*
X129752000Y-129763000D01*
X129752000Y-129761000D01*
X129751000Y-129758000D01*
X129751000Y-129756000D01*
X129750000Y-129753000D01*
X129750000Y-129751000D01*
X129750000Y-129748000D01*
X129750000Y-129598000D01*
X129750000Y-129595000D01*
X129750000Y-129593000D01*
X129751000Y-129590000D01*
X129751000Y-129588000D01*
X129752000Y-129585000D01*
X129752000Y-129583000D01*
X129753000Y-129580000D01*
X129754000Y-129578000D01*
X129755000Y-129575000D01*
X129757000Y-129573000D01*
X129758000Y-129571000D01*
X129760000Y-129569000D01*
X129761000Y-129567000D01*
X129763000Y-129565000D01*
X129765000Y-129563000D01*
X129767000Y-129561000D01*
X129769000Y-129559000D01*
X129771000Y-129558000D01*
X129773000Y-129556000D01*
X129775000Y-129555000D01*
X129777000Y-129553000D01*
X129780000Y-129552000D01*
X129782000Y-129551000D01*
X129785000Y-129550000D01*
X129787000Y-129550000D01*
X129790000Y-129549000D01*
X129792000Y-129549000D01*
X129795000Y-129548000D01*
X129797000Y-129548000D01*
X129800000Y-129548000D01*
X131150000Y-129548000D01*
X131153000Y-129548000D01*
X131155000Y-129548000D01*
X131158000Y-129549000D01*
G37*
X130108000Y-128774000D02*
X130110000Y-128774000D01*
X130113000Y-128775000D01*
X130115000Y-128775000D01*
X130118000Y-128776000D01*
X130120000Y-128777000D01*
X130123000Y-128778000D01*
X130125000Y-128780000D01*
X130127000Y-128781000D01*
X130129000Y-128783000D01*
X130131000Y-128784000D01*
X130133000Y-128786000D01*
X130135000Y-128788000D01*
X130137000Y-128790000D01*
X130139000Y-128792000D01*
X130140000Y-128794000D01*
X130142000Y-128796000D01*
X130143000Y-128798000D01*
X130145000Y-128800000D01*
X130146000Y-128803000D01*
X130147000Y-128805000D01*
X130148000Y-128808000D01*
X130148000Y-128810000D01*
X130149000Y-128813000D01*
X130149000Y-128815000D01*
X130150000Y-128818000D01*
X130150000Y-128820000D01*
X130150000Y-128823000D01*
X130150000Y-128923000D01*
X130150000Y-128926000D01*
X130150000Y-128928000D01*
X130149000Y-128931000D01*
X130149000Y-128933000D01*
X130148000Y-128936000D01*
X130148000Y-128938000D01*
X130147000Y-128941000D01*
X130146000Y-128943000D01*
X130145000Y-128946000D01*
X130143000Y-128948000D01*
X130142000Y-128950000D01*
X130140000Y-128952000D01*
X130139000Y-128954000D01*
X130137000Y-128956000D01*
X130135000Y-128958000D01*
X130133000Y-128960000D01*
X130131000Y-128962000D01*
X130129000Y-128963000D01*
X130127000Y-128965000D01*
X130125000Y-128966000D01*
X130123000Y-128968000D01*
X130120000Y-128969000D01*
X130118000Y-128970000D01*
X130115000Y-128971000D01*
X130113000Y-128971000D01*
X130110000Y-128972000D01*
X130108000Y-128972000D01*
X130105000Y-128973000D01*
X130103000Y-128973000D01*
X130100000Y-128973000D01*
X129800000Y-128973000D01*
X129797000Y-128973000D01*
X129795000Y-128973000D01*
X129792000Y-128972000D01*
X129790000Y-128972000D01*
X129787000Y-128971000D01*
X129785000Y-128971000D01*
X129782000Y-128970000D01*
X129780000Y-128969000D01*
X129777000Y-128968000D01*
X129775000Y-128966000D01*
X129773000Y-128965000D01*
X129771000Y-128963000D01*
X129769000Y-128962000D01*
X129767000Y-128960000D01*
X129765000Y-128958000D01*
X129763000Y-128956000D01*
X129761000Y-128954000D01*
X129760000Y-128952000D01*
X129758000Y-128950000D01*
X129757000Y-128948000D01*
X129755000Y-128946000D01*
X129754000Y-128943000D01*
X129753000Y-128941000D01*
X129752000Y-128938000D01*
X129752000Y-128936000D01*
X129751000Y-128933000D01*
X129751000Y-128931000D01*
X129750000Y-128928000D01*
X129750000Y-128926000D01*
X129750000Y-128923000D01*
X129750000Y-128823000D01*
X129750000Y-128820000D01*
X129750000Y-128818000D01*
X129751000Y-128815000D01*
X129751000Y-128813000D01*
X129752000Y-128810000D01*
X129752000Y-128808000D01*
X129753000Y-128805000D01*
X129754000Y-128803000D01*
X129755000Y-128800000D01*
X129757000Y-128798000D01*
X129758000Y-128796000D01*
X129760000Y-128794000D01*
X129761000Y-128792000D01*
X129763000Y-128790000D01*
X129765000Y-128788000D01*
X129767000Y-128786000D01*
X129769000Y-128784000D01*
X129771000Y-128783000D01*
X129773000Y-128781000D01*
X129775000Y-128780000D01*
X129777000Y-128778000D01*
X129780000Y-128777000D01*
X129782000Y-128776000D01*
X129785000Y-128775000D01*
X129787000Y-128775000D01*
X129790000Y-128774000D01*
X129792000Y-128774000D01*
X129795000Y-128773000D01*
X129797000Y-128773000D01*
X129800000Y-128773000D01*
X130100000Y-128773000D01*
X130103000Y-128773000D01*
X130105000Y-128773000D01*
X130108000Y-128774000D01*
G36*
X130108000Y-128774000D02*
G01*
X130110000Y-128774000D01*
X130113000Y-128775000D01*
X130115000Y-128775000D01*
X130118000Y-128776000D01*
X130120000Y-128777000D01*
X130123000Y-128778000D01*
X130125000Y-128780000D01*
X130127000Y-128781000D01*
X130129000Y-128783000D01*
X130131000Y-128784000D01*
X130133000Y-128786000D01*
X130135000Y-128788000D01*
X130137000Y-128790000D01*
X130139000Y-128792000D01*
X130140000Y-128794000D01*
X130142000Y-128796000D01*
X130143000Y-128798000D01*
X130145000Y-128800000D01*
X130146000Y-128803000D01*
X130147000Y-128805000D01*
X130148000Y-128808000D01*
X130148000Y-128810000D01*
X130149000Y-128813000D01*
X130149000Y-128815000D01*
X130150000Y-128818000D01*
X130150000Y-128820000D01*
X130150000Y-128823000D01*
X130150000Y-128923000D01*
X130150000Y-128926000D01*
X130150000Y-128928000D01*
X130149000Y-128931000D01*
X130149000Y-128933000D01*
X130148000Y-128936000D01*
X130148000Y-128938000D01*
X130147000Y-128941000D01*
X130146000Y-128943000D01*
X130145000Y-128946000D01*
X130143000Y-128948000D01*
X130142000Y-128950000D01*
X130140000Y-128952000D01*
X130139000Y-128954000D01*
X130137000Y-128956000D01*
X130135000Y-128958000D01*
X130133000Y-128960000D01*
X130131000Y-128962000D01*
X130129000Y-128963000D01*
X130127000Y-128965000D01*
X130125000Y-128966000D01*
X130123000Y-128968000D01*
X130120000Y-128969000D01*
X130118000Y-128970000D01*
X130115000Y-128971000D01*
X130113000Y-128971000D01*
X130110000Y-128972000D01*
X130108000Y-128972000D01*
X130105000Y-128973000D01*
X130103000Y-128973000D01*
X130100000Y-128973000D01*
X129800000Y-128973000D01*
X129797000Y-128973000D01*
X129795000Y-128973000D01*
X129792000Y-128972000D01*
X129790000Y-128972000D01*
X129787000Y-128971000D01*
X129785000Y-128971000D01*
X129782000Y-128970000D01*
X129780000Y-128969000D01*
X129777000Y-128968000D01*
X129775000Y-128966000D01*
X129773000Y-128965000D01*
X129771000Y-128963000D01*
X129769000Y-128962000D01*
X129767000Y-128960000D01*
X129765000Y-128958000D01*
X129763000Y-128956000D01*
X129761000Y-128954000D01*
X129760000Y-128952000D01*
X129758000Y-128950000D01*
X129757000Y-128948000D01*
X129755000Y-128946000D01*
X129754000Y-128943000D01*
X129753000Y-128941000D01*
X129752000Y-128938000D01*
X129752000Y-128936000D01*
X129751000Y-128933000D01*
X129751000Y-128931000D01*
X129750000Y-128928000D01*
X129750000Y-128926000D01*
X129750000Y-128923000D01*
X129750000Y-128823000D01*
X129750000Y-128820000D01*
X129750000Y-128818000D01*
X129751000Y-128815000D01*
X129751000Y-128813000D01*
X129752000Y-128810000D01*
X129752000Y-128808000D01*
X129753000Y-128805000D01*
X129754000Y-128803000D01*
X129755000Y-128800000D01*
X129757000Y-128798000D01*
X129758000Y-128796000D01*
X129760000Y-128794000D01*
X129761000Y-128792000D01*
X129763000Y-128790000D01*
X129765000Y-128788000D01*
X129767000Y-128786000D01*
X129769000Y-128784000D01*
X129771000Y-128783000D01*
X129773000Y-128781000D01*
X129775000Y-128780000D01*
X129777000Y-128778000D01*
X129780000Y-128777000D01*
X129782000Y-128776000D01*
X129785000Y-128775000D01*
X129787000Y-128775000D01*
X129790000Y-128774000D01*
X129792000Y-128774000D01*
X129795000Y-128773000D01*
X129797000Y-128773000D01*
X129800000Y-128773000D01*
X130100000Y-128773000D01*
X130103000Y-128773000D01*
X130105000Y-128773000D01*
X130108000Y-128774000D01*
G37*
X130108000Y-130149000D02*
X130110000Y-130149000D01*
X130113000Y-130150000D01*
X130115000Y-130150000D01*
X130118000Y-130151000D01*
X130120000Y-130152000D01*
X130123000Y-130153000D01*
X130125000Y-130155000D01*
X130127000Y-130156000D01*
X130129000Y-130158000D01*
X130131000Y-130159000D01*
X130133000Y-130161000D01*
X130135000Y-130163000D01*
X130137000Y-130165000D01*
X130139000Y-130167000D01*
X130140000Y-130169000D01*
X130142000Y-130171000D01*
X130143000Y-130173000D01*
X130145000Y-130175000D01*
X130146000Y-130178000D01*
X130147000Y-130180000D01*
X130148000Y-130183000D01*
X130148000Y-130185000D01*
X130149000Y-130188000D01*
X130149000Y-130190000D01*
X130150000Y-130193000D01*
X130150000Y-130195000D01*
X130150000Y-130198000D01*
X130150000Y-130298000D01*
X130150000Y-130301000D01*
X130150000Y-130303000D01*
X130149000Y-130306000D01*
X130149000Y-130308000D01*
X130148000Y-130311000D01*
X130148000Y-130313000D01*
X130147000Y-130316000D01*
X130146000Y-130318000D01*
X130145000Y-130321000D01*
X130143000Y-130323000D01*
X130142000Y-130325000D01*
X130140000Y-130327000D01*
X130139000Y-130329000D01*
X130137000Y-130331000D01*
X130135000Y-130333000D01*
X130133000Y-130335000D01*
X130131000Y-130337000D01*
X130129000Y-130338000D01*
X130127000Y-130340000D01*
X130125000Y-130341000D01*
X130123000Y-130343000D01*
X130120000Y-130344000D01*
X130118000Y-130345000D01*
X130115000Y-130346000D01*
X130113000Y-130346000D01*
X130110000Y-130347000D01*
X130108000Y-130347000D01*
X130105000Y-130348000D01*
X130103000Y-130348000D01*
X130100000Y-130348000D01*
X129800000Y-130348000D01*
X129797000Y-130348000D01*
X129795000Y-130348000D01*
X129792000Y-130347000D01*
X129790000Y-130347000D01*
X129787000Y-130346000D01*
X129785000Y-130346000D01*
X129782000Y-130345000D01*
X129780000Y-130344000D01*
X129777000Y-130343000D01*
X129775000Y-130341000D01*
X129773000Y-130340000D01*
X129771000Y-130338000D01*
X129769000Y-130337000D01*
X129767000Y-130335000D01*
X129765000Y-130333000D01*
X129763000Y-130331000D01*
X129761000Y-130329000D01*
X129760000Y-130327000D01*
X129758000Y-130325000D01*
X129757000Y-130323000D01*
X129755000Y-130321000D01*
X129754000Y-130318000D01*
X129753000Y-130316000D01*
X129752000Y-130313000D01*
X129752000Y-130311000D01*
X129751000Y-130308000D01*
X129751000Y-130306000D01*
X129750000Y-130303000D01*
X129750000Y-130301000D01*
X129750000Y-130298000D01*
X129750000Y-130198000D01*
X129750000Y-130195000D01*
X129750000Y-130193000D01*
X129751000Y-130190000D01*
X129751000Y-130188000D01*
X129752000Y-130185000D01*
X129752000Y-130183000D01*
X129753000Y-130180000D01*
X129754000Y-130178000D01*
X129755000Y-130175000D01*
X129757000Y-130173000D01*
X129758000Y-130171000D01*
X129760000Y-130169000D01*
X129761000Y-130167000D01*
X129763000Y-130165000D01*
X129765000Y-130163000D01*
X129767000Y-130161000D01*
X129769000Y-130159000D01*
X129771000Y-130158000D01*
X129773000Y-130156000D01*
X129775000Y-130155000D01*
X129777000Y-130153000D01*
X129780000Y-130152000D01*
X129782000Y-130151000D01*
X129785000Y-130150000D01*
X129787000Y-130150000D01*
X129790000Y-130149000D01*
X129792000Y-130149000D01*
X129795000Y-130148000D01*
X129797000Y-130148000D01*
X129800000Y-130148000D01*
X130100000Y-130148000D01*
X130103000Y-130148000D01*
X130105000Y-130148000D01*
X130108000Y-130149000D01*
G36*
X130108000Y-130149000D02*
G01*
X130110000Y-130149000D01*
X130113000Y-130150000D01*
X130115000Y-130150000D01*
X130118000Y-130151000D01*
X130120000Y-130152000D01*
X130123000Y-130153000D01*
X130125000Y-130155000D01*
X130127000Y-130156000D01*
X130129000Y-130158000D01*
X130131000Y-130159000D01*
X130133000Y-130161000D01*
X130135000Y-130163000D01*
X130137000Y-130165000D01*
X130139000Y-130167000D01*
X130140000Y-130169000D01*
X130142000Y-130171000D01*
X130143000Y-130173000D01*
X130145000Y-130175000D01*
X130146000Y-130178000D01*
X130147000Y-130180000D01*
X130148000Y-130183000D01*
X130148000Y-130185000D01*
X130149000Y-130188000D01*
X130149000Y-130190000D01*
X130150000Y-130193000D01*
X130150000Y-130195000D01*
X130150000Y-130198000D01*
X130150000Y-130298000D01*
X130150000Y-130301000D01*
X130150000Y-130303000D01*
X130149000Y-130306000D01*
X130149000Y-130308000D01*
X130148000Y-130311000D01*
X130148000Y-130313000D01*
X130147000Y-130316000D01*
X130146000Y-130318000D01*
X130145000Y-130321000D01*
X130143000Y-130323000D01*
X130142000Y-130325000D01*
X130140000Y-130327000D01*
X130139000Y-130329000D01*
X130137000Y-130331000D01*
X130135000Y-130333000D01*
X130133000Y-130335000D01*
X130131000Y-130337000D01*
X130129000Y-130338000D01*
X130127000Y-130340000D01*
X130125000Y-130341000D01*
X130123000Y-130343000D01*
X130120000Y-130344000D01*
X130118000Y-130345000D01*
X130115000Y-130346000D01*
X130113000Y-130346000D01*
X130110000Y-130347000D01*
X130108000Y-130347000D01*
X130105000Y-130348000D01*
X130103000Y-130348000D01*
X130100000Y-130348000D01*
X129800000Y-130348000D01*
X129797000Y-130348000D01*
X129795000Y-130348000D01*
X129792000Y-130347000D01*
X129790000Y-130347000D01*
X129787000Y-130346000D01*
X129785000Y-130346000D01*
X129782000Y-130345000D01*
X129780000Y-130344000D01*
X129777000Y-130343000D01*
X129775000Y-130341000D01*
X129773000Y-130340000D01*
X129771000Y-130338000D01*
X129769000Y-130337000D01*
X129767000Y-130335000D01*
X129765000Y-130333000D01*
X129763000Y-130331000D01*
X129761000Y-130329000D01*
X129760000Y-130327000D01*
X129758000Y-130325000D01*
X129757000Y-130323000D01*
X129755000Y-130321000D01*
X129754000Y-130318000D01*
X129753000Y-130316000D01*
X129752000Y-130313000D01*
X129752000Y-130311000D01*
X129751000Y-130308000D01*
X129751000Y-130306000D01*
X129750000Y-130303000D01*
X129750000Y-130301000D01*
X129750000Y-130298000D01*
X129750000Y-130198000D01*
X129750000Y-130195000D01*
X129750000Y-130193000D01*
X129751000Y-130190000D01*
X129751000Y-130188000D01*
X129752000Y-130185000D01*
X129752000Y-130183000D01*
X129753000Y-130180000D01*
X129754000Y-130178000D01*
X129755000Y-130175000D01*
X129757000Y-130173000D01*
X129758000Y-130171000D01*
X129760000Y-130169000D01*
X129761000Y-130167000D01*
X129763000Y-130165000D01*
X129765000Y-130163000D01*
X129767000Y-130161000D01*
X129769000Y-130159000D01*
X129771000Y-130158000D01*
X129773000Y-130156000D01*
X129775000Y-130155000D01*
X129777000Y-130153000D01*
X129780000Y-130152000D01*
X129782000Y-130151000D01*
X129785000Y-130150000D01*
X129787000Y-130150000D01*
X129790000Y-130149000D01*
X129792000Y-130149000D01*
X129795000Y-130148000D01*
X129797000Y-130148000D01*
X129800000Y-130148000D01*
X130100000Y-130148000D01*
X130103000Y-130148000D01*
X130105000Y-130148000D01*
X130108000Y-130149000D01*
G37*
X130108000Y-130649000D02*
X130110000Y-130649000D01*
X130113000Y-130650000D01*
X130115000Y-130650000D01*
X130118000Y-130651000D01*
X130120000Y-130652000D01*
X130123000Y-130653000D01*
X130125000Y-130655000D01*
X130127000Y-130656000D01*
X130129000Y-130658000D01*
X130131000Y-130659000D01*
X130133000Y-130661000D01*
X130135000Y-130663000D01*
X130137000Y-130665000D01*
X130139000Y-130667000D01*
X130140000Y-130669000D01*
X130142000Y-130671000D01*
X130143000Y-130673000D01*
X130145000Y-130675000D01*
X130146000Y-130678000D01*
X130147000Y-130680000D01*
X130148000Y-130683000D01*
X130148000Y-130685000D01*
X130149000Y-130688000D01*
X130149000Y-130690000D01*
X130150000Y-130693000D01*
X130150000Y-130695000D01*
X130150000Y-130698000D01*
X130150000Y-130798000D01*
X130150000Y-130801000D01*
X130150000Y-130803000D01*
X130149000Y-130806000D01*
X130149000Y-130808000D01*
X130148000Y-130811000D01*
X130148000Y-130813000D01*
X130147000Y-130816000D01*
X130146000Y-130818000D01*
X130145000Y-130821000D01*
X130143000Y-130823000D01*
X130142000Y-130825000D01*
X130140000Y-130827000D01*
X130139000Y-130829000D01*
X130137000Y-130831000D01*
X130135000Y-130833000D01*
X130133000Y-130835000D01*
X130131000Y-130837000D01*
X130129000Y-130838000D01*
X130127000Y-130840000D01*
X130125000Y-130841000D01*
X130123000Y-130843000D01*
X130120000Y-130844000D01*
X130118000Y-130845000D01*
X130115000Y-130846000D01*
X130113000Y-130846000D01*
X130110000Y-130847000D01*
X130108000Y-130847000D01*
X130105000Y-130848000D01*
X130103000Y-130848000D01*
X130100000Y-130848000D01*
X129800000Y-130848000D01*
X129797000Y-130848000D01*
X129795000Y-130848000D01*
X129792000Y-130847000D01*
X129790000Y-130847000D01*
X129787000Y-130846000D01*
X129785000Y-130846000D01*
X129782000Y-130845000D01*
X129780000Y-130844000D01*
X129777000Y-130843000D01*
X129775000Y-130841000D01*
X129773000Y-130840000D01*
X129771000Y-130838000D01*
X129769000Y-130837000D01*
X129767000Y-130835000D01*
X129765000Y-130833000D01*
X129763000Y-130831000D01*
X129761000Y-130829000D01*
X129760000Y-130827000D01*
X129758000Y-130825000D01*
X129757000Y-130823000D01*
X129755000Y-130821000D01*
X129754000Y-130818000D01*
X129753000Y-130816000D01*
X129752000Y-130813000D01*
X129752000Y-130811000D01*
X129751000Y-130808000D01*
X129751000Y-130806000D01*
X129750000Y-130803000D01*
X129750000Y-130801000D01*
X129750000Y-130798000D01*
X129750000Y-130698000D01*
X129750000Y-130695000D01*
X129750000Y-130693000D01*
X129751000Y-130690000D01*
X129751000Y-130688000D01*
X129752000Y-130685000D01*
X129752000Y-130683000D01*
X129753000Y-130680000D01*
X129754000Y-130678000D01*
X129755000Y-130675000D01*
X129757000Y-130673000D01*
X129758000Y-130671000D01*
X129760000Y-130669000D01*
X129761000Y-130667000D01*
X129763000Y-130665000D01*
X129765000Y-130663000D01*
X129767000Y-130661000D01*
X129769000Y-130659000D01*
X129771000Y-130658000D01*
X129773000Y-130656000D01*
X129775000Y-130655000D01*
X129777000Y-130653000D01*
X129780000Y-130652000D01*
X129782000Y-130651000D01*
X129785000Y-130650000D01*
X129787000Y-130650000D01*
X129790000Y-130649000D01*
X129792000Y-130649000D01*
X129795000Y-130648000D01*
X129797000Y-130648000D01*
X129800000Y-130648000D01*
X130100000Y-130648000D01*
X130103000Y-130648000D01*
X130105000Y-130648000D01*
X130108000Y-130649000D01*
G36*
X130108000Y-130649000D02*
G01*
X130110000Y-130649000D01*
X130113000Y-130650000D01*
X130115000Y-130650000D01*
X130118000Y-130651000D01*
X130120000Y-130652000D01*
X130123000Y-130653000D01*
X130125000Y-130655000D01*
X130127000Y-130656000D01*
X130129000Y-130658000D01*
X130131000Y-130659000D01*
X130133000Y-130661000D01*
X130135000Y-130663000D01*
X130137000Y-130665000D01*
X130139000Y-130667000D01*
X130140000Y-130669000D01*
X130142000Y-130671000D01*
X130143000Y-130673000D01*
X130145000Y-130675000D01*
X130146000Y-130678000D01*
X130147000Y-130680000D01*
X130148000Y-130683000D01*
X130148000Y-130685000D01*
X130149000Y-130688000D01*
X130149000Y-130690000D01*
X130150000Y-130693000D01*
X130150000Y-130695000D01*
X130150000Y-130698000D01*
X130150000Y-130798000D01*
X130150000Y-130801000D01*
X130150000Y-130803000D01*
X130149000Y-130806000D01*
X130149000Y-130808000D01*
X130148000Y-130811000D01*
X130148000Y-130813000D01*
X130147000Y-130816000D01*
X130146000Y-130818000D01*
X130145000Y-130821000D01*
X130143000Y-130823000D01*
X130142000Y-130825000D01*
X130140000Y-130827000D01*
X130139000Y-130829000D01*
X130137000Y-130831000D01*
X130135000Y-130833000D01*
X130133000Y-130835000D01*
X130131000Y-130837000D01*
X130129000Y-130838000D01*
X130127000Y-130840000D01*
X130125000Y-130841000D01*
X130123000Y-130843000D01*
X130120000Y-130844000D01*
X130118000Y-130845000D01*
X130115000Y-130846000D01*
X130113000Y-130846000D01*
X130110000Y-130847000D01*
X130108000Y-130847000D01*
X130105000Y-130848000D01*
X130103000Y-130848000D01*
X130100000Y-130848000D01*
X129800000Y-130848000D01*
X129797000Y-130848000D01*
X129795000Y-130848000D01*
X129792000Y-130847000D01*
X129790000Y-130847000D01*
X129787000Y-130846000D01*
X129785000Y-130846000D01*
X129782000Y-130845000D01*
X129780000Y-130844000D01*
X129777000Y-130843000D01*
X129775000Y-130841000D01*
X129773000Y-130840000D01*
X129771000Y-130838000D01*
X129769000Y-130837000D01*
X129767000Y-130835000D01*
X129765000Y-130833000D01*
X129763000Y-130831000D01*
X129761000Y-130829000D01*
X129760000Y-130827000D01*
X129758000Y-130825000D01*
X129757000Y-130823000D01*
X129755000Y-130821000D01*
X129754000Y-130818000D01*
X129753000Y-130816000D01*
X129752000Y-130813000D01*
X129752000Y-130811000D01*
X129751000Y-130808000D01*
X129751000Y-130806000D01*
X129750000Y-130803000D01*
X129750000Y-130801000D01*
X129750000Y-130798000D01*
X129750000Y-130698000D01*
X129750000Y-130695000D01*
X129750000Y-130693000D01*
X129751000Y-130690000D01*
X129751000Y-130688000D01*
X129752000Y-130685000D01*
X129752000Y-130683000D01*
X129753000Y-130680000D01*
X129754000Y-130678000D01*
X129755000Y-130675000D01*
X129757000Y-130673000D01*
X129758000Y-130671000D01*
X129760000Y-130669000D01*
X129761000Y-130667000D01*
X129763000Y-130665000D01*
X129765000Y-130663000D01*
X129767000Y-130661000D01*
X129769000Y-130659000D01*
X129771000Y-130658000D01*
X129773000Y-130656000D01*
X129775000Y-130655000D01*
X129777000Y-130653000D01*
X129780000Y-130652000D01*
X129782000Y-130651000D01*
X129785000Y-130650000D01*
X129787000Y-130650000D01*
X129790000Y-130649000D01*
X129792000Y-130649000D01*
X129795000Y-130648000D01*
X129797000Y-130648000D01*
X129800000Y-130648000D01*
X130100000Y-130648000D01*
X130103000Y-130648000D01*
X130105000Y-130648000D01*
X130108000Y-130649000D01*
G37*
X131248000Y-128524000D02*
X131250000Y-128524000D01*
X131253000Y-128525000D01*
X131255000Y-128525000D01*
X131258000Y-128526000D01*
X131260000Y-128527000D01*
X131263000Y-128528000D01*
X131265000Y-128530000D01*
X131267000Y-128531000D01*
X131269000Y-128533000D01*
X131271000Y-128534000D01*
X131273000Y-128536000D01*
X131275000Y-128538000D01*
X131277000Y-128540000D01*
X131279000Y-128542000D01*
X131280000Y-128544000D01*
X131282000Y-128546000D01*
X131283000Y-128548000D01*
X131285000Y-128550000D01*
X131286000Y-128553000D01*
X131287000Y-128555000D01*
X131288000Y-128558000D01*
X131288000Y-128560000D01*
X131289000Y-128563000D01*
X131289000Y-128565000D01*
X131290000Y-128568000D01*
X131290000Y-128570000D01*
X131290000Y-128573000D01*
X131290000Y-129053000D01*
X131290000Y-129056000D01*
X131290000Y-129058000D01*
X131289000Y-129061000D01*
X131289000Y-129063000D01*
X131288000Y-129066000D01*
X131288000Y-129068000D01*
X131287000Y-129071000D01*
X131286000Y-129073000D01*
X131285000Y-129076000D01*
X131283000Y-129078000D01*
X131282000Y-129080000D01*
X131280000Y-129082000D01*
X131279000Y-129084000D01*
X131277000Y-129086000D01*
X131275000Y-129088000D01*
X131273000Y-129090000D01*
X131271000Y-129092000D01*
X131269000Y-129093000D01*
X131267000Y-129095000D01*
X131265000Y-129096000D01*
X131263000Y-129098000D01*
X131260000Y-129099000D01*
X131258000Y-129100000D01*
X131255000Y-129101000D01*
X131253000Y-129101000D01*
X131250000Y-129102000D01*
X131248000Y-129102000D01*
X131245000Y-129103000D01*
X131243000Y-129103000D01*
X131240000Y-129103000D01*
X130400000Y-129103000D01*
X130397000Y-129103000D01*
X130395000Y-129103000D01*
X130392000Y-129102000D01*
X130390000Y-129102000D01*
X130387000Y-129101000D01*
X130385000Y-129101000D01*
X130382000Y-129100000D01*
X130380000Y-129099000D01*
X130377000Y-129098000D01*
X130375000Y-129096000D01*
X130373000Y-129095000D01*
X130371000Y-129093000D01*
X130369000Y-129092000D01*
X130367000Y-129090000D01*
X130365000Y-129088000D01*
X130363000Y-129086000D01*
X130361000Y-129084000D01*
X130360000Y-129082000D01*
X130358000Y-129080000D01*
X130357000Y-129078000D01*
X130355000Y-129076000D01*
X130354000Y-129073000D01*
X130353000Y-129071000D01*
X130352000Y-129068000D01*
X130352000Y-129066000D01*
X130351000Y-129063000D01*
X130351000Y-129061000D01*
X130350000Y-129058000D01*
X130350000Y-129056000D01*
X130350000Y-129053000D01*
X130350000Y-128573000D01*
X130350000Y-128570000D01*
X130350000Y-128568000D01*
X130351000Y-128565000D01*
X130351000Y-128563000D01*
X130352000Y-128560000D01*
X130352000Y-128558000D01*
X130353000Y-128555000D01*
X130354000Y-128553000D01*
X130355000Y-128550000D01*
X130357000Y-128548000D01*
X130358000Y-128546000D01*
X130360000Y-128544000D01*
X130361000Y-128542000D01*
X130363000Y-128540000D01*
X130365000Y-128538000D01*
X130367000Y-128536000D01*
X130369000Y-128534000D01*
X130371000Y-128533000D01*
X130373000Y-128531000D01*
X130375000Y-128530000D01*
X130377000Y-128528000D01*
X130380000Y-128527000D01*
X130382000Y-128526000D01*
X130385000Y-128525000D01*
X130387000Y-128525000D01*
X130390000Y-128524000D01*
X130392000Y-128524000D01*
X130395000Y-128523000D01*
X130397000Y-128523000D01*
X130400000Y-128523000D01*
X131240000Y-128523000D01*
X131243000Y-128523000D01*
X131245000Y-128523000D01*
X131248000Y-128524000D01*
G36*
X131248000Y-128524000D02*
G01*
X131250000Y-128524000D01*
X131253000Y-128525000D01*
X131255000Y-128525000D01*
X131258000Y-128526000D01*
X131260000Y-128527000D01*
X131263000Y-128528000D01*
X131265000Y-128530000D01*
X131267000Y-128531000D01*
X131269000Y-128533000D01*
X131271000Y-128534000D01*
X131273000Y-128536000D01*
X131275000Y-128538000D01*
X131277000Y-128540000D01*
X131279000Y-128542000D01*
X131280000Y-128544000D01*
X131282000Y-128546000D01*
X131283000Y-128548000D01*
X131285000Y-128550000D01*
X131286000Y-128553000D01*
X131287000Y-128555000D01*
X131288000Y-128558000D01*
X131288000Y-128560000D01*
X131289000Y-128563000D01*
X131289000Y-128565000D01*
X131290000Y-128568000D01*
X131290000Y-128570000D01*
X131290000Y-128573000D01*
X131290000Y-129053000D01*
X131290000Y-129056000D01*
X131290000Y-129058000D01*
X131289000Y-129061000D01*
X131289000Y-129063000D01*
X131288000Y-129066000D01*
X131288000Y-129068000D01*
X131287000Y-129071000D01*
X131286000Y-129073000D01*
X131285000Y-129076000D01*
X131283000Y-129078000D01*
X131282000Y-129080000D01*
X131280000Y-129082000D01*
X131279000Y-129084000D01*
X131277000Y-129086000D01*
X131275000Y-129088000D01*
X131273000Y-129090000D01*
X131271000Y-129092000D01*
X131269000Y-129093000D01*
X131267000Y-129095000D01*
X131265000Y-129096000D01*
X131263000Y-129098000D01*
X131260000Y-129099000D01*
X131258000Y-129100000D01*
X131255000Y-129101000D01*
X131253000Y-129101000D01*
X131250000Y-129102000D01*
X131248000Y-129102000D01*
X131245000Y-129103000D01*
X131243000Y-129103000D01*
X131240000Y-129103000D01*
X130400000Y-129103000D01*
X130397000Y-129103000D01*
X130395000Y-129103000D01*
X130392000Y-129102000D01*
X130390000Y-129102000D01*
X130387000Y-129101000D01*
X130385000Y-129101000D01*
X130382000Y-129100000D01*
X130380000Y-129099000D01*
X130377000Y-129098000D01*
X130375000Y-129096000D01*
X130373000Y-129095000D01*
X130371000Y-129093000D01*
X130369000Y-129092000D01*
X130367000Y-129090000D01*
X130365000Y-129088000D01*
X130363000Y-129086000D01*
X130361000Y-129084000D01*
X130360000Y-129082000D01*
X130358000Y-129080000D01*
X130357000Y-129078000D01*
X130355000Y-129076000D01*
X130354000Y-129073000D01*
X130353000Y-129071000D01*
X130352000Y-129068000D01*
X130352000Y-129066000D01*
X130351000Y-129063000D01*
X130351000Y-129061000D01*
X130350000Y-129058000D01*
X130350000Y-129056000D01*
X130350000Y-129053000D01*
X130350000Y-128573000D01*
X130350000Y-128570000D01*
X130350000Y-128568000D01*
X130351000Y-128565000D01*
X130351000Y-128563000D01*
X130352000Y-128560000D01*
X130352000Y-128558000D01*
X130353000Y-128555000D01*
X130354000Y-128553000D01*
X130355000Y-128550000D01*
X130357000Y-128548000D01*
X130358000Y-128546000D01*
X130360000Y-128544000D01*
X130361000Y-128542000D01*
X130363000Y-128540000D01*
X130365000Y-128538000D01*
X130367000Y-128536000D01*
X130369000Y-128534000D01*
X130371000Y-128533000D01*
X130373000Y-128531000D01*
X130375000Y-128530000D01*
X130377000Y-128528000D01*
X130380000Y-128527000D01*
X130382000Y-128526000D01*
X130385000Y-128525000D01*
X130387000Y-128525000D01*
X130390000Y-128524000D01*
X130392000Y-128524000D01*
X130395000Y-128523000D01*
X130397000Y-128523000D01*
X130400000Y-128523000D01*
X131240000Y-128523000D01*
X131243000Y-128523000D01*
X131245000Y-128523000D01*
X131248000Y-128524000D01*
G37*
X130608000Y-127924000D02*
X130610000Y-127924000D01*
X130613000Y-127925000D01*
X130615000Y-127925000D01*
X130618000Y-127926000D01*
X130620000Y-127927000D01*
X130623000Y-127928000D01*
X130625000Y-127930000D01*
X130627000Y-127931000D01*
X130629000Y-127933000D01*
X130631000Y-127934000D01*
X130633000Y-127936000D01*
X130635000Y-127938000D01*
X130637000Y-127940000D01*
X130639000Y-127942000D01*
X130640000Y-127944000D01*
X130642000Y-127946000D01*
X130643000Y-127948000D01*
X130645000Y-127950000D01*
X130646000Y-127953000D01*
X130647000Y-127955000D01*
X130648000Y-127958000D01*
X130648000Y-127960000D01*
X130649000Y-127963000D01*
X130649000Y-127965000D01*
X130650000Y-127968000D01*
X130650000Y-127970000D01*
X130650000Y-127973000D01*
X130650000Y-128273000D01*
X130650000Y-128276000D01*
X130650000Y-128278000D01*
X130649000Y-128281000D01*
X130649000Y-128283000D01*
X130648000Y-128286000D01*
X130648000Y-128288000D01*
X130647000Y-128291000D01*
X130646000Y-128293000D01*
X130645000Y-128296000D01*
X130643000Y-128298000D01*
X130642000Y-128300000D01*
X130640000Y-128302000D01*
X130639000Y-128304000D01*
X130637000Y-128306000D01*
X130635000Y-128308000D01*
X130633000Y-128310000D01*
X130631000Y-128312000D01*
X130629000Y-128313000D01*
X130627000Y-128315000D01*
X130625000Y-128316000D01*
X130623000Y-128318000D01*
X130620000Y-128319000D01*
X130618000Y-128320000D01*
X130615000Y-128321000D01*
X130613000Y-128321000D01*
X130610000Y-128322000D01*
X130608000Y-128322000D01*
X130605000Y-128323000D01*
X130603000Y-128323000D01*
X130600000Y-128323000D01*
X130500000Y-128323000D01*
X130497000Y-128323000D01*
X130495000Y-128323000D01*
X130492000Y-128322000D01*
X130490000Y-128322000D01*
X130487000Y-128321000D01*
X130485000Y-128321000D01*
X130482000Y-128320000D01*
X130480000Y-128319000D01*
X130477000Y-128318000D01*
X130475000Y-128316000D01*
X130473000Y-128315000D01*
X130471000Y-128313000D01*
X130469000Y-128312000D01*
X130467000Y-128310000D01*
X130465000Y-128308000D01*
X130463000Y-128306000D01*
X130461000Y-128304000D01*
X130460000Y-128302000D01*
X130458000Y-128300000D01*
X130457000Y-128298000D01*
X130455000Y-128296000D01*
X130454000Y-128293000D01*
X130453000Y-128291000D01*
X130452000Y-128288000D01*
X130452000Y-128286000D01*
X130451000Y-128283000D01*
X130451000Y-128281000D01*
X130450000Y-128278000D01*
X130450000Y-128276000D01*
X130450000Y-128273000D01*
X130450000Y-127973000D01*
X130450000Y-127970000D01*
X130450000Y-127968000D01*
X130451000Y-127965000D01*
X130451000Y-127963000D01*
X130452000Y-127960000D01*
X130452000Y-127958000D01*
X130453000Y-127955000D01*
X130454000Y-127953000D01*
X130455000Y-127950000D01*
X130457000Y-127948000D01*
X130458000Y-127946000D01*
X130460000Y-127944000D01*
X130461000Y-127942000D01*
X130463000Y-127940000D01*
X130465000Y-127938000D01*
X130467000Y-127936000D01*
X130469000Y-127934000D01*
X130471000Y-127933000D01*
X130473000Y-127931000D01*
X130475000Y-127930000D01*
X130477000Y-127928000D01*
X130480000Y-127927000D01*
X130482000Y-127926000D01*
X130485000Y-127925000D01*
X130487000Y-127925000D01*
X130490000Y-127924000D01*
X130492000Y-127924000D01*
X130495000Y-127923000D01*
X130497000Y-127923000D01*
X130500000Y-127923000D01*
X130600000Y-127923000D01*
X130603000Y-127923000D01*
X130605000Y-127923000D01*
X130608000Y-127924000D01*
G36*
X130608000Y-127924000D02*
G01*
X130610000Y-127924000D01*
X130613000Y-127925000D01*
X130615000Y-127925000D01*
X130618000Y-127926000D01*
X130620000Y-127927000D01*
X130623000Y-127928000D01*
X130625000Y-127930000D01*
X130627000Y-127931000D01*
X130629000Y-127933000D01*
X130631000Y-127934000D01*
X130633000Y-127936000D01*
X130635000Y-127938000D01*
X130637000Y-127940000D01*
X130639000Y-127942000D01*
X130640000Y-127944000D01*
X130642000Y-127946000D01*
X130643000Y-127948000D01*
X130645000Y-127950000D01*
X130646000Y-127953000D01*
X130647000Y-127955000D01*
X130648000Y-127958000D01*
X130648000Y-127960000D01*
X130649000Y-127963000D01*
X130649000Y-127965000D01*
X130650000Y-127968000D01*
X130650000Y-127970000D01*
X130650000Y-127973000D01*
X130650000Y-128273000D01*
X130650000Y-128276000D01*
X130650000Y-128278000D01*
X130649000Y-128281000D01*
X130649000Y-128283000D01*
X130648000Y-128286000D01*
X130648000Y-128288000D01*
X130647000Y-128291000D01*
X130646000Y-128293000D01*
X130645000Y-128296000D01*
X130643000Y-128298000D01*
X130642000Y-128300000D01*
X130640000Y-128302000D01*
X130639000Y-128304000D01*
X130637000Y-128306000D01*
X130635000Y-128308000D01*
X130633000Y-128310000D01*
X130631000Y-128312000D01*
X130629000Y-128313000D01*
X130627000Y-128315000D01*
X130625000Y-128316000D01*
X130623000Y-128318000D01*
X130620000Y-128319000D01*
X130618000Y-128320000D01*
X130615000Y-128321000D01*
X130613000Y-128321000D01*
X130610000Y-128322000D01*
X130608000Y-128322000D01*
X130605000Y-128323000D01*
X130603000Y-128323000D01*
X130600000Y-128323000D01*
X130500000Y-128323000D01*
X130497000Y-128323000D01*
X130495000Y-128323000D01*
X130492000Y-128322000D01*
X130490000Y-128322000D01*
X130487000Y-128321000D01*
X130485000Y-128321000D01*
X130482000Y-128320000D01*
X130480000Y-128319000D01*
X130477000Y-128318000D01*
X130475000Y-128316000D01*
X130473000Y-128315000D01*
X130471000Y-128313000D01*
X130469000Y-128312000D01*
X130467000Y-128310000D01*
X130465000Y-128308000D01*
X130463000Y-128306000D01*
X130461000Y-128304000D01*
X130460000Y-128302000D01*
X130458000Y-128300000D01*
X130457000Y-128298000D01*
X130455000Y-128296000D01*
X130454000Y-128293000D01*
X130453000Y-128291000D01*
X130452000Y-128288000D01*
X130452000Y-128286000D01*
X130451000Y-128283000D01*
X130451000Y-128281000D01*
X130450000Y-128278000D01*
X130450000Y-128276000D01*
X130450000Y-128273000D01*
X130450000Y-127973000D01*
X130450000Y-127970000D01*
X130450000Y-127968000D01*
X130451000Y-127965000D01*
X130451000Y-127963000D01*
X130452000Y-127960000D01*
X130452000Y-127958000D01*
X130453000Y-127955000D01*
X130454000Y-127953000D01*
X130455000Y-127950000D01*
X130457000Y-127948000D01*
X130458000Y-127946000D01*
X130460000Y-127944000D01*
X130461000Y-127942000D01*
X130463000Y-127940000D01*
X130465000Y-127938000D01*
X130467000Y-127936000D01*
X130469000Y-127934000D01*
X130471000Y-127933000D01*
X130473000Y-127931000D01*
X130475000Y-127930000D01*
X130477000Y-127928000D01*
X130480000Y-127927000D01*
X130482000Y-127926000D01*
X130485000Y-127925000D01*
X130487000Y-127925000D01*
X130490000Y-127924000D01*
X130492000Y-127924000D01*
X130495000Y-127923000D01*
X130497000Y-127923000D01*
X130500000Y-127923000D01*
X130600000Y-127923000D01*
X130603000Y-127923000D01*
X130605000Y-127923000D01*
X130608000Y-127924000D01*
G37*
X131058000Y-127924000D02*
X131060000Y-127924000D01*
X131063000Y-127925000D01*
X131065000Y-127925000D01*
X131068000Y-127926000D01*
X131070000Y-127927000D01*
X131073000Y-127928000D01*
X131075000Y-127930000D01*
X131077000Y-127931000D01*
X131079000Y-127933000D01*
X131081000Y-127934000D01*
X131083000Y-127936000D01*
X131085000Y-127938000D01*
X131087000Y-127940000D01*
X131089000Y-127942000D01*
X131090000Y-127944000D01*
X131092000Y-127946000D01*
X131093000Y-127948000D01*
X131095000Y-127950000D01*
X131096000Y-127953000D01*
X131097000Y-127955000D01*
X131098000Y-127958000D01*
X131098000Y-127960000D01*
X131099000Y-127963000D01*
X131099000Y-127965000D01*
X131100000Y-127968000D01*
X131100000Y-127970000D01*
X131100000Y-127973000D01*
X131100000Y-128273000D01*
X131100000Y-128276000D01*
X131100000Y-128278000D01*
X131099000Y-128281000D01*
X131099000Y-128283000D01*
X131098000Y-128286000D01*
X131098000Y-128288000D01*
X131097000Y-128291000D01*
X131096000Y-128293000D01*
X131095000Y-128296000D01*
X131093000Y-128298000D01*
X131092000Y-128300000D01*
X131090000Y-128302000D01*
X131089000Y-128304000D01*
X131087000Y-128306000D01*
X131085000Y-128308000D01*
X131083000Y-128310000D01*
X131081000Y-128312000D01*
X131079000Y-128313000D01*
X131077000Y-128315000D01*
X131075000Y-128316000D01*
X131073000Y-128318000D01*
X131070000Y-128319000D01*
X131068000Y-128320000D01*
X131065000Y-128321000D01*
X131063000Y-128321000D01*
X131060000Y-128322000D01*
X131058000Y-128322000D01*
X131055000Y-128323000D01*
X131053000Y-128323000D01*
X131050000Y-128323000D01*
X130950000Y-128323000D01*
X130947000Y-128323000D01*
X130945000Y-128323000D01*
X130942000Y-128322000D01*
X130940000Y-128322000D01*
X130937000Y-128321000D01*
X130935000Y-128321000D01*
X130932000Y-128320000D01*
X130930000Y-128319000D01*
X130927000Y-128318000D01*
X130925000Y-128316000D01*
X130923000Y-128315000D01*
X130921000Y-128313000D01*
X130919000Y-128312000D01*
X130917000Y-128310000D01*
X130915000Y-128308000D01*
X130913000Y-128306000D01*
X130911000Y-128304000D01*
X130910000Y-128302000D01*
X130908000Y-128300000D01*
X130907000Y-128298000D01*
X130905000Y-128296000D01*
X130904000Y-128293000D01*
X130903000Y-128291000D01*
X130902000Y-128288000D01*
X130902000Y-128286000D01*
X130901000Y-128283000D01*
X130901000Y-128281000D01*
X130900000Y-128278000D01*
X130900000Y-128276000D01*
X130900000Y-128273000D01*
X130900000Y-127973000D01*
X130900000Y-127970000D01*
X130900000Y-127968000D01*
X130901000Y-127965000D01*
X130901000Y-127963000D01*
X130902000Y-127960000D01*
X130902000Y-127958000D01*
X130903000Y-127955000D01*
X130904000Y-127953000D01*
X130905000Y-127950000D01*
X130907000Y-127948000D01*
X130908000Y-127946000D01*
X130910000Y-127944000D01*
X130911000Y-127942000D01*
X130913000Y-127940000D01*
X130915000Y-127938000D01*
X130917000Y-127936000D01*
X130919000Y-127934000D01*
X130921000Y-127933000D01*
X130923000Y-127931000D01*
X130925000Y-127930000D01*
X130927000Y-127928000D01*
X130930000Y-127927000D01*
X130932000Y-127926000D01*
X130935000Y-127925000D01*
X130937000Y-127925000D01*
X130940000Y-127924000D01*
X130942000Y-127924000D01*
X130945000Y-127923000D01*
X130947000Y-127923000D01*
X130950000Y-127923000D01*
X131050000Y-127923000D01*
X131053000Y-127923000D01*
X131055000Y-127923000D01*
X131058000Y-127924000D01*
G36*
X131058000Y-127924000D02*
G01*
X131060000Y-127924000D01*
X131063000Y-127925000D01*
X131065000Y-127925000D01*
X131068000Y-127926000D01*
X131070000Y-127927000D01*
X131073000Y-127928000D01*
X131075000Y-127930000D01*
X131077000Y-127931000D01*
X131079000Y-127933000D01*
X131081000Y-127934000D01*
X131083000Y-127936000D01*
X131085000Y-127938000D01*
X131087000Y-127940000D01*
X131089000Y-127942000D01*
X131090000Y-127944000D01*
X131092000Y-127946000D01*
X131093000Y-127948000D01*
X131095000Y-127950000D01*
X131096000Y-127953000D01*
X131097000Y-127955000D01*
X131098000Y-127958000D01*
X131098000Y-127960000D01*
X131099000Y-127963000D01*
X131099000Y-127965000D01*
X131100000Y-127968000D01*
X131100000Y-127970000D01*
X131100000Y-127973000D01*
X131100000Y-128273000D01*
X131100000Y-128276000D01*
X131100000Y-128278000D01*
X131099000Y-128281000D01*
X131099000Y-128283000D01*
X131098000Y-128286000D01*
X131098000Y-128288000D01*
X131097000Y-128291000D01*
X131096000Y-128293000D01*
X131095000Y-128296000D01*
X131093000Y-128298000D01*
X131092000Y-128300000D01*
X131090000Y-128302000D01*
X131089000Y-128304000D01*
X131087000Y-128306000D01*
X131085000Y-128308000D01*
X131083000Y-128310000D01*
X131081000Y-128312000D01*
X131079000Y-128313000D01*
X131077000Y-128315000D01*
X131075000Y-128316000D01*
X131073000Y-128318000D01*
X131070000Y-128319000D01*
X131068000Y-128320000D01*
X131065000Y-128321000D01*
X131063000Y-128321000D01*
X131060000Y-128322000D01*
X131058000Y-128322000D01*
X131055000Y-128323000D01*
X131053000Y-128323000D01*
X131050000Y-128323000D01*
X130950000Y-128323000D01*
X130947000Y-128323000D01*
X130945000Y-128323000D01*
X130942000Y-128322000D01*
X130940000Y-128322000D01*
X130937000Y-128321000D01*
X130935000Y-128321000D01*
X130932000Y-128320000D01*
X130930000Y-128319000D01*
X130927000Y-128318000D01*
X130925000Y-128316000D01*
X130923000Y-128315000D01*
X130921000Y-128313000D01*
X130919000Y-128312000D01*
X130917000Y-128310000D01*
X130915000Y-128308000D01*
X130913000Y-128306000D01*
X130911000Y-128304000D01*
X130910000Y-128302000D01*
X130908000Y-128300000D01*
X130907000Y-128298000D01*
X130905000Y-128296000D01*
X130904000Y-128293000D01*
X130903000Y-128291000D01*
X130902000Y-128288000D01*
X130902000Y-128286000D01*
X130901000Y-128283000D01*
X130901000Y-128281000D01*
X130900000Y-128278000D01*
X130900000Y-128276000D01*
X130900000Y-128273000D01*
X130900000Y-127973000D01*
X130900000Y-127970000D01*
X130900000Y-127968000D01*
X130901000Y-127965000D01*
X130901000Y-127963000D01*
X130902000Y-127960000D01*
X130902000Y-127958000D01*
X130903000Y-127955000D01*
X130904000Y-127953000D01*
X130905000Y-127950000D01*
X130907000Y-127948000D01*
X130908000Y-127946000D01*
X130910000Y-127944000D01*
X130911000Y-127942000D01*
X130913000Y-127940000D01*
X130915000Y-127938000D01*
X130917000Y-127936000D01*
X130919000Y-127934000D01*
X130921000Y-127933000D01*
X130923000Y-127931000D01*
X130925000Y-127930000D01*
X130927000Y-127928000D01*
X130930000Y-127927000D01*
X130932000Y-127926000D01*
X130935000Y-127925000D01*
X130937000Y-127925000D01*
X130940000Y-127924000D01*
X130942000Y-127924000D01*
X130945000Y-127923000D01*
X130947000Y-127923000D01*
X130950000Y-127923000D01*
X131050000Y-127923000D01*
X131053000Y-127923000D01*
X131055000Y-127923000D01*
X131058000Y-127924000D01*
G37*
X131178000Y-130126000D02*
X131180000Y-130126000D01*
X131183000Y-130127000D01*
X131185000Y-130127000D01*
X131188000Y-130128000D01*
X131190000Y-130129000D01*
X131193000Y-130130000D01*
X131195000Y-130132000D01*
X131197000Y-130133000D01*
X131199000Y-130135000D01*
X131201000Y-130136000D01*
X131203000Y-130138000D01*
X131205000Y-130140000D01*
X131207000Y-130142000D01*
X131209000Y-130144000D01*
X131210000Y-130146000D01*
X131212000Y-130148000D01*
X131213000Y-130150000D01*
X131215000Y-130152000D01*
X131216000Y-130155000D01*
X131217000Y-130157000D01*
X131218000Y-130160000D01*
X131218000Y-130162000D01*
X131219000Y-130165000D01*
X131219000Y-130167000D01*
X131220000Y-130170000D01*
X131220000Y-130172000D01*
X131220000Y-130175000D01*
X131220000Y-130825000D01*
X131220000Y-130828000D01*
X131220000Y-130830000D01*
X131219000Y-130833000D01*
X131219000Y-130835000D01*
X131218000Y-130838000D01*
X131218000Y-130840000D01*
X131217000Y-130843000D01*
X131216000Y-130845000D01*
X131215000Y-130848000D01*
X131213000Y-130850000D01*
X131212000Y-130852000D01*
X131210000Y-130854000D01*
X131209000Y-130856000D01*
X131207000Y-130858000D01*
X131205000Y-130860000D01*
X131203000Y-130862000D01*
X131201000Y-130864000D01*
X131199000Y-130865000D01*
X131197000Y-130867000D01*
X131195000Y-130868000D01*
X131193000Y-130870000D01*
X131190000Y-130871000D01*
X131188000Y-130872000D01*
X131185000Y-130873000D01*
X131183000Y-130873000D01*
X131180000Y-130874000D01*
X131178000Y-130874000D01*
X131175000Y-130875000D01*
X131173000Y-130875000D01*
X131170000Y-130875000D01*
X130400000Y-130875000D01*
X130397000Y-130875000D01*
X130395000Y-130875000D01*
X130392000Y-130874000D01*
X130390000Y-130874000D01*
X130387000Y-130873000D01*
X130385000Y-130873000D01*
X130382000Y-130872000D01*
X130380000Y-130871000D01*
X130377000Y-130870000D01*
X130375000Y-130868000D01*
X130373000Y-130867000D01*
X130371000Y-130865000D01*
X130369000Y-130864000D01*
X130367000Y-130862000D01*
X130365000Y-130860000D01*
X130363000Y-130858000D01*
X130361000Y-130856000D01*
X130360000Y-130854000D01*
X130358000Y-130852000D01*
X130357000Y-130850000D01*
X130355000Y-130848000D01*
X130354000Y-130845000D01*
X130353000Y-130843000D01*
X130352000Y-130840000D01*
X130352000Y-130838000D01*
X130351000Y-130835000D01*
X130351000Y-130833000D01*
X130350000Y-130830000D01*
X130350000Y-130828000D01*
X130350000Y-130825000D01*
X130350000Y-130175000D01*
X130350000Y-130172000D01*
X130350000Y-130170000D01*
X130351000Y-130167000D01*
X130351000Y-130165000D01*
X130352000Y-130162000D01*
X130352000Y-130160000D01*
X130353000Y-130157000D01*
X130354000Y-130155000D01*
X130355000Y-130152000D01*
X130357000Y-130150000D01*
X130358000Y-130148000D01*
X130360000Y-130146000D01*
X130361000Y-130144000D01*
X130363000Y-130142000D01*
X130365000Y-130140000D01*
X130367000Y-130138000D01*
X130369000Y-130136000D01*
X130371000Y-130135000D01*
X130373000Y-130133000D01*
X130375000Y-130132000D01*
X130377000Y-130130000D01*
X130380000Y-130129000D01*
X130382000Y-130128000D01*
X130385000Y-130127000D01*
X130387000Y-130127000D01*
X130390000Y-130126000D01*
X130392000Y-130126000D01*
X130395000Y-130125000D01*
X130397000Y-130125000D01*
X130400000Y-130125000D01*
X131170000Y-130125000D01*
X131173000Y-130125000D01*
X131175000Y-130125000D01*
X131178000Y-130126000D01*
G36*
X131178000Y-130126000D02*
G01*
X131180000Y-130126000D01*
X131183000Y-130127000D01*
X131185000Y-130127000D01*
X131188000Y-130128000D01*
X131190000Y-130129000D01*
X131193000Y-130130000D01*
X131195000Y-130132000D01*
X131197000Y-130133000D01*
X131199000Y-130135000D01*
X131201000Y-130136000D01*
X131203000Y-130138000D01*
X131205000Y-130140000D01*
X131207000Y-130142000D01*
X131209000Y-130144000D01*
X131210000Y-130146000D01*
X131212000Y-130148000D01*
X131213000Y-130150000D01*
X131215000Y-130152000D01*
X131216000Y-130155000D01*
X131217000Y-130157000D01*
X131218000Y-130160000D01*
X131218000Y-130162000D01*
X131219000Y-130165000D01*
X131219000Y-130167000D01*
X131220000Y-130170000D01*
X131220000Y-130172000D01*
X131220000Y-130175000D01*
X131220000Y-130825000D01*
X131220000Y-130828000D01*
X131220000Y-130830000D01*
X131219000Y-130833000D01*
X131219000Y-130835000D01*
X131218000Y-130838000D01*
X131218000Y-130840000D01*
X131217000Y-130843000D01*
X131216000Y-130845000D01*
X131215000Y-130848000D01*
X131213000Y-130850000D01*
X131212000Y-130852000D01*
X131210000Y-130854000D01*
X131209000Y-130856000D01*
X131207000Y-130858000D01*
X131205000Y-130860000D01*
X131203000Y-130862000D01*
X131201000Y-130864000D01*
X131199000Y-130865000D01*
X131197000Y-130867000D01*
X131195000Y-130868000D01*
X131193000Y-130870000D01*
X131190000Y-130871000D01*
X131188000Y-130872000D01*
X131185000Y-130873000D01*
X131183000Y-130873000D01*
X131180000Y-130874000D01*
X131178000Y-130874000D01*
X131175000Y-130875000D01*
X131173000Y-130875000D01*
X131170000Y-130875000D01*
X130400000Y-130875000D01*
X130397000Y-130875000D01*
X130395000Y-130875000D01*
X130392000Y-130874000D01*
X130390000Y-130874000D01*
X130387000Y-130873000D01*
X130385000Y-130873000D01*
X130382000Y-130872000D01*
X130380000Y-130871000D01*
X130377000Y-130870000D01*
X130375000Y-130868000D01*
X130373000Y-130867000D01*
X130371000Y-130865000D01*
X130369000Y-130864000D01*
X130367000Y-130862000D01*
X130365000Y-130860000D01*
X130363000Y-130858000D01*
X130361000Y-130856000D01*
X130360000Y-130854000D01*
X130358000Y-130852000D01*
X130357000Y-130850000D01*
X130355000Y-130848000D01*
X130354000Y-130845000D01*
X130353000Y-130843000D01*
X130352000Y-130840000D01*
X130352000Y-130838000D01*
X130351000Y-130835000D01*
X130351000Y-130833000D01*
X130350000Y-130830000D01*
X130350000Y-130828000D01*
X130350000Y-130825000D01*
X130350000Y-130175000D01*
X130350000Y-130172000D01*
X130350000Y-130170000D01*
X130351000Y-130167000D01*
X130351000Y-130165000D01*
X130352000Y-130162000D01*
X130352000Y-130160000D01*
X130353000Y-130157000D01*
X130354000Y-130155000D01*
X130355000Y-130152000D01*
X130357000Y-130150000D01*
X130358000Y-130148000D01*
X130360000Y-130146000D01*
X130361000Y-130144000D01*
X130363000Y-130142000D01*
X130365000Y-130140000D01*
X130367000Y-130138000D01*
X130369000Y-130136000D01*
X130371000Y-130135000D01*
X130373000Y-130133000D01*
X130375000Y-130132000D01*
X130377000Y-130130000D01*
X130380000Y-130129000D01*
X130382000Y-130128000D01*
X130385000Y-130127000D01*
X130387000Y-130127000D01*
X130390000Y-130126000D01*
X130392000Y-130126000D01*
X130395000Y-130125000D01*
X130397000Y-130125000D01*
X130400000Y-130125000D01*
X131170000Y-130125000D01*
X131173000Y-130125000D01*
X131175000Y-130125000D01*
X131178000Y-130126000D01*
G37*
X131508000Y-127924000D02*
X131510000Y-127924000D01*
X131513000Y-127925000D01*
X131515000Y-127925000D01*
X131518000Y-127926000D01*
X131520000Y-127927000D01*
X131523000Y-127928000D01*
X131525000Y-127930000D01*
X131527000Y-127931000D01*
X131529000Y-127933000D01*
X131531000Y-127934000D01*
X131533000Y-127936000D01*
X131535000Y-127938000D01*
X131537000Y-127940000D01*
X131539000Y-127942000D01*
X131540000Y-127944000D01*
X131542000Y-127946000D01*
X131543000Y-127948000D01*
X131545000Y-127950000D01*
X131546000Y-127953000D01*
X131547000Y-127955000D01*
X131548000Y-127958000D01*
X131548000Y-127960000D01*
X131549000Y-127963000D01*
X131549000Y-127965000D01*
X131550000Y-127968000D01*
X131550000Y-127970000D01*
X131550000Y-127973000D01*
X131550000Y-128273000D01*
X131550000Y-128276000D01*
X131550000Y-128278000D01*
X131549000Y-128281000D01*
X131549000Y-128283000D01*
X131548000Y-128286000D01*
X131548000Y-128288000D01*
X131547000Y-128291000D01*
X131546000Y-128293000D01*
X131545000Y-128296000D01*
X131543000Y-128298000D01*
X131542000Y-128300000D01*
X131540000Y-128302000D01*
X131539000Y-128304000D01*
X131537000Y-128306000D01*
X131535000Y-128308000D01*
X131533000Y-128310000D01*
X131531000Y-128312000D01*
X131529000Y-128313000D01*
X131527000Y-128315000D01*
X131525000Y-128316000D01*
X131523000Y-128318000D01*
X131520000Y-128319000D01*
X131518000Y-128320000D01*
X131515000Y-128321000D01*
X131513000Y-128321000D01*
X131510000Y-128322000D01*
X131508000Y-128322000D01*
X131505000Y-128323000D01*
X131503000Y-128323000D01*
X131500000Y-128323000D01*
X131400000Y-128323000D01*
X131397000Y-128323000D01*
X131395000Y-128323000D01*
X131392000Y-128322000D01*
X131390000Y-128322000D01*
X131387000Y-128321000D01*
X131385000Y-128321000D01*
X131382000Y-128320000D01*
X131380000Y-128319000D01*
X131377000Y-128318000D01*
X131375000Y-128316000D01*
X131373000Y-128315000D01*
X131371000Y-128313000D01*
X131369000Y-128312000D01*
X131367000Y-128310000D01*
X131365000Y-128308000D01*
X131363000Y-128306000D01*
X131361000Y-128304000D01*
X131360000Y-128302000D01*
X131358000Y-128300000D01*
X131357000Y-128298000D01*
X131355000Y-128296000D01*
X131354000Y-128293000D01*
X131353000Y-128291000D01*
X131352000Y-128288000D01*
X131352000Y-128286000D01*
X131351000Y-128283000D01*
X131351000Y-128281000D01*
X131350000Y-128278000D01*
X131350000Y-128276000D01*
X131350000Y-128273000D01*
X131350000Y-127973000D01*
X131350000Y-127970000D01*
X131350000Y-127968000D01*
X131351000Y-127965000D01*
X131351000Y-127963000D01*
X131352000Y-127960000D01*
X131352000Y-127958000D01*
X131353000Y-127955000D01*
X131354000Y-127953000D01*
X131355000Y-127950000D01*
X131357000Y-127948000D01*
X131358000Y-127946000D01*
X131360000Y-127944000D01*
X131361000Y-127942000D01*
X131363000Y-127940000D01*
X131365000Y-127938000D01*
X131367000Y-127936000D01*
X131369000Y-127934000D01*
X131371000Y-127933000D01*
X131373000Y-127931000D01*
X131375000Y-127930000D01*
X131377000Y-127928000D01*
X131380000Y-127927000D01*
X131382000Y-127926000D01*
X131385000Y-127925000D01*
X131387000Y-127925000D01*
X131390000Y-127924000D01*
X131392000Y-127924000D01*
X131395000Y-127923000D01*
X131397000Y-127923000D01*
X131400000Y-127923000D01*
X131500000Y-127923000D01*
X131503000Y-127923000D01*
X131505000Y-127923000D01*
X131508000Y-127924000D01*
G36*
X131508000Y-127924000D02*
G01*
X131510000Y-127924000D01*
X131513000Y-127925000D01*
X131515000Y-127925000D01*
X131518000Y-127926000D01*
X131520000Y-127927000D01*
X131523000Y-127928000D01*
X131525000Y-127930000D01*
X131527000Y-127931000D01*
X131529000Y-127933000D01*
X131531000Y-127934000D01*
X131533000Y-127936000D01*
X131535000Y-127938000D01*
X131537000Y-127940000D01*
X131539000Y-127942000D01*
X131540000Y-127944000D01*
X131542000Y-127946000D01*
X131543000Y-127948000D01*
X131545000Y-127950000D01*
X131546000Y-127953000D01*
X131547000Y-127955000D01*
X131548000Y-127958000D01*
X131548000Y-127960000D01*
X131549000Y-127963000D01*
X131549000Y-127965000D01*
X131550000Y-127968000D01*
X131550000Y-127970000D01*
X131550000Y-127973000D01*
X131550000Y-128273000D01*
X131550000Y-128276000D01*
X131550000Y-128278000D01*
X131549000Y-128281000D01*
X131549000Y-128283000D01*
X131548000Y-128286000D01*
X131548000Y-128288000D01*
X131547000Y-128291000D01*
X131546000Y-128293000D01*
X131545000Y-128296000D01*
X131543000Y-128298000D01*
X131542000Y-128300000D01*
X131540000Y-128302000D01*
X131539000Y-128304000D01*
X131537000Y-128306000D01*
X131535000Y-128308000D01*
X131533000Y-128310000D01*
X131531000Y-128312000D01*
X131529000Y-128313000D01*
X131527000Y-128315000D01*
X131525000Y-128316000D01*
X131523000Y-128318000D01*
X131520000Y-128319000D01*
X131518000Y-128320000D01*
X131515000Y-128321000D01*
X131513000Y-128321000D01*
X131510000Y-128322000D01*
X131508000Y-128322000D01*
X131505000Y-128323000D01*
X131503000Y-128323000D01*
X131500000Y-128323000D01*
X131400000Y-128323000D01*
X131397000Y-128323000D01*
X131395000Y-128323000D01*
X131392000Y-128322000D01*
X131390000Y-128322000D01*
X131387000Y-128321000D01*
X131385000Y-128321000D01*
X131382000Y-128320000D01*
X131380000Y-128319000D01*
X131377000Y-128318000D01*
X131375000Y-128316000D01*
X131373000Y-128315000D01*
X131371000Y-128313000D01*
X131369000Y-128312000D01*
X131367000Y-128310000D01*
X131365000Y-128308000D01*
X131363000Y-128306000D01*
X131361000Y-128304000D01*
X131360000Y-128302000D01*
X131358000Y-128300000D01*
X131357000Y-128298000D01*
X131355000Y-128296000D01*
X131354000Y-128293000D01*
X131353000Y-128291000D01*
X131352000Y-128288000D01*
X131352000Y-128286000D01*
X131351000Y-128283000D01*
X131351000Y-128281000D01*
X131350000Y-128278000D01*
X131350000Y-128276000D01*
X131350000Y-128273000D01*
X131350000Y-127973000D01*
X131350000Y-127970000D01*
X131350000Y-127968000D01*
X131351000Y-127965000D01*
X131351000Y-127963000D01*
X131352000Y-127960000D01*
X131352000Y-127958000D01*
X131353000Y-127955000D01*
X131354000Y-127953000D01*
X131355000Y-127950000D01*
X131357000Y-127948000D01*
X131358000Y-127946000D01*
X131360000Y-127944000D01*
X131361000Y-127942000D01*
X131363000Y-127940000D01*
X131365000Y-127938000D01*
X131367000Y-127936000D01*
X131369000Y-127934000D01*
X131371000Y-127933000D01*
X131373000Y-127931000D01*
X131375000Y-127930000D01*
X131377000Y-127928000D01*
X131380000Y-127927000D01*
X131382000Y-127926000D01*
X131385000Y-127925000D01*
X131387000Y-127925000D01*
X131390000Y-127924000D01*
X131392000Y-127924000D01*
X131395000Y-127923000D01*
X131397000Y-127923000D01*
X131400000Y-127923000D01*
X131500000Y-127923000D01*
X131503000Y-127923000D01*
X131505000Y-127923000D01*
X131508000Y-127924000D01*
G37*
X133108000Y-129549000D02*
X133110000Y-129549000D01*
X133113000Y-129550000D01*
X133115000Y-129550000D01*
X133118000Y-129551000D01*
X133120000Y-129552000D01*
X133123000Y-129553000D01*
X133125000Y-129555000D01*
X133127000Y-129556000D01*
X133129000Y-129558000D01*
X133131000Y-129559000D01*
X133133000Y-129561000D01*
X133135000Y-129563000D01*
X133137000Y-129565000D01*
X133139000Y-129567000D01*
X133140000Y-129569000D01*
X133142000Y-129571000D01*
X133143000Y-129573000D01*
X133145000Y-129575000D01*
X133146000Y-129578000D01*
X133147000Y-129580000D01*
X133148000Y-129583000D01*
X133148000Y-129585000D01*
X133149000Y-129588000D01*
X133149000Y-129590000D01*
X133150000Y-129593000D01*
X133150000Y-129595000D01*
X133150000Y-129598000D01*
X133150000Y-129748000D01*
X133150000Y-129751000D01*
X133150000Y-129753000D01*
X133149000Y-129756000D01*
X133149000Y-129758000D01*
X133148000Y-129761000D01*
X133148000Y-129763000D01*
X133147000Y-129766000D01*
X133146000Y-129768000D01*
X133145000Y-129771000D01*
X133143000Y-129773000D01*
X133142000Y-129775000D01*
X133140000Y-129777000D01*
X133139000Y-129779000D01*
X133137000Y-129781000D01*
X133135000Y-129783000D01*
X133133000Y-129785000D01*
X133131000Y-129787000D01*
X133129000Y-129788000D01*
X133127000Y-129790000D01*
X133125000Y-129791000D01*
X133123000Y-129793000D01*
X133120000Y-129794000D01*
X133118000Y-129795000D01*
X133115000Y-129796000D01*
X133113000Y-129796000D01*
X133110000Y-129797000D01*
X133108000Y-129797000D01*
X133105000Y-129798000D01*
X133103000Y-129798000D01*
X133100000Y-129798000D01*
X131750000Y-129798000D01*
X131747000Y-129798000D01*
X131745000Y-129798000D01*
X131742000Y-129797000D01*
X131740000Y-129797000D01*
X131737000Y-129796000D01*
X131735000Y-129796000D01*
X131732000Y-129795000D01*
X131730000Y-129794000D01*
X131727000Y-129793000D01*
X131725000Y-129791000D01*
X131723000Y-129790000D01*
X131721000Y-129788000D01*
X131719000Y-129787000D01*
X131717000Y-129785000D01*
X131715000Y-129783000D01*
X131713000Y-129781000D01*
X131711000Y-129779000D01*
X131710000Y-129777000D01*
X131708000Y-129775000D01*
X131707000Y-129773000D01*
X131705000Y-129771000D01*
X131704000Y-129768000D01*
X131703000Y-129766000D01*
X131702000Y-129763000D01*
X131702000Y-129761000D01*
X131701000Y-129758000D01*
X131701000Y-129756000D01*
X131700000Y-129753000D01*
X131700000Y-129751000D01*
X131700000Y-129748000D01*
X131700000Y-129598000D01*
X131700000Y-129595000D01*
X131700000Y-129593000D01*
X131701000Y-129590000D01*
X131701000Y-129588000D01*
X131702000Y-129585000D01*
X131702000Y-129583000D01*
X131703000Y-129580000D01*
X131704000Y-129578000D01*
X131705000Y-129575000D01*
X131707000Y-129573000D01*
X131708000Y-129571000D01*
X131710000Y-129569000D01*
X131711000Y-129567000D01*
X131713000Y-129565000D01*
X131715000Y-129563000D01*
X131717000Y-129561000D01*
X131719000Y-129559000D01*
X131721000Y-129558000D01*
X131723000Y-129556000D01*
X131725000Y-129555000D01*
X131727000Y-129553000D01*
X131730000Y-129552000D01*
X131732000Y-129551000D01*
X131735000Y-129550000D01*
X131737000Y-129550000D01*
X131740000Y-129549000D01*
X131742000Y-129549000D01*
X131745000Y-129548000D01*
X131747000Y-129548000D01*
X131750000Y-129548000D01*
X133100000Y-129548000D01*
X133103000Y-129548000D01*
X133105000Y-129548000D01*
X133108000Y-129549000D01*
G36*
X133108000Y-129549000D02*
G01*
X133110000Y-129549000D01*
X133113000Y-129550000D01*
X133115000Y-129550000D01*
X133118000Y-129551000D01*
X133120000Y-129552000D01*
X133123000Y-129553000D01*
X133125000Y-129555000D01*
X133127000Y-129556000D01*
X133129000Y-129558000D01*
X133131000Y-129559000D01*
X133133000Y-129561000D01*
X133135000Y-129563000D01*
X133137000Y-129565000D01*
X133139000Y-129567000D01*
X133140000Y-129569000D01*
X133142000Y-129571000D01*
X133143000Y-129573000D01*
X133145000Y-129575000D01*
X133146000Y-129578000D01*
X133147000Y-129580000D01*
X133148000Y-129583000D01*
X133148000Y-129585000D01*
X133149000Y-129588000D01*
X133149000Y-129590000D01*
X133150000Y-129593000D01*
X133150000Y-129595000D01*
X133150000Y-129598000D01*
X133150000Y-129748000D01*
X133150000Y-129751000D01*
X133150000Y-129753000D01*
X133149000Y-129756000D01*
X133149000Y-129758000D01*
X133148000Y-129761000D01*
X133148000Y-129763000D01*
X133147000Y-129766000D01*
X133146000Y-129768000D01*
X133145000Y-129771000D01*
X133143000Y-129773000D01*
X133142000Y-129775000D01*
X133140000Y-129777000D01*
X133139000Y-129779000D01*
X133137000Y-129781000D01*
X133135000Y-129783000D01*
X133133000Y-129785000D01*
X133131000Y-129787000D01*
X133129000Y-129788000D01*
X133127000Y-129790000D01*
X133125000Y-129791000D01*
X133123000Y-129793000D01*
X133120000Y-129794000D01*
X133118000Y-129795000D01*
X133115000Y-129796000D01*
X133113000Y-129796000D01*
X133110000Y-129797000D01*
X133108000Y-129797000D01*
X133105000Y-129798000D01*
X133103000Y-129798000D01*
X133100000Y-129798000D01*
X131750000Y-129798000D01*
X131747000Y-129798000D01*
X131745000Y-129798000D01*
X131742000Y-129797000D01*
X131740000Y-129797000D01*
X131737000Y-129796000D01*
X131735000Y-129796000D01*
X131732000Y-129795000D01*
X131730000Y-129794000D01*
X131727000Y-129793000D01*
X131725000Y-129791000D01*
X131723000Y-129790000D01*
X131721000Y-129788000D01*
X131719000Y-129787000D01*
X131717000Y-129785000D01*
X131715000Y-129783000D01*
X131713000Y-129781000D01*
X131711000Y-129779000D01*
X131710000Y-129777000D01*
X131708000Y-129775000D01*
X131707000Y-129773000D01*
X131705000Y-129771000D01*
X131704000Y-129768000D01*
X131703000Y-129766000D01*
X131702000Y-129763000D01*
X131702000Y-129761000D01*
X131701000Y-129758000D01*
X131701000Y-129756000D01*
X131700000Y-129753000D01*
X131700000Y-129751000D01*
X131700000Y-129748000D01*
X131700000Y-129598000D01*
X131700000Y-129595000D01*
X131700000Y-129593000D01*
X131701000Y-129590000D01*
X131701000Y-129588000D01*
X131702000Y-129585000D01*
X131702000Y-129583000D01*
X131703000Y-129580000D01*
X131704000Y-129578000D01*
X131705000Y-129575000D01*
X131707000Y-129573000D01*
X131708000Y-129571000D01*
X131710000Y-129569000D01*
X131711000Y-129567000D01*
X131713000Y-129565000D01*
X131715000Y-129563000D01*
X131717000Y-129561000D01*
X131719000Y-129559000D01*
X131721000Y-129558000D01*
X131723000Y-129556000D01*
X131725000Y-129555000D01*
X131727000Y-129553000D01*
X131730000Y-129552000D01*
X131732000Y-129551000D01*
X131735000Y-129550000D01*
X131737000Y-129550000D01*
X131740000Y-129549000D01*
X131742000Y-129549000D01*
X131745000Y-129548000D01*
X131747000Y-129548000D01*
X131750000Y-129548000D01*
X133100000Y-129548000D01*
X133103000Y-129548000D01*
X133105000Y-129548000D01*
X133108000Y-129549000D01*
G37*
X131958000Y-127924000D02*
X131960000Y-127924000D01*
X131963000Y-127925000D01*
X131965000Y-127925000D01*
X131968000Y-127926000D01*
X131970000Y-127927000D01*
X131973000Y-127928000D01*
X131975000Y-127930000D01*
X131977000Y-127931000D01*
X131979000Y-127933000D01*
X131981000Y-127934000D01*
X131983000Y-127936000D01*
X131985000Y-127938000D01*
X131987000Y-127940000D01*
X131989000Y-127942000D01*
X131990000Y-127944000D01*
X131992000Y-127946000D01*
X131993000Y-127948000D01*
X131995000Y-127950000D01*
X131996000Y-127953000D01*
X131997000Y-127955000D01*
X131998000Y-127958000D01*
X131998000Y-127960000D01*
X131999000Y-127963000D01*
X131999000Y-127965000D01*
X132000000Y-127968000D01*
X132000000Y-127970000D01*
X132000000Y-127973000D01*
X132000000Y-128273000D01*
X132000000Y-128276000D01*
X132000000Y-128278000D01*
X131999000Y-128281000D01*
X131999000Y-128283000D01*
X131998000Y-128286000D01*
X131998000Y-128288000D01*
X131997000Y-128291000D01*
X131996000Y-128293000D01*
X131995000Y-128296000D01*
X131993000Y-128298000D01*
X131992000Y-128300000D01*
X131990000Y-128302000D01*
X131989000Y-128304000D01*
X131987000Y-128306000D01*
X131985000Y-128308000D01*
X131983000Y-128310000D01*
X131981000Y-128312000D01*
X131979000Y-128313000D01*
X131977000Y-128315000D01*
X131975000Y-128316000D01*
X131973000Y-128318000D01*
X131970000Y-128319000D01*
X131968000Y-128320000D01*
X131965000Y-128321000D01*
X131963000Y-128321000D01*
X131960000Y-128322000D01*
X131958000Y-128322000D01*
X131955000Y-128323000D01*
X131953000Y-128323000D01*
X131950000Y-128323000D01*
X131850000Y-128323000D01*
X131847000Y-128323000D01*
X131845000Y-128323000D01*
X131842000Y-128322000D01*
X131840000Y-128322000D01*
X131837000Y-128321000D01*
X131835000Y-128321000D01*
X131832000Y-128320000D01*
X131830000Y-128319000D01*
X131827000Y-128318000D01*
X131825000Y-128316000D01*
X131823000Y-128315000D01*
X131821000Y-128313000D01*
X131819000Y-128312000D01*
X131817000Y-128310000D01*
X131815000Y-128308000D01*
X131813000Y-128306000D01*
X131811000Y-128304000D01*
X131810000Y-128302000D01*
X131808000Y-128300000D01*
X131807000Y-128298000D01*
X131805000Y-128296000D01*
X131804000Y-128293000D01*
X131803000Y-128291000D01*
X131802000Y-128288000D01*
X131802000Y-128286000D01*
X131801000Y-128283000D01*
X131801000Y-128281000D01*
X131800000Y-128278000D01*
X131800000Y-128276000D01*
X131800000Y-128273000D01*
X131800000Y-127973000D01*
X131800000Y-127970000D01*
X131800000Y-127968000D01*
X131801000Y-127965000D01*
X131801000Y-127963000D01*
X131802000Y-127960000D01*
X131802000Y-127958000D01*
X131803000Y-127955000D01*
X131804000Y-127953000D01*
X131805000Y-127950000D01*
X131807000Y-127948000D01*
X131808000Y-127946000D01*
X131810000Y-127944000D01*
X131811000Y-127942000D01*
X131813000Y-127940000D01*
X131815000Y-127938000D01*
X131817000Y-127936000D01*
X131819000Y-127934000D01*
X131821000Y-127933000D01*
X131823000Y-127931000D01*
X131825000Y-127930000D01*
X131827000Y-127928000D01*
X131830000Y-127927000D01*
X131832000Y-127926000D01*
X131835000Y-127925000D01*
X131837000Y-127925000D01*
X131840000Y-127924000D01*
X131842000Y-127924000D01*
X131845000Y-127923000D01*
X131847000Y-127923000D01*
X131850000Y-127923000D01*
X131950000Y-127923000D01*
X131953000Y-127923000D01*
X131955000Y-127923000D01*
X131958000Y-127924000D01*
G36*
X131958000Y-127924000D02*
G01*
X131960000Y-127924000D01*
X131963000Y-127925000D01*
X131965000Y-127925000D01*
X131968000Y-127926000D01*
X131970000Y-127927000D01*
X131973000Y-127928000D01*
X131975000Y-127930000D01*
X131977000Y-127931000D01*
X131979000Y-127933000D01*
X131981000Y-127934000D01*
X131983000Y-127936000D01*
X131985000Y-127938000D01*
X131987000Y-127940000D01*
X131989000Y-127942000D01*
X131990000Y-127944000D01*
X131992000Y-127946000D01*
X131993000Y-127948000D01*
X131995000Y-127950000D01*
X131996000Y-127953000D01*
X131997000Y-127955000D01*
X131998000Y-127958000D01*
X131998000Y-127960000D01*
X131999000Y-127963000D01*
X131999000Y-127965000D01*
X132000000Y-127968000D01*
X132000000Y-127970000D01*
X132000000Y-127973000D01*
X132000000Y-128273000D01*
X132000000Y-128276000D01*
X132000000Y-128278000D01*
X131999000Y-128281000D01*
X131999000Y-128283000D01*
X131998000Y-128286000D01*
X131998000Y-128288000D01*
X131997000Y-128291000D01*
X131996000Y-128293000D01*
X131995000Y-128296000D01*
X131993000Y-128298000D01*
X131992000Y-128300000D01*
X131990000Y-128302000D01*
X131989000Y-128304000D01*
X131987000Y-128306000D01*
X131985000Y-128308000D01*
X131983000Y-128310000D01*
X131981000Y-128312000D01*
X131979000Y-128313000D01*
X131977000Y-128315000D01*
X131975000Y-128316000D01*
X131973000Y-128318000D01*
X131970000Y-128319000D01*
X131968000Y-128320000D01*
X131965000Y-128321000D01*
X131963000Y-128321000D01*
X131960000Y-128322000D01*
X131958000Y-128322000D01*
X131955000Y-128323000D01*
X131953000Y-128323000D01*
X131950000Y-128323000D01*
X131850000Y-128323000D01*
X131847000Y-128323000D01*
X131845000Y-128323000D01*
X131842000Y-128322000D01*
X131840000Y-128322000D01*
X131837000Y-128321000D01*
X131835000Y-128321000D01*
X131832000Y-128320000D01*
X131830000Y-128319000D01*
X131827000Y-128318000D01*
X131825000Y-128316000D01*
X131823000Y-128315000D01*
X131821000Y-128313000D01*
X131819000Y-128312000D01*
X131817000Y-128310000D01*
X131815000Y-128308000D01*
X131813000Y-128306000D01*
X131811000Y-128304000D01*
X131810000Y-128302000D01*
X131808000Y-128300000D01*
X131807000Y-128298000D01*
X131805000Y-128296000D01*
X131804000Y-128293000D01*
X131803000Y-128291000D01*
X131802000Y-128288000D01*
X131802000Y-128286000D01*
X131801000Y-128283000D01*
X131801000Y-128281000D01*
X131800000Y-128278000D01*
X131800000Y-128276000D01*
X131800000Y-128273000D01*
X131800000Y-127973000D01*
X131800000Y-127970000D01*
X131800000Y-127968000D01*
X131801000Y-127965000D01*
X131801000Y-127963000D01*
X131802000Y-127960000D01*
X131802000Y-127958000D01*
X131803000Y-127955000D01*
X131804000Y-127953000D01*
X131805000Y-127950000D01*
X131807000Y-127948000D01*
X131808000Y-127946000D01*
X131810000Y-127944000D01*
X131811000Y-127942000D01*
X131813000Y-127940000D01*
X131815000Y-127938000D01*
X131817000Y-127936000D01*
X131819000Y-127934000D01*
X131821000Y-127933000D01*
X131823000Y-127931000D01*
X131825000Y-127930000D01*
X131827000Y-127928000D01*
X131830000Y-127927000D01*
X131832000Y-127926000D01*
X131835000Y-127925000D01*
X131837000Y-127925000D01*
X131840000Y-127924000D01*
X131842000Y-127924000D01*
X131845000Y-127923000D01*
X131847000Y-127923000D01*
X131850000Y-127923000D01*
X131950000Y-127923000D01*
X131953000Y-127923000D01*
X131955000Y-127923000D01*
X131958000Y-127924000D01*
G37*
X132408000Y-127924000D02*
X132410000Y-127924000D01*
X132413000Y-127925000D01*
X132415000Y-127925000D01*
X132418000Y-127926000D01*
X132420000Y-127927000D01*
X132423000Y-127928000D01*
X132425000Y-127930000D01*
X132427000Y-127931000D01*
X132429000Y-127933000D01*
X132431000Y-127934000D01*
X132433000Y-127936000D01*
X132435000Y-127938000D01*
X132437000Y-127940000D01*
X132439000Y-127942000D01*
X132440000Y-127944000D01*
X132442000Y-127946000D01*
X132443000Y-127948000D01*
X132445000Y-127950000D01*
X132446000Y-127953000D01*
X132447000Y-127955000D01*
X132448000Y-127958000D01*
X132448000Y-127960000D01*
X132449000Y-127963000D01*
X132449000Y-127965000D01*
X132450000Y-127968000D01*
X132450000Y-127970000D01*
X132450000Y-127973000D01*
X132450000Y-128273000D01*
X132450000Y-128276000D01*
X132450000Y-128278000D01*
X132449000Y-128281000D01*
X132449000Y-128283000D01*
X132448000Y-128286000D01*
X132448000Y-128288000D01*
X132447000Y-128291000D01*
X132446000Y-128293000D01*
X132445000Y-128296000D01*
X132443000Y-128298000D01*
X132442000Y-128300000D01*
X132440000Y-128302000D01*
X132439000Y-128304000D01*
X132437000Y-128306000D01*
X132435000Y-128308000D01*
X132433000Y-128310000D01*
X132431000Y-128312000D01*
X132429000Y-128313000D01*
X132427000Y-128315000D01*
X132425000Y-128316000D01*
X132423000Y-128318000D01*
X132420000Y-128319000D01*
X132418000Y-128320000D01*
X132415000Y-128321000D01*
X132413000Y-128321000D01*
X132410000Y-128322000D01*
X132408000Y-128322000D01*
X132405000Y-128323000D01*
X132403000Y-128323000D01*
X132400000Y-128323000D01*
X132300000Y-128323000D01*
X132297000Y-128323000D01*
X132295000Y-128323000D01*
X132292000Y-128322000D01*
X132290000Y-128322000D01*
X132287000Y-128321000D01*
X132285000Y-128321000D01*
X132282000Y-128320000D01*
X132280000Y-128319000D01*
X132277000Y-128318000D01*
X132275000Y-128316000D01*
X132273000Y-128315000D01*
X132271000Y-128313000D01*
X132269000Y-128312000D01*
X132267000Y-128310000D01*
X132265000Y-128308000D01*
X132263000Y-128306000D01*
X132261000Y-128304000D01*
X132260000Y-128302000D01*
X132258000Y-128300000D01*
X132257000Y-128298000D01*
X132255000Y-128296000D01*
X132254000Y-128293000D01*
X132253000Y-128291000D01*
X132252000Y-128288000D01*
X132252000Y-128286000D01*
X132251000Y-128283000D01*
X132251000Y-128281000D01*
X132250000Y-128278000D01*
X132250000Y-128276000D01*
X132250000Y-128273000D01*
X132250000Y-127973000D01*
X132250000Y-127970000D01*
X132250000Y-127968000D01*
X132251000Y-127965000D01*
X132251000Y-127963000D01*
X132252000Y-127960000D01*
X132252000Y-127958000D01*
X132253000Y-127955000D01*
X132254000Y-127953000D01*
X132255000Y-127950000D01*
X132257000Y-127948000D01*
X132258000Y-127946000D01*
X132260000Y-127944000D01*
X132261000Y-127942000D01*
X132263000Y-127940000D01*
X132265000Y-127938000D01*
X132267000Y-127936000D01*
X132269000Y-127934000D01*
X132271000Y-127933000D01*
X132273000Y-127931000D01*
X132275000Y-127930000D01*
X132277000Y-127928000D01*
X132280000Y-127927000D01*
X132282000Y-127926000D01*
X132285000Y-127925000D01*
X132287000Y-127925000D01*
X132290000Y-127924000D01*
X132292000Y-127924000D01*
X132295000Y-127923000D01*
X132297000Y-127923000D01*
X132300000Y-127923000D01*
X132400000Y-127923000D01*
X132403000Y-127923000D01*
X132405000Y-127923000D01*
X132408000Y-127924000D01*
G36*
X132408000Y-127924000D02*
G01*
X132410000Y-127924000D01*
X132413000Y-127925000D01*
X132415000Y-127925000D01*
X132418000Y-127926000D01*
X132420000Y-127927000D01*
X132423000Y-127928000D01*
X132425000Y-127930000D01*
X132427000Y-127931000D01*
X132429000Y-127933000D01*
X132431000Y-127934000D01*
X132433000Y-127936000D01*
X132435000Y-127938000D01*
X132437000Y-127940000D01*
X132439000Y-127942000D01*
X132440000Y-127944000D01*
X132442000Y-127946000D01*
X132443000Y-127948000D01*
X132445000Y-127950000D01*
X132446000Y-127953000D01*
X132447000Y-127955000D01*
X132448000Y-127958000D01*
X132448000Y-127960000D01*
X132449000Y-127963000D01*
X132449000Y-127965000D01*
X132450000Y-127968000D01*
X132450000Y-127970000D01*
X132450000Y-127973000D01*
X132450000Y-128273000D01*
X132450000Y-128276000D01*
X132450000Y-128278000D01*
X132449000Y-128281000D01*
X132449000Y-128283000D01*
X132448000Y-128286000D01*
X132448000Y-128288000D01*
X132447000Y-128291000D01*
X132446000Y-128293000D01*
X132445000Y-128296000D01*
X132443000Y-128298000D01*
X132442000Y-128300000D01*
X132440000Y-128302000D01*
X132439000Y-128304000D01*
X132437000Y-128306000D01*
X132435000Y-128308000D01*
X132433000Y-128310000D01*
X132431000Y-128312000D01*
X132429000Y-128313000D01*
X132427000Y-128315000D01*
X132425000Y-128316000D01*
X132423000Y-128318000D01*
X132420000Y-128319000D01*
X132418000Y-128320000D01*
X132415000Y-128321000D01*
X132413000Y-128321000D01*
X132410000Y-128322000D01*
X132408000Y-128322000D01*
X132405000Y-128323000D01*
X132403000Y-128323000D01*
X132400000Y-128323000D01*
X132300000Y-128323000D01*
X132297000Y-128323000D01*
X132295000Y-128323000D01*
X132292000Y-128322000D01*
X132290000Y-128322000D01*
X132287000Y-128321000D01*
X132285000Y-128321000D01*
X132282000Y-128320000D01*
X132280000Y-128319000D01*
X132277000Y-128318000D01*
X132275000Y-128316000D01*
X132273000Y-128315000D01*
X132271000Y-128313000D01*
X132269000Y-128312000D01*
X132267000Y-128310000D01*
X132265000Y-128308000D01*
X132263000Y-128306000D01*
X132261000Y-128304000D01*
X132260000Y-128302000D01*
X132258000Y-128300000D01*
X132257000Y-128298000D01*
X132255000Y-128296000D01*
X132254000Y-128293000D01*
X132253000Y-128291000D01*
X132252000Y-128288000D01*
X132252000Y-128286000D01*
X132251000Y-128283000D01*
X132251000Y-128281000D01*
X132250000Y-128278000D01*
X132250000Y-128276000D01*
X132250000Y-128273000D01*
X132250000Y-127973000D01*
X132250000Y-127970000D01*
X132250000Y-127968000D01*
X132251000Y-127965000D01*
X132251000Y-127963000D01*
X132252000Y-127960000D01*
X132252000Y-127958000D01*
X132253000Y-127955000D01*
X132254000Y-127953000D01*
X132255000Y-127950000D01*
X132257000Y-127948000D01*
X132258000Y-127946000D01*
X132260000Y-127944000D01*
X132261000Y-127942000D01*
X132263000Y-127940000D01*
X132265000Y-127938000D01*
X132267000Y-127936000D01*
X132269000Y-127934000D01*
X132271000Y-127933000D01*
X132273000Y-127931000D01*
X132275000Y-127930000D01*
X132277000Y-127928000D01*
X132280000Y-127927000D01*
X132282000Y-127926000D01*
X132285000Y-127925000D01*
X132287000Y-127925000D01*
X132290000Y-127924000D01*
X132292000Y-127924000D01*
X132295000Y-127923000D01*
X132297000Y-127923000D01*
X132300000Y-127923000D01*
X132400000Y-127923000D01*
X132403000Y-127923000D01*
X132405000Y-127923000D01*
X132408000Y-127924000D01*
G37*
X132508000Y-130126000D02*
X132510000Y-130126000D01*
X132513000Y-130127000D01*
X132515000Y-130127000D01*
X132518000Y-130128000D01*
X132520000Y-130129000D01*
X132523000Y-130130000D01*
X132525000Y-130132000D01*
X132527000Y-130133000D01*
X132529000Y-130135000D01*
X132531000Y-130136000D01*
X132533000Y-130138000D01*
X132535000Y-130140000D01*
X132537000Y-130142000D01*
X132539000Y-130144000D01*
X132540000Y-130146000D01*
X132542000Y-130148000D01*
X132543000Y-130150000D01*
X132545000Y-130152000D01*
X132546000Y-130155000D01*
X132547000Y-130157000D01*
X132548000Y-130160000D01*
X132548000Y-130162000D01*
X132549000Y-130165000D01*
X132549000Y-130167000D01*
X132550000Y-130170000D01*
X132550000Y-130172000D01*
X132550000Y-130175000D01*
X132550000Y-130825000D01*
X132550000Y-130828000D01*
X132550000Y-130830000D01*
X132549000Y-130833000D01*
X132549000Y-130835000D01*
X132548000Y-130838000D01*
X132548000Y-130840000D01*
X132547000Y-130843000D01*
X132546000Y-130845000D01*
X132545000Y-130848000D01*
X132543000Y-130850000D01*
X132542000Y-130852000D01*
X132540000Y-130854000D01*
X132539000Y-130856000D01*
X132537000Y-130858000D01*
X132535000Y-130860000D01*
X132533000Y-130862000D01*
X132531000Y-130864000D01*
X132529000Y-130865000D01*
X132527000Y-130867000D01*
X132525000Y-130868000D01*
X132523000Y-130870000D01*
X132520000Y-130871000D01*
X132518000Y-130872000D01*
X132515000Y-130873000D01*
X132513000Y-130873000D01*
X132510000Y-130874000D01*
X132508000Y-130874000D01*
X132505000Y-130875000D01*
X132503000Y-130875000D01*
X132500000Y-130875000D01*
X131730000Y-130875000D01*
X131727000Y-130875000D01*
X131725000Y-130875000D01*
X131722000Y-130874000D01*
X131720000Y-130874000D01*
X131717000Y-130873000D01*
X131715000Y-130873000D01*
X131712000Y-130872000D01*
X131710000Y-130871000D01*
X131707000Y-130870000D01*
X131705000Y-130868000D01*
X131703000Y-130867000D01*
X131701000Y-130865000D01*
X131699000Y-130864000D01*
X131697000Y-130862000D01*
X131695000Y-130860000D01*
X131693000Y-130858000D01*
X131691000Y-130856000D01*
X131690000Y-130854000D01*
X131688000Y-130852000D01*
X131687000Y-130850000D01*
X131685000Y-130848000D01*
X131684000Y-130845000D01*
X131683000Y-130843000D01*
X131682000Y-130840000D01*
X131682000Y-130838000D01*
X131681000Y-130835000D01*
X131681000Y-130833000D01*
X131680000Y-130830000D01*
X131680000Y-130828000D01*
X131680000Y-130825000D01*
X131680000Y-130175000D01*
X131680000Y-130172000D01*
X131680000Y-130170000D01*
X131681000Y-130167000D01*
X131681000Y-130165000D01*
X131682000Y-130162000D01*
X131682000Y-130160000D01*
X131683000Y-130157000D01*
X131684000Y-130155000D01*
X131685000Y-130152000D01*
X131687000Y-130150000D01*
X131688000Y-130148000D01*
X131690000Y-130146000D01*
X131691000Y-130144000D01*
X131693000Y-130142000D01*
X131695000Y-130140000D01*
X131697000Y-130138000D01*
X131699000Y-130136000D01*
X131701000Y-130135000D01*
X131703000Y-130133000D01*
X131705000Y-130132000D01*
X131707000Y-130130000D01*
X131710000Y-130129000D01*
X131712000Y-130128000D01*
X131715000Y-130127000D01*
X131717000Y-130127000D01*
X131720000Y-130126000D01*
X131722000Y-130126000D01*
X131725000Y-130125000D01*
X131727000Y-130125000D01*
X131730000Y-130125000D01*
X132500000Y-130125000D01*
X132503000Y-130125000D01*
X132505000Y-130125000D01*
X132508000Y-130126000D01*
G36*
X132508000Y-130126000D02*
G01*
X132510000Y-130126000D01*
X132513000Y-130127000D01*
X132515000Y-130127000D01*
X132518000Y-130128000D01*
X132520000Y-130129000D01*
X132523000Y-130130000D01*
X132525000Y-130132000D01*
X132527000Y-130133000D01*
X132529000Y-130135000D01*
X132531000Y-130136000D01*
X132533000Y-130138000D01*
X132535000Y-130140000D01*
X132537000Y-130142000D01*
X132539000Y-130144000D01*
X132540000Y-130146000D01*
X132542000Y-130148000D01*
X132543000Y-130150000D01*
X132545000Y-130152000D01*
X132546000Y-130155000D01*
X132547000Y-130157000D01*
X132548000Y-130160000D01*
X132548000Y-130162000D01*
X132549000Y-130165000D01*
X132549000Y-130167000D01*
X132550000Y-130170000D01*
X132550000Y-130172000D01*
X132550000Y-130175000D01*
X132550000Y-130825000D01*
X132550000Y-130828000D01*
X132550000Y-130830000D01*
X132549000Y-130833000D01*
X132549000Y-130835000D01*
X132548000Y-130838000D01*
X132548000Y-130840000D01*
X132547000Y-130843000D01*
X132546000Y-130845000D01*
X132545000Y-130848000D01*
X132543000Y-130850000D01*
X132542000Y-130852000D01*
X132540000Y-130854000D01*
X132539000Y-130856000D01*
X132537000Y-130858000D01*
X132535000Y-130860000D01*
X132533000Y-130862000D01*
X132531000Y-130864000D01*
X132529000Y-130865000D01*
X132527000Y-130867000D01*
X132525000Y-130868000D01*
X132523000Y-130870000D01*
X132520000Y-130871000D01*
X132518000Y-130872000D01*
X132515000Y-130873000D01*
X132513000Y-130873000D01*
X132510000Y-130874000D01*
X132508000Y-130874000D01*
X132505000Y-130875000D01*
X132503000Y-130875000D01*
X132500000Y-130875000D01*
X131730000Y-130875000D01*
X131727000Y-130875000D01*
X131725000Y-130875000D01*
X131722000Y-130874000D01*
X131720000Y-130874000D01*
X131717000Y-130873000D01*
X131715000Y-130873000D01*
X131712000Y-130872000D01*
X131710000Y-130871000D01*
X131707000Y-130870000D01*
X131705000Y-130868000D01*
X131703000Y-130867000D01*
X131701000Y-130865000D01*
X131699000Y-130864000D01*
X131697000Y-130862000D01*
X131695000Y-130860000D01*
X131693000Y-130858000D01*
X131691000Y-130856000D01*
X131690000Y-130854000D01*
X131688000Y-130852000D01*
X131687000Y-130850000D01*
X131685000Y-130848000D01*
X131684000Y-130845000D01*
X131683000Y-130843000D01*
X131682000Y-130840000D01*
X131682000Y-130838000D01*
X131681000Y-130835000D01*
X131681000Y-130833000D01*
X131680000Y-130830000D01*
X131680000Y-130828000D01*
X131680000Y-130825000D01*
X131680000Y-130175000D01*
X131680000Y-130172000D01*
X131680000Y-130170000D01*
X131681000Y-130167000D01*
X131681000Y-130165000D01*
X131682000Y-130162000D01*
X131682000Y-130160000D01*
X131683000Y-130157000D01*
X131684000Y-130155000D01*
X131685000Y-130152000D01*
X131687000Y-130150000D01*
X131688000Y-130148000D01*
X131690000Y-130146000D01*
X131691000Y-130144000D01*
X131693000Y-130142000D01*
X131695000Y-130140000D01*
X131697000Y-130138000D01*
X131699000Y-130136000D01*
X131701000Y-130135000D01*
X131703000Y-130133000D01*
X131705000Y-130132000D01*
X131707000Y-130130000D01*
X131710000Y-130129000D01*
X131712000Y-130128000D01*
X131715000Y-130127000D01*
X131717000Y-130127000D01*
X131720000Y-130126000D01*
X131722000Y-130126000D01*
X131725000Y-130125000D01*
X131727000Y-130125000D01*
X131730000Y-130125000D01*
X132500000Y-130125000D01*
X132503000Y-130125000D01*
X132505000Y-130125000D01*
X132508000Y-130126000D01*
G37*
X133108000Y-130149000D02*
X133110000Y-130149000D01*
X133113000Y-130150000D01*
X133115000Y-130150000D01*
X133118000Y-130151000D01*
X133120000Y-130152000D01*
X133123000Y-130153000D01*
X133125000Y-130155000D01*
X133127000Y-130156000D01*
X133129000Y-130158000D01*
X133131000Y-130159000D01*
X133133000Y-130161000D01*
X133135000Y-130163000D01*
X133137000Y-130165000D01*
X133139000Y-130167000D01*
X133140000Y-130169000D01*
X133142000Y-130171000D01*
X133143000Y-130173000D01*
X133145000Y-130175000D01*
X133146000Y-130178000D01*
X133147000Y-130180000D01*
X133148000Y-130183000D01*
X133148000Y-130185000D01*
X133149000Y-130188000D01*
X133149000Y-130190000D01*
X133150000Y-130193000D01*
X133150000Y-130195000D01*
X133150000Y-130198000D01*
X133150000Y-130298000D01*
X133150000Y-130301000D01*
X133150000Y-130303000D01*
X133149000Y-130306000D01*
X133149000Y-130308000D01*
X133148000Y-130311000D01*
X133148000Y-130313000D01*
X133147000Y-130316000D01*
X133146000Y-130318000D01*
X133145000Y-130321000D01*
X133143000Y-130323000D01*
X133142000Y-130325000D01*
X133140000Y-130327000D01*
X133139000Y-130329000D01*
X133137000Y-130331000D01*
X133135000Y-130333000D01*
X133133000Y-130335000D01*
X133131000Y-130337000D01*
X133129000Y-130338000D01*
X133127000Y-130340000D01*
X133125000Y-130341000D01*
X133123000Y-130343000D01*
X133120000Y-130344000D01*
X133118000Y-130345000D01*
X133115000Y-130346000D01*
X133113000Y-130346000D01*
X133110000Y-130347000D01*
X133108000Y-130347000D01*
X133105000Y-130348000D01*
X133103000Y-130348000D01*
X133100000Y-130348000D01*
X132800000Y-130348000D01*
X132797000Y-130348000D01*
X132795000Y-130348000D01*
X132792000Y-130347000D01*
X132790000Y-130347000D01*
X132787000Y-130346000D01*
X132785000Y-130346000D01*
X132782000Y-130345000D01*
X132780000Y-130344000D01*
X132777000Y-130343000D01*
X132775000Y-130341000D01*
X132773000Y-130340000D01*
X132771000Y-130338000D01*
X132769000Y-130337000D01*
X132767000Y-130335000D01*
X132765000Y-130333000D01*
X132763000Y-130331000D01*
X132761000Y-130329000D01*
X132760000Y-130327000D01*
X132758000Y-130325000D01*
X132757000Y-130323000D01*
X132755000Y-130321000D01*
X132754000Y-130318000D01*
X132753000Y-130316000D01*
X132752000Y-130313000D01*
X132752000Y-130311000D01*
X132751000Y-130308000D01*
X132751000Y-130306000D01*
X132750000Y-130303000D01*
X132750000Y-130301000D01*
X132750000Y-130298000D01*
X132750000Y-130198000D01*
X132750000Y-130195000D01*
X132750000Y-130193000D01*
X132751000Y-130190000D01*
X132751000Y-130188000D01*
X132752000Y-130185000D01*
X132752000Y-130183000D01*
X132753000Y-130180000D01*
X132754000Y-130178000D01*
X132755000Y-130175000D01*
X132757000Y-130173000D01*
X132758000Y-130171000D01*
X132760000Y-130169000D01*
X132761000Y-130167000D01*
X132763000Y-130165000D01*
X132765000Y-130163000D01*
X132767000Y-130161000D01*
X132769000Y-130159000D01*
X132771000Y-130158000D01*
X132773000Y-130156000D01*
X132775000Y-130155000D01*
X132777000Y-130153000D01*
X132780000Y-130152000D01*
X132782000Y-130151000D01*
X132785000Y-130150000D01*
X132787000Y-130150000D01*
X132790000Y-130149000D01*
X132792000Y-130149000D01*
X132795000Y-130148000D01*
X132797000Y-130148000D01*
X132800000Y-130148000D01*
X133100000Y-130148000D01*
X133103000Y-130148000D01*
X133105000Y-130148000D01*
X133108000Y-130149000D01*
G36*
X133108000Y-130149000D02*
G01*
X133110000Y-130149000D01*
X133113000Y-130150000D01*
X133115000Y-130150000D01*
X133118000Y-130151000D01*
X133120000Y-130152000D01*
X133123000Y-130153000D01*
X133125000Y-130155000D01*
X133127000Y-130156000D01*
X133129000Y-130158000D01*
X133131000Y-130159000D01*
X133133000Y-130161000D01*
X133135000Y-130163000D01*
X133137000Y-130165000D01*
X133139000Y-130167000D01*
X133140000Y-130169000D01*
X133142000Y-130171000D01*
X133143000Y-130173000D01*
X133145000Y-130175000D01*
X133146000Y-130178000D01*
X133147000Y-130180000D01*
X133148000Y-130183000D01*
X133148000Y-130185000D01*
X133149000Y-130188000D01*
X133149000Y-130190000D01*
X133150000Y-130193000D01*
X133150000Y-130195000D01*
X133150000Y-130198000D01*
X133150000Y-130298000D01*
X133150000Y-130301000D01*
X133150000Y-130303000D01*
X133149000Y-130306000D01*
X133149000Y-130308000D01*
X133148000Y-130311000D01*
X133148000Y-130313000D01*
X133147000Y-130316000D01*
X133146000Y-130318000D01*
X133145000Y-130321000D01*
X133143000Y-130323000D01*
X133142000Y-130325000D01*
X133140000Y-130327000D01*
X133139000Y-130329000D01*
X133137000Y-130331000D01*
X133135000Y-130333000D01*
X133133000Y-130335000D01*
X133131000Y-130337000D01*
X133129000Y-130338000D01*
X133127000Y-130340000D01*
X133125000Y-130341000D01*
X133123000Y-130343000D01*
X133120000Y-130344000D01*
X133118000Y-130345000D01*
X133115000Y-130346000D01*
X133113000Y-130346000D01*
X133110000Y-130347000D01*
X133108000Y-130347000D01*
X133105000Y-130348000D01*
X133103000Y-130348000D01*
X133100000Y-130348000D01*
X132800000Y-130348000D01*
X132797000Y-130348000D01*
X132795000Y-130348000D01*
X132792000Y-130347000D01*
X132790000Y-130347000D01*
X132787000Y-130346000D01*
X132785000Y-130346000D01*
X132782000Y-130345000D01*
X132780000Y-130344000D01*
X132777000Y-130343000D01*
X132775000Y-130341000D01*
X132773000Y-130340000D01*
X132771000Y-130338000D01*
X132769000Y-130337000D01*
X132767000Y-130335000D01*
X132765000Y-130333000D01*
X132763000Y-130331000D01*
X132761000Y-130329000D01*
X132760000Y-130327000D01*
X132758000Y-130325000D01*
X132757000Y-130323000D01*
X132755000Y-130321000D01*
X132754000Y-130318000D01*
X132753000Y-130316000D01*
X132752000Y-130313000D01*
X132752000Y-130311000D01*
X132751000Y-130308000D01*
X132751000Y-130306000D01*
X132750000Y-130303000D01*
X132750000Y-130301000D01*
X132750000Y-130298000D01*
X132750000Y-130198000D01*
X132750000Y-130195000D01*
X132750000Y-130193000D01*
X132751000Y-130190000D01*
X132751000Y-130188000D01*
X132752000Y-130185000D01*
X132752000Y-130183000D01*
X132753000Y-130180000D01*
X132754000Y-130178000D01*
X132755000Y-130175000D01*
X132757000Y-130173000D01*
X132758000Y-130171000D01*
X132760000Y-130169000D01*
X132761000Y-130167000D01*
X132763000Y-130165000D01*
X132765000Y-130163000D01*
X132767000Y-130161000D01*
X132769000Y-130159000D01*
X132771000Y-130158000D01*
X132773000Y-130156000D01*
X132775000Y-130155000D01*
X132777000Y-130153000D01*
X132780000Y-130152000D01*
X132782000Y-130151000D01*
X132785000Y-130150000D01*
X132787000Y-130150000D01*
X132790000Y-130149000D01*
X132792000Y-130149000D01*
X132795000Y-130148000D01*
X132797000Y-130148000D01*
X132800000Y-130148000D01*
X133100000Y-130148000D01*
X133103000Y-130148000D01*
X133105000Y-130148000D01*
X133108000Y-130149000D01*
G37*
X133108000Y-130649000D02*
X133110000Y-130649000D01*
X133113000Y-130650000D01*
X133115000Y-130650000D01*
X133118000Y-130651000D01*
X133120000Y-130652000D01*
X133123000Y-130653000D01*
X133125000Y-130655000D01*
X133127000Y-130656000D01*
X133129000Y-130658000D01*
X133131000Y-130659000D01*
X133133000Y-130661000D01*
X133135000Y-130663000D01*
X133137000Y-130665000D01*
X133139000Y-130667000D01*
X133140000Y-130669000D01*
X133142000Y-130671000D01*
X133143000Y-130673000D01*
X133145000Y-130675000D01*
X133146000Y-130678000D01*
X133147000Y-130680000D01*
X133148000Y-130683000D01*
X133148000Y-130685000D01*
X133149000Y-130688000D01*
X133149000Y-130690000D01*
X133150000Y-130693000D01*
X133150000Y-130695000D01*
X133150000Y-130698000D01*
X133150000Y-130798000D01*
X133150000Y-130801000D01*
X133150000Y-130803000D01*
X133149000Y-130806000D01*
X133149000Y-130808000D01*
X133148000Y-130811000D01*
X133148000Y-130813000D01*
X133147000Y-130816000D01*
X133146000Y-130818000D01*
X133145000Y-130821000D01*
X133143000Y-130823000D01*
X133142000Y-130825000D01*
X133140000Y-130827000D01*
X133139000Y-130829000D01*
X133137000Y-130831000D01*
X133135000Y-130833000D01*
X133133000Y-130835000D01*
X133131000Y-130837000D01*
X133129000Y-130838000D01*
X133127000Y-130840000D01*
X133125000Y-130841000D01*
X133123000Y-130843000D01*
X133120000Y-130844000D01*
X133118000Y-130845000D01*
X133115000Y-130846000D01*
X133113000Y-130846000D01*
X133110000Y-130847000D01*
X133108000Y-130847000D01*
X133105000Y-130848000D01*
X133103000Y-130848000D01*
X133100000Y-130848000D01*
X132800000Y-130848000D01*
X132797000Y-130848000D01*
X132795000Y-130848000D01*
X132792000Y-130847000D01*
X132790000Y-130847000D01*
X132787000Y-130846000D01*
X132785000Y-130846000D01*
X132782000Y-130845000D01*
X132780000Y-130844000D01*
X132777000Y-130843000D01*
X132775000Y-130841000D01*
X132773000Y-130840000D01*
X132771000Y-130838000D01*
X132769000Y-130837000D01*
X132767000Y-130835000D01*
X132765000Y-130833000D01*
X132763000Y-130831000D01*
X132761000Y-130829000D01*
X132760000Y-130827000D01*
X132758000Y-130825000D01*
X132757000Y-130823000D01*
X132755000Y-130821000D01*
X132754000Y-130818000D01*
X132753000Y-130816000D01*
X132752000Y-130813000D01*
X132752000Y-130811000D01*
X132751000Y-130808000D01*
X132751000Y-130806000D01*
X132750000Y-130803000D01*
X132750000Y-130801000D01*
X132750000Y-130798000D01*
X132750000Y-130698000D01*
X132750000Y-130695000D01*
X132750000Y-130693000D01*
X132751000Y-130690000D01*
X132751000Y-130688000D01*
X132752000Y-130685000D01*
X132752000Y-130683000D01*
X132753000Y-130680000D01*
X132754000Y-130678000D01*
X132755000Y-130675000D01*
X132757000Y-130673000D01*
X132758000Y-130671000D01*
X132760000Y-130669000D01*
X132761000Y-130667000D01*
X132763000Y-130665000D01*
X132765000Y-130663000D01*
X132767000Y-130661000D01*
X132769000Y-130659000D01*
X132771000Y-130658000D01*
X132773000Y-130656000D01*
X132775000Y-130655000D01*
X132777000Y-130653000D01*
X132780000Y-130652000D01*
X132782000Y-130651000D01*
X132785000Y-130650000D01*
X132787000Y-130650000D01*
X132790000Y-130649000D01*
X132792000Y-130649000D01*
X132795000Y-130648000D01*
X132797000Y-130648000D01*
X132800000Y-130648000D01*
X133100000Y-130648000D01*
X133103000Y-130648000D01*
X133105000Y-130648000D01*
X133108000Y-130649000D01*
G36*
X133108000Y-130649000D02*
G01*
X133110000Y-130649000D01*
X133113000Y-130650000D01*
X133115000Y-130650000D01*
X133118000Y-130651000D01*
X133120000Y-130652000D01*
X133123000Y-130653000D01*
X133125000Y-130655000D01*
X133127000Y-130656000D01*
X133129000Y-130658000D01*
X133131000Y-130659000D01*
X133133000Y-130661000D01*
X133135000Y-130663000D01*
X133137000Y-130665000D01*
X133139000Y-130667000D01*
X133140000Y-130669000D01*
X133142000Y-130671000D01*
X133143000Y-130673000D01*
X133145000Y-130675000D01*
X133146000Y-130678000D01*
X133147000Y-130680000D01*
X133148000Y-130683000D01*
X133148000Y-130685000D01*
X133149000Y-130688000D01*
X133149000Y-130690000D01*
X133150000Y-130693000D01*
X133150000Y-130695000D01*
X133150000Y-130698000D01*
X133150000Y-130798000D01*
X133150000Y-130801000D01*
X133150000Y-130803000D01*
X133149000Y-130806000D01*
X133149000Y-130808000D01*
X133148000Y-130811000D01*
X133148000Y-130813000D01*
X133147000Y-130816000D01*
X133146000Y-130818000D01*
X133145000Y-130821000D01*
X133143000Y-130823000D01*
X133142000Y-130825000D01*
X133140000Y-130827000D01*
X133139000Y-130829000D01*
X133137000Y-130831000D01*
X133135000Y-130833000D01*
X133133000Y-130835000D01*
X133131000Y-130837000D01*
X133129000Y-130838000D01*
X133127000Y-130840000D01*
X133125000Y-130841000D01*
X133123000Y-130843000D01*
X133120000Y-130844000D01*
X133118000Y-130845000D01*
X133115000Y-130846000D01*
X133113000Y-130846000D01*
X133110000Y-130847000D01*
X133108000Y-130847000D01*
X133105000Y-130848000D01*
X133103000Y-130848000D01*
X133100000Y-130848000D01*
X132800000Y-130848000D01*
X132797000Y-130848000D01*
X132795000Y-130848000D01*
X132792000Y-130847000D01*
X132790000Y-130847000D01*
X132787000Y-130846000D01*
X132785000Y-130846000D01*
X132782000Y-130845000D01*
X132780000Y-130844000D01*
X132777000Y-130843000D01*
X132775000Y-130841000D01*
X132773000Y-130840000D01*
X132771000Y-130838000D01*
X132769000Y-130837000D01*
X132767000Y-130835000D01*
X132765000Y-130833000D01*
X132763000Y-130831000D01*
X132761000Y-130829000D01*
X132760000Y-130827000D01*
X132758000Y-130825000D01*
X132757000Y-130823000D01*
X132755000Y-130821000D01*
X132754000Y-130818000D01*
X132753000Y-130816000D01*
X132752000Y-130813000D01*
X132752000Y-130811000D01*
X132751000Y-130808000D01*
X132751000Y-130806000D01*
X132750000Y-130803000D01*
X132750000Y-130801000D01*
X132750000Y-130798000D01*
X132750000Y-130698000D01*
X132750000Y-130695000D01*
X132750000Y-130693000D01*
X132751000Y-130690000D01*
X132751000Y-130688000D01*
X132752000Y-130685000D01*
X132752000Y-130683000D01*
X132753000Y-130680000D01*
X132754000Y-130678000D01*
X132755000Y-130675000D01*
X132757000Y-130673000D01*
X132758000Y-130671000D01*
X132760000Y-130669000D01*
X132761000Y-130667000D01*
X132763000Y-130665000D01*
X132765000Y-130663000D01*
X132767000Y-130661000D01*
X132769000Y-130659000D01*
X132771000Y-130658000D01*
X132773000Y-130656000D01*
X132775000Y-130655000D01*
X132777000Y-130653000D01*
X132780000Y-130652000D01*
X132782000Y-130651000D01*
X132785000Y-130650000D01*
X132787000Y-130650000D01*
X132790000Y-130649000D01*
X132792000Y-130649000D01*
X132795000Y-130648000D01*
X132797000Y-130648000D01*
X132800000Y-130648000D01*
X133100000Y-130648000D01*
X133103000Y-130648000D01*
X133105000Y-130648000D01*
X133108000Y-130649000D01*
G37*
X132388000Y-128524000D02*
X132390000Y-128524000D01*
X132393000Y-128525000D01*
X132395000Y-128525000D01*
X132398000Y-128526000D01*
X132400000Y-128527000D01*
X132403000Y-128528000D01*
X132405000Y-128530000D01*
X132407000Y-128531000D01*
X132409000Y-128533000D01*
X132411000Y-128534000D01*
X132413000Y-128536000D01*
X132415000Y-128538000D01*
X132417000Y-128540000D01*
X132419000Y-128542000D01*
X132420000Y-128544000D01*
X132422000Y-128546000D01*
X132423000Y-128548000D01*
X132425000Y-128550000D01*
X132426000Y-128553000D01*
X132427000Y-128555000D01*
X132428000Y-128558000D01*
X132428000Y-128560000D01*
X132429000Y-128563000D01*
X132429000Y-128565000D01*
X132430000Y-128568000D01*
X132430000Y-128570000D01*
X132430000Y-128573000D01*
X132430000Y-128594000D01*
X132430000Y-128594010D01*
X132430000Y-128595000D01*
X132430000Y-128597000D01*
X132430000Y-128598000D01*
X132430000Y-128599000D01*
X132430000Y-128601000D01*
X132429000Y-128602000D01*
X132429000Y-128603000D01*
X132429000Y-128604000D01*
X132429000Y-128606000D01*
X132428000Y-128607000D01*
X132428000Y-128608000D01*
X132428000Y-128609000D01*
X132427000Y-128611000D01*
X132427000Y-128612000D01*
X132426000Y-128613000D01*
X132426000Y-128614000D01*
X132425000Y-128616000D01*
X132425000Y-128617000D01*
X132424000Y-128618000D01*
X132423000Y-128619000D01*
X132423000Y-128620000D01*
X132422000Y-128621000D01*
X132421000Y-128622000D01*
X132420000Y-128623000D01*
X132420000Y-128624000D01*
X132419000Y-128625000D01*
X132418000Y-128626000D01*
X132417000Y-128627000D01*
X132416000Y-128628000D01*
X132415000Y-128629000D01*
X131956000Y-129088000D01*
X131955000Y-129089000D01*
X131954000Y-129090000D01*
X131953000Y-129091000D01*
X131952000Y-129092000D01*
X131951000Y-129093000D01*
X131950000Y-129093000D01*
X131949000Y-129094000D01*
X131948000Y-129095000D01*
X131947000Y-129096000D01*
X131946000Y-129096000D01*
X131945000Y-129097000D01*
X131944000Y-129098000D01*
X131943000Y-129098000D01*
X131941000Y-129099000D01*
X131940000Y-129099000D01*
X131939000Y-129100000D01*
X131938000Y-129100000D01*
X131936000Y-129101000D01*
X131935000Y-129101000D01*
X131934000Y-129101000D01*
X131933000Y-129102000D01*
X131931000Y-129102000D01*
X131930000Y-129102000D01*
X131929000Y-129102000D01*
X131928000Y-129103000D01*
X131926000Y-129103000D01*
X131925000Y-129103000D01*
X131924000Y-129103000D01*
X131922000Y-129103000D01*
X131921000Y-129103000D01*
X131540000Y-129103000D01*
X131537000Y-129103000D01*
X131535000Y-129103000D01*
X131532000Y-129102000D01*
X131530000Y-129102000D01*
X131527000Y-129101000D01*
X131525000Y-129101000D01*
X131522000Y-129100000D01*
X131520000Y-129099000D01*
X131517000Y-129098000D01*
X131515000Y-129096000D01*
X131513000Y-129095000D01*
X131511000Y-129093000D01*
X131509000Y-129092000D01*
X131507000Y-129090000D01*
X131505000Y-129088000D01*
X131503000Y-129086000D01*
X131501000Y-129084000D01*
X131500000Y-129082000D01*
X131498000Y-129080000D01*
X131497000Y-129078000D01*
X131495000Y-129076000D01*
X131494000Y-129073000D01*
X131493000Y-129071000D01*
X131492000Y-129068000D01*
X131492000Y-129066000D01*
X131491000Y-129063000D01*
X131491000Y-129061000D01*
X131490000Y-129058000D01*
X131490000Y-129056000D01*
X131490000Y-129053000D01*
X131490000Y-128573000D01*
X131490000Y-128570000D01*
X131490000Y-128568000D01*
X131491000Y-128565000D01*
X131491000Y-128563000D01*
X131492000Y-128560000D01*
X131492000Y-128558000D01*
X131493000Y-128555000D01*
X131494000Y-128553000D01*
X131495000Y-128550000D01*
X131497000Y-128548000D01*
X131498000Y-128546000D01*
X131500000Y-128544000D01*
X131501000Y-128542000D01*
X131503000Y-128540000D01*
X131505000Y-128538000D01*
X131507000Y-128536000D01*
X131509000Y-128534000D01*
X131511000Y-128533000D01*
X131513000Y-128531000D01*
X131515000Y-128530000D01*
X131517000Y-128528000D01*
X131520000Y-128527000D01*
X131522000Y-128526000D01*
X131525000Y-128525000D01*
X131527000Y-128525000D01*
X131530000Y-128524000D01*
X131532000Y-128524000D01*
X131535000Y-128523000D01*
X131537000Y-128523000D01*
X131540000Y-128523000D01*
X132380000Y-128523000D01*
X132383000Y-128523000D01*
X132385000Y-128523000D01*
X132388000Y-128524000D01*
G36*
X132388000Y-128524000D02*
G01*
X132390000Y-128524000D01*
X132393000Y-128525000D01*
X132395000Y-128525000D01*
X132398000Y-128526000D01*
X132400000Y-128527000D01*
X132403000Y-128528000D01*
X132405000Y-128530000D01*
X132407000Y-128531000D01*
X132409000Y-128533000D01*
X132411000Y-128534000D01*
X132413000Y-128536000D01*
X132415000Y-128538000D01*
X132417000Y-128540000D01*
X132419000Y-128542000D01*
X132420000Y-128544000D01*
X132422000Y-128546000D01*
X132423000Y-128548000D01*
X132425000Y-128550000D01*
X132426000Y-128553000D01*
X132427000Y-128555000D01*
X132428000Y-128558000D01*
X132428000Y-128560000D01*
X132429000Y-128563000D01*
X132429000Y-128565000D01*
X132430000Y-128568000D01*
X132430000Y-128570000D01*
X132430000Y-128573000D01*
X132430000Y-128594000D01*
X132430000Y-128594010D01*
X132430000Y-128595000D01*
X132430000Y-128597000D01*
X132430000Y-128598000D01*
X132430000Y-128599000D01*
X132430000Y-128601000D01*
X132429000Y-128602000D01*
X132429000Y-128603000D01*
X132429000Y-128604000D01*
X132429000Y-128606000D01*
X132428000Y-128607000D01*
X132428000Y-128608000D01*
X132428000Y-128609000D01*
X132427000Y-128611000D01*
X132427000Y-128612000D01*
X132426000Y-128613000D01*
X132426000Y-128614000D01*
X132425000Y-128616000D01*
X132425000Y-128617000D01*
X132424000Y-128618000D01*
X132423000Y-128619000D01*
X132423000Y-128620000D01*
X132422000Y-128621000D01*
X132421000Y-128622000D01*
X132420000Y-128623000D01*
X132420000Y-128624000D01*
X132419000Y-128625000D01*
X132418000Y-128626000D01*
X132417000Y-128627000D01*
X132416000Y-128628000D01*
X132415000Y-128629000D01*
X131956000Y-129088000D01*
X131955000Y-129089000D01*
X131954000Y-129090000D01*
X131953000Y-129091000D01*
X131952000Y-129092000D01*
X131951000Y-129093000D01*
X131950000Y-129093000D01*
X131949000Y-129094000D01*
X131948000Y-129095000D01*
X131947000Y-129096000D01*
X131946000Y-129096000D01*
X131945000Y-129097000D01*
X131944000Y-129098000D01*
X131943000Y-129098000D01*
X131941000Y-129099000D01*
X131940000Y-129099000D01*
X131939000Y-129100000D01*
X131938000Y-129100000D01*
X131936000Y-129101000D01*
X131935000Y-129101000D01*
X131934000Y-129101000D01*
X131933000Y-129102000D01*
X131931000Y-129102000D01*
X131930000Y-129102000D01*
X131929000Y-129102000D01*
X131928000Y-129103000D01*
X131926000Y-129103000D01*
X131925000Y-129103000D01*
X131924000Y-129103000D01*
X131922000Y-129103000D01*
X131921000Y-129103000D01*
X131540000Y-129103000D01*
X131537000Y-129103000D01*
X131535000Y-129103000D01*
X131532000Y-129102000D01*
X131530000Y-129102000D01*
X131527000Y-129101000D01*
X131525000Y-129101000D01*
X131522000Y-129100000D01*
X131520000Y-129099000D01*
X131517000Y-129098000D01*
X131515000Y-129096000D01*
X131513000Y-129095000D01*
X131511000Y-129093000D01*
X131509000Y-129092000D01*
X131507000Y-129090000D01*
X131505000Y-129088000D01*
X131503000Y-129086000D01*
X131501000Y-129084000D01*
X131500000Y-129082000D01*
X131498000Y-129080000D01*
X131497000Y-129078000D01*
X131495000Y-129076000D01*
X131494000Y-129073000D01*
X131493000Y-129071000D01*
X131492000Y-129068000D01*
X131492000Y-129066000D01*
X131491000Y-129063000D01*
X131491000Y-129061000D01*
X131490000Y-129058000D01*
X131490000Y-129056000D01*
X131490000Y-129053000D01*
X131490000Y-128573000D01*
X131490000Y-128570000D01*
X131490000Y-128568000D01*
X131491000Y-128565000D01*
X131491000Y-128563000D01*
X131492000Y-128560000D01*
X131492000Y-128558000D01*
X131493000Y-128555000D01*
X131494000Y-128553000D01*
X131495000Y-128550000D01*
X131497000Y-128548000D01*
X131498000Y-128546000D01*
X131500000Y-128544000D01*
X131501000Y-128542000D01*
X131503000Y-128540000D01*
X131505000Y-128538000D01*
X131507000Y-128536000D01*
X131509000Y-128534000D01*
X131511000Y-128533000D01*
X131513000Y-128531000D01*
X131515000Y-128530000D01*
X131517000Y-128528000D01*
X131520000Y-128527000D01*
X131522000Y-128526000D01*
X131525000Y-128525000D01*
X131527000Y-128525000D01*
X131530000Y-128524000D01*
X131532000Y-128524000D01*
X131535000Y-128523000D01*
X131537000Y-128523000D01*
X131540000Y-128523000D01*
X132380000Y-128523000D01*
X132383000Y-128523000D01*
X132385000Y-128523000D01*
X132388000Y-128524000D01*
G37*
%TD*%
D11*
%TO.C,C46*%
X152900000Y-119060001D03*
X152900000Y-118100001D03*
%TD*%
D12*
%TO.C,R15*%
X139319998Y-124100000D03*
X138300000Y-124100000D03*
%TD*%
D13*
%TO.C,C20*%
X152672933Y-90249604D03*
X151994111Y-90928426D03*
%TD*%
D14*
%TO.C,R2*%
X148950000Y-94700000D03*
X148950000Y-95719998D03*
%TD*%
D15*
%TO.C,D6*%
X124700000Y-77000002D03*
X124700000Y-81000004D03*
%TD*%
D12*
%TO.C,R18*%
X166800000Y-122500000D03*
X165780002Y-122500000D03*
%TD*%
D16*
%TO.C,C30*%
X128950000Y-131773000D03*
X128950000Y-132733000D03*
%TD*%
D14*
%TO.C,R32*%
X163100000Y-105090001D03*
X163100000Y-106109999D03*
%TD*%
D17*
%TO.C,R31*%
X134800000Y-107009999D03*
X134800000Y-105990001D03*
%TD*%
D18*
%TO.C,C40*%
X136724999Y-125777000D03*
X139675001Y-125777000D03*
%TD*%
D16*
%TO.C,C2*%
X147950000Y-94725000D03*
X147950000Y-95685000D03*
%TD*%
D19*
%TO.C,R11*%
X154102043Y-88883740D03*
X153380795Y-89604988D03*
%TD*%
D13*
%TO.C,C16*%
X139800000Y-98300000D03*
X139121178Y-98978822D03*
%TD*%
D16*
%TO.C,C13*%
X125500000Y-94000000D03*
X125500000Y-94960000D03*
%TD*%
D20*
%TO.C,J31*%
X161700000Y-110750000D03*
X160450000Y-110750000D03*
D21*
X158600000Y-114100000D03*
X163550000Y-114100000D03*
%TD*%
D22*
%TO.C,R19*%
X139980000Y-120500000D03*
X141000000Y-120500000D03*
%TD*%
D23*
%TO.C,C17*%
X124400000Y-98900000D03*
X124400000Y-97940000D03*
%TD*%
D17*
%TO.C,R5*%
X160800000Y-127785000D03*
X160800000Y-126765000D03*
%TD*%
D24*
%TO.C,U4*%
X171275000Y-106675000D03*
X171275000Y-106025000D03*
X171275000Y-105375000D03*
X171275000Y-104725000D03*
X171275000Y-104075000D03*
X171275000Y-103425000D03*
X171275000Y-102775000D03*
X171275000Y-102125000D03*
X165550000Y-102125000D03*
X165550000Y-102775000D03*
X165550000Y-103425000D03*
X165550000Y-104075000D03*
X165550000Y-104725000D03*
X165550000Y-105375000D03*
X165550000Y-106025000D03*
X165550000Y-106675000D03*
%TD*%
D25*
%TO.C,Q3*%
X169751000Y-77700000D03*
X170100000Y-77700000D03*
D26*
X169925000Y-77040000D03*
%TD*%
D16*
%TO.C,C25*%
X173100000Y-95620000D03*
X173100000Y-96580000D03*
%TD*%
D27*
%TO.C,D10*%
X148440000Y-111024998D03*
X148440000Y-112600000D03*
%TD*%
D24*
%TO.C,U8*%
X170562500Y-98750000D03*
X170562500Y-98100000D03*
X170562500Y-97450000D03*
X170562500Y-96800000D03*
X170562500Y-96150000D03*
X170562500Y-95500000D03*
X170562500Y-94850000D03*
X164837500Y-94850000D03*
X164837500Y-95500000D03*
X164837500Y-96150000D03*
X164837500Y-96800000D03*
X164837500Y-97450000D03*
X164837500Y-98100000D03*
X164837500Y-98750000D03*
%TD*%
D28*
%TO.C,D2*%
X142300000Y-120200000D03*
X143875000Y-120200000D03*
%TD*%
D23*
%TO.C,C49*%
X164087867Y-91312132D03*
X163127867Y-91312132D03*
%TD*%
D29*
%TO.C,C41*%
X167040001Y-126812501D03*
X167040001Y-123862499D03*
%TD*%
D18*
%TO.C,C37*%
X132095000Y-126330000D03*
X135045000Y-126330000D03*
%TD*%
D13*
%TO.C,C22*%
X155282911Y-89117086D03*
X154604089Y-89795908D03*
%TD*%
D30*
%TO.C,U12*%
X167932868Y-84637132D03*
X166662868Y-84637132D03*
X165392868Y-84637132D03*
X164122868Y-84637132D03*
X162852868Y-84637132D03*
X161582868Y-84637132D03*
X160312868Y-84637132D03*
X159042868Y-84637132D03*
X159042868Y-89587132D03*
X160312868Y-89587132D03*
X161582868Y-89587132D03*
X162852868Y-89587132D03*
X164122868Y-89587132D03*
X165392868Y-89587132D03*
X166662868Y-89587132D03*
X167932868Y-89587132D03*
%TD*%
D22*
%TO.C,R9*%
X126500000Y-93400000D03*
X127519998Y-93400000D03*
%TD*%
D31*
%TO.C,U5*%
X142402951Y-93854765D03*
X141943332Y-93395146D03*
X141483713Y-92935526D03*
X141024093Y-92475907D03*
X140564474Y-92016287D03*
X140104854Y-91556668D03*
X139645235Y-91097049D03*
X135597049Y-95145235D03*
X136056668Y-95604854D03*
X136516287Y-96064474D03*
X136975907Y-96524093D03*
X137435526Y-96983713D03*
X137895146Y-97443332D03*
X138354765Y-97902951D03*
%TD*%
D16*
%TO.C,C11*%
X125400000Y-96110001D03*
X125400000Y-97070001D03*
%TD*%
D32*
%TO.C,Q5*%
X133099999Y-87950000D03*
X133099999Y-89850000D03*
X135200000Y-88900000D03*
%TD*%
D18*
%TO.C,C36*%
X169890000Y-128162500D03*
X172840002Y-128162500D03*
%TD*%
D33*
%TO.C,SW2*%
X160604164Y-103695836D03*
X158200000Y-106100000D03*
%TD*%
D23*
%TO.C,C27*%
X165200000Y-100100000D03*
X164240000Y-100100000D03*
%TD*%
D34*
%TO.C,C14*%
X141600000Y-90900000D03*
X142278822Y-91578822D03*
%TD*%
D35*
%TO.C,U6*%
X127000241Y-94704414D03*
X127000241Y-95354414D03*
X127000241Y-96004414D03*
X127000241Y-96654414D03*
X127000241Y-97304414D03*
X127000241Y-97954414D03*
X127000241Y-98604414D03*
X132725241Y-98604414D03*
X132725241Y-97954414D03*
X132725241Y-97304414D03*
X132725241Y-96654414D03*
X132725241Y-96004414D03*
X132725241Y-95354414D03*
X132725241Y-94704414D03*
%TD*%
D16*
%TO.C,C43*%
X128950000Y-128073000D03*
X128950000Y-129033000D03*
%TD*%
D28*
%TO.C,D3*%
X134712500Y-118100000D03*
X136287500Y-118100000D03*
%TD*%
D36*
%TO.C,D8*%
X172223360Y-73972634D03*
X172223360Y-69972632D03*
%TD*%
D20*
%TO.C,J30*%
X132572500Y-67100000D03*
X131322500Y-67100000D03*
X130072500Y-67100000D03*
X128822500Y-67100000D03*
D37*
X134422500Y-63900000D03*
X126972500Y-63900000D03*
%TD*%
D38*
%TO.C,C32*%
X172640001Y-126262499D03*
X172640001Y-124362501D03*
%TD*%
D11*
%TO.C,C23*%
X173100000Y-100309998D03*
X173100000Y-99349998D03*
%TD*%
D22*
%TO.C,R29*%
X147930000Y-113762499D03*
X148949998Y-113762499D03*
%TD*%
D17*
%TO.C,R20*%
X137980002Y-118200000D03*
X139000000Y-118200000D03*
%TD*%
D11*
%TO.C,C31*%
X128950000Y-130893000D03*
X128950000Y-129933000D03*
%TD*%
D39*
%TO.C,C28*%
X155695108Y-97814349D03*
X155016286Y-97135527D03*
%TD*%
D34*
%TO.C,C26*%
X153637464Y-95756705D03*
X154316286Y-96435527D03*
%TD*%
D40*
%TO.C,R1*%
X140860624Y-100960624D03*
X140139376Y-100239376D03*
%TD*%
D16*
%TO.C,C38*%
X172390001Y-122182499D03*
X172390001Y-123142499D03*
%TD*%
D40*
%TO.C,R7*%
X143664752Y-92964752D03*
X142943504Y-92243504D03*
%TD*%
D18*
%TO.C,C35*%
X136700000Y-128100000D03*
X139650000Y-128100000D03*
%TD*%
D41*
%TO.C,U11*%
X125595000Y-89675000D03*
X126865000Y-89675000D03*
X128135000Y-89675000D03*
X129405000Y-89675000D03*
X129405000Y-84725000D03*
X128135000Y-84725000D03*
X126865000Y-84725000D03*
X125595000Y-84725000D03*
%TD*%
D28*
%TO.C,D4*%
X148912500Y-120300000D03*
X150487500Y-120300000D03*
%TD*%
D42*
%TO.C,L1*%
X126857402Y-121100000D03*
X132500000Y-121100000D03*
%TD*%
D11*
%TO.C,C45*%
X158000000Y-118760000D03*
X158000000Y-117800000D03*
%TD*%
D43*
%TO.C,C8*%
X134800000Y-103300000D03*
X134800000Y-104850000D03*
%TD*%
D23*
%TO.C,C50*%
X166367869Y-91312132D03*
X165407869Y-91312132D03*
%TD*%
D14*
%TO.C,R12*%
X172137499Y-96310001D03*
X172137499Y-97329999D03*
%TD*%
D22*
%TO.C,R17*%
X136370001Y-124100000D03*
X137390001Y-124100000D03*
%TD*%
D44*
%TO.C,C19*%
X132820000Y-99900000D03*
X133780000Y-99900000D03*
%TD*%
%TO.C,C48*%
X161727869Y-82912132D03*
X162687869Y-82912132D03*
%TD*%
D35*
%TO.C,U3*%
X126100000Y-103050000D03*
X126100000Y-103700000D03*
X126100000Y-104350000D03*
X126100000Y-105000000D03*
X126100000Y-105650000D03*
X126100000Y-106300000D03*
X126100000Y-106950000D03*
X126100000Y-107600000D03*
X131825000Y-107600000D03*
X131825000Y-106950000D03*
X131825000Y-106300000D03*
X131825000Y-105650000D03*
X131825000Y-105000000D03*
X131825000Y-104350000D03*
X131825000Y-103700000D03*
X131825000Y-103050000D03*
%TD*%
D25*
%TO.C,Q2*%
X127149000Y-80300002D03*
X126800000Y-80300002D03*
D26*
X126975000Y-80960002D03*
%TD*%
D45*
%TO.C,C9*%
X163100000Y-103950000D03*
X163100000Y-102400000D03*
%TD*%
D46*
%TO.C,J23*%
X123472501Y-67200000D03*
X122222501Y-67200000D03*
D47*
X125322500Y-63999999D03*
X120372502Y-63999999D03*
%TD*%
D48*
%TO.C,U7*%
X155954765Y-90697049D03*
X155495146Y-91156668D03*
X155035526Y-91616287D03*
X154575907Y-92075907D03*
X154116287Y-92535526D03*
X153656668Y-92995146D03*
X153197049Y-93454765D03*
X157245235Y-97502951D03*
X157704854Y-97043332D03*
X158164474Y-96583713D03*
X158624093Y-96124093D03*
X159083713Y-95664474D03*
X159543332Y-95204854D03*
X160002951Y-94745235D03*
%TD*%
D27*
%TO.C,D11*%
X152240000Y-111024998D03*
X152240000Y-112600000D03*
%TD*%
D49*
%TO.C,R6*%
X140256497Y-89556498D03*
X140977745Y-90277746D03*
%TD*%
D50*
%TO.C,R16*%
X130600000Y-133323000D03*
X132250000Y-133323000D03*
%TD*%
D27*
%TO.C,D9*%
X144440000Y-110924998D03*
X144440000Y-112500000D03*
%TD*%
D51*
%TO.C,C33*%
X135225000Y-133323000D03*
X133675000Y-133323000D03*
%TD*%
D22*
%TO.C,R30*%
X151720001Y-113762499D03*
X152739999Y-113762499D03*
%TD*%
D52*
%TO.C,J24*%
X168300000Y-67400000D03*
X167050000Y-67400000D03*
X165800000Y-67400000D03*
X164550000Y-67400000D03*
D53*
X170150000Y-64200000D03*
X162700000Y-64200000D03*
%TD*%
D54*
%TO.C,Q6*%
X133362500Y-84150000D03*
X133362500Y-86050000D03*
X135237500Y-85100000D03*
%TD*%
D55*
%TO.C,U2*%
X164000000Y-124910000D03*
X164000000Y-123640000D03*
X164000000Y-122370000D03*
X164000000Y-121100000D03*
X158700000Y-121100000D03*
X158700000Y-122370000D03*
X158700000Y-123640000D03*
X158700000Y-124910000D03*
%TD*%
D17*
%TO.C,R13*%
X172137499Y-99249998D03*
X172137499Y-98230000D03*
%TD*%
D56*
%TO.C,PS1*%
X130050000Y-131248000D03*
D57*
X130550000Y-132023000D03*
X131000000Y-132023000D03*
X131450000Y-132023000D03*
X131900000Y-132023000D03*
X132350000Y-132023000D03*
D56*
X132850000Y-131248000D03*
X132850000Y-128998000D03*
%TD*%
D11*
%TO.C,C21*%
X172137499Y-101089999D03*
X172137499Y-100129999D03*
%TD*%
D17*
%TO.C,R8*%
X125400000Y-99000000D03*
X125400000Y-97980002D03*
%TD*%
D58*
%TO.C,U9*%
X168990001Y-126100000D03*
X169940000Y-126100000D03*
X170889999Y-126100000D03*
X170889999Y-123825000D03*
X169940000Y-123825000D03*
X168990001Y-123825000D03*
%TD*%
D13*
%TO.C,C6*%
X142750000Y-102000000D03*
X142071178Y-102678822D03*
%TD*%
D59*
%TO.C,J2*%
X159205000Y-129325000D03*
X160005000Y-129325000D03*
D60*
X161155000Y-129325000D03*
X162155000Y-129325000D03*
X162655000Y-129325000D03*
X163655000Y-129325000D03*
D59*
X164805000Y-129325000D03*
X165605000Y-129325000D03*
X165605000Y-129325000D03*
X164805000Y-129325000D03*
D60*
X164155000Y-129325000D03*
X163155000Y-129325000D03*
X161655000Y-129325000D03*
X160655000Y-129325000D03*
D59*
X160005000Y-129325000D03*
X159205000Y-129325000D03*
D61*
X158085000Y-129900000D03*
D62*
X158085000Y-134080000D03*
D61*
X166725000Y-129900000D03*
D62*
X166725000Y-134080000D03*
%TD*%
D19*
%TO.C,R23*%
X144300000Y-106800000D03*
X143578752Y-107521248D03*
%TD*%
D63*
%TO.C,R3*%
X143550000Y-96550000D03*
X144716726Y-95383274D03*
%TD*%
D22*
%TO.C,R21*%
X151780000Y-120500000D03*
X152800000Y-120500000D03*
%TD*%
D34*
%TO.C,C4*%
X150410589Y-95760589D03*
X151089411Y-96439411D03*
%TD*%
D64*
%TO.C,R25*%
X153578752Y-107021248D03*
X154300000Y-106300000D03*
%TD*%
D65*
%TO.C,IC1*%
X135887500Y-121600000D03*
X136387500Y-121600000D03*
X136887500Y-121600000D03*
X137387500Y-121600000D03*
X137387500Y-120100000D03*
X136887500Y-120120000D03*
X136387500Y-120120000D03*
X135887500Y-120120000D03*
%TD*%
D15*
%TO.C,D5*%
X124700000Y-70000000D03*
X124700000Y-74000002D03*
%TD*%
D25*
%TO.C,Q4*%
X169726000Y-70672634D03*
X170075000Y-70672634D03*
D26*
X169900000Y-70012634D03*
%TD*%
D11*
%TO.C,C47*%
X152900000Y-117180000D03*
X152900000Y-116220000D03*
%TD*%
D66*
%TO.C,C42*%
X134650000Y-128398000D03*
X134650000Y-131348000D03*
%TD*%
D67*
%TO.C,U1*%
X143512124Y-102698788D03*
X143865678Y-103052342D03*
X144219231Y-103405895D03*
X144572785Y-103759449D03*
X144926338Y-104113002D03*
X145279891Y-104466555D03*
X145633445Y-104820109D03*
X145986998Y-105173662D03*
X146340551Y-105527215D03*
X146694105Y-105880769D03*
X147047658Y-106234322D03*
X147401212Y-106587876D03*
D68*
X149398788Y-106587876D03*
X149752342Y-106234322D03*
X150105895Y-105880769D03*
X150459449Y-105527215D03*
X150813002Y-105173662D03*
X151166555Y-104820109D03*
X151520109Y-104466555D03*
X151873662Y-104113002D03*
X152227215Y-103759449D03*
X152580769Y-103405895D03*
X152934322Y-103052342D03*
X153287876Y-102698788D03*
D67*
X153287876Y-100701212D03*
X152934322Y-100347658D03*
X152580769Y-99994105D03*
X152227215Y-99640551D03*
X151873662Y-99286998D03*
X151520109Y-98933445D03*
X151166555Y-98579891D03*
X150813002Y-98226338D03*
X150459449Y-97872785D03*
X150105895Y-97519231D03*
X149752342Y-97165678D03*
X149398788Y-96812124D03*
D68*
X147401212Y-96812124D03*
X147047658Y-97165678D03*
X146694105Y-97519231D03*
X146340551Y-97872785D03*
X145986998Y-98226338D03*
X145633445Y-98579891D03*
X145279891Y-98933445D03*
X144926338Y-99286998D03*
X144572785Y-99640551D03*
X144219231Y-99994105D03*
X143865678Y-100347658D03*
X143512124Y-100701212D03*
%TD*%
D39*
%TO.C,C10*%
X143693037Y-91578822D03*
X143014215Y-90900000D03*
%TD*%
D22*
%TO.C,R14*%
X128430000Y-133673000D03*
X129450000Y-133673000D03*
%TD*%
D36*
%TO.C,D7*%
X172223360Y-81072634D03*
X172223360Y-77072632D03*
%TD*%
D44*
%TO.C,C29*%
X173100000Y-98480000D03*
X173100000Y-97520000D03*
%TD*%
D17*
%TO.C,R4*%
X164125000Y-127795000D03*
X164125000Y-126775000D03*
%TD*%
D69*
%TO.C,L2*%
X171090001Y-120600000D03*
X168090001Y-120600000D03*
%TD*%
D13*
%TO.C,C3*%
X155639411Y-104960589D03*
X154960589Y-105639411D03*
%TD*%
D17*
%TO.C,R22*%
X139700000Y-105309999D03*
X139700000Y-104290001D03*
%TD*%
D33*
%TO.C,SW1*%
X157002082Y-107197918D03*
X154597918Y-109602082D03*
%TD*%
D13*
%TO.C,C1*%
X144978822Y-107521178D03*
X144300000Y-108200000D03*
%TD*%
D70*
%TO.C,D1*%
X165700000Y-118900000D03*
X164124998Y-118900000D03*
%TD*%
D71*
%TO.C,R27*%
X137300000Y-89766637D03*
X137300000Y-88116637D03*
%TD*%
D20*
%TO.C,J33*%
X169250000Y-110800000D03*
X168000000Y-110800000D03*
D21*
X166150000Y-114150000D03*
X171100000Y-114150000D03*
%TD*%
D25*
%TO.C,Q1*%
X127174000Y-73340002D03*
X126825000Y-73340002D03*
D26*
X127000000Y-74000002D03*
%TD*%
D72*
%TO.C,C12*%
X143321178Y-95078822D03*
X144000000Y-94400000D03*
%TD*%
D71*
%TO.C,R26*%
X137300000Y-85950000D03*
X137300000Y-84300000D03*
%TD*%
D18*
%TO.C,C39*%
X127425000Y-126400000D03*
X130375000Y-126400000D03*
%TD*%
D73*
%TO.C,C7*%
X142351992Y-106948008D03*
X143448008Y-105851992D03*
%TD*%
D20*
%TO.C,J25*%
X128800000Y-110600000D03*
X127550000Y-110600000D03*
D21*
X125700000Y-113950000D03*
X130650000Y-113950000D03*
%TD*%
D74*
%TO.C,U10*%
X156575000Y-118999998D03*
X156575000Y-118049999D03*
X156575000Y-117100000D03*
X154300000Y-117100000D03*
X154300000Y-118999998D03*
%TD*%
D18*
%TO.C,C34*%
X136695000Y-130430000D03*
X139645000Y-130430000D03*
%TD*%
D72*
%TO.C,C18*%
X140460588Y-97639411D03*
X141139410Y-96960589D03*
%TD*%
D22*
%TO.C,R28*%
X143930002Y-113662499D03*
X144950000Y-113662499D03*
%TD*%
D64*
%TO.C,R10*%
X151872863Y-92549674D03*
X152594111Y-91828426D03*
%TD*%
D11*
%TO.C,C15*%
X124400000Y-97060000D03*
X124400000Y-96100000D03*
%TD*%
D17*
%TO.C,R33*%
X139700000Y-103419998D03*
X139700000Y-102400000D03*
%TD*%
D72*
%TO.C,C24*%
X153260589Y-91139411D03*
X153939411Y-90460589D03*
%TD*%
D75*
%TO.C,U13*%
X138400000Y-101800000D03*
X137750000Y-101800000D03*
X137100000Y-101800000D03*
X136450000Y-101800000D03*
X136450000Y-106025000D03*
X137100000Y-106025000D03*
X137750000Y-106025000D03*
X138400000Y-106025000D03*
%TD*%
D18*
%TO.C,C44*%
X136824999Y-132800000D03*
X139775001Y-132800000D03*
%TD*%
D76*
%TO.C,C5*%
X141328249Y-99071751D03*
X142671751Y-97728249D03*
%TD*%
M02*
