%TF.GenerationSoftware,KiCad,Pcbnew,9.0.4*%
%TF.CreationDate,2025-10-27T15:56:18-04:00*%
%TF.ProjectId,Alpha_Breakout,416c7068-615f-4427-9265-616b6f75742e,rev?*%
%TF.SameCoordinates,Original*%
%TF.FileFunction,Soldermask,Bot*%
%TF.FilePolarity,Negative*%
%FSLAX46Y46*%
G04 Gerber Fmt 4.6, Leading zero omitted, Abs format (unit mm)*
G04 Created by KiCad (PCBNEW 9.0.4) date 2025-10-27 15:56:18*
%MOMM*%
%LPD*%
G01*
G04 APERTURE LIST*
G04 Aperture macros list*
%AMRoundRect*
0 Rectangle with rounded corners*
0 $1 Rounding radius*
0 $2 $3 $4 $5 $6 $7 $8 $9 X,Y pos of 4 corners*
0 Add a 4 corners polygon primitive as box body*
4,1,4,$2,$3,$4,$5,$6,$7,$8,$9,$2,$3,0*
0 Add four circle primitives for the rounded corners*
1,1,$1+$1,$2,$3*
1,1,$1+$1,$4,$5*
1,1,$1+$1,$6,$7*
1,1,$1+$1,$8,$9*
0 Add four rect primitives between the rounded corners*
20,1,$1+$1,$2,$3,$4,$5,0*
20,1,$1+$1,$4,$5,$6,$7,0*
20,1,$1+$1,$6,$7,$8,$9,0*
20,1,$1+$1,$8,$9,$2,$3,0*%
G04 Aperture macros list end*
%ADD10C,1.100000*%
%ADD11RoundRect,0.249999X-0.850001X0.850001X-0.850001X-0.850001X0.850001X-0.850001X0.850001X0.850001X0*%
%ADD12C,2.200000*%
%ADD13RoundRect,0.249999X0.850001X-0.850001X0.850001X0.850001X-0.850001X0.850001X-0.850001X-0.850001X0*%
%ADD14RoundRect,0.249999X0.850001X0.850001X-0.850001X0.850001X-0.850001X-0.850001X0.850001X-0.850001X0*%
%ADD15C,1.400000*%
%ADD16RoundRect,0.770000X0.980000X0.980000X-0.980000X0.980000X-0.980000X-0.980000X0.980000X-0.980000X0*%
%ADD17C,3.500000*%
%ADD18C,3.800000*%
%ADD19RoundRect,0.250000X-0.600000X-0.750000X0.600000X-0.750000X0.600000X0.750000X-0.600000X0.750000X0*%
%ADD20O,1.700000X2.000000*%
%ADD21R,1.700000X1.700000*%
%ADD22C,1.700000*%
%ADD23C,0.650000*%
%ADD24O,1.000000X2.100000*%
%ADD25O,1.000000X1.800000*%
G04 APERTURE END LIST*
D10*
%TO.C,J7*%
X116660000Y-111000000D03*
X116660000Y-113540000D03*
X116660000Y-116080000D03*
D11*
X119200000Y-111000000D03*
D12*
X119200000Y-113540000D03*
X119200000Y-116080000D03*
%TD*%
D10*
%TO.C,J12*%
X180140000Y-115780000D03*
X180140000Y-113240000D03*
X180140000Y-110700000D03*
D13*
X177600000Y-115780000D03*
D12*
X177600000Y-113240000D03*
X177600000Y-110700000D03*
%TD*%
D10*
%TO.C,J8*%
X180140000Y-124860000D03*
X180140000Y-122320000D03*
X180140000Y-119780000D03*
D13*
X177600000Y-124860000D03*
D12*
X177600000Y-122320000D03*
X177600000Y-119780000D03*
%TD*%
D10*
%TO.C,J18*%
X146340000Y-63360000D03*
X143800000Y-63360000D03*
D14*
X146340000Y-65900000D03*
D12*
X143800000Y-65900000D03*
%TD*%
D10*
%TO.C,J26*%
X116620000Y-70535147D03*
X116620000Y-73075147D03*
D11*
X119160000Y-70535147D03*
D12*
X119160000Y-73075147D03*
%TD*%
D10*
%TO.C,J29*%
X180140000Y-72779288D03*
X180140000Y-70239288D03*
D13*
X177600000Y-72779288D03*
D12*
X177600000Y-70239288D03*
%TD*%
D15*
%TO.C,J22*%
X153800000Y-133400000D03*
X142800000Y-133400000D03*
D16*
X145800000Y-123400000D03*
D17*
X150800000Y-123400000D03*
%TD*%
D10*
%TO.C,J14*%
X116660000Y-92840000D03*
X116660000Y-95380000D03*
X116660000Y-97920000D03*
D11*
X119200000Y-92840000D03*
D12*
X119200000Y-95380000D03*
X119200000Y-97920000D03*
%TD*%
D10*
%TO.C,J10*%
X116660000Y-83760000D03*
X116660000Y-86300000D03*
X116660000Y-88840000D03*
D11*
X119200000Y-83760000D03*
D12*
X119200000Y-86300000D03*
X119200000Y-88840000D03*
%TD*%
D10*
%TO.C,J27*%
X116620000Y-77135149D03*
X116620000Y-79675149D03*
D11*
X119160000Y-77135149D03*
D12*
X119160000Y-79675149D03*
%TD*%
D10*
%TO.C,J16*%
X180140000Y-106700000D03*
X180140000Y-104160000D03*
X180140000Y-101620000D03*
D13*
X177600000Y-106700000D03*
D12*
X177600000Y-104160000D03*
X177600000Y-101620000D03*
%TD*%
D18*
%TO.C,H3*%
X171400000Y-131700000D03*
%TD*%
%TO.C,H1*%
X130900000Y-72300000D03*
%TD*%
D10*
%TO.C,J28*%
X180140000Y-79369291D03*
X180140000Y-76829291D03*
D13*
X177600000Y-79369291D03*
D12*
X177600000Y-76829291D03*
%TD*%
D19*
%TO.C,J36*%
X135400000Y-111700000D03*
D20*
X137900000Y-111700000D03*
%TD*%
D21*
%TO.C,J34*%
X174000000Y-65300000D03*
D22*
X176540000Y-65300000D03*
%TD*%
D18*
%TO.C,H2*%
X166900000Y-72800000D03*
%TD*%
D10*
%TO.C,J9*%
X180140000Y-88540000D03*
X180140000Y-86000000D03*
X180140000Y-83460000D03*
D13*
X177600000Y-88540000D03*
D12*
X177600000Y-86000000D03*
X177600000Y-83460000D03*
%TD*%
D23*
%TO.C,J2*%
X159515000Y-130400000D03*
X165295000Y-130400000D03*
D24*
X158085000Y-129900000D03*
D25*
X158085000Y-134080000D03*
D24*
X166725000Y-129900000D03*
D25*
X166725000Y-134080000D03*
%TD*%
D10*
%TO.C,J5*%
X180140000Y-97620000D03*
X180140000Y-95080000D03*
X180140000Y-92540000D03*
D13*
X177600000Y-97620000D03*
D12*
X177600000Y-95080000D03*
X177600000Y-92540000D03*
%TD*%
D10*
%TO.C,J3*%
X116660000Y-101920000D03*
X116660000Y-104460000D03*
X116660000Y-107000000D03*
D11*
X119200000Y-101920000D03*
D12*
X119200000Y-104460000D03*
X119200000Y-107000000D03*
%TD*%
D10*
%TO.C,J19*%
X139750000Y-63350000D03*
X137210000Y-63350000D03*
D14*
X139750000Y-65890000D03*
D12*
X137210000Y-65890000D03*
%TD*%
D10*
%TO.C,J20*%
X153040000Y-63350000D03*
X150500000Y-63350000D03*
D14*
X153040000Y-65890000D03*
D12*
X150500000Y-65890000D03*
%TD*%
D10*
%TO.C,J21*%
X159640000Y-63360000D03*
X157100000Y-63360000D03*
D14*
X159640000Y-65900000D03*
D12*
X157100000Y-65900000D03*
%TD*%
D21*
%TO.C,J35*%
X142080000Y-84440000D03*
D22*
X142080000Y-81900000D03*
X144620000Y-84440000D03*
X144620000Y-81900000D03*
X147159999Y-84440000D03*
X147160000Y-81900000D03*
X149700000Y-84440000D03*
X149700000Y-81900000D03*
X152240000Y-84440000D03*
X152240000Y-81900000D03*
X154780000Y-84440000D03*
X154780000Y-81900000D03*
%TD*%
D18*
%TO.C,H4*%
X125400000Y-131500000D03*
%TD*%
D10*
%TO.C,J4*%
X180140000Y-133940000D03*
X180140000Y-131400000D03*
X180140000Y-128860000D03*
D13*
X177600000Y-133940000D03*
D12*
X177600000Y-131400000D03*
X177600000Y-128860000D03*
%TD*%
D10*
%TO.C,J15*%
X116660000Y-129160000D03*
X116660000Y-131700000D03*
X116660000Y-134240000D03*
D11*
X119200000Y-129160000D03*
D12*
X119200000Y-131700000D03*
X119200000Y-134240000D03*
%TD*%
D10*
%TO.C,J11*%
X116660000Y-120080000D03*
X116660000Y-122620000D03*
X116660000Y-125160000D03*
D11*
X119200000Y-120080000D03*
D12*
X119200000Y-122620000D03*
X119200000Y-125160000D03*
%TD*%
M02*
