M48
; DRILL file {KiCad 9.0.4} date 2025-10-28T21:26:13-0400
; FORMAT={-:-/ absolute / metric / decimal}
; #@! TF.CreationDate,2025-10-28T21:26:13-04:00
; #@! TF.GenerationSoftware,Kicad,Pcbnew,9.0.4
; #@! TF.FileFunction,Plated,1,4,PTH
FMAT,2
METRIC
; #@! TA.AperFunction,Plated,PTH,ViaDrill
T1C0.200
; #@! TA.AperFunction,Plated,PTH,ViaDrill
T2C0.300
; #@! TA.AperFunction,Plated,PTH,ViaDrill
T3C0.500
; #@! TA.AperFunction,Plated,PTH,ComponentDrill
T4C0.600
; #@! TA.AperFunction,Plated,PTH,ComponentDrill
T5C1.000
; #@! TA.AperFunction,Plated,PTH,ComponentDrill
T6C1.100
; #@! TA.AperFunction,Plated,PTH,ComponentDrill
T7C1.900
; #@! TA.AperFunction,Plated,PTH,ComponentDrill
T8C2.200
%
G90
G05
T1
X127.2Y-100.3
X127.2Y-100.8
X127.2Y-101.3
X127.2Y-101.8
X127.8Y-100.3
X127.8Y-100.8
X127.8Y-101.3
X127.8Y-101.8
X128.4Y-100.3
X128.4Y-100.8
X128.4Y-101.3
X128.4Y-101.8
X129.623Y-133.078
X130.675Y-130.5
X130.8Y-132.448
X131.401Y-131.322
X131.7Y-134.245
X132.225Y-130.5
X132.9Y-105.6
X133.1Y-128.5
X133.6Y-103.9
X134.2Y-102.0
X134.5Y-101.5
X134.65Y-131.3
X134.8Y-102.0
X136.716Y-122.293
X138.09Y-99.21
X139.708Y-99.492
X139.825Y-106.914
X140.1Y-121.9
X140.891Y-108.135
X141.485Y-107.409
X141.5Y-108.734
X141.9Y-98.5
X142.3Y-101.225
X142.4Y-126.2
X142.918Y-99.718
X143.2Y-93.7
X143.2Y-94.2
X143.287Y-101.891
X144.224Y-91.871
X144.307Y-98.366
X144.718Y-101.658
X144.798Y-106.402
X144.854Y-100.958
X145.325Y-90.8
X145.895Y-107.619
X146.639Y-104.486
X147.18Y-104.799
X147.2Y-87.0
X147.298Y-94.439
X148.197Y-97.635
X148.2Y-98.6
X148.4Y-92.3
X148.425Y-97.08
X148.686Y-98.96
X149.737Y-98.798
X150.029Y-102.617
X150.2Y-88.8
X150.7Y-103.6
X151.313Y-100.573
X151.315Y-102.075
X152.0Y-97.6
X152.309Y-98.114
X152.887Y-104.913
X153.068Y-98.089
X153.3Y-104.4
X153.6Y-105.8
X153.71Y-97.471
X154.309Y-97.399
X154.7Y-106.8
X155.2Y-114.9
X155.3Y-107.2
X155.7Y-115.3
X155.9Y-107.9
X156.5Y-107.7
X157.0Y-92.7
X157.1Y-89.8
X159.2Y-86.6
X159.2Y-91.7
X159.8Y-91.7
X160.4Y-91.7
X160.8Y-95.9
X160.8Y-97.7
X160.8Y-98.2
X160.9Y-86.5
X161.0Y-93.419
X161.4Y-97.7
X161.4Y-98.2
X163.9Y-102.4
X164.2Y-103.4
X164.3Y-102.1
X166.5Y-100.0
X171.0Y-99.154
X171.7Y-98.641
X172.279Y-95.821
X172.5Y-94.9
X173.1Y-96.6
X173.1Y-99.3
X173.88Y-97.52
X173.88Y-98.48
X174.1Y-129.6
T2
X120.15Y-67.45
X121.2Y-117.0
X121.4Y-114.0
X122.223Y-67.2
X123.473Y-67.2
X123.7Y-97.6
X123.925Y-93.492
X125.6Y-116.8
X125.609Y-72.291
X125.9Y-99.6
X126.1Y-86.7
X126.243Y-129.057
X127.1Y-70.6
X127.114Y-83.414
X128.2Y-131.0
X128.276Y-93.719
X128.3Y-83.2
X128.4Y-91.4
X128.8Y-65.4
X128.8Y-97.3
X128.9Y-63.2
X128.9Y-64.1
X128.925Y-79.0
X129.358Y-92.342
X129.5Y-91.5
X129.8Y-63.2
X129.8Y-64.1
X130.7Y-63.2
X130.7Y-64.1
X130.7Y-64.9
X131.6Y-63.2
X131.6Y-64.1
X131.6Y-64.9
X131.8Y-100.8
X131.9Y-81.5
X132.5Y-63.2
X132.5Y-64.1
X132.5Y-64.9
X132.923Y-106.2
X132.923Y-107.0
X132.975Y-108.0
X133.2Y-101.4
X133.3Y-80.175
X133.5Y-126.7
X133.9Y-116.7
X134.0Y-93.8
X134.0Y-98.0
X134.272Y-96.679
X134.4Y-134.145
X134.92Y-96.054
X135.2Y-130.1
X135.276Y-97.304
X135.443Y-121.416
X135.6Y-106.981
X136.046Y-131.761
X136.1Y-97.5
X136.262Y-123.0
X136.858Y-107.775
X136.9Y-103.8
X137.319Y-119.265
X137.8Y-107.8
X137.879Y-123.346
X138.05Y-125.15
X138.1Y-81.0
X138.1Y-121.7
X138.232Y-122.489
X138.3Y-126.0
X138.353Y-119.415
X138.4Y-130.4
X138.592Y-107.687
X138.7Y-128.3
X138.8Y-133.225
X138.975Y-81.1
X139.101Y-106.001
X139.3Y-134.1
X139.405Y-95.5
X139.6Y-88.7
X139.6Y-92.9
X139.7Y-93.9
X139.707Y-97.443
X140.0Y-124.1
X140.8Y-83.1
X140.8Y-94.5
X140.9Y-86.4
X141.9Y-77.1
X141.9Y-96.2
X142.1Y-76.1
X142.161Y-111.639
X142.3Y-75.1
X142.3Y-120.975
X142.5Y-74.1
X142.7Y-73.1
X142.8Y-77.1
X143.0Y-76.1
X143.2Y-75.1
X143.4Y-74.1
X143.6Y-73.1
X143.7Y-77.1
X143.9Y-76.1
X144.1Y-75.1
X144.1Y-115.0
X144.3Y-74.1
X144.3Y-97.2
X144.5Y-73.1
X145.4Y-129.7
X145.4Y-131.2
X145.4Y-132.7
X145.4Y-134.2
X145.425Y-87.9
X145.85Y-100.276
X146.05Y-88.9
X146.082Y-106.944
X146.149Y-101.067
X146.206Y-94.94
X146.544Y-108.33
X146.637Y-100.421
X146.659Y-95.6
X146.9Y-129.7
X146.9Y-131.2
X146.9Y-132.7
X146.9Y-134.2
X147.294Y-98.673
X147.3Y-78.1
X147.6Y-74.7
X147.795Y-107.989
X147.922Y-101.039
X148.089Y-96.465
X148.205Y-108.676
X148.398Y-79.775
X148.398Y-81.545
X148.4Y-78.1
X148.4Y-129.7
X148.4Y-131.2
X148.4Y-132.7
X148.4Y-134.2
X148.599Y-100.611
X148.6Y-83.2
X148.7Y-115.0
X149.0Y-102.5
X149.1Y-107.0
X149.338Y-100.075
X149.4Y-117.9
X149.5Y-78.1
X149.5Y-104.8
X149.6Y-119.5
X149.725Y-95.343
X149.815Y-104.065
X149.9Y-129.7
X149.9Y-131.2
X149.9Y-132.7
X149.9Y-134.2
X150.177Y-99.342
X150.2Y-85.775
X150.518Y-107.349
X150.883Y-87.317
X151.1Y-106.8
X151.3Y-94.8
X151.4Y-129.7
X151.4Y-131.2
X151.4Y-132.7
X151.4Y-134.2
X151.6Y-91.8
X151.7Y-119.8
X151.91Y-105.564
X152.2Y-93.7
X152.4Y-109.0
X152.6Y-114.989
X153.1Y-86.6
X153.929Y-99.529
X154.0Y-87.8
X154.1Y-110.5
X154.6Y-101.825
X154.692Y-103.792
X154.89Y-98.099
X155.0Y-86.5
X155.5Y-96.2
X155.6Y-98.724
X155.673Y-103.704
X155.9Y-116.5
X156.284Y-103.084
X156.3Y-96.6
X156.4Y-120.6
X156.7Y-104.5
X157.1Y-121.5
X157.1Y-123.8
X157.2Y-83.1
X157.3Y-88.2
X157.3Y-88.2
X157.8Y-68.0
X158.4Y-81.9
X158.7Y-127.844
X159.2Y-108.1
X159.7Y-81.9
X160.2Y-87.5
X160.4Y-125.0
X160.8Y-121.1
X160.9Y-79.2
X161.168Y-109.625
X161.3Y-71.4
X161.5Y-102.3
X162.0Y-79.2
X162.4Y-71.4
X163.1Y-79.2
X163.2Y-100.3
X163.5Y-71.4
X163.5Y-81.8
X164.576Y-86.1
X165.0Y-92.3
X165.123Y-82.423
X165.166Y-66.218
X165.4Y-88.2
X165.4Y-108.3
X165.9Y-65.9
X166.0Y-86.5
X166.1Y-92.3
X166.4Y-94.8
X166.613Y-101.114
X166.7Y-82.9
X166.9Y-105.4
X167.1Y-65.499
X167.1Y-125.4
X167.274Y-79.388
X167.5Y-86.1
X168.09Y-117.91
X168.5Y-127.6
X168.9Y-109.5
X169.033Y-66.067
X169.1Y-97.6
X169.3Y-102.6
X169.3Y-104.1
X169.3Y-105.7
X169.7Y-67.0
X170.8Y-83.5
X170.8Y-84.6
X170.8Y-85.7
X171.0Y-122.95
X171.3Y-87.5
X171.4Y-108.6
X171.4Y-109.7
X171.4Y-110.8
X171.5Y-117.6
X171.5Y-116.7
X172.3Y-108.6
X172.3Y-109.7
X172.3Y-110.8
X172.6Y-111.9
X172.6Y-112.9
X172.6Y-113.8
X172.6Y-114.8
X172.6Y-115.7
X172.6Y-116.7
X172.6Y-117.6
X172.6Y-118.6
X172.6Y-119.5
X172.6Y-120.5
X172.64Y-125.262
X174.3Y-71.2
X174.3Y-72.0
X174.3Y-72.8
X175.1Y-103.5
X175.3Y-71.2
X175.3Y-72.0
X175.3Y-72.8
X175.3Y-87.2
X175.5Y-130.7
T3
X122.8Y-75.6
X122.9Y-72.2
X125.099Y-79.0
X126.6Y-122.1
X127.425Y-126.4
X127.6Y-108.0
X127.9Y-129.3
X130.101Y-108.374
X130.9Y-93.8
X131.9Y-88.9
X134.1Y-121.1
X135.1Y-87.4
X136.857Y-113.343
X137.175Y-86.825
X140.9Y-69.552
X142.0Y-115.3
X160.5Y-118.7
X174.5Y-79.3
X174.8Y-75.6
T5
X135.4Y-111.7
X137.9Y-111.7
X142.08Y-81.9
X142.08Y-84.44
X142.8Y-133.4
X144.62Y-81.9
X144.62Y-84.44
X147.16Y-84.44
X147.16Y-81.9
X149.7Y-81.9
X149.7Y-84.44
X152.24Y-81.9
X152.24Y-84.44
X153.8Y-133.4
X154.78Y-81.9
X154.78Y-84.44
X174.0Y-65.3
X176.54Y-65.3
T6
X119.16Y-70.535
X119.16Y-73.075
X119.16Y-77.135
X119.16Y-79.675
X119.2Y-83.76
X119.2Y-86.3
X119.2Y-88.84
X119.2Y-92.84
X119.2Y-95.38
X119.2Y-97.92
X119.2Y-101.92
X119.2Y-104.46
X119.2Y-107.0
X119.2Y-111.0
X119.2Y-113.54
X119.2Y-116.08
X119.2Y-120.08
X119.2Y-122.62
X119.2Y-125.16
X119.2Y-129.16
X119.2Y-131.7
X119.2Y-134.24
X137.21Y-65.89
X139.75Y-65.89
X143.8Y-65.9
X146.34Y-65.9
X150.5Y-65.89
X153.04Y-65.89
X157.1Y-65.9
X159.64Y-65.9
X177.6Y-70.239
X177.6Y-72.779
X177.6Y-76.829
X177.6Y-79.369
X177.6Y-83.46
X177.6Y-86.0
X177.6Y-88.54
X177.6Y-92.54
X177.6Y-95.08
X177.6Y-97.62
X177.6Y-101.62
X177.6Y-104.16
X177.6Y-106.7
X177.6Y-110.7
X177.6Y-113.24
X177.6Y-115.78
X177.6Y-119.78
X177.6Y-122.32
X177.6Y-124.86
X177.6Y-128.86
X177.6Y-131.4
X177.6Y-133.94
T7
X145.8Y-123.4
X150.8Y-123.4
T8
X125.59Y-131.71
X130.09Y-72.31
X166.78Y-72.31
X171.29Y-131.71
T4
G00X158.085Y-129.35
M15
G01X158.085Y-130.45
M16
G05
G00X158.085Y-133.68
M15
G01X158.085Y-134.48
M16
G05
G00X166.725Y-129.35
M15
G01X166.725Y-130.45
M16
G05
G00X166.725Y-133.68
M15
G01X166.725Y-134.48
M16
G05
M30
