M48
; DRILL file {KiCad 9.0.4} date 2025-10-16T14:13:22-0400
; FORMAT={-:-/ absolute / metric / decimal}
; #@! TF.CreationDate,2025-10-16T14:13:22-04:00
; #@! TF.GenerationSoftware,Kicad,Pcbnew,9.0.4
; #@! TF.FileFunction,NonPlated,1,4,NPTH
FMAT,2
METRIC
; #@! TA.AperFunction,NonPlated,NPTH,ComponentDrill
T1C0.650
; #@! TA.AperFunction,NonPlated,NPTH,ComponentDrill
T2C1.100
%
G90
G05
T1
X159.515Y-130.4
X165.295Y-130.4
T2
X116.62Y-70.535
X116.62Y-73.075
X116.62Y-77.135
X116.62Y-79.675
X116.66Y-83.76
X116.66Y-86.3
X116.66Y-88.84
X116.66Y-92.84
X116.66Y-95.38
X116.66Y-97.92
X116.66Y-101.92
X116.66Y-104.46
X116.66Y-107.0
X116.66Y-111.0
X116.66Y-113.54
X116.66Y-116.08
X116.66Y-120.08
X116.66Y-122.62
X116.66Y-125.16
X116.66Y-129.16
X116.66Y-131.7
X116.66Y-134.24
X137.21Y-63.35
X139.75Y-63.35
X143.8Y-63.36
X146.34Y-63.36
X150.5Y-63.35
X153.04Y-63.35
X157.1Y-63.36
X159.64Y-63.36
X180.14Y-70.239
X180.14Y-72.779
X180.14Y-76.829
X180.14Y-79.369
X180.14Y-83.46
X180.14Y-86.0
X180.14Y-88.54
X180.14Y-92.54
X180.14Y-95.08
X180.14Y-97.62
X180.14Y-101.62
X180.14Y-104.16
X180.14Y-106.7
X180.14Y-110.7
X180.14Y-113.24
X180.14Y-115.78
X180.14Y-119.78
X180.14Y-122.32
X180.14Y-124.86
X180.14Y-128.86
X180.14Y-131.4
X180.14Y-133.94
M30
