M48
; DRILL file {KiCad 9.0.4} date 2025-10-16T14:13:22-0400
; FORMAT={-:-/ absolute / metric / decimal}
; #@! TF.CreationDate,2025-10-16T14:13:22-04:00
; #@! TF.GenerationSoftware,Kicad,Pcbnew,9.0.4
; #@! TF.FileFunction,Plated,1,4,PTH
FMAT,2
METRIC
; #@! TA.AperFunction,Plated,PTH,ViaDrill
T1C0.200
; #@! TA.AperFunction,Plated,PTH,ComponentDrill
T2C0.200
; #@! TA.AperFunction,Plated,PTH,ViaDrill
T3C0.300
; #@! TA.AperFunction,Plated,PTH,ViaDrill
T4C0.500
; #@! TA.AperFunction,Plated,PTH,ComponentDrill
T5C0.600
; #@! TA.AperFunction,Plated,PTH,ComponentDrill
T6C1.000
; #@! TA.AperFunction,Plated,PTH,ComponentDrill
T7C1.100
; #@! TA.AperFunction,Plated,PTH,ComponentDrill
T8C1.900
; #@! TA.AperFunction,Plated,PTH,ComponentDrill
T9C2.200
%
G90
G05
T1
X129.623Y-133.078
X130.8Y-132.448
X131.401Y-131.322
X132.0Y-131.363
X133.1Y-128.5
X139.5Y-99.9
X142.4Y-126.2
X144.543Y-98.062
X145.204Y-96.896
X145.3Y-102.6
X149.908Y-100.724
X151.315Y-102.075
X152.887Y-104.913
X153.021Y-96.921
X153.6Y-105.8
X156.4Y-93.975
X161.0Y-93.419
X171.9Y-95.5
X172.1Y-98.2
X173.1Y-96.6
X173.1Y-99.3
T2
X130.0Y-130.5
X130.25Y-128.123
X130.25Y-128.823
X131.0Y-128.123
X131.0Y-128.823
X131.0Y-130.5
X131.9Y-128.123
X131.9Y-128.823
X131.9Y-130.5
X132.9Y-130.5
T3
X122.223Y-67.2
X123.473Y-67.2
X125.9Y-99.6
X127.016Y-72.6
X127.016Y-79.3
X127.1Y-70.6
X127.7Y-67.1
X127.876Y-70.406
X128.2Y-131.0
X128.276Y-93.719
X129.3Y-75.0
X129.358Y-92.342
X129.5Y-91.5
X130.792Y-80.808
X134.0Y-98.0
X134.272Y-96.679
X134.9Y-124.0
X135.276Y-97.304
X136.1Y-97.5
X136.858Y-107.775
X137.613Y-119.271
X137.8Y-107.8
X138.05Y-125.15
X138.061Y-99.039
X138.679Y-119.921
X139.405Y-95.5
X139.6Y-88.7
X139.7Y-93.9
X140.0Y-124.1
X140.175Y-129.375
X140.8Y-94.5
X140.9Y-87.3
X145.7Y-101.6
X145.8Y-106.9
X146.175Y-100.3
X146.448Y-107.656
X146.8Y-100.8
X147.6Y-98.5
X148.1Y-101.4
X148.3Y-103.4
X148.8Y-108.0
X148.9Y-100.1
X149.1Y-107.0
X149.1Y-92.3
X149.279Y-96.0
X149.5Y-104.8
X149.808Y-99.224
X149.815Y-104.065
X150.029Y-102.629
X150.518Y-107.349
X150.7Y-103.6
X151.1Y-106.8
X151.8Y-89.8
X151.91Y-105.564
X152.0Y-97.6
X152.4Y-109.0
X153.929Y-99.529
X154.0Y-87.8
X154.4Y-97.924
X154.4Y-98.724
X154.692Y-103.792
X155.673Y-103.704
X156.284Y-103.084
X156.4Y-95.3
X156.5Y-99.4
X157.8Y-68.0
X158.4Y-81.9
X158.7Y-127.844
X159.7Y-81.9
X164.2Y-71.5
X164.825Y-80.2
X165.4Y-108.3
X165.9Y-65.9
X166.9Y-105.4
X167.1Y-65.499
X168.0Y-112.0
X169.033Y-66.067
X169.1Y-97.6
T4
X126.6Y-122.1
X127.425Y-126.4
X127.9Y-129.3
X134.6Y-121.1
T6
X135.4Y-111.7
X137.9Y-111.7
X142.08Y-81.9
X142.08Y-84.44
X142.8Y-133.4
X144.62Y-81.9
X144.62Y-84.44
X147.16Y-84.44
X147.16Y-81.9
X149.7Y-81.9
X149.7Y-84.44
X152.24Y-81.9
X152.24Y-84.44
X153.8Y-133.4
X154.78Y-81.9
X154.78Y-84.44
X174.0Y-65.3
X176.54Y-65.3
T7
X119.16Y-70.535
X119.16Y-73.075
X119.16Y-77.135
X119.16Y-79.675
X119.2Y-83.76
X119.2Y-86.3
X119.2Y-88.84
X119.2Y-92.84
X119.2Y-95.38
X119.2Y-97.92
X119.2Y-101.92
X119.2Y-104.46
X119.2Y-107.0
X119.2Y-111.0
X119.2Y-113.54
X119.2Y-116.08
X119.2Y-120.08
X119.2Y-122.62
X119.2Y-125.16
X119.2Y-129.16
X119.2Y-131.7
X119.2Y-134.24
X137.21Y-65.89
X139.75Y-65.89
X143.8Y-65.9
X146.34Y-65.9
X150.5Y-65.89
X153.04Y-65.89
X157.1Y-65.9
X159.64Y-65.9
X177.6Y-70.239
X177.6Y-72.779
X177.6Y-76.829
X177.6Y-79.369
X177.6Y-83.46
X177.6Y-86.0
X177.6Y-88.54
X177.6Y-92.54
X177.6Y-95.08
X177.6Y-97.62
X177.6Y-101.62
X177.6Y-104.16
X177.6Y-106.7
X177.6Y-110.7
X177.6Y-113.24
X177.6Y-115.78
X177.6Y-119.78
X177.6Y-122.32
X177.6Y-124.86
X177.6Y-128.86
X177.6Y-131.4
X177.6Y-133.94
T8
X145.8Y-123.4
X150.8Y-123.4
T9
X125.4Y-131.5
X130.9Y-72.3
X166.9Y-72.8
X171.4Y-131.7
T5
G00X158.085Y-129.35
M15
G01X158.085Y-130.45
M16
G05
G00X158.085Y-133.68
M15
G01X158.085Y-134.48
M16
G05
G00X166.725Y-129.35
M15
G01X166.725Y-130.45
M16
G05
G00X166.725Y-133.68
M15
G01X166.725Y-134.48
M16
G05
M30
