%TF.GenerationSoftware,KiCad,Pcbnew,9.0.4*%
%TF.CreationDate,2025-10-16T14:13:28-04:00*%
%TF.ProjectId,Alpha_Breakout,416c7068-615f-4427-9265-616b6f75742e,rev?*%
%TF.SameCoordinates,Original*%
%TF.FileFunction,Soldermask,Bot*%
%TF.FilePolarity,Negative*%
%FSLAX46Y46*%
G04 Gerber Fmt 4.6, Leading zero omitted, Abs format (unit mm)*
G04 Created by KiCad (PCBNEW 9.0.4) date 2025-10-16 14:13:28*
%MOMM*%
%LPD*%
G01*
G04 APERTURE LIST*
G04 Aperture macros list*
%AMRoundRect*
0 Rectangle with rounded corners*
0 $1 Rounding radius*
0 $2 $3 $4 $5 $6 $7 $8 $9 X,Y pos of 4 corners*
0 Add a 4 corners polygon primitive as box body*
4,1,4,$2,$3,$4,$5,$6,$7,$8,$9,$2,$3,0*
0 Add four circle primitives for the rounded corners*
1,1,$1+$1,$2,$3*
1,1,$1+$1,$4,$5*
1,1,$1+$1,$6,$7*
1,1,$1+$1,$8,$9*
0 Add four rect primitives between the rounded corners*
20,1,$1+$1,$2,$3,$4,$5,0*
20,1,$1+$1,$4,$5,$6,$7,0*
20,1,$1+$1,$6,$7,$8,$9,0*
20,1,$1+$1,$8,$9,$2,$3,0*%
G04 Aperture macros list end*
%ADD10C,0.000000*%
%ADD11C,1.100000*%
%ADD12RoundRect,0.249999X-0.850001X0.850001X-0.850001X-0.850001X0.850001X-0.850001X0.850001X0.850001X0*%
%ADD13C,2.200000*%
%ADD14RoundRect,0.249999X0.850001X-0.850001X0.850001X0.850001X-0.850001X0.850001X-0.850001X-0.850001X0*%
%ADD15RoundRect,0.249999X0.850001X0.850001X-0.850001X0.850001X-0.850001X-0.850001X0.850001X-0.850001X0*%
%ADD16C,1.400000*%
%ADD17RoundRect,0.770000X0.980000X0.980000X-0.980000X0.980000X-0.980000X-0.980000X0.980000X-0.980000X0*%
%ADD18C,3.500000*%
%ADD19C,3.800000*%
%ADD20RoundRect,0.250000X-0.600000X-0.750000X0.600000X-0.750000X0.600000X0.750000X-0.600000X0.750000X0*%
%ADD21O,1.700000X2.000000*%
%ADD22R,1.700000X1.700000*%
%ADD23C,1.700000*%
%ADD24C,0.650000*%
%ADD25O,1.000000X2.100000*%
%ADD26O,1.000000X1.800000*%
G04 APERTURE END LIST*
D10*
%TO.C,G\u002A\u002A\u002A*%
G36*
X159756920Y-117312052D02*
G01*
X159742746Y-117326227D01*
X159728572Y-117312052D01*
X159742746Y-117297878D01*
X159756920Y-117312052D01*
G37*
G36*
X149771655Y-105654229D02*
G01*
X150146875Y-106030223D01*
X150146875Y-106176614D01*
X150146903Y-106186643D01*
X150152762Y-106277143D01*
X150173926Y-106334190D01*
X150217746Y-106378751D01*
X150255254Y-106414864D01*
X150281733Y-106473641D01*
X150288616Y-106565072D01*
X150287990Y-106605849D01*
X150283518Y-106670251D01*
X150276158Y-106695646D01*
X150275912Y-106695620D01*
X150245332Y-106683186D01*
X150171949Y-106650588D01*
X150063924Y-106601531D01*
X149929420Y-106539720D01*
X149776599Y-106468860D01*
X149289498Y-106242075D01*
X148274900Y-106242075D01*
X147260301Y-106242075D01*
X146798272Y-106468860D01*
X146659536Y-106536457D01*
X146526665Y-106600138D01*
X146419103Y-106650547D01*
X146345344Y-106683709D01*
X146313880Y-106695646D01*
X146306410Y-106687829D01*
X146295718Y-106638992D01*
X146291518Y-106560218D01*
X146297396Y-106469386D01*
X146322249Y-106407479D01*
X146376563Y-106350164D01*
X146438405Y-106278141D01*
X146461607Y-106190312D01*
X146466154Y-106159275D01*
X146486664Y-106111388D01*
X146527835Y-106046920D01*
X146594150Y-105959634D01*
X146690095Y-105843293D01*
X146820155Y-105691661D01*
X147178702Y-105278235D01*
X148287569Y-105278235D01*
X149396435Y-105278235D01*
X149771655Y-105654229D01*
G37*
G36*
X149784447Y-106617335D02*
G01*
X150286639Y-106851561D01*
X150294715Y-107513740D01*
X150302790Y-108175918D01*
X150586273Y-108339815D01*
X150869755Y-108503712D01*
X150877620Y-108886131D01*
X150885485Y-109268551D01*
X150686269Y-109420479D01*
X150591142Y-109495977D01*
X150527732Y-109556064D01*
X150495828Y-109604174D01*
X150487054Y-109649954D01*
X150484270Y-109696984D01*
X150463981Y-109714050D01*
X150409096Y-109697367D01*
X150384381Y-109689099D01*
X150301324Y-109666520D01*
X150188114Y-109639544D01*
X150061831Y-109612352D01*
X149990641Y-109599005D01*
X149908756Y-109586813D01*
X149815700Y-109576677D01*
X149704971Y-109568264D01*
X149570065Y-109561241D01*
X149404478Y-109555274D01*
X149201706Y-109550029D01*
X148955246Y-109545172D01*
X148658594Y-109540371D01*
X148334417Y-109536302D01*
X147992452Y-109534530D01*
X147694030Y-109536446D01*
X147432029Y-109542378D01*
X147199328Y-109552656D01*
X146988804Y-109567608D01*
X146793337Y-109587563D01*
X146605804Y-109612850D01*
X146419085Y-109643798D01*
X146309261Y-109663326D01*
X146199848Y-109682318D01*
X146121986Y-109695290D01*
X146087790Y-109700180D01*
X146086302Y-109699949D01*
X146070730Y-109671067D01*
X146059441Y-109608476D01*
X146055007Y-109578398D01*
X146038057Y-109537228D01*
X146000456Y-109497769D01*
X145932321Y-109450729D01*
X145823773Y-109386814D01*
X145596987Y-109257232D01*
X145596987Y-108833973D01*
X145596987Y-108410713D01*
X145944252Y-108232654D01*
X146291518Y-108054596D01*
X146291518Y-107461838D01*
X146291767Y-107343301D01*
X146293740Y-107157564D01*
X146297937Y-107020362D01*
X146304667Y-106926361D01*
X146314237Y-106870222D01*
X146326953Y-106846611D01*
X146358296Y-106830160D01*
X146433662Y-106793083D01*
X146543351Y-106740209D01*
X146678471Y-106675819D01*
X146830134Y-106604197D01*
X147297880Y-106384253D01*
X148290067Y-106383681D01*
X149282255Y-106383110D01*
X149784447Y-106617335D01*
G37*
G36*
X159975953Y-117366873D02*
G01*
X160286237Y-117439551D01*
X160546194Y-117511716D01*
X160760385Y-117584713D01*
X160933371Y-117659884D01*
X161002602Y-117697132D01*
X161138430Y-117779178D01*
X161292034Y-117879774D01*
X161447550Y-117988076D01*
X161589112Y-118093243D01*
X161700857Y-118184430D01*
X161834759Y-118302295D01*
X162234511Y-118307150D01*
X162559777Y-118319985D01*
X163130320Y-118385386D01*
X163691236Y-118503913D01*
X164237478Y-118673880D01*
X164763995Y-118893604D01*
X165265740Y-119161401D01*
X165737663Y-119475586D01*
X165951005Y-119633401D01*
X165639174Y-119782250D01*
X165314810Y-119924594D01*
X164792318Y-120107494D01*
X164249559Y-120244814D01*
X163698640Y-120333116D01*
X163534768Y-120346870D01*
X163313129Y-120355627D01*
X163068095Y-120357326D01*
X162812985Y-120352407D01*
X162561119Y-120341314D01*
X162325818Y-120324487D01*
X162120401Y-120302368D01*
X161958189Y-120275400D01*
X161678989Y-120215434D01*
X161547140Y-120300013D01*
X161388470Y-120391404D01*
X161190123Y-120489012D01*
X160975792Y-120581808D01*
X160765437Y-120661163D01*
X160579018Y-120718451D01*
X160515135Y-120733912D01*
X160239275Y-120781455D01*
X159912835Y-120810492D01*
X159867670Y-120813042D01*
X159724858Y-120821086D01*
X159603804Y-120827875D01*
X159516126Y-120832759D01*
X159473438Y-120835088D01*
X159468838Y-120831236D01*
X159502623Y-120813793D01*
X159572656Y-120786741D01*
X159763600Y-120708993D01*
X159975082Y-120592462D01*
X160137274Y-120462543D01*
X160174714Y-120423084D01*
X160224353Y-120358658D01*
X160266724Y-120281320D01*
X160309010Y-120177085D01*
X160358394Y-120031968D01*
X160373939Y-119983746D01*
X160449787Y-119731223D01*
X160503765Y-119512523D01*
X160538510Y-119313081D01*
X160556657Y-119118337D01*
X160560844Y-118913727D01*
X160560531Y-118886623D01*
X160551738Y-118646009D01*
X160533161Y-118417930D01*
X160506215Y-118213390D01*
X160472316Y-118043390D01*
X160432880Y-117918934D01*
X160377080Y-117819152D01*
X160263748Y-117681823D01*
X160114878Y-117547406D01*
X159941183Y-117426628D01*
X159927383Y-117418209D01*
X159855902Y-117370797D01*
X159826053Y-117342984D01*
X159841964Y-117338441D01*
X159975953Y-117366873D01*
G37*
G36*
X148472180Y-99091745D02*
G01*
X148591059Y-99162370D01*
X148670370Y-99231860D01*
X148776077Y-99375370D01*
X148836645Y-99547657D01*
X148854587Y-99754367D01*
X148854314Y-99784040D01*
X148855705Y-99885216D01*
X148863619Y-99945985D01*
X148881123Y-99979594D01*
X148911284Y-99999285D01*
X148917515Y-100002274D01*
X148996845Y-100054865D01*
X149092826Y-100136554D01*
X149190008Y-100232230D01*
X149272945Y-100326785D01*
X149326188Y-100405109D01*
X149363948Y-100512269D01*
X149381473Y-100673739D01*
X149381473Y-100834001D01*
X149473605Y-100816096D01*
X149615232Y-100791440D01*
X149770781Y-100776766D01*
X149890740Y-100786643D01*
X149985212Y-100823716D01*
X150064302Y-100890629D01*
X150138112Y-100990028D01*
X150175453Y-101053170D01*
X150236142Y-101195342D01*
X150256360Y-101320191D01*
X150234107Y-101418792D01*
X150228455Y-101428716D01*
X150203894Y-101455717D01*
X150162788Y-101471082D01*
X150091767Y-101477979D01*
X149977462Y-101479575D01*
X149949805Y-101479739D01*
X149847482Y-101483461D01*
X149772660Y-101491087D01*
X149739930Y-101501283D01*
X149738163Y-101524426D01*
X149747720Y-101590043D01*
X149768391Y-101678460D01*
X149794531Y-101819046D01*
X149804675Y-102048252D01*
X149786933Y-102325905D01*
X149741342Y-102651506D01*
X149667939Y-103024552D01*
X149614014Y-103268971D01*
X149563002Y-103497849D01*
X149520462Y-103684495D01*
X149484539Y-103835893D01*
X149453381Y-103959025D01*
X149425134Y-104060875D01*
X149397945Y-104148424D01*
X149369961Y-104228656D01*
X149339329Y-104308554D01*
X149304195Y-104395101D01*
X149302347Y-104399585D01*
X149241538Y-104547044D01*
X149200205Y-104651110D01*
X149177007Y-104720878D01*
X149170602Y-104765440D01*
X149179649Y-104793892D01*
X149202805Y-104815327D01*
X149238729Y-104838838D01*
X149259602Y-104854181D01*
X149333487Y-104933964D01*
X149388345Y-105030259D01*
X149409822Y-105119517D01*
X149408035Y-105127344D01*
X149396111Y-105137461D01*
X149368531Y-105145600D01*
X149320168Y-105151969D01*
X149245889Y-105156781D01*
X149140566Y-105160245D01*
X148999067Y-105162572D01*
X148816264Y-105163974D01*
X148587025Y-105164661D01*
X148306220Y-105164843D01*
X147202619Y-105164843D01*
X147225452Y-105085229D01*
X147231532Y-105065040D01*
X147292011Y-104924043D01*
X147371815Y-104811959D01*
X147462803Y-104737974D01*
X147556837Y-104711271D01*
X147599708Y-104706125D01*
X147623884Y-104689149D01*
X147621247Y-104677926D01*
X147601577Y-104622702D01*
X147566883Y-104534730D01*
X147522178Y-104426928D01*
X147482412Y-104324970D01*
X147416819Y-104127392D01*
X147349340Y-103892466D01*
X147283019Y-103631713D01*
X147220900Y-103356655D01*
X147166026Y-103078811D01*
X147133904Y-102861209D01*
X147108952Y-102569989D01*
X147099765Y-102266761D01*
X147106334Y-101968146D01*
X147128653Y-101690761D01*
X147166715Y-101451227D01*
X147167285Y-101448575D01*
X147203809Y-101307506D01*
X147257431Y-101136881D01*
X147323429Y-100948693D01*
X147397076Y-100754937D01*
X147473650Y-100567605D01*
X147548426Y-100398693D01*
X147616680Y-100260194D01*
X147673688Y-100164102D01*
X147700948Y-100126361D01*
X147758842Y-100061164D01*
X147823658Y-100020700D01*
X147919810Y-99987446D01*
X148003125Y-99962797D01*
X148004855Y-99651041D01*
X148006319Y-99544715D01*
X148014045Y-99416036D01*
X148032602Y-99323527D01*
X148066770Y-99254692D01*
X148121331Y-99197030D01*
X148201065Y-99138043D01*
X148252852Y-99106880D01*
X148362943Y-99073467D01*
X148472180Y-99091745D01*
G37*
G36*
X145029671Y-114478922D02*
G01*
X144981306Y-114735232D01*
X144933705Y-115007186D01*
X144888182Y-115285885D01*
X144846053Y-115562427D01*
X144808634Y-115827911D01*
X144777240Y-116073437D01*
X144753187Y-116290104D01*
X144737791Y-116469010D01*
X144732366Y-116601256D01*
X144737818Y-116667838D01*
X144765651Y-116700735D01*
X144832907Y-116718858D01*
X144846181Y-116721173D01*
X144914034Y-116727118D01*
X144950747Y-116720420D01*
X144957711Y-116697786D01*
X144968565Y-116628079D01*
X144980258Y-116524043D01*
X144991229Y-116398100D01*
X145022554Y-116053177D01*
X145096316Y-115468406D01*
X145196075Y-114863187D01*
X145319189Y-114248470D01*
X145463019Y-113635203D01*
X145624923Y-113034336D01*
X145802263Y-112456817D01*
X145992397Y-111913597D01*
X146192685Y-111415624D01*
X146256399Y-111274947D01*
X146354798Y-111070973D01*
X146469180Y-110844220D01*
X146592160Y-110608781D01*
X146716357Y-110378747D01*
X146834387Y-110168214D01*
X146938866Y-109991273D01*
X147099442Y-109729199D01*
X148304241Y-109729967D01*
X149509040Y-109730735D01*
X149676365Y-110001235D01*
X149730725Y-110091456D01*
X149849723Y-110301050D01*
X149979479Y-110542604D01*
X150113296Y-110802714D01*
X150244480Y-111067975D01*
X150366333Y-111324983D01*
X150472159Y-111560333D01*
X150555262Y-111760621D01*
X150783276Y-112391596D01*
X151000951Y-113095248D01*
X151193274Y-113829317D01*
X151357190Y-114582088D01*
X151489641Y-115341852D01*
X151524003Y-115574588D01*
X151563163Y-115870063D01*
X151593049Y-116144771D01*
X151615434Y-116418069D01*
X151632087Y-116709310D01*
X151644778Y-117037851D01*
X151663505Y-117623883D01*
X151783985Y-117632600D01*
X151904464Y-117641317D01*
X151904053Y-117434162D01*
X151894992Y-117034860D01*
X151864987Y-116540478D01*
X151815344Y-116020334D01*
X151747438Y-115488525D01*
X151662643Y-114959151D01*
X151620675Y-114731474D01*
X151504564Y-114172139D01*
X151370901Y-113612839D01*
X151222853Y-113064903D01*
X151063587Y-112539657D01*
X150896271Y-112048428D01*
X150724071Y-111602542D01*
X150679728Y-111500106D01*
X150600258Y-111328074D01*
X150504582Y-111129885D01*
X150399279Y-110918514D01*
X150290929Y-110706939D01*
X150186111Y-110508136D01*
X150091403Y-110335082D01*
X150013384Y-110200752D01*
X149990336Y-110162969D01*
X149920878Y-110049175D01*
X149858433Y-109946964D01*
X149814250Y-109874748D01*
X149799031Y-109849192D01*
X149764482Y-109784200D01*
X149750467Y-109746095D01*
X149751038Y-109743465D01*
X149783968Y-109732724D01*
X149859742Y-109732783D01*
X149967480Y-109742414D01*
X150096299Y-109760388D01*
X150235320Y-109785477D01*
X150373661Y-109816452D01*
X150504047Y-109852882D01*
X150669238Y-109910913D01*
X150845687Y-109986799D01*
X151041925Y-110084572D01*
X151266483Y-110208263D01*
X151527895Y-110361904D01*
X151747779Y-110497201D01*
X152096917Y-110728008D01*
X152403831Y-110953904D01*
X152676640Y-111180674D01*
X152753208Y-111251487D01*
X152886672Y-111383372D01*
X153042335Y-111544504D01*
X153213307Y-111727147D01*
X153392700Y-111923567D01*
X153573621Y-112126029D01*
X153749182Y-112326798D01*
X153912493Y-112518138D01*
X154056663Y-112692316D01*
X154174802Y-112841595D01*
X154260021Y-112958240D01*
X154305883Y-113022358D01*
X154354905Y-113082902D01*
X154384933Y-113110102D01*
X154408105Y-113111731D01*
X154482082Y-113112211D01*
X154598452Y-113111019D01*
X154749222Y-113108279D01*
X154926398Y-113104115D01*
X155121987Y-113098652D01*
X155306707Y-113093213D01*
X155658749Y-113083379D01*
X156022775Y-113073831D01*
X156392542Y-113064696D01*
X156761810Y-113056098D01*
X157124336Y-113048163D01*
X157473880Y-113041016D01*
X157804200Y-113034783D01*
X158109055Y-113029590D01*
X158382203Y-113025562D01*
X158617404Y-113022824D01*
X158808415Y-113021501D01*
X158948996Y-113021720D01*
X159430915Y-113026108D01*
X159104911Y-113049653D01*
X159096705Y-113050240D01*
X158977314Y-113058076D01*
X158813214Y-113067938D01*
X158615343Y-113079213D01*
X158394636Y-113091290D01*
X158162029Y-113103560D01*
X157928460Y-113115409D01*
X157785025Y-113122617D01*
X157480032Y-113138474D01*
X157166158Y-113155437D01*
X156848441Y-113173187D01*
X156531919Y-113191406D01*
X156221631Y-113209777D01*
X155922615Y-113227981D01*
X155639908Y-113245699D01*
X155378550Y-113262613D01*
X155143578Y-113278405D01*
X154940031Y-113292757D01*
X154772946Y-113305351D01*
X154647362Y-113315868D01*
X154568316Y-113323990D01*
X154540848Y-113329399D01*
X154541103Y-113330753D01*
X154558433Y-113366091D01*
X154599026Y-113438768D01*
X154657317Y-113539026D01*
X154727742Y-113657108D01*
X154875977Y-113912678D01*
X155077996Y-114289689D01*
X155279307Y-114695626D01*
X155474419Y-115118064D01*
X155657843Y-115544577D01*
X155824086Y-115962739D01*
X155967659Y-116360124D01*
X156083071Y-116724306D01*
X156085850Y-116733971D01*
X156127799Y-116895993D01*
X156169852Y-117084875D01*
X156209625Y-117286992D01*
X156244737Y-117488719D01*
X156272806Y-117676430D01*
X156291449Y-117836499D01*
X156298284Y-117955301D01*
X156298601Y-117970250D01*
X156308531Y-118040246D01*
X156328009Y-118078210D01*
X156330359Y-118079456D01*
X156349884Y-118085332D01*
X156387126Y-118092185D01*
X156445611Y-118100358D01*
X156528863Y-118110193D01*
X156640409Y-118122029D01*
X156783774Y-118136211D01*
X156962484Y-118153079D01*
X157180064Y-118172974D01*
X157440040Y-118196240D01*
X157745937Y-118223217D01*
X158101281Y-118254247D01*
X158509598Y-118289672D01*
X158509685Y-118289680D01*
X158780839Y-118313316D01*
X159035109Y-118335803D01*
X159266838Y-118356615D01*
X159470367Y-118375231D01*
X159640037Y-118391126D01*
X159770191Y-118403778D01*
X159855169Y-118412663D01*
X159889315Y-118417258D01*
X159918707Y-118453105D01*
X159938236Y-118535042D01*
X159947562Y-118652616D01*
X159947643Y-118795772D01*
X159939439Y-118954452D01*
X159923908Y-119118598D01*
X159910199Y-119218484D01*
X159902009Y-119278153D01*
X159874702Y-119423061D01*
X159842945Y-119543264D01*
X159807698Y-119628706D01*
X159769919Y-119669328D01*
X159747689Y-119669120D01*
X159673112Y-119662530D01*
X159551472Y-119649421D01*
X159387886Y-119630414D01*
X159187467Y-119606133D01*
X158955331Y-119577197D01*
X158696593Y-119544231D01*
X158416367Y-119507854D01*
X158119768Y-119468690D01*
X157890341Y-119438228D01*
X157604339Y-119400494D01*
X157337993Y-119365619D01*
X157096522Y-119334273D01*
X156885147Y-119307126D01*
X156709086Y-119284846D01*
X156573559Y-119268103D01*
X156483785Y-119257566D01*
X156444984Y-119253905D01*
X156441828Y-119253913D01*
X156420456Y-119256228D01*
X156405067Y-119268104D01*
X156394677Y-119297397D01*
X156388306Y-119351963D01*
X156384972Y-119439659D01*
X156383691Y-119568339D01*
X156383482Y-119745859D01*
X156383482Y-120237814D01*
X156863852Y-120688438D01*
X157344222Y-121139061D01*
X157345772Y-121457979D01*
X157347322Y-121776896D01*
X157097759Y-121776896D01*
X156848197Y-121776896D01*
X155173482Y-121153235D01*
X153498767Y-120529575D01*
X148311030Y-120529575D01*
X143123292Y-120529575D01*
X141445898Y-121153235D01*
X139768505Y-121776896D01*
X139529007Y-121776896D01*
X139289509Y-121776896D01*
X139289509Y-121456178D01*
X139289509Y-121135459D01*
X139755233Y-120697863D01*
X140220957Y-120260267D01*
X140222979Y-119742912D01*
X140225000Y-119225557D01*
X140491094Y-119225557D01*
X140757188Y-119225557D01*
X140977503Y-119143617D01*
X155660603Y-119143617D01*
X155745648Y-119183308D01*
X155797831Y-119199788D01*
X155899848Y-119215618D01*
X156014956Y-119220742D01*
X156199219Y-119218484D01*
X156043304Y-119196033D01*
X155987595Y-119188082D01*
X155870666Y-119171728D01*
X155773996Y-119158599D01*
X155660603Y-119143617D01*
X140977503Y-119143617D01*
X142395940Y-118616070D01*
X144034693Y-118006584D01*
X146018277Y-118006584D01*
X146259065Y-118006483D01*
X146576077Y-118006029D01*
X146872357Y-118005239D01*
X147143409Y-118004144D01*
X147384738Y-118002775D01*
X147591848Y-118001163D01*
X147760244Y-117999340D01*
X147885430Y-117997337D01*
X147962911Y-117995185D01*
X147988191Y-117992915D01*
X147973115Y-117987400D01*
X147910349Y-117971477D01*
X147807961Y-117948297D01*
X147675573Y-117920013D01*
X147522808Y-117888778D01*
X147466951Y-117877620D01*
X147357486Y-117856313D01*
X147260387Y-117839058D01*
X147167982Y-117825314D01*
X147072598Y-117814540D01*
X146966561Y-117806195D01*
X146842199Y-117799738D01*
X146691838Y-117794627D01*
X146507806Y-117790323D01*
X146282430Y-117786283D01*
X146008036Y-117781967D01*
X144944978Y-117765624D01*
X144943934Y-117586768D01*
X144943764Y-117569668D01*
X144935896Y-117460309D01*
X144911234Y-117395127D01*
X144862390Y-117363551D01*
X144781976Y-117355009D01*
X144704018Y-117354575D01*
X144704018Y-117563087D01*
X144704018Y-117771599D01*
X144512668Y-117789671D01*
X144417752Y-117797338D01*
X144284647Y-117804928D01*
X144173933Y-117807945D01*
X144171902Y-117807957D01*
X144133024Y-117811086D01*
X144081575Y-117820711D01*
X144013529Y-117838239D01*
X143924860Y-117865078D01*
X143811541Y-117902633D01*
X143669545Y-117952312D01*
X143494847Y-118015522D01*
X143283420Y-118093669D01*
X143031237Y-118188161D01*
X142734272Y-118300405D01*
X142388498Y-118431807D01*
X140750448Y-119055468D01*
X140497609Y-119055468D01*
X140244770Y-119055468D01*
X140261525Y-118566461D01*
X140265213Y-118470034D01*
X140301049Y-117937775D01*
X140362019Y-117450580D01*
X140448931Y-117003145D01*
X140562592Y-116590168D01*
X140596140Y-116481745D01*
X140631912Y-116350389D01*
X140647623Y-116265506D01*
X140642602Y-116230110D01*
X140616795Y-116216226D01*
X140547987Y-116181264D01*
X140449481Y-116132198D01*
X140333070Y-116074940D01*
X140271904Y-116044576D01*
X140012666Y-115902783D01*
X139806500Y-115764672D01*
X139650758Y-115627577D01*
X139542793Y-115488834D01*
X139479956Y-115345776D01*
X139459598Y-115195738D01*
X139459932Y-115180961D01*
X139856473Y-115180961D01*
X139856840Y-115188449D01*
X139888493Y-115261163D01*
X139966331Y-115345991D01*
X140083444Y-115438040D01*
X140232925Y-115532414D01*
X140407864Y-115624221D01*
X140601352Y-115708567D01*
X140638469Y-115723150D01*
X140733509Y-115760062D01*
X140801358Y-115785773D01*
X140829265Y-115795423D01*
X140836213Y-115784035D01*
X140861360Y-115730554D01*
X140899822Y-115643246D01*
X140946635Y-115533202D01*
X140960490Y-115500494D01*
X141019540Y-115365398D01*
X141092852Y-115202290D01*
X141172424Y-115028844D01*
X141250250Y-114862735D01*
X141291681Y-114774899D01*
X141352102Y-114644682D01*
X141400383Y-114537956D01*
X141432386Y-114463926D01*
X141443973Y-114431795D01*
X141443824Y-114430982D01*
X141415362Y-114430858D01*
X141343814Y-114448334D01*
X141238084Y-114480247D01*
X141107079Y-114523433D01*
X140959701Y-114574729D01*
X140804856Y-114630972D01*
X140651448Y-114688999D01*
X140508382Y-114745645D01*
X140384562Y-114797748D01*
X140288894Y-114842143D01*
X140223124Y-114876238D01*
X140071303Y-114965013D01*
X139955771Y-115048383D01*
X139882252Y-115121861D01*
X139856473Y-115180961D01*
X139459932Y-115180961D01*
X139460247Y-115167043D01*
X139486647Y-115028507D01*
X139556210Y-114902912D01*
X139675152Y-114778220D01*
X139769877Y-114704470D01*
X139965725Y-114587384D01*
X140216881Y-114470864D01*
X140523693Y-114354769D01*
X140886506Y-114238962D01*
X141305669Y-114123301D01*
X141663459Y-114030839D01*
X141786230Y-113814637D01*
X141787088Y-113813127D01*
X141947603Y-113542328D01*
X142118776Y-113277902D01*
X142306066Y-113012709D01*
X142514933Y-112739610D01*
X142750835Y-112451463D01*
X143019233Y-112141131D01*
X143325585Y-111801473D01*
X143526294Y-111586734D01*
X143773756Y-111336600D01*
X144010609Y-111117133D01*
X144248489Y-110918764D01*
X144499031Y-110731919D01*
X144773871Y-110547029D01*
X145084646Y-110354522D01*
X145303845Y-110225379D01*
X145521514Y-110103966D01*
X145710356Y-110007854D01*
X145879481Y-109932724D01*
X146038000Y-109874255D01*
X146195022Y-109828131D01*
X146255817Y-109813054D01*
X146394476Y-109783094D01*
X146532405Y-109758351D01*
X146658688Y-109740268D01*
X146762406Y-109730290D01*
X146832644Y-109729858D01*
X146858482Y-109740416D01*
X146843757Y-109786117D01*
X146803008Y-109864935D01*
X146743947Y-109962563D01*
X146674295Y-110065379D01*
X146672312Y-110068161D01*
X146618164Y-110152622D01*
X146545061Y-110278109D01*
X146458102Y-110434876D01*
X146362386Y-110613174D01*
X146263011Y-110803257D01*
X146165077Y-110995378D01*
X146073682Y-111179789D01*
X145993925Y-111346743D01*
X145930905Y-111486494D01*
X145890637Y-111582540D01*
X145787936Y-111847077D01*
X145679045Y-112151702D01*
X145567364Y-112485462D01*
X145456293Y-112837403D01*
X145349232Y-113196572D01*
X145249580Y-113552018D01*
X145160739Y-113892785D01*
X145086109Y-114207923D01*
X145077483Y-114247157D01*
X145039393Y-114431795D01*
X145029671Y-114478922D01*
G37*
%TD*%
D11*
%TO.C,J7*%
X116660000Y-111000000D03*
X116660000Y-113540000D03*
X116660000Y-116080000D03*
D12*
X119200000Y-111000000D03*
D13*
X119200000Y-113540000D03*
X119200000Y-116080000D03*
%TD*%
D11*
%TO.C,J12*%
X180140000Y-115780000D03*
X180140000Y-113240000D03*
X180140000Y-110700000D03*
D14*
X177600000Y-115780000D03*
D13*
X177600000Y-113240000D03*
X177600000Y-110700000D03*
%TD*%
D11*
%TO.C,J8*%
X180140000Y-124860000D03*
X180140000Y-122320000D03*
X180140000Y-119780000D03*
D14*
X177600000Y-124860000D03*
D13*
X177600000Y-122320000D03*
X177600000Y-119780000D03*
%TD*%
D11*
%TO.C,J18*%
X146340000Y-63360000D03*
X143800000Y-63360000D03*
D15*
X146340000Y-65900000D03*
D13*
X143800000Y-65900000D03*
%TD*%
D11*
%TO.C,J26*%
X116620000Y-70535147D03*
X116620000Y-73075147D03*
D12*
X119160000Y-70535147D03*
D13*
X119160000Y-73075147D03*
%TD*%
D11*
%TO.C,J29*%
X180140000Y-72779288D03*
X180140000Y-70239288D03*
D14*
X177600000Y-72779288D03*
D13*
X177600000Y-70239288D03*
%TD*%
D16*
%TO.C,J22*%
X153800000Y-133400000D03*
X142800000Y-133400000D03*
D17*
X145800000Y-123400000D03*
D18*
X150800000Y-123400000D03*
%TD*%
D11*
%TO.C,J14*%
X116660000Y-92840000D03*
X116660000Y-95380000D03*
X116660000Y-97920000D03*
D12*
X119200000Y-92840000D03*
D13*
X119200000Y-95380000D03*
X119200000Y-97920000D03*
%TD*%
D11*
%TO.C,J10*%
X116660000Y-83760000D03*
X116660000Y-86300000D03*
X116660000Y-88840000D03*
D12*
X119200000Y-83760000D03*
D13*
X119200000Y-86300000D03*
X119200000Y-88840000D03*
%TD*%
D11*
%TO.C,J27*%
X116620000Y-77135149D03*
X116620000Y-79675149D03*
D12*
X119160000Y-77135149D03*
D13*
X119160000Y-79675149D03*
%TD*%
D11*
%TO.C,J16*%
X180140000Y-106700000D03*
X180140000Y-104160000D03*
X180140000Y-101620000D03*
D14*
X177600000Y-106700000D03*
D13*
X177600000Y-104160000D03*
X177600000Y-101620000D03*
%TD*%
D19*
%TO.C,H3*%
X171400000Y-131700000D03*
%TD*%
%TO.C,H1*%
X130900000Y-72300000D03*
%TD*%
D11*
%TO.C,J28*%
X180140000Y-79369291D03*
X180140000Y-76829291D03*
D14*
X177600000Y-79369291D03*
D13*
X177600000Y-76829291D03*
%TD*%
D20*
%TO.C,J36*%
X135400000Y-111700000D03*
D21*
X137900000Y-111700000D03*
%TD*%
D22*
%TO.C,J34*%
X174000000Y-65300000D03*
D23*
X176540000Y-65300000D03*
%TD*%
D19*
%TO.C,H2*%
X166900000Y-72800000D03*
%TD*%
D11*
%TO.C,J9*%
X180140000Y-88540000D03*
X180140000Y-86000000D03*
X180140000Y-83460000D03*
D14*
X177600000Y-88540000D03*
D13*
X177600000Y-86000000D03*
X177600000Y-83460000D03*
%TD*%
D24*
%TO.C,J2*%
X159515000Y-130400000D03*
X165295000Y-130400000D03*
D25*
X158085000Y-129900000D03*
D26*
X158085000Y-134080000D03*
D25*
X166725000Y-129900000D03*
D26*
X166725000Y-134080000D03*
%TD*%
D11*
%TO.C,J5*%
X180140000Y-97620000D03*
X180140000Y-95080000D03*
X180140000Y-92540000D03*
D14*
X177600000Y-97620000D03*
D13*
X177600000Y-95080000D03*
X177600000Y-92540000D03*
%TD*%
D11*
%TO.C,J3*%
X116660000Y-101920000D03*
X116660000Y-104460000D03*
X116660000Y-107000000D03*
D12*
X119200000Y-101920000D03*
D13*
X119200000Y-104460000D03*
X119200000Y-107000000D03*
%TD*%
D11*
%TO.C,J19*%
X139750000Y-63350000D03*
X137210000Y-63350000D03*
D15*
X139750000Y-65890000D03*
D13*
X137210000Y-65890000D03*
%TD*%
D11*
%TO.C,J20*%
X153040000Y-63350000D03*
X150500000Y-63350000D03*
D15*
X153040000Y-65890000D03*
D13*
X150500000Y-65890000D03*
%TD*%
D11*
%TO.C,J21*%
X159640000Y-63360000D03*
X157100000Y-63360000D03*
D15*
X159640000Y-65900000D03*
D13*
X157100000Y-65900000D03*
%TD*%
D22*
%TO.C,J35*%
X142080000Y-84440000D03*
D23*
X142080000Y-81900000D03*
X144620000Y-84440000D03*
X144620000Y-81900000D03*
X147159999Y-84440000D03*
X147160000Y-81900000D03*
X149700000Y-84440000D03*
X149700000Y-81900000D03*
X152240000Y-84440000D03*
X152240000Y-81900000D03*
X154780000Y-84440000D03*
X154780000Y-81900000D03*
%TD*%
D19*
%TO.C,H4*%
X125400000Y-131500000D03*
%TD*%
D11*
%TO.C,J4*%
X180140000Y-133940000D03*
X180140000Y-131400000D03*
X180140000Y-128860000D03*
D14*
X177600000Y-133940000D03*
D13*
X177600000Y-131400000D03*
X177600000Y-128860000D03*
%TD*%
D11*
%TO.C,J15*%
X116660000Y-129160000D03*
X116660000Y-131700000D03*
X116660000Y-134240000D03*
D12*
X119200000Y-129160000D03*
D13*
X119200000Y-131700000D03*
X119200000Y-134240000D03*
%TD*%
D11*
%TO.C,J11*%
X116660000Y-120080000D03*
X116660000Y-122620000D03*
X116660000Y-125160000D03*
D12*
X119200000Y-120080000D03*
D13*
X119200000Y-122620000D03*
X119200000Y-125160000D03*
%TD*%
M02*
