%TF.GenerationSoftware,KiCad,Pcbnew,9.0.4*%
%TF.CreationDate,2025-10-16T14:13:28-04:00*%
%TF.ProjectId,Alpha_Breakout,416c7068-615f-4427-9265-616b6f75742e,rev?*%
%TF.SameCoordinates,Original*%
%TF.FileFunction,Legend,Bot*%
%TF.FilePolarity,Positive*%
%FSLAX46Y46*%
G04 Gerber Fmt 4.6, Leading zero omitted, Abs format (unit mm)*
G04 Created by KiCad (PCBNEW 9.0.4) date 2025-10-16 14:13:28*
%MOMM*%
%LPD*%
G01*
G04 APERTURE LIST*
%ADD10C,0.300000*%
%ADD11C,0.508000*%
G04 APERTURE END LIST*
D10*
G36*
X155925540Y-70639375D02*
G01*
X155925540Y-71873290D01*
X155430216Y-71873290D01*
X155430216Y-72225000D01*
X156335868Y-72225000D01*
X156335868Y-70639375D01*
X155925540Y-70639375D01*
G37*
G36*
X154871877Y-71146423D02*
G01*
X154871877Y-71755229D01*
X154863071Y-71831514D01*
X154839575Y-71885369D01*
X154803005Y-71922802D01*
X154751134Y-71946534D01*
X154678436Y-71955355D01*
X154605738Y-71946534D01*
X154553868Y-71922802D01*
X154517298Y-71885369D01*
X154493801Y-71831514D01*
X154484996Y-71755229D01*
X154484996Y-71146423D01*
X154103977Y-71146423D01*
X154103977Y-71828227D01*
X154113940Y-71935755D01*
X154141876Y-72023928D01*
X154186377Y-72096658D01*
X154248142Y-72156581D01*
X154321656Y-72200990D01*
X154414863Y-72235245D01*
X154532086Y-72257790D01*
X154678436Y-72266032D01*
X154824786Y-72257790D01*
X154942010Y-72235245D01*
X155035216Y-72200990D01*
X155108731Y-72156581D01*
X155170496Y-72096658D01*
X155214996Y-72023928D01*
X155242933Y-71935755D01*
X155252896Y-71828227D01*
X155252896Y-71146423D01*
X154871877Y-71146423D01*
G37*
G36*
X153467969Y-70478175D02*
G01*
X153467969Y-71535410D01*
X153068998Y-71146423D01*
X152548211Y-71146423D01*
X153087957Y-71644678D01*
X152516704Y-72225000D01*
X153050130Y-72225000D01*
X153467969Y-71785546D01*
X153467969Y-72225000D01*
X153848988Y-72225000D01*
X153848988Y-70478175D01*
X153467969Y-70478175D01*
G37*
G36*
X152026186Y-71116096D02*
G01*
X152140997Y-71146515D01*
X152243969Y-71196820D01*
X152328851Y-71263385D01*
X152376251Y-71317012D01*
X152416111Y-71378156D01*
X152448560Y-71447666D01*
X152471427Y-71521078D01*
X152485603Y-71601845D01*
X152490509Y-71691024D01*
X152485381Y-71777150D01*
X152470523Y-71855413D01*
X152446454Y-71926871D01*
X152392918Y-72025160D01*
X152321523Y-72108038D01*
X152233603Y-72174516D01*
X152127350Y-72224908D01*
X152010026Y-72255439D01*
X151877490Y-72266032D01*
X151748137Y-72257217D01*
X151640029Y-72232534D01*
X151549608Y-72193833D01*
X151474006Y-72141820D01*
X151411207Y-72076003D01*
X151360202Y-71994739D01*
X151321074Y-71895363D01*
X151687255Y-71895363D01*
X151722779Y-71939910D01*
X151764701Y-71970873D01*
X151814206Y-71989763D01*
X151873460Y-71996388D01*
X151946943Y-71988854D01*
X152002655Y-71968318D01*
X152044808Y-71936192D01*
X152075860Y-71891515D01*
X152096111Y-71831138D01*
X152103628Y-71750191D01*
X151306420Y-71750191D01*
X151306420Y-71710166D01*
X151316825Y-71573423D01*
X151328415Y-71527442D01*
X151660053Y-71527442D01*
X152093187Y-71527442D01*
X152078267Y-71474266D01*
X152054876Y-71431639D01*
X152023120Y-71397657D01*
X151983808Y-71372663D01*
X151936699Y-71357104D01*
X151879780Y-71351587D01*
X151825708Y-71357169D01*
X151778803Y-71373265D01*
X151737539Y-71399764D01*
X151703135Y-71435029D01*
X151677398Y-71477173D01*
X151660053Y-71527442D01*
X151328415Y-71527442D01*
X151346353Y-71456276D01*
X151377489Y-71383797D01*
X151415953Y-71320570D01*
X151461758Y-71265583D01*
X151515299Y-71218102D01*
X151576575Y-71178458D01*
X151646497Y-71146515D01*
X151760097Y-71116078D01*
X151892144Y-71105390D01*
X152026186Y-71116096D01*
G37*
G36*
X149470751Y-71048604D02*
G01*
X149540169Y-71000102D01*
X149606489Y-70967637D01*
X149674309Y-70947635D01*
X149737831Y-70941259D01*
X149813012Y-70951309D01*
X149869264Y-70979086D01*
X149897842Y-71007335D01*
X149914432Y-71039767D01*
X149920097Y-71077913D01*
X149913559Y-71116819D01*
X149894726Y-71147339D01*
X149866173Y-71172182D01*
X149827957Y-71194600D01*
X149734808Y-71229313D01*
X149632043Y-71260820D01*
X149500996Y-71314471D01*
X149403996Y-71374664D01*
X149334464Y-71440522D01*
X149294340Y-71498901D01*
X149264994Y-71566083D01*
X149246599Y-71643676D01*
X149240125Y-71733705D01*
X149250740Y-71851616D01*
X149281250Y-71954439D01*
X149312948Y-72017386D01*
X149352814Y-72073591D01*
X149401234Y-72123700D01*
X149487505Y-72185263D01*
X149594949Y-72232968D01*
X149714376Y-72261710D01*
X149855068Y-72271894D01*
X150002603Y-72260683D01*
X150143733Y-72227336D01*
X150280118Y-72171507D01*
X150413132Y-72091826D01*
X150237369Y-71758801D01*
X150142422Y-71831764D01*
X150053820Y-71880342D01*
X149962348Y-71910496D01*
X149874393Y-71920184D01*
X149808299Y-71914228D01*
X149759350Y-71898258D01*
X149723451Y-71873931D01*
X149695251Y-71840655D01*
X149679209Y-71805983D01*
X149673900Y-71768784D01*
X149677224Y-71734631D01*
X149686540Y-71706777D01*
X149702771Y-71682262D01*
X149728672Y-71658417D01*
X149760994Y-71637956D01*
X149805517Y-71617384D01*
X149920372Y-71575344D01*
X150077359Y-71519657D01*
X150150446Y-71483909D01*
X150214288Y-71438690D01*
X150268028Y-71382237D01*
X150311191Y-71311470D01*
X150338012Y-71228547D01*
X150348011Y-71116931D01*
X150337959Y-71002948D01*
X150309084Y-70903524D01*
X150261848Y-70814146D01*
X150199542Y-70739484D01*
X150122207Y-70679386D01*
X150026892Y-70633238D01*
X149920737Y-70605220D01*
X149798281Y-70595411D01*
X149679485Y-70603395D01*
X149551901Y-70628292D01*
X149426187Y-70668806D01*
X149305430Y-70724829D01*
X149470751Y-71048604D01*
G37*
G36*
X148206978Y-71495385D02*
G01*
X148275582Y-71456886D01*
X148342103Y-71434929D01*
X148407837Y-71427791D01*
X148461461Y-71432615D01*
X148510419Y-71446750D01*
X148555174Y-71469761D01*
X148593950Y-71500606D01*
X148625811Y-71538508D01*
X148650004Y-71583038D01*
X148664876Y-71632577D01*
X148670062Y-71689741D01*
X148664925Y-71744987D01*
X148650004Y-71794247D01*
X148626012Y-71838832D01*
X148594958Y-71876587D01*
X148556936Y-71907268D01*
X148511518Y-71930443D01*
X148461610Y-71944670D01*
X148407837Y-71949494D01*
X148338448Y-71941481D01*
X148271998Y-71917315D01*
X148206978Y-71875580D01*
X148206978Y-72199262D01*
X148302442Y-72234030D01*
X148391075Y-72253822D01*
X148474057Y-72260170D01*
X148589377Y-72250077D01*
X148697998Y-72220145D01*
X148798179Y-72171220D01*
X148885118Y-72105290D01*
X148957607Y-72023469D01*
X149014445Y-71926046D01*
X149040957Y-71854989D01*
X149057216Y-71777715D01*
X149062805Y-71693130D01*
X149057474Y-71608321D01*
X149041930Y-71530274D01*
X149016551Y-71458016D01*
X148961547Y-71358455D01*
X148890430Y-71274651D01*
X148803634Y-71206624D01*
X148700104Y-71154483D01*
X148586623Y-71122220D01*
X148463616Y-71111252D01*
X148372468Y-71117954D01*
X148287294Y-71137682D01*
X148206978Y-71170328D01*
X148206978Y-71495385D01*
G37*
G36*
X147940265Y-70478175D02*
G01*
X147559246Y-70478175D01*
X147559246Y-71283810D01*
X147503888Y-71224101D01*
X147451637Y-71182480D01*
X147401801Y-71155765D01*
X147317670Y-71131629D01*
X147214772Y-71122976D01*
X147113185Y-71130987D01*
X147030247Y-71153278D01*
X146962439Y-71188210D01*
X146907117Y-71235541D01*
X146862937Y-71294460D01*
X146830607Y-71363378D01*
X146810266Y-71444214D01*
X146803070Y-71539440D01*
X146803070Y-72225000D01*
X147184089Y-72225000D01*
X147184089Y-71681590D01*
X147187639Y-71603747D01*
X147196728Y-71549515D01*
X147214187Y-71503634D01*
X147238677Y-71471846D01*
X147274298Y-71447485D01*
X147314345Y-71432838D01*
X147360127Y-71427791D01*
X147421886Y-71434801D01*
X147470109Y-71454266D01*
X147507955Y-71485493D01*
X147535254Y-71526893D01*
X147552818Y-71580609D01*
X147559246Y-71650174D01*
X147559246Y-72225000D01*
X147940265Y-72225000D01*
X147940265Y-70478175D01*
G37*
G36*
X146034507Y-71110488D02*
G01*
X146120561Y-71125367D01*
X146200676Y-71149629D01*
X146312215Y-71202724D01*
X146405198Y-71270804D01*
X146481728Y-71354533D01*
X146539379Y-71451879D01*
X146566077Y-71522724D01*
X146582189Y-71597215D01*
X146587648Y-71676186D01*
X146582068Y-71763681D01*
X146565833Y-71843740D01*
X146539379Y-71917437D01*
X146502877Y-71986754D01*
X146458580Y-72048665D01*
X146406206Y-72103825D01*
X146346729Y-72151257D01*
X146279573Y-72191271D01*
X146203881Y-72223900D01*
X146082755Y-72255229D01*
X145947884Y-72266032D01*
X145810836Y-72255253D01*
X145686758Y-72223900D01*
X145608869Y-72191247D01*
X145540347Y-72151541D01*
X145480220Y-72104832D01*
X145403530Y-72020792D01*
X145344940Y-71921650D01*
X145317806Y-71849302D01*
X145301243Y-71771365D01*
X145295573Y-71686810D01*
X145295717Y-71684612D01*
X145696650Y-71684612D01*
X145701696Y-71735895D01*
X145716525Y-71782706D01*
X145739732Y-71825418D01*
X145768915Y-71861841D01*
X145804296Y-71891791D01*
X145846401Y-71914597D01*
X145892516Y-71928785D01*
X145941564Y-71933557D01*
X145990626Y-71928787D01*
X146036819Y-71914597D01*
X146078864Y-71891801D01*
X146114305Y-71861841D01*
X146143436Y-71825428D01*
X146166695Y-71782706D01*
X146181475Y-71735620D01*
X146186571Y-71682506D01*
X146181551Y-71633287D01*
X146166695Y-71587709D01*
X146143496Y-71545836D01*
X146114305Y-71509582D01*
X146078864Y-71479622D01*
X146036819Y-71456825D01*
X145990626Y-71442636D01*
X145941564Y-71437866D01*
X145892516Y-71442638D01*
X145846401Y-71456825D01*
X145804296Y-71479632D01*
X145768915Y-71509582D01*
X145739732Y-71546005D01*
X145716525Y-71588716D01*
X145701644Y-71635236D01*
X145696650Y-71684612D01*
X145295717Y-71684612D01*
X145301124Y-71602148D01*
X145317329Y-71524174D01*
X145343841Y-71451879D01*
X145380429Y-71384101D01*
X145425387Y-71323240D01*
X145479121Y-71268697D01*
X145572976Y-71200815D01*
X145684651Y-71148621D01*
X145806697Y-71116446D01*
X145941656Y-71105390D01*
X146034507Y-71110488D01*
G37*
G36*
X144695743Y-70478175D02*
G01*
X144695743Y-72225000D01*
X145076762Y-72225000D01*
X145076762Y-70478175D01*
X144695743Y-70478175D01*
G37*
G36*
X144055338Y-70478175D02*
G01*
X144055338Y-72225000D01*
X144436357Y-72225000D01*
X144436357Y-70478175D01*
X144055338Y-70478175D01*
G37*
G36*
X143372662Y-71116096D02*
G01*
X143487473Y-71146515D01*
X143590445Y-71196820D01*
X143675327Y-71263385D01*
X143722727Y-71317012D01*
X143762587Y-71378156D01*
X143795036Y-71447666D01*
X143817903Y-71521078D01*
X143832079Y-71601845D01*
X143836985Y-71691024D01*
X143831857Y-71777150D01*
X143816999Y-71855413D01*
X143792930Y-71926871D01*
X143739394Y-72025160D01*
X143667999Y-72108038D01*
X143580078Y-72174516D01*
X143473826Y-72224908D01*
X143356502Y-72255439D01*
X143223966Y-72266032D01*
X143094613Y-72257217D01*
X142986505Y-72232534D01*
X142896084Y-72193833D01*
X142820482Y-72141820D01*
X142757683Y-72076003D01*
X142706678Y-71994739D01*
X142667550Y-71895363D01*
X143033731Y-71895363D01*
X143069255Y-71939910D01*
X143111177Y-71970873D01*
X143160682Y-71989763D01*
X143219936Y-71996388D01*
X143293419Y-71988854D01*
X143349131Y-71968318D01*
X143391284Y-71936192D01*
X143422336Y-71891515D01*
X143442586Y-71831138D01*
X143450104Y-71750191D01*
X142652896Y-71750191D01*
X142652896Y-71710166D01*
X142663301Y-71573423D01*
X142674891Y-71527442D01*
X143006529Y-71527442D01*
X143439663Y-71527442D01*
X143424743Y-71474266D01*
X143401352Y-71431639D01*
X143369596Y-71397657D01*
X143330284Y-71372663D01*
X143283175Y-71357104D01*
X143226256Y-71351587D01*
X143172184Y-71357169D01*
X143125279Y-71373265D01*
X143084015Y-71399764D01*
X143049611Y-71435029D01*
X143023874Y-71477173D01*
X143006529Y-71527442D01*
X142674891Y-71527442D01*
X142692829Y-71456276D01*
X142723965Y-71383797D01*
X142762429Y-71320570D01*
X142808234Y-71265583D01*
X142861775Y-71218102D01*
X142923051Y-71178458D01*
X142992973Y-71146515D01*
X143106573Y-71116078D01*
X143238620Y-71105390D01*
X143372662Y-71116096D01*
G37*
G36*
X142437473Y-71146423D02*
G01*
X142056454Y-71146423D01*
X142056454Y-71324201D01*
X142011936Y-71263136D01*
X141962419Y-71213777D01*
X141907619Y-71174908D01*
X141846946Y-71146531D01*
X141778915Y-71129046D01*
X141701997Y-71122976D01*
X141669482Y-71122976D01*
X141628541Y-71127281D01*
X141628541Y-71493187D01*
X141706817Y-71464983D01*
X141792214Y-71455451D01*
X141876767Y-71465124D01*
X141941222Y-71491733D01*
X141990417Y-71534128D01*
X142025236Y-71590345D01*
X142048019Y-71665080D01*
X142056454Y-71763747D01*
X142056454Y-72225000D01*
X142437473Y-72225000D01*
X142437473Y-71146423D01*
G37*
G36*
X155464471Y-73568604D02*
G01*
X155533888Y-73520102D01*
X155600209Y-73487637D01*
X155668028Y-73467635D01*
X155731550Y-73461259D01*
X155806731Y-73471309D01*
X155862984Y-73499086D01*
X155891562Y-73527335D01*
X155908151Y-73559767D01*
X155913817Y-73597913D01*
X155907279Y-73636819D01*
X155888446Y-73667339D01*
X155859893Y-73692182D01*
X155821676Y-73714600D01*
X155728528Y-73749313D01*
X155625763Y-73780820D01*
X155494716Y-73834471D01*
X155397715Y-73894664D01*
X155328183Y-73960522D01*
X155288060Y-74018901D01*
X155258713Y-74086083D01*
X155240318Y-74163676D01*
X155233845Y-74253705D01*
X155244459Y-74371616D01*
X155274969Y-74474439D01*
X155306668Y-74537386D01*
X155346534Y-74593591D01*
X155394953Y-74643700D01*
X155481225Y-74705263D01*
X155588668Y-74752968D01*
X155708096Y-74781710D01*
X155848787Y-74791894D01*
X155996322Y-74780683D01*
X156137452Y-74747336D01*
X156273837Y-74691507D01*
X156406851Y-74611826D01*
X156231088Y-74278801D01*
X156136141Y-74351764D01*
X156047540Y-74400342D01*
X155956067Y-74430496D01*
X155868113Y-74440184D01*
X155802018Y-74434228D01*
X155753070Y-74418258D01*
X155717171Y-74393931D01*
X155688971Y-74360655D01*
X155672928Y-74325983D01*
X155667620Y-74288784D01*
X155670943Y-74254631D01*
X155680259Y-74226777D01*
X155696491Y-74202262D01*
X155722391Y-74178417D01*
X155754713Y-74157956D01*
X155799236Y-74137384D01*
X155914091Y-74095344D01*
X156071079Y-74039657D01*
X156144166Y-74003909D01*
X156208007Y-73958690D01*
X156261747Y-73902237D01*
X156304911Y-73831470D01*
X156331732Y-73748547D01*
X156341730Y-73636931D01*
X156331679Y-73522948D01*
X156302804Y-73423524D01*
X156255567Y-73334146D01*
X156193261Y-73259484D01*
X156115926Y-73199386D01*
X156020612Y-73153238D01*
X155914457Y-73125220D01*
X155792001Y-73115411D01*
X155673204Y-73123395D01*
X155545621Y-73148292D01*
X155419907Y-73188806D01*
X155299149Y-73244829D01*
X155464471Y-73568604D01*
G37*
G36*
X154592201Y-73636096D02*
G01*
X154707013Y-73666515D01*
X154809985Y-73716820D01*
X154894866Y-73783385D01*
X154942266Y-73837012D01*
X154982126Y-73898156D01*
X155014576Y-73967666D01*
X155037442Y-74041078D01*
X155051618Y-74121845D01*
X155056524Y-74211024D01*
X155051396Y-74297150D01*
X155036539Y-74375413D01*
X155012469Y-74446871D01*
X154958933Y-74545160D01*
X154887539Y-74628038D01*
X154799618Y-74694516D01*
X154693366Y-74744908D01*
X154576041Y-74775439D01*
X154443505Y-74786032D01*
X154314153Y-74777217D01*
X154206044Y-74752534D01*
X154115624Y-74713833D01*
X154040022Y-74661820D01*
X153977222Y-74596003D01*
X153926217Y-74514739D01*
X153887090Y-74415363D01*
X154253271Y-74415363D01*
X154288795Y-74459910D01*
X154330716Y-74490873D01*
X154380222Y-74509763D01*
X154439475Y-74516388D01*
X154512959Y-74508854D01*
X154568670Y-74488318D01*
X154610823Y-74456192D01*
X154641876Y-74411515D01*
X154662126Y-74351138D01*
X154669644Y-74270191D01*
X153872435Y-74270191D01*
X153872435Y-74230166D01*
X153882841Y-74093423D01*
X153894431Y-74047442D01*
X154226068Y-74047442D01*
X154659202Y-74047442D01*
X154644283Y-73994266D01*
X154620891Y-73951639D01*
X154589135Y-73917657D01*
X154549823Y-73892663D01*
X154502714Y-73877104D01*
X154445795Y-73871587D01*
X154391723Y-73877169D01*
X154344819Y-73893265D01*
X154303554Y-73919764D01*
X154269150Y-73955029D01*
X154243413Y-73997173D01*
X154226068Y-74047442D01*
X153894431Y-74047442D01*
X153912369Y-73976276D01*
X153943504Y-73903797D01*
X153981968Y-73840570D01*
X154027773Y-73785583D01*
X154081315Y-73738102D01*
X154142591Y-73698458D01*
X154212513Y-73666515D01*
X154326112Y-73636078D01*
X154458160Y-73625390D01*
X154592201Y-73636096D01*
G37*
G36*
X153657013Y-74745000D02*
G01*
X153275994Y-74745000D01*
X153275994Y-74625656D01*
X153209731Y-74693286D01*
X153133937Y-74740886D01*
X153046709Y-74770012D01*
X152945075Y-74780170D01*
X152869264Y-74775030D01*
X152797966Y-74759881D01*
X152730386Y-74734833D01*
X152637247Y-74681164D01*
X152557645Y-74611460D01*
X152492780Y-74527194D01*
X152443431Y-74428094D01*
X152412950Y-74319889D01*
X152403147Y-74208917D01*
X152801186Y-74208917D01*
X152806152Y-74256416D01*
X152821061Y-74301882D01*
X152844076Y-74343777D01*
X152873085Y-74380101D01*
X152908109Y-74410141D01*
X152949105Y-74432949D01*
X152994108Y-74447110D01*
X153042895Y-74451908D01*
X153091627Y-74446873D01*
X153137600Y-74431850D01*
X153179754Y-74408454D01*
X153215727Y-74379002D01*
X153245260Y-74343469D01*
X153267751Y-74301882D01*
X153281777Y-74256186D01*
X153286527Y-74206810D01*
X153281572Y-74157175D01*
X153266835Y-74110548D01*
X153243732Y-74067750D01*
X153214719Y-74031322D01*
X153179632Y-74001292D01*
X153138699Y-73978565D01*
X153093613Y-73964333D01*
X153044818Y-73959515D01*
X152994415Y-73964627D01*
X152949105Y-73979573D01*
X152907885Y-74003117D01*
X152872077Y-74033428D01*
X152842489Y-74069966D01*
X152819962Y-74112655D01*
X152805918Y-74159239D01*
X152801186Y-74208917D01*
X152403147Y-74208917D01*
X152402581Y-74202506D01*
X152412677Y-74087129D01*
X152442424Y-73980122D01*
X152490243Y-73881878D01*
X152552333Y-73798864D01*
X152629332Y-73730195D01*
X152722051Y-73676590D01*
X152789675Y-73651658D01*
X152862307Y-73636452D01*
X152940862Y-73631252D01*
X153038784Y-73640361D01*
X153125942Y-73666800D01*
X153204509Y-73710338D01*
X153275994Y-73772211D01*
X153275994Y-72998175D01*
X153657013Y-72998175D01*
X153657013Y-74745000D01*
G37*
G36*
X151765897Y-73636467D02*
G01*
X151838363Y-73651686D01*
X151905517Y-73676590D01*
X151997685Y-73730305D01*
X152075601Y-73799963D01*
X152138721Y-73883887D01*
X152186885Y-73982229D01*
X152216675Y-74088958D01*
X152226727Y-74202506D01*
X152216250Y-74323564D01*
X152185785Y-74432399D01*
X152136347Y-74531496D01*
X152071388Y-74615765D01*
X151991693Y-74684989D01*
X151899289Y-74736939D01*
X151796991Y-74769131D01*
X151682950Y-74780170D01*
X151582201Y-74770048D01*
X151495437Y-74740980D01*
X151419759Y-74693387D01*
X151353314Y-74625656D01*
X151353314Y-74745000D01*
X150972295Y-74745000D01*
X150972295Y-74206810D01*
X151340675Y-74206810D01*
X151345736Y-74256126D01*
X151360733Y-74301882D01*
X151384056Y-74343756D01*
X151413490Y-74380101D01*
X151449060Y-74410063D01*
X151491434Y-74432949D01*
X151537911Y-74447136D01*
X151587329Y-74451908D01*
X151638576Y-74447088D01*
X151685332Y-74432949D01*
X151727722Y-74410067D01*
X151763367Y-74380101D01*
X151792440Y-74343550D01*
X151815025Y-74300783D01*
X151829162Y-74253924D01*
X151833984Y-74202506D01*
X151829165Y-74153294D01*
X151815025Y-74108533D01*
X151792555Y-74067479D01*
X151763367Y-74031322D01*
X151727718Y-74001376D01*
X151685332Y-73978565D01*
X151638572Y-73964357D01*
X151587329Y-73959515D01*
X151537915Y-73964309D01*
X151491434Y-73978565D01*
X151449064Y-74001380D01*
X151413490Y-74031322D01*
X151384126Y-74067765D01*
X151360733Y-74110548D01*
X151345718Y-74157192D01*
X151340675Y-74206810D01*
X150972295Y-74206810D01*
X150972295Y-73666423D01*
X151353314Y-73666423D01*
X151353314Y-73773218D01*
X151424017Y-73710937D01*
X151502076Y-73667098D01*
X151589042Y-73640448D01*
X151687164Y-73631252D01*
X151765897Y-73636467D01*
G37*
G36*
X149997217Y-73943944D02*
G01*
X150068906Y-73912825D01*
X150137403Y-73894966D01*
X150203663Y-73889173D01*
X150252999Y-73894859D01*
X150289026Y-73910239D01*
X150313658Y-73935303D01*
X150321632Y-73967117D01*
X150316412Y-73997616D01*
X150293239Y-74019690D01*
X150240574Y-74038741D01*
X150148983Y-74059807D01*
X150046798Y-74088458D01*
X149969828Y-74126390D01*
X149913045Y-74172372D01*
X149870252Y-74230460D01*
X149844211Y-74298620D01*
X149835101Y-74379734D01*
X149844821Y-74470878D01*
X149872928Y-74550185D01*
X149918114Y-74619892D01*
X149978074Y-74677588D01*
X150050603Y-74722594D01*
X150139916Y-74757547D01*
X150237371Y-74778661D01*
X150347919Y-74786032D01*
X150454877Y-74778609D01*
X150561718Y-74756163D01*
X150669368Y-74718029D01*
X150778672Y-74663025D01*
X150640186Y-74394664D01*
X150529389Y-74458471D01*
X150429027Y-74493608D01*
X150336379Y-74504665D01*
X150286986Y-74498465D01*
X150249917Y-74481400D01*
X150224267Y-74454442D01*
X150216120Y-74422233D01*
X150221432Y-74387336D01*
X150243597Y-74361966D01*
X150293148Y-74340900D01*
X150378510Y-74320750D01*
X150494834Y-74289446D01*
X150574346Y-74253313D01*
X150626173Y-74214046D01*
X150664375Y-74162772D01*
X150688234Y-74098806D01*
X150696789Y-74018499D01*
X150688127Y-73930878D01*
X150663176Y-73854734D01*
X150622181Y-73787441D01*
X150566455Y-73731178D01*
X150498228Y-73686954D01*
X150414139Y-73652959D01*
X150321701Y-73632555D01*
X150215387Y-73625390D01*
X150097732Y-73633096D01*
X149982455Y-73656186D01*
X149868623Y-73695000D01*
X149997217Y-73943944D01*
G37*
G36*
X149194696Y-73982962D02*
G01*
X149194696Y-74745000D01*
X149575715Y-74745000D01*
X149575715Y-73982962D01*
X149698813Y-73982962D01*
X149698813Y-73666423D01*
X149575715Y-73666423D01*
X149575715Y-73344023D01*
X149194696Y-73344023D01*
X149194696Y-73666423D01*
X148977808Y-73666423D01*
X148977808Y-73982962D01*
X149194696Y-73982962D01*
G37*
G36*
X148423866Y-73666423D02*
G01*
X148423866Y-74745000D01*
X148804884Y-74745000D01*
X148804884Y-73666423D01*
X148423866Y-73666423D01*
G37*
G36*
X148828332Y-73253164D02*
G01*
X148824098Y-73210222D01*
X148811571Y-73170366D01*
X148791549Y-73133809D01*
X148765409Y-73102131D01*
X148733720Y-73075938D01*
X148697173Y-73055969D01*
X148657251Y-73043437D01*
X148614375Y-73039207D01*
X148571433Y-73043441D01*
X148531577Y-73055969D01*
X148495046Y-73075942D01*
X148463433Y-73102131D01*
X148437240Y-73133819D01*
X148417271Y-73170366D01*
X148404674Y-73210226D01*
X148400418Y-73253164D01*
X148404672Y-73296115D01*
X148417271Y-73336054D01*
X148437234Y-73372524D01*
X148463433Y-73404198D01*
X148495036Y-73430334D01*
X148531577Y-73450360D01*
X148571433Y-73462887D01*
X148614375Y-73467121D01*
X148657251Y-73462891D01*
X148697173Y-73450360D01*
X148733730Y-73430338D01*
X148765409Y-73404198D01*
X148791555Y-73372534D01*
X148811571Y-73336054D01*
X148824100Y-73296119D01*
X148828332Y-73253164D01*
G37*
G36*
X147744683Y-73636467D02*
G01*
X147817149Y-73651686D01*
X147884303Y-73676590D01*
X147976471Y-73730305D01*
X148054387Y-73799963D01*
X148117507Y-73883887D01*
X148165670Y-73982229D01*
X148195461Y-74088958D01*
X148205512Y-74202506D01*
X148195035Y-74323564D01*
X148164571Y-74432399D01*
X148115132Y-74531496D01*
X148050174Y-74615765D01*
X147970479Y-74684989D01*
X147878074Y-74736939D01*
X147775777Y-74769131D01*
X147661736Y-74780170D01*
X147560987Y-74770048D01*
X147474223Y-74740980D01*
X147398545Y-74693387D01*
X147332100Y-74625656D01*
X147332100Y-74745000D01*
X146951081Y-74745000D01*
X146951081Y-74206810D01*
X147319460Y-74206810D01*
X147324522Y-74256126D01*
X147339519Y-74301882D01*
X147362841Y-74343756D01*
X147392275Y-74380101D01*
X147427846Y-74410063D01*
X147470219Y-74432949D01*
X147516697Y-74447136D01*
X147566115Y-74451908D01*
X147617362Y-74447088D01*
X147664118Y-74432949D01*
X147706507Y-74410067D01*
X147742153Y-74380101D01*
X147771225Y-74343550D01*
X147793811Y-74300783D01*
X147807948Y-74253924D01*
X147812770Y-74202506D01*
X147807950Y-74153294D01*
X147793811Y-74108533D01*
X147771341Y-74067479D01*
X147742153Y-74031322D01*
X147706504Y-74001376D01*
X147664118Y-73978565D01*
X147617357Y-73964357D01*
X147566115Y-73959515D01*
X147516701Y-73964309D01*
X147470219Y-73978565D01*
X147427850Y-74001380D01*
X147392275Y-74031322D01*
X147362912Y-74067765D01*
X147339519Y-74110548D01*
X147324504Y-74157192D01*
X147319460Y-74206810D01*
X146951081Y-74206810D01*
X146951081Y-73666423D01*
X147332100Y-73666423D01*
X147332100Y-73773218D01*
X147402803Y-73710937D01*
X147480861Y-73667098D01*
X147567828Y-73640448D01*
X147665949Y-73631252D01*
X147744683Y-73636467D01*
G37*
G36*
X146693161Y-73666423D02*
G01*
X146312142Y-73666423D01*
X146312142Y-73803077D01*
X146256805Y-73743677D01*
X146204553Y-73702259D01*
X146154697Y-73675674D01*
X146070572Y-73651606D01*
X145967668Y-73642976D01*
X145859393Y-73652762D01*
X145773403Y-73679795D01*
X145698493Y-73724301D01*
X145635833Y-73783934D01*
X145596831Y-73842011D01*
X145572819Y-73905934D01*
X145560423Y-73975740D01*
X145555966Y-74059440D01*
X145555966Y-74745000D01*
X145936985Y-74745000D01*
X145936985Y-74200399D01*
X145940249Y-74124339D01*
X145948617Y-74071164D01*
X145965124Y-74025717D01*
X145989467Y-73992304D01*
X146016401Y-73970632D01*
X146046070Y-73956584D01*
X146113023Y-73946051D01*
X146174767Y-73953080D01*
X146222990Y-73972601D01*
X146260851Y-74003936D01*
X146288147Y-74045395D01*
X146305713Y-74099200D01*
X146312142Y-74168892D01*
X146312142Y-74745000D01*
X146693161Y-74745000D01*
X146693161Y-73666423D01*
G37*
G36*
X144550662Y-74745000D02*
G01*
X143889100Y-74745000D01*
X143766833Y-74737304D01*
X143662412Y-74715599D01*
X143567755Y-74678103D01*
X143491229Y-74627397D01*
X143428888Y-74562028D01*
X143381960Y-74482500D01*
X143353236Y-74392035D01*
X143343126Y-74284938D01*
X143344944Y-74255537D01*
X143759316Y-74255537D01*
X143767280Y-74310133D01*
X143789581Y-74351494D01*
X143826727Y-74382940D01*
X143873846Y-74402798D01*
X143945407Y-74417018D01*
X144049842Y-74422599D01*
X144140334Y-74422599D01*
X144140334Y-74088475D01*
X144049842Y-74088475D01*
X143945407Y-74094055D01*
X143873846Y-74108276D01*
X143826727Y-74128134D01*
X143789589Y-74159529D01*
X143767285Y-74200883D01*
X143759316Y-74255537D01*
X143344944Y-74255537D01*
X143347455Y-74214938D01*
X143360070Y-74150573D01*
X143382548Y-74090479D01*
X143415941Y-74037092D01*
X143460012Y-73991172D01*
X143517149Y-73952004D01*
X143583643Y-73922613D01*
X143667908Y-73900530D01*
X143613530Y-73860142D01*
X143570703Y-73815513D01*
X143538123Y-73766349D01*
X143515378Y-73711896D01*
X143500777Y-73646087D01*
X143499599Y-73628230D01*
X143870690Y-73628230D01*
X143878484Y-73684330D01*
X143899960Y-73725579D01*
X143935144Y-73755825D01*
X143987753Y-73775956D01*
X144064405Y-73783660D01*
X144140334Y-73783660D01*
X144140334Y-73472983D01*
X144064405Y-73472983D01*
X143987736Y-73480681D01*
X143935123Y-73500797D01*
X143899946Y-73531013D01*
X143878480Y-73572211D01*
X143870690Y-73628230D01*
X143499599Y-73628230D01*
X143495533Y-73566589D01*
X143503469Y-73467794D01*
X143525684Y-73386105D01*
X143560742Y-73318345D01*
X143608557Y-73262140D01*
X143667610Y-73218214D01*
X143740376Y-73185303D01*
X143829752Y-73164098D01*
X143939384Y-73156444D01*
X144550662Y-73156444D01*
X144550662Y-74745000D01*
G37*
G36*
X143133565Y-73666423D02*
G01*
X142752547Y-73666423D01*
X142752547Y-73844201D01*
X142708028Y-73783136D01*
X142658511Y-73733777D01*
X142603711Y-73694908D01*
X142543038Y-73666531D01*
X142475007Y-73649046D01*
X142398089Y-73642976D01*
X142365574Y-73642976D01*
X142324633Y-73647281D01*
X142324633Y-74013187D01*
X142402909Y-73984983D01*
X142488306Y-73975451D01*
X142572859Y-73985124D01*
X142637314Y-74011733D01*
X142686509Y-74054128D01*
X142721328Y-74110345D01*
X142744111Y-74185080D01*
X142752547Y-74283747D01*
X142752547Y-74745000D01*
X143133565Y-74745000D01*
X143133565Y-73666423D01*
G37*
G36*
X141635205Y-73630488D02*
G01*
X141721259Y-73645367D01*
X141801373Y-73669629D01*
X141912913Y-73722724D01*
X142005896Y-73790804D01*
X142082426Y-73874533D01*
X142140077Y-73971879D01*
X142166774Y-74042724D01*
X142182887Y-74117215D01*
X142188346Y-74196186D01*
X142182765Y-74283681D01*
X142166531Y-74363740D01*
X142140077Y-74437437D01*
X142103575Y-74506754D01*
X142059278Y-74568665D01*
X142006904Y-74623825D01*
X141947427Y-74671257D01*
X141880271Y-74711271D01*
X141804579Y-74743900D01*
X141683453Y-74775229D01*
X141548582Y-74786032D01*
X141411534Y-74775253D01*
X141287456Y-74743900D01*
X141209567Y-74711247D01*
X141141045Y-74671541D01*
X141080918Y-74624832D01*
X141004228Y-74540792D01*
X140945638Y-74441650D01*
X140918504Y-74369302D01*
X140901941Y-74291365D01*
X140896270Y-74206810D01*
X140896414Y-74204612D01*
X141297348Y-74204612D01*
X141302394Y-74255895D01*
X141317223Y-74302706D01*
X141340430Y-74345418D01*
X141369613Y-74381841D01*
X141404994Y-74411791D01*
X141447099Y-74434597D01*
X141493214Y-74448785D01*
X141542262Y-74453557D01*
X141591324Y-74448787D01*
X141637517Y-74434597D01*
X141679562Y-74411801D01*
X141715003Y-74381841D01*
X141744134Y-74345428D01*
X141767393Y-74302706D01*
X141782173Y-74255620D01*
X141787268Y-74202506D01*
X141782249Y-74153287D01*
X141767393Y-74107709D01*
X141744194Y-74065836D01*
X141715003Y-74029582D01*
X141679562Y-73999622D01*
X141637517Y-73976825D01*
X141591324Y-73962636D01*
X141542262Y-73957866D01*
X141493214Y-73962638D01*
X141447099Y-73976825D01*
X141404994Y-73999632D01*
X141369613Y-74029582D01*
X141340430Y-74066005D01*
X141317223Y-74108716D01*
X141302342Y-74155236D01*
X141297348Y-74204612D01*
X140896414Y-74204612D01*
X140901822Y-74122148D01*
X140918027Y-74044174D01*
X140944539Y-73971879D01*
X140981127Y-73904101D01*
X141026085Y-73843240D01*
X141079819Y-73788697D01*
X141173674Y-73720815D01*
X141285349Y-73668621D01*
X141407395Y-73636446D01*
X141542354Y-73625390D01*
X141635205Y-73630488D01*
G37*
G36*
X139862665Y-74015385D02*
G01*
X139931270Y-73976886D01*
X139997791Y-73954929D01*
X140063524Y-73947791D01*
X140117148Y-73952615D01*
X140166106Y-73966750D01*
X140210861Y-73989761D01*
X140249637Y-74020606D01*
X140281498Y-74058508D01*
X140305691Y-74103038D01*
X140320563Y-74152577D01*
X140325750Y-74209741D01*
X140320612Y-74264987D01*
X140305691Y-74314247D01*
X140281699Y-74358832D01*
X140250645Y-74396587D01*
X140212624Y-74427268D01*
X140167206Y-74450443D01*
X140117298Y-74464670D01*
X140063524Y-74469494D01*
X139994135Y-74461481D01*
X139927686Y-74437315D01*
X139862665Y-74395580D01*
X139862665Y-74719262D01*
X139958129Y-74754030D01*
X140046763Y-74773822D01*
X140129745Y-74780170D01*
X140245064Y-74770077D01*
X140353685Y-74740145D01*
X140453866Y-74691220D01*
X140540806Y-74625290D01*
X140613295Y-74543469D01*
X140670132Y-74446046D01*
X140696645Y-74374989D01*
X140712903Y-74297715D01*
X140718492Y-74213130D01*
X140713161Y-74128321D01*
X140697618Y-74050274D01*
X140672239Y-73978016D01*
X140617234Y-73878455D01*
X140546118Y-73794651D01*
X140459321Y-73726624D01*
X140355792Y-73674483D01*
X140242311Y-73642220D01*
X140119303Y-73631252D01*
X140028155Y-73637954D01*
X139942982Y-73657682D01*
X139862665Y-73690328D01*
X139862665Y-74015385D01*
G37*
G36*
X139214933Y-72998175D02*
G01*
X139214933Y-74055410D01*
X138815963Y-73666423D01*
X138295176Y-73666423D01*
X138834922Y-74164678D01*
X138263668Y-74745000D01*
X138797095Y-74745000D01*
X139214933Y-74305546D01*
X139214933Y-74745000D01*
X139595952Y-74745000D01*
X139595952Y-72998175D01*
X139214933Y-72998175D01*
G37*
G36*
X156006367Y-68252550D02*
G01*
X156068360Y-68166852D01*
X156139199Y-68102436D01*
X156219772Y-68056661D01*
X156312024Y-68028510D01*
X156418771Y-68018688D01*
X156537394Y-68029950D01*
X156651779Y-68063750D01*
X156758608Y-68117047D01*
X156854134Y-68186360D01*
X156937456Y-68270719D01*
X157009106Y-68371008D01*
X157064113Y-68482081D01*
X157099720Y-68602062D01*
X157114496Y-68726426D01*
X157105826Y-68835924D01*
X157075292Y-68937153D01*
X157026448Y-69022037D01*
X156959558Y-69092168D01*
X156875383Y-69145990D01*
X156778645Y-69179388D01*
X156665212Y-69191053D01*
X156542264Y-69178184D01*
X156417659Y-69138620D01*
X156289087Y-69069385D01*
X156154623Y-68965617D01*
X156289933Y-69616280D01*
X156348551Y-69635819D01*
X156479135Y-69675574D01*
X156592184Y-69701521D01*
X156702544Y-69717381D01*
X156807240Y-69722526D01*
X156947602Y-69713048D01*
X157077642Y-69685300D01*
X157199005Y-69639727D01*
X157311947Y-69576487D01*
X157410244Y-69499013D01*
X157495272Y-69406598D01*
X157565059Y-69301855D01*
X157620204Y-69183617D01*
X157660502Y-69050003D01*
X157680924Y-68911928D01*
X157680383Y-68762432D01*
X157657083Y-68599253D01*
X157613972Y-68439942D01*
X157553377Y-68291031D01*
X157475122Y-68151311D01*
X157381486Y-68020906D01*
X157277953Y-67904199D01*
X157164200Y-67800334D01*
X157040168Y-67709006D01*
X156909068Y-67632439D01*
X156770237Y-67570136D01*
X156625555Y-67523659D01*
X156482410Y-67496269D01*
X156339759Y-67487215D01*
X156218273Y-67493958D01*
X156103087Y-67513838D01*
X155989837Y-67547055D01*
X155869958Y-67596270D01*
X156006367Y-68252550D01*
G37*
G36*
X155046415Y-68182059D02*
G01*
X155216608Y-68226172D01*
X155375890Y-68296536D01*
X155516782Y-68387739D01*
X155639988Y-68499474D01*
X155742096Y-68629173D01*
X155819418Y-68773765D01*
X155867149Y-68928248D01*
X155884298Y-69046578D01*
X155885121Y-69153184D01*
X155871179Y-69249916D01*
X155842440Y-69343129D01*
X155801783Y-69425497D01*
X155749180Y-69498433D01*
X155685028Y-69561445D01*
X155608665Y-69614770D01*
X155518492Y-69658534D01*
X155422582Y-69689061D01*
X155315735Y-69708090D01*
X155196336Y-69714710D01*
X155016010Y-69700566D01*
X154844138Y-69658534D01*
X154682982Y-69590141D01*
X154541765Y-69499776D01*
X154418348Y-69387636D01*
X154314497Y-69255533D01*
X154258528Y-69158065D01*
X154215389Y-69053991D01*
X154184926Y-68942414D01*
X154175016Y-68872977D01*
X154700367Y-68872977D01*
X154707484Y-68939483D01*
X154728101Y-69007374D01*
X154760607Y-69070275D01*
X154802636Y-69127151D01*
X154850854Y-69175788D01*
X154905570Y-69215889D01*
X154966503Y-69246130D01*
X155031148Y-69265163D01*
X155095830Y-69271409D01*
X155159035Y-69264931D01*
X155214776Y-69246130D01*
X155263443Y-69215655D01*
X155301238Y-69175788D01*
X155329030Y-69127549D01*
X155347644Y-69070275D01*
X155353950Y-69008223D01*
X155345935Y-68936674D01*
X155325910Y-68871527D01*
X155293667Y-68810279D01*
X155251844Y-68754511D01*
X155203663Y-68706109D01*
X155148847Y-68666002D01*
X155087892Y-68635767D01*
X155023142Y-68616732D01*
X154958443Y-68610488D01*
X154895256Y-68616969D01*
X154839619Y-68635767D01*
X154790952Y-68666243D01*
X154753157Y-68706109D01*
X154725394Y-68754351D01*
X154706873Y-68811622D01*
X154700367Y-68872977D01*
X154175016Y-68872977D01*
X154168582Y-68827901D01*
X154168364Y-68724069D01*
X154182850Y-68629173D01*
X154212086Y-68538048D01*
X154253901Y-68457082D01*
X154308513Y-68384930D01*
X154374424Y-68322484D01*
X154452207Y-68269141D01*
X154543353Y-68224829D01*
X154639970Y-68193461D01*
X154747154Y-68173958D01*
X154866486Y-68167187D01*
X155046415Y-68182059D01*
G37*
G36*
X153707065Y-68221898D02*
G01*
X153210153Y-68221898D01*
X153248011Y-68404103D01*
X153158752Y-68324430D01*
X153079022Y-68269275D01*
X153007309Y-68234232D01*
X152889691Y-68201919D01*
X152754396Y-68190635D01*
X152614608Y-68203955D01*
X152511252Y-68239727D01*
X152425805Y-68299121D01*
X152360554Y-68378579D01*
X152326073Y-68455230D01*
X152312194Y-68541245D01*
X152315346Y-68633597D01*
X152332833Y-68745921D01*
X152522854Y-69660000D01*
X153019766Y-69660000D01*
X152868824Y-68933866D01*
X152851964Y-68831966D01*
X152848185Y-68761552D01*
X152857300Y-68700336D01*
X152879570Y-68656406D01*
X152908586Y-68627585D01*
X152943440Y-68608778D01*
X153027826Y-68594734D01*
X153108639Y-68603708D01*
X153177354Y-68629468D01*
X153236653Y-68671915D01*
X153284353Y-68727999D01*
X153322161Y-68800150D01*
X153349371Y-68891856D01*
X153509106Y-69660000D01*
X154006018Y-69660000D01*
X153707065Y-68221898D01*
G37*
G36*
X151386147Y-68643949D02*
G01*
X151597418Y-69660000D01*
X152094330Y-69660000D01*
X151883060Y-68643949D01*
X152043527Y-68643949D01*
X151955844Y-68221898D01*
X151795376Y-68221898D01*
X151705983Y-67792030D01*
X151209071Y-67792030D01*
X151298464Y-68221898D01*
X151015509Y-68221898D01*
X151103192Y-68643949D01*
X151386147Y-68643949D01*
G37*
G36*
X150805460Y-68221898D02*
G01*
X150308548Y-68221898D01*
X150357763Y-68458935D01*
X150243796Y-68342533D01*
X150122313Y-68259877D01*
X150033891Y-68221563D01*
X149940143Y-68198473D01*
X149839724Y-68190635D01*
X149797348Y-68190635D01*
X149745080Y-68196374D01*
X149846563Y-68684249D01*
X149939752Y-68646908D01*
X150049528Y-68633935D01*
X150160144Y-68646272D01*
X150252197Y-68681385D01*
X150329797Y-68738838D01*
X150391529Y-68814914D01*
X150441916Y-68915123D01*
X150479640Y-69044996D01*
X150607501Y-69660000D01*
X151104413Y-69660000D01*
X150805460Y-68221898D01*
G37*
G36*
X149005268Y-68221898D02*
G01*
X149304221Y-69660000D01*
X149801133Y-69660000D01*
X149502180Y-68221898D01*
X149005268Y-68221898D01*
G37*
G36*
X149418161Y-67670886D02*
G01*
X149400899Y-67614036D01*
X149373342Y-67560488D01*
X149337155Y-67511808D01*
X149294207Y-67469508D01*
X149245380Y-67434440D01*
X149192480Y-67407958D01*
X149136376Y-67391145D01*
X149079762Y-67385610D01*
X149024490Y-67391360D01*
X148976448Y-67407958D01*
X148934242Y-67434654D01*
X148900366Y-67469508D01*
X148875137Y-67511473D01*
X148859089Y-67560488D01*
X148853709Y-67613053D01*
X148860066Y-67670886D01*
X148877351Y-67727747D01*
X148905006Y-67781406D01*
X148941089Y-67829979D01*
X148984019Y-67872264D01*
X149032751Y-67907250D01*
X149085746Y-67933813D01*
X149141746Y-67950624D01*
X149198342Y-67956161D01*
X149253632Y-67950415D01*
X149301779Y-67933813D01*
X149343920Y-67907059D01*
X149377861Y-67872264D01*
X149403124Y-67830318D01*
X149419260Y-67781406D01*
X149424549Y-67728737D01*
X149418161Y-67670886D01*
G37*
G36*
X148947260Y-69660000D02*
G01*
X148450348Y-69660000D01*
X148417254Y-69500875D01*
X148350510Y-69590134D01*
X148266208Y-69653295D01*
X148160902Y-69692744D01*
X148028541Y-69706894D01*
X147880719Y-69691884D01*
X147735938Y-69646444D01*
X147600143Y-69575232D01*
X147476430Y-69481946D01*
X147368354Y-69369363D01*
X147276762Y-69237459D01*
X147206548Y-69092139D01*
X147160868Y-68936674D01*
X147153773Y-68878344D01*
X147674895Y-68878344D01*
X147682449Y-68945223D01*
X147701878Y-69008089D01*
X147734106Y-69069176D01*
X147775778Y-69124978D01*
X147823743Y-69173468D01*
X147877903Y-69213671D01*
X147937438Y-69243932D01*
X148000703Y-69262935D01*
X148065055Y-69269211D01*
X148127775Y-69262369D01*
X148183025Y-69242466D01*
X148231604Y-69211202D01*
X148270219Y-69172002D01*
X148298773Y-69124956D01*
X148316748Y-69069176D01*
X148322318Y-69008905D01*
X148314794Y-68942414D01*
X148294813Y-68876703D01*
X148262526Y-68814064D01*
X148220632Y-68757076D01*
X148172644Y-68708429D01*
X148118196Y-68668229D01*
X148058705Y-68638087D01*
X147995435Y-68618992D01*
X147931088Y-68612686D01*
X147866132Y-68619639D01*
X147811775Y-68639431D01*
X147764487Y-68670881D01*
X147726290Y-68711238D01*
X147698025Y-68759604D01*
X147680373Y-68816873D01*
X147674895Y-68878344D01*
X147153773Y-68878344D01*
X147141986Y-68781430D01*
X147151099Y-68640163D01*
X147186600Y-68508318D01*
X147244277Y-68398485D01*
X147325569Y-68307031D01*
X147431734Y-68235453D01*
X147511878Y-68202563D01*
X147602195Y-68182127D01*
X147704553Y-68175003D01*
X147831747Y-68186575D01*
X147952262Y-68221013D01*
X148068079Y-68279059D01*
X148180704Y-68362948D01*
X147966137Y-67330900D01*
X148463049Y-67330900D01*
X148947260Y-69660000D01*
G37*
G36*
X146189637Y-68221898D02*
G01*
X146358408Y-69033639D01*
X146367910Y-69138108D01*
X146351462Y-69209076D01*
X146314574Y-69257430D01*
X146254577Y-69288517D01*
X146161549Y-69300474D01*
X146066497Y-69289291D01*
X145991677Y-69258070D01*
X145932320Y-69207545D01*
X145886154Y-69134776D01*
X145853803Y-69033639D01*
X145685031Y-68221898D01*
X145188119Y-68221898D01*
X145377041Y-69130969D01*
X145418951Y-69272106D01*
X145479447Y-69389934D01*
X145558101Y-69488043D01*
X145656088Y-69568775D01*
X145766928Y-69629157D01*
X145899687Y-69674807D01*
X146058368Y-69704186D01*
X146247644Y-69714710D01*
X146439750Y-69703267D01*
X146586396Y-69672600D01*
X146696789Y-69626980D01*
X146778506Y-69568775D01*
X146841097Y-69491190D01*
X146879266Y-69396208D01*
X146892331Y-69278534D01*
X146875471Y-69130969D01*
X146686549Y-68221898D01*
X146189637Y-68221898D01*
G37*
G36*
X144351953Y-68643949D02*
G01*
X144563224Y-69660000D01*
X145060136Y-69660000D01*
X144848866Y-68643949D01*
X145009333Y-68643949D01*
X144921650Y-68221898D01*
X144761182Y-68221898D01*
X144671789Y-67792030D01*
X144174877Y-67792030D01*
X144264270Y-68221898D01*
X143981315Y-68221898D01*
X144068998Y-68643949D01*
X144351953Y-68643949D01*
G37*
G36*
X143125411Y-68182059D02*
G01*
X143295603Y-68226172D01*
X143454885Y-68296536D01*
X143595778Y-68387739D01*
X143718983Y-68499474D01*
X143821092Y-68629173D01*
X143898413Y-68773765D01*
X143946144Y-68928248D01*
X143963293Y-69046578D01*
X143964116Y-69153184D01*
X143950174Y-69249916D01*
X143921435Y-69343129D01*
X143880778Y-69425497D01*
X143828175Y-69498433D01*
X143764023Y-69561445D01*
X143687660Y-69614770D01*
X143597487Y-69658534D01*
X143501577Y-69689061D01*
X143394730Y-69708090D01*
X143275331Y-69714710D01*
X143095005Y-69700566D01*
X142923133Y-69658534D01*
X142761977Y-69590141D01*
X142620760Y-69499776D01*
X142497344Y-69387636D01*
X142393492Y-69255533D01*
X142337523Y-69158065D01*
X142294384Y-69053991D01*
X142263921Y-68942414D01*
X142254011Y-68872977D01*
X142779363Y-68872977D01*
X142786479Y-68939483D01*
X142807096Y-69007374D01*
X142839602Y-69070275D01*
X142881631Y-69127151D01*
X142929849Y-69175788D01*
X142984565Y-69215889D01*
X143045498Y-69246130D01*
X143110143Y-69265163D01*
X143174825Y-69271409D01*
X143238030Y-69264931D01*
X143293771Y-69246130D01*
X143342439Y-69215655D01*
X143380233Y-69175788D01*
X143408025Y-69127549D01*
X143426639Y-69070275D01*
X143432945Y-69008223D01*
X143424930Y-68936674D01*
X143404906Y-68871527D01*
X143372662Y-68810279D01*
X143330840Y-68754511D01*
X143282658Y-68706109D01*
X143227842Y-68666002D01*
X143166887Y-68635767D01*
X143102138Y-68616732D01*
X143037438Y-68610488D01*
X142974251Y-68616969D01*
X142918614Y-68635767D01*
X142869947Y-68666243D01*
X142832152Y-68706109D01*
X142804389Y-68754351D01*
X142785868Y-68811622D01*
X142779363Y-68872977D01*
X142254011Y-68872977D01*
X142247577Y-68827901D01*
X142247359Y-68724069D01*
X142261845Y-68629173D01*
X142291081Y-68538048D01*
X142332896Y-68457082D01*
X142387508Y-68384930D01*
X142453419Y-68322484D01*
X142531202Y-68269141D01*
X142622348Y-68224829D01*
X142718965Y-68193461D01*
X142826149Y-68173958D01*
X142945481Y-68167187D01*
X143125411Y-68182059D01*
G37*
G36*
X141786060Y-68221898D02*
G01*
X141289148Y-68221898D01*
X141338363Y-68458935D01*
X141224396Y-68342533D01*
X141102913Y-68259877D01*
X141014492Y-68221563D01*
X140920743Y-68198473D01*
X140820324Y-68190635D01*
X140777948Y-68190635D01*
X140725680Y-68196374D01*
X140827163Y-68684249D01*
X140920352Y-68646908D01*
X141030129Y-68633935D01*
X141140744Y-68646272D01*
X141232797Y-68681385D01*
X141310397Y-68738838D01*
X141372129Y-68814914D01*
X141422516Y-68915123D01*
X141460240Y-69044996D01*
X141588101Y-69660000D01*
X142085013Y-69660000D01*
X141786060Y-68221898D01*
G37*
G36*
X139632205Y-68591926D02*
G01*
X139715894Y-68550873D01*
X139800144Y-68526856D01*
X139886217Y-68518897D01*
X139951310Y-68526283D01*
X140003332Y-68546985D01*
X140042695Y-68580681D01*
X140061706Y-68622822D01*
X140063293Y-68663489D01*
X140039235Y-68692920D01*
X139975854Y-68718321D01*
X139862281Y-68746409D01*
X139735694Y-68785110D01*
X139646337Y-68835668D01*
X139585676Y-68896496D01*
X139546650Y-68972006D01*
X139531047Y-69062341D01*
X139541591Y-69172979D01*
X139579143Y-69293579D01*
X139638189Y-69400247D01*
X139716462Y-69493206D01*
X139810624Y-69570118D01*
X139918400Y-69630464D01*
X140043754Y-69676730D01*
X140177755Y-69705027D01*
X140322923Y-69714710D01*
X140462773Y-69704455D01*
X140596382Y-69673992D01*
X140725245Y-69623106D01*
X140850610Y-69550701D01*
X140595621Y-69192885D01*
X140470660Y-69276988D01*
X140349763Y-69324273D01*
X140229867Y-69339553D01*
X140164578Y-69331505D01*
X140110676Y-69308534D01*
X140069596Y-69272312D01*
X140050226Y-69229644D01*
X140047418Y-69183115D01*
X140069277Y-69149288D01*
X140128140Y-69121200D01*
X140233897Y-69094333D01*
X140378229Y-69052102D01*
X140471324Y-69003965D01*
X140527355Y-68952062D01*
X140562331Y-68885548D01*
X140576255Y-68800887D01*
X140565212Y-68691332D01*
X140529987Y-68575367D01*
X140475942Y-68472979D01*
X140403891Y-68383284D01*
X140315596Y-68308237D01*
X140213684Y-68248945D01*
X140095289Y-68203946D01*
X139968058Y-68176595D01*
X139828454Y-68167187D01*
X139675363Y-68177715D01*
X139531608Y-68208727D01*
X139395533Y-68260000D01*
X139632205Y-68591926D01*
G37*
G36*
X139136270Y-68448555D02*
G01*
X139116521Y-68383245D01*
X139084979Y-68320938D01*
X139043637Y-68264347D01*
X138994487Y-68215669D01*
X138938424Y-68175633D01*
X138877006Y-68145572D01*
X138811982Y-68126542D01*
X138746824Y-68120293D01*
X138683160Y-68126777D01*
X138627145Y-68145572D01*
X138577959Y-68175870D01*
X138538852Y-68215669D01*
X138510144Y-68263928D01*
X138492201Y-68320938D01*
X138486542Y-68382140D01*
X138494033Y-68448555D01*
X138513689Y-68513862D01*
X138545202Y-68576172D01*
X138586543Y-68632763D01*
X138635694Y-68681441D01*
X138691752Y-68721505D01*
X138753175Y-68751660D01*
X138818089Y-68770594D01*
X138883234Y-68776817D01*
X138946922Y-68770366D01*
X139003035Y-68751660D01*
X139052226Y-68721266D01*
X139091329Y-68681441D01*
X139120065Y-68633184D01*
X139138101Y-68576172D01*
X139143700Y-68514971D01*
X139136270Y-68448555D01*
G37*
G36*
X139332763Y-69394141D02*
G01*
X139313112Y-69328939D01*
X139281594Y-69266646D01*
X139240247Y-69210078D01*
X139191102Y-69161500D01*
X139135044Y-69121435D01*
X139073621Y-69091280D01*
X139008597Y-69072251D01*
X138943440Y-69066001D01*
X138879775Y-69072485D01*
X138823761Y-69091280D01*
X138774570Y-69121674D01*
X138735467Y-69161500D01*
X138706764Y-69209657D01*
X138688817Y-69266646D01*
X138683128Y-69327835D01*
X138690526Y-69394141D01*
X138710281Y-69459556D01*
X138741817Y-69521880D01*
X138783159Y-69578472D01*
X138832309Y-69627149D01*
X138888259Y-69667111D01*
X138949668Y-69697247D01*
X139014692Y-69716276D01*
X139079849Y-69722526D01*
X139143514Y-69716042D01*
X139199528Y-69697247D01*
X139248752Y-69666882D01*
X139287944Y-69627149D01*
X139316681Y-69578892D01*
X139334717Y-69521880D01*
X139340286Y-69460666D01*
X139332763Y-69394141D01*
G37*
D11*
%TO.C,J23*%
X128003701Y-67200000D02*
G75*
G02*
X127241701Y-67200000I-381000J0D01*
G01*
X127241701Y-67200000D02*
G75*
G02*
X128003701Y-67200000I381000J0D01*
G01*
%TD*%
M02*
